<svg width="320" height="360" viewBox="0 0 320 360" fill="none" xmlns="http://www.w3.org/2000/svg">
<path d="M112.165 305.151C111.797 305.88 112.316 311.049 112.773 312.081C115.036 307.408 118.601 302.313 120.101 300.35C118.515 299.641 117.173 298.405 116.683 297.735C114.041 300.896 112.719 303.367 112.165 305.151Z" fill="#FDFDFD"/>
<path d="M97.9336 59.3317C99.0372 49.7738 132.49 37.6436 157.285 46.8337C182.081 56.024 178.442 58.2296 185.059 63.7438C191.676 69.258 211.672 76.9775 225.128 83.5944C238.584 90.2115 234.686 87.2709 251.964 88.3737C256.53 88.6652 260.043 89.4961 262.87 90.7302C262.376 92.6774 261.705 94.6964 260.791 96.9655C262.337 97.8036 264.523 99.4181 265.589 100.938L265.786 101.241C265.956 101.437 266.124 101.639 266.289 101.846C266.537 102.158 266.778 102.481 267.014 102.816C267.719 103.82 268.367 104.924 268.944 106.099C269.201 106.622 269.443 107.158 269.671 107.706C270.696 110.17 271.419 112.864 271.74 115.552C271.794 116 271.836 116.449 271.867 116.895C271.96 118.235 271.947 119.564 271.819 120.851C271.791 121.137 271.757 121.422 271.717 121.704C271.657 122.126 271.583 122.544 271.496 122.955C271.438 123.229 271.374 123.5 271.304 123.768C270.987 124.974 270.543 126.117 269.962 127.166C267.472 133.607 261.842 139.358 255.58 142.198C255.256 142.346 254.924 142.478 254.587 142.59L254.575 149.813C241.353 155.627 226.031 162.244 215.774 166.64L211.672 166.875L202.775 171.558C201.731 175.17 199.439 180.353 198.424 182.493C196.792 186.899 180.308 188.749 176.282 187.389C174.281 186.713 171.658 186.192 169.591 185.811C167.937 185.506 167.379 180.969 167.307 178.739C164.435 179.261 159.429 179.185 157.285 179.082C136.306 184.367 102.604 168.357 88.375 159.691C80.6746 155.647 80.3199 149.962 81.1504 143.886C82.0501 143.922 82.9995 143.964 83.9541 143.902C85.5968 143.796 87.6139 143.939 89.2725 143.957C88.2281 139.932 88.9038 132.899 92.2734 130.088C90.1097 127.865 87.3353 124.554 84.6709 120.922C86.1277 119.133 87.8314 118.124 88.375 116.312C89.4778 112.636 94.2568 90.5793 94.2568 83.5944C94.2569 76.6096 96.8308 68.8897 97.9336 59.3317Z" fill="#FAC9B0"/>
<path d="M164.492 143.92C169.724 142.519 175.194 140.701 178.981 136.71C179.945 135.694 180.248 135.355 181.648 135.339C182.425 135.899 182.2 135.59 182.492 136.507C182.025 140.898 172.001 146.4 168.008 146.61C164.779 147.625 151.348 148.704 151.748 143.58L152.254 143.178C153.115 143.02 153.814 143.43 154.616 143.783L154.786 143.801C158.45 144.4 160.768 144.421 164.492 143.92Z" fill="#FAC9B0"/>
<path d="M182.247 264.374C183.43 262.765 184.85 260.202 186.072 258.895C189.391 263.403 206.468 287.29 210.883 288.441C212.232 289.783 212.906 290.198 214.675 290.911C215.661 293.788 217.258 295.134 220.411 295.106C223.519 298.971 222.574 297.801 226.713 298.281C228.846 298.53 228.022 301.448 232.247 300.353C233.04 300.997 234.147 301.837 234.804 302.571C236.524 303.648 238.233 304.756 240.021 305.713C240.79 306.042 241.901 306.481 242.591 306.896L242.899 311.404C242.895 312.411 243.009 313.542 242.513 314.377C242.203 314.624 242.046 314.805 241.654 314.852L240.826 315.41C240.644 317.534 242.096 327.246 242.337 329.905C243.234 339.802 244.463 349.932 244.814 359.875L188.33 359.859C187.384 356.648 183.507 339.724 182.072 338.416L181.635 338.307L181.223 338.621C180.333 345.431 180.384 353.177 179.325 359.877L121.515 359.859C120.835 356.474 120.785 351.48 120.702 347.957C120.59 340.738 120.617 333.519 120.783 326.302C119.113 323.475 118.035 321.545 116.841 318.489C114.236 316.546 113.616 315.277 112.517 312.351C114.795 307.093 115.944 304.566 120.088 300.335C120.872 300.353 130.166 302.014 130.771 302.258C131.2 302.626 131.737 303.121 132.187 303.438L132.82 302.628C134.045 302.784 136.799 303.077 137.844 303.389C140.714 301.941 159.983 306.019 164.496 303.355C167.473 301.596 168.157 300.47 169.253 297.298C171.983 287.967 173.057 278.48 175.422 269.852L177.087 270.265C179.669 269.87 180.277 268.213 181.255 266.031L182.247 264.374Z" fill="#312E42"/>
<path d="M186.073 258.895C189.393 263.404 206.469 287.29 210.884 288.442C212.233 289.783 212.907 290.197 214.676 290.911C215.662 293.787 217.259 295.134 220.412 295.106C223.52 298.971 222.576 297.801 226.714 298.281C228.847 298.53 228.023 301.449 232.248 300.354C233.041 300.997 234.147 301.838 234.805 302.572C236.525 303.648 238.234 304.756 240.022 305.713C240.791 306.043 241.902 306.481 242.592 306.896L242.899 311.405C242.896 312.411 243.009 313.542 242.514 314.377C242.204 314.624 242.046 314.805 241.655 314.852C239.056 314.816 231.617 316.424 228.693 316.997C217.674 319.158 206.693 321.695 195.674 323.908C194.974 323.26 193.743 323.241 193.57 323.104C193.387 322.956 193.207 322.747 193.03 322.494L192.898 322.295C193.116 322.638 193.34 322.919 193.569 323.104C193.58 323.112 193.595 323.121 193.613 323.128C193.855 323.23 194.732 323.284 195.389 323.693C195.439 323.724 195.489 323.758 195.536 323.793C195.584 323.829 195.63 323.867 195.674 323.908C194.592 324.11 193.347 324.263 192.246 324.424C191.441 322.613 190.853 320.623 190.317 318.662L189.793 316.719C189.068 314.784 187.845 309.642 187.329 307.549C184.101 294.441 180.941 277.914 182.247 264.373C183.43 262.765 184.851 260.202 186.073 258.895ZM190.083 316.183C190.697 316.733 191.648 320.175 192.769 322.082L192.514 321.618C191.504 319.663 190.651 316.691 190.084 316.183H190.083Z" fill="#E03D34"/>
<path d="M234.804 302.571C236.524 303.648 238.233 304.756 240.022 305.713C230.991 308.019 221.19 309.666 211.77 312.071L210.393 308.159C212.962 307.765 216.652 306.852 219.26 306.291C224.343 305.199 229.834 304.024 234.804 302.571Z" fill="#FDFDFD"/>
<path d="M177.087 270.265C177.814 272.172 172.347 293.768 170.659 299.905L170.375 300.916C168.455 307.036 164.562 319.187 161.843 325.031C148.711 321.005 136.049 312.393 125.537 303.741C120.985 307.648 118.305 312.719 116.841 318.488C114.236 316.546 113.616 315.277 112.517 312.351C114.795 307.093 115.945 304.566 120.089 300.335C120.875 300.354 130.165 302.014 130.771 302.258C131.199 302.626 131.737 303.121 132.187 303.438L132.82 302.628C134.045 302.784 136.799 303.077 137.844 303.389C140.714 301.941 159.984 306.019 164.497 303.355C167.474 301.596 168.157 300.47 169.253 297.298C171.983 287.967 173.057 278.48 175.423 269.853L177.087 270.265Z" fill="#E03D34"/>
<path d="M82.0449 311.002C84.0755 311.029 86.1072 311.04 88.1396 311.043C86.1072 311.04 84.0755 311.029 82.0449 311.002ZM155.935 184.274C156.706 186.285 158.537 190.181 159.931 191.76C167.627 205.631 175.897 219.122 183.854 232.772C184.946 234.583 185.963 236.113 187.162 237.854C188.075 239.779 191.735 244.912 193.067 246.783C194.748 249.663 211.644 275.82 213.275 276.327C213.336 276.345 213.399 276.356 213.461 276.372C211.268 279.938 208.483 284.298 210.884 288.441V288.442C206.469 287.29 189.392 263.404 186.072 258.895C184.85 260.202 183.43 262.765 182.247 264.374L181.255 266.031C180.277 268.212 179.669 269.871 177.087 270.265L175.423 269.852C173.057 278.48 171.984 287.967 169.254 297.297C168.158 300.47 167.474 301.596 164.497 303.355C159.984 306.019 140.717 301.942 137.845 303.388C136.8 303.077 134.045 302.784 132.82 302.628L132.188 303.438C131.738 303.122 131.2 302.626 130.771 302.257C130.204 302.029 122 300.555 120.331 300.357L120.089 300.335L119.529 300.07C118.31 299.461 117.643 298.901 116.665 297.744C114.918 299.866 112.801 302.81 112.087 305.498C112.111 306.346 112.123 307.033 112.15 307.678H112.149C112.14 307.463 112.134 307.243 112.127 307.014C112.114 306.557 112.102 306.063 112.086 305.498C109.562 304.81 107.052 299.759 106.053 297.456L106.562 297.095C105.631 295.609 105.473 292.898 105.388 291.144L104.95 291.204C103.709 289.743 99.2845 288.859 97.1562 285.269C93.4395 278.999 97.9795 269.383 99.6553 262.527C93.6936 253.759 99.2107 245.922 102.965 237.631C106.824 229.112 111.035 220.875 115.904 212.907L116.887 211.317C119.253 207.95 121.246 205.241 123.986 202.183C124.263 201.988 124.994 201.115 125.299 200.811C129.039 197.068 133.211 192.93 138.281 191.078C139.556 190.88 142.615 189.496 144.46 189.013C145.638 188.315 154.399 184.806 155.935 184.274Z" fill="#E03D34"/>
<path d="M132.821 302.628C134.046 302.784 136.8 303.077 137.845 303.388C140.19 304.384 145.043 307.173 147.469 308.478C146.964 309.521 146.454 311 146.033 312.113C141.371 309.345 136.637 306.533 132.188 303.438L132.821 302.628ZM132.82 302.628L132.188 303.438C131.738 303.121 131.201 302.626 130.771 302.257L132.82 302.628Z" fill="#FDFDFD"/>
<path d="M144.461 189.013C145.639 188.315 154.399 184.805 155.935 184.274C156.706 186.284 158.537 190.18 159.931 191.76C167.628 205.631 175.898 219.122 183.855 232.772C184.946 234.583 185.964 236.114 187.163 237.854C188.076 239.779 191.736 244.913 193.068 246.783C194.749 249.663 211.645 275.821 213.276 276.327C213.337 276.345 213.4 276.356 213.462 276.371C211.269 279.938 208.483 284.299 210.884 288.441C206.47 287.29 189.392 263.403 186.073 258.895C185.73 258.153 180.907 251.6 180.078 250.441C170.981 236.269 161.866 222.477 153.959 207.555C150.705 201.415 147.146 195.446 144.461 189.013Z" fill="#312E42"/>
<path d="M117.244 281.782C117.495 282.895 117.184 283.44 116.992 284.545C116.031 290.096 114.021 292.374 116.665 297.744C114.917 299.866 112.8 302.81 112.087 305.497C109.563 304.81 107.052 299.759 106.053 297.456L106.562 297.095C106.993 295.873 107.217 294.509 107.752 293.085C109.521 288.338 112.874 284.345 117.244 281.782Z" fill="#E03D34"/>
<path d="M118.64 277.946C118.405 278.88 117.963 281.3 117.243 281.782C112.873 284.345 109.52 288.338 107.751 293.085C107.216 294.509 106.992 295.873 106.562 297.095C105.631 295.609 105.473 292.898 105.388 291.144C107.355 284.524 112.313 280.216 118.64 277.946Z" fill="#FDFDFD"/>
<path d="M218.109 175.22C221.039 175.266 223.764 176.019 225.436 178.629C235.21 179.947 246.801 184.994 254.512 191.277C260.195 196.818 268.64 209.166 271.539 216.644C273.727 221.851 276.536 228.264 278.931 233.392C283.494 246.358 284.629 254.355 278.45 267.214C277.203 269.766 275.796 272.236 274.238 274.609C274.347 280.116 273.62 282.581 269.632 286.783C264.961 291.699 260.911 293.255 254.226 293.442L253.681 293.539C251.263 293.241 248.828 293.101 246.393 293.116L245.598 293.608C244.251 294.905 242.439 295.889 240.539 295.819L240.538 295.818V295.819L240.087 294.908C237.904 297.043 234.96 298.955 232.249 300.353C228.024 301.448 228.848 298.529 226.714 298.28C222.576 297.8 223.521 298.97 220.413 295.105C217.26 295.134 215.663 293.788 214.677 290.911C212.908 290.198 212.234 289.782 210.885 288.441C208.483 284.299 211.269 279.938 213.462 276.371C213.4 276.355 213.337 276.345 213.276 276.327C211.645 275.821 194.749 249.663 193.068 246.783C191.736 244.913 188.076 239.779 187.163 237.854C187.54 237.325 188.028 236.484 188.384 235.908C196.997 219.316 205.509 202.671 213.919 185.973L215.056 183.526C216.137 182.398 218.19 176.805 218.109 175.22Z" fill="#E03D34"/>
<path d="M216.97 273.333C220.365 272.018 224.925 271.645 228.304 273.214C235.173 276.405 244.119 287.022 240.088 294.908C237.905 297.043 234.96 298.955 232.249 300.353C228.024 301.448 228.848 298.53 226.714 298.281C222.576 297.801 223.521 298.971 220.413 295.106C217.259 295.134 215.663 293.788 214.676 290.911C212.908 290.198 212.234 289.783 210.885 288.441C208.483 284.299 211.269 279.938 213.462 276.371C214.844 274.861 215.324 274.516 216.97 273.333Z" fill="#FAC9B0"/>
<path d="M230.174 268.329C231.767 266.802 231.842 266.757 234.048 266.991C240.527 269.253 245.824 273.754 248.746 279.964C251.381 285.562 251.568 289.43 246.391 293.116L245.596 293.609C245.743 291.622 246.871 290.343 246.516 287.212C245.768 280.234 241.248 274.301 235.33 270.765C234.256 270.125 230.743 268.877 230.174 268.329Z" fill="#FDFDFD"/>
<path d="M77.98 201.851C77.93 201.82 77.8799 201.789 77.8296 201.758L77.5826 201.594C75.7945 200.44 75.2721 199.049 75.3084 196.912C75.5823 180.691 75.3387 164.507 75.4417 148.281C75.4791 142.392 79.6636 144.182 83.9518 143.902C85.5947 143.796 87.611 143.938 89.2697 143.956C89.3895 144.418 89.4692 144.864 89.6915 145.279C90.8604 146.351 91.0368 148.875 92.3789 150.493C95.6807 154.473 98.6172 158.551 103.882 160.06C106.078 160.712 106.996 159.913 109.755 160.776L109.806 161.625C110.115 162.11 110.763 163.243 111.146 163.529C115.392 170.094 120.707 171.876 127.179 175.083C129.364 177.957 131.431 181.166 133.473 184.165C135.002 186.408 136.843 188.818 138.281 191.078C133.21 192.93 129.039 197.068 125.299 200.811C124.994 201.114 124.263 201.989 123.986 202.183C122.984 201.641 82.2576 201.968 77.98 201.851Z" fill="#C58FC1"/>
<path d="M209.479 168.987C210.646 169.789 214.083 172.534 214.85 173.598L215.324 172.942L218.109 175.22C218.19 176.806 216.137 182.398 215.056 183.526L213.919 185.972C205.509 202.67 196.997 219.317 188.384 235.909L187.781 236.899C187.568 237.247 187.352 237.59 187.163 237.854L186.294 236.581C185.732 235.748 185.199 234.936 184.664 234.086L183.855 232.772C175.898 219.122 167.628 205.631 159.932 191.76C158.538 190.181 156.707 186.283 155.936 184.273C156.402 183.871 157.765 183.034 158.348 182.655C159.17 181.908 160.847 180.781 161.805 180.099L163.059 178.995C164.554 178.881 165.888 178.79 167.394 178.761C167.906 180.94 168.363 182.839 169.524 184.8C170.483 185.182 171.664 185.692 172.624 186.011C180.457 187.905 183.503 187.763 191.231 185.931C195.387 184.512 196.817 184.543 198.79 180.201C200.158 177.189 201.448 174.613 202.369 171.355L208.824 168.24L209.479 168.987Z" fill="#E03D34"/>
<path d="M161.804 180.1C162.389 183.814 166.468 192.097 168.735 195.35C166.132 194.502 163.475 193.812 161.574 191.75C159.983 188.411 159.278 186.271 158.348 182.655C159.17 181.908 160.847 180.782 161.804 180.1Z" fill="#FDFDFD"/>
<path d="M245.932 144.597C249.105 144.574 251.672 143.687 254.585 142.589L254.511 191.278C246.8 184.995 235.21 179.947 225.435 178.629C223.764 176.019 221.039 175.267 218.109 175.22L215.323 172.943L214.85 173.599C214.084 172.535 210.645 169.788 209.477 168.987L208.823 168.24L209.152 168.125L209.162 167.97C211.236 166.989 213.237 165.682 215.189 164.463C218.282 165.57 228.683 163.295 231.997 161.638C238.47 158.403 243.483 151.189 245.932 144.597Z" fill="#C58FC1"/>
<path d="M209.152 168.126C210.358 168.438 214.219 171.933 215.323 172.942L218.108 175.22C218.189 176.806 216.136 182.398 215.055 183.526L213.917 185.972L213.059 186.24C212.372 187.005 211.542 188.05 210.478 187.949C209.926 187.384 209.977 187.052 209.892 186.251C207.612 188.482 203.905 190.118 201.017 191.488C203.888 186.152 208.952 174.642 209.477 168.987C210.644 169.789 214.083 172.536 214.849 173.599L214.85 173.598C214.083 172.535 210.645 169.788 209.478 168.986L208.823 168.239L209.152 168.126Z" fill="#FDFDFD"/>
<path d="M109.756 160.776C107.889 158.398 106.884 151.969 107.316 148.916C108.439 140.983 115.482 136.556 123.185 137.526C132.758 138.731 141.517 145.375 140.023 156.104C139.454 160.273 137.194 164.027 133.773 166.478C132.993 167.044 131.084 168.208 130.127 168.325C127.305 170.058 120.201 169.817 117.227 168.338C115.429 168.053 112.657 164.815 111.147 163.529C110.764 163.243 110.116 162.11 109.807 161.625L109.756 160.776Z" fill="#F7A487"/>
<path d="M234.135 141.453C238.515 144.151 240.817 144.556 245.932 144.597C243.483 151.189 238.47 158.403 231.997 161.638C228.683 163.295 218.282 165.57 215.188 164.463C219.323 161.843 225.872 155.949 228.556 151.855C230.217 150.46 233.325 143.63 234.135 141.453Z" fill="#523041"/>
<path d="M127.18 175.083C138.473 178.548 151.257 179.241 163.058 178.995L161.804 180.1C160.846 180.782 159.169 181.908 158.347 182.655C157.764 183.034 156.4 183.872 155.934 184.274C154.399 184.805 145.638 188.315 144.46 189.013C142.616 189.495 139.555 190.881 138.281 191.078C136.843 188.818 135.003 186.409 133.473 184.165C131.431 181.166 129.365 177.957 127.18 175.083Z" fill="#28282C"/>
<path d="M107.777 92.3599C113.845 84.685 128.123 77.2421 136.13 85.9595C136.529 86.8571 137.056 87.7162 136.93 88.6371C135.97 89.8903 133.478 89.9194 132.045 89.71C120.874 88.0797 116.856 93.1916 107.883 98.222C107.897 96.2681 107.641 94.2901 107.777 92.3599Z" fill="#3E1B1A"/>
<path d="M228.502 144.558C223.32 152.281 211.547 154.826 203.656 149.762C200.305 147.643 197.944 144.27 197.101 140.396C193.979 125.657 213.884 114.1 224.903 121.554C231.961 125.701 233.9 135.838 229.77 142.82C229.398 143.451 229.055 144.071 228.502 144.558Z" fill="#F7A487"/>
<path d="M177.188 110.877C179.318 89.222 213.033 91.0111 215.487 111.198C215.523 111.492 215.291 111.879 215.086 112.11C214.092 112.413 214.506 112.364 213.366 112.128C213.115 111.823 211.784 110.035 211.705 109.976C210.006 108.928 208.251 106.598 206.793 105.968C205.178 106.558 206.445 110.095 205.9 111.202C205.622 115.83 205.06 119.452 201.318 122.793C198.867 124.963 195.641 126.046 192.377 125.794C191.255 125.712 189.77 125.323 188.684 124.978C184.308 125.648 179.318 116.297 179.308 112.346C179.308 112.059 180.121 108.706 180.284 108.454L180.708 108.438L181.801 105.256C180.627 106.675 178.337 109.699 177.188 110.877Z" fill="#3E1B1A"/>
<path d="M195.593 101.486C197.66 100.693 199.981 101.718 200.787 103.78C201.593 105.843 200.582 108.17 198.524 108.988C196.448 109.813 194.098 108.792 193.285 106.711C192.472 104.631 193.508 102.287 195.593 101.486Z" fill="#FDFDFD"/>
<path d="M122.867 117.159C120.92 119.441 118.455 122.496 117.434 125.364C116.677 127.492 116.283 129.69 115.366 131.853C114.865 132.364 114.781 132.387 114.071 132.503C111.597 131.251 111.493 124.282 112.278 121.952C115.798 111.512 125.234 106.672 135.702 109.101C138.533 107.956 144.344 112.882 145.147 115.663C146.106 118.983 148.042 124.171 146.891 127.582L146.668 127.679C146.191 128.706 145.74 130.722 145.212 131.79C144.155 133.928 141.591 136.272 139.54 137.323C137.053 138.624 134.143 138.856 131.482 137.964C122.833 135.115 120.145 125.206 122.867 117.159Z" fill="#3E1B1A"/>
<path d="M136.216 114.431C138.331 113.915 140.467 115.2 141.002 117.31C141.538 119.42 140.274 121.568 138.169 122.123C136.035 122.686 133.852 121.401 133.31 119.262C132.767 117.124 134.073 114.953 136.216 114.431Z" fill="#FDFDFD"/>
<path d="M156.852 127.453C158.125 125.993 159.377 124.907 161.417 124.82C163.77 124.732 168.304 125.273 168.225 128.49C168.123 132.645 162.108 134.704 158.692 134.692C157.141 134.687 156.45 134.157 155.556 132.997C155.3 132.424 155.158 131.807 155.138 131.18C155.085 129.628 155.879 128.541 156.852 127.453Z" fill="#F7A487"/>
<path d="M156.852 127.453C159.711 128.941 157.718 132.159 155.556 132.997C155.3 132.424 155.158 131.807 155.138 131.18C155.085 129.628 155.879 128.541 156.852 127.453Z" fill="#F06E50"/>
<path d="M60.5132 25.1991C62.8371 27.5055 65.0294 29.9408 67.0795 32.4934C68.2914 29.74 70.4129 27.3003 73.7047 28.8697C74.8077 29.401 75.6526 30.3512 76.0518 31.5087C77.551 35.7946 73.0407 37.1931 70.6064 38.8437C72.4365 41.1003 74.1366 43.2093 76.2503 45.2249C76.2804 44.3966 76.2698 42.8705 76.5224 42.1576C77.1777 40.8938 77.7842 39.9576 79.194 39.48C82.6992 38.2932 86.3781 42.0806 84.4273 45.4687C83.1842 47.6275 81.184 48.4644 79.0218 49.4172L79.5863 50.0768C80.3105 50.8641 80.8203 51.6758 81.7277 51.9674C82.4107 51.5874 82.4691 51.3259 82.8431 50.6172L83.0164 52.0831C82.674 52.4195 82.3591 52.721 82.0019 53.0419C75.9011 63.9785 73.1346 73.0669 73.1278 85.5169C72.2959 85.7864 70.9864 85.8876 70.6056 86.0201C68.7166 85.0951 64.8361 80.9843 63.4138 79.2115C62.276 82.0294 60.238 84.4658 56.9425 82.8966C55.6367 82.2631 54.641 81.1303 54.1803 79.7539C52.9941 76.1541 55.8176 74.4892 58.7406 73.5701C58.0569 72.9631 55.837 70.2103 55.0687 69.3213C52.4314 76.6477 43.6409 72.1499 46.5731 65.6369C47.6947 64.2034 49.1693 63.6919 50.8211 63.0387C49.5076 61.7032 47.997 59.7416 46.7849 58.2487C45.4416 60.7753 43.6104 62.8371 40.5438 61.7157L40.2019 61.4848C35.1855 58.9958 36.6591 53.6673 42.1128 52.0987C40.3568 50.0011 38.3412 47.7175 36.8818 45.4337C38.5687 42.1055 43.9503 34.6112 46.1754 31.2054C47.8185 28.6905 53.2 28.5263 56.1367 28.326C57.6039 27.2956 59.0628 26.2531 60.5132 25.1991Z" fill="#28282C"/>
<path d="M58.7401 73.5702C59.5143 74.612 60.088 75.164 61.4078 75.4862L60.3077 76.5871L61.3727 77.3949C62.0815 76.6994 62.7287 75.9866 63.5889 75.4958L63.5925 75.9679C63.2016 76.3153 62.8055 76.6569 62.4047 76.9928C62.3297 78.2227 62.4527 78.3181 63.4133 79.2115C62.2755 82.0295 60.2375 84.4658 56.942 82.8967C55.6362 82.2632 54.6405 81.1304 54.1798 79.754C52.9936 76.1542 55.8171 74.4893 58.7401 73.5702Z" fill="#28282C"/>
<path d="M61.372 77.3949C61.8742 80.1851 60.1381 81.8798 57.5035 80.4606C54.0935 78.624 56.856 74.0823 60.3069 76.5871L61.372 77.3949Z" fill="#F5BB55"/>
<path d="M67.0781 32.4934C68.2901 29.74 70.4115 27.3003 73.7034 28.8697C74.8064 29.4009 75.6513 30.3512 76.0505 31.5086C77.5496 35.7946 73.0393 37.1931 70.605 38.8437L70.4146 38.4556C69.5643 37.9912 68.9295 38.1469 67.958 38.2385C69.0514 37.2994 69.5422 36.8491 70.4766 35.7632C70.5205 35.2324 70.4491 35.0804 70.3142 34.5793L70.0691 34.8605L68.2794 36.3033C68.6745 35.5139 68.8366 35.2802 68.8654 34.3678C68.5697 33.5328 67.786 33.0477 67.0781 32.4934Z" fill="#28282C"/>
<path d="M70.0697 34.8605L69.9389 34.6817C67.0053 30.6207 72.5203 28.6484 74.166 32.1107C75.3717 34.647 72.5392 35.5404 70.4772 35.7632C70.521 35.2325 70.4497 35.0804 70.3148 34.5793L70.0697 34.8605Z" fill="#F5BB55"/>
<path d="M76.5225 42.1577C77.1777 40.8939 77.7842 39.9576 79.1941 39.4801C82.6992 38.2933 86.3781 42.0806 84.4274 45.4688C83.1843 47.6276 81.184 48.4644 79.0218 49.4172C78.867 49.0455 78.8657 49.0605 78.6006 48.7542C77.8748 48.9464 77.5692 48.9581 76.8161 49.0037C77.6281 48.1409 78.6589 47.1884 79.5204 46.3489L78.7515 45.8644C78.6159 45.4348 77.7985 44.1808 77.5139 43.7211C77.1277 43.3471 77.253 43.4117 77.1837 42.7115C78.1419 40.8477 79.6597 40.9475 81.5923 40.0959C78.3152 39.4674 78.7165 40.9398 76.5225 42.1577Z" fill="#28282C"/>
<path d="M77.5127 43.7211C77.9929 42.713 78.446 41.6811 79.5594 41.2341C80.0858 41.0232 80.6746 41.0313 81.195 41.2564C83.7073 42.3675 83.7631 46.9009 79.5192 46.3489L78.7503 45.8643C78.6147 45.4347 77.7973 44.1807 77.5127 43.7211Z" fill="#F5BB55"/>
<path d="M42.113 52.0987C42.1885 52.9293 43.7732 54.6002 44.4301 55.1299L44.3731 55.3475C44.4593 55.5893 44.6379 56.166 44.7684 56.3434L45.1337 57.8267C44.9832 60.4057 42.7383 61.164 40.5439 61.7157L40.202 61.4848C35.1856 58.9958 36.6592 53.6673 42.113 52.0987Z" fill="#F5BB55"/>
<path d="M42.113 52.0987C42.1885 52.9293 43.7732 54.6002 44.4301 55.1299L44.3731 55.3475C43.9633 55.1843 43.5514 55.0266 43.1373 54.8749C40.2691 53.8199 39.1927 55.6295 39.5305 58.3162C39.7969 59.7289 40.4053 60.5393 40.202 61.4848C35.1856 58.9958 36.6592 53.6673 42.113 52.0987Z" fill="#28282C"/>
<path d="M45.1325 57.8267C44.982 60.4058 42.7371 61.164 40.5427 61.7158L40.2008 61.4849C40.4041 60.5393 39.7958 59.729 39.5293 58.3162C42.2007 60.4942 42.898 60.7762 45.1325 57.8267Z" fill="#28282C"/>
<path d="M46.5737 65.637C47.2421 65.4005 49.7706 64.9014 50.3045 65.1128C50.8762 65.4798 52.1403 66.2482 52.5668 66.6669L53.3701 67.4812L53.8001 68.593C53.9909 70.2768 51.155 73.2125 49.6544 71.8532C49.0285 71.2862 48.2947 70.5214 47.687 69.9095L47.5903 70.2384C51.6619 76.5267 52.9651 69.7933 55.0693 69.3214C52.4321 76.6479 43.6415 72.15 46.5737 65.637Z" fill="#28282C"/>
<path d="M50.3034 65.1127C50.875 65.4797 52.1391 66.2481 52.5656 66.6668L53.3689 67.4811L53.7989 68.5929C52.9722 69.666 51.7327 71.3719 50.3321 70.8943C46.5672 69.6103 47.8419 66.687 50.3034 65.1127Z" fill="#F5BB55"/>
<path d="M48.7814 52.2149C48.2168 51.0242 48.6484 49.5993 49.7788 48.922C50.9093 48.2447 52.3693 48.5362 53.1529 49.5959C53.9366 50.6553 53.7878 52.1368 52.8092 53.0193C51.8305 53.9018 50.3417 53.8974 49.3685 53.0087C49.1232 52.7848 48.9238 52.515 48.7814 52.2149Z" fill="#F5BB55"/>
<path d="M57.0368 61.5431C56.9331 60.405 57.6104 59.3407 58.685 58.9524C59.7597 58.5643 60.9609 58.9503 61.6084 59.8917C62.2559 60.8333 62.1864 62.093 61.4391 62.9576C60.692 63.822 59.4556 64.0736 58.4301 63.5693C57.6443 63.183 57.1163 62.4152 57.0368 61.5431Z" fill="#F5BB55"/>
<path d="M66.7494 41.6592C63.497 47.0089 58.8413 39.3209 64.2999 38.9318C65.7385 39.7549 66.1162 40.0511 66.7494 41.6592Z" fill="#F5BB55"/>
<path d="M46.2559 53.7027C46.6393 52.7698 46.897 52.5963 47.7238 52.1296L47.933 52.0131C47.9445 51.802 47.9574 51.5906 47.9718 51.3794C48.18 48.35 48.7172 47.88 51.9064 48.1957C54.1725 48.4203 54.948 49.997 54.5552 52.1281L54.5094 52.3675L54.646 52.2222C54.059 54.6718 50.7296 55.9839 49.3681 53.0087C50.3413 53.8975 51.8301 53.9019 52.8088 53.0194C53.7874 52.1369 53.9362 50.6554 53.1525 49.596C52.3689 48.5363 50.9089 48.2447 49.7785 48.922C48.648 49.5994 48.2164 51.0243 48.7811 52.215L48.3175 52.562L46.2559 53.7027Z" fill="#28282C"/>
<path d="M50.8203 63.0388C51.1847 63.8082 52.6947 65.4269 53.3578 65.9891L52.5654 66.6669C52.1389 66.2482 50.8748 65.4798 50.3031 65.1128C49.7692 64.9014 47.2407 65.4005 46.5723 65.637C47.6939 64.2036 49.1685 63.692 50.8203 63.0388Z" fill="#28282C"/>
<path d="M56.5728 63.5234L57.0904 63.9649C56.852 64.9672 55.4428 65.9496 54.6135 66.6542C54.2303 66.9053 53.7282 67.2127 53.3697 67.4812L52.5664 66.6669L53.3588 65.9891C54.4178 65.1512 55.4893 64.3294 56.5728 63.5234Z" fill="#F5BB55"/>
<path d="M61.4077 75.4861C62.3323 74.7476 63.1951 73.9395 64.331 73.6316L64.6291 73.828C64.4911 74.6205 64.1245 74.9128 63.5889 75.4957C62.7287 75.9865 62.0814 76.6994 61.3727 77.3948L60.3076 76.587L61.4077 75.4861Z" fill="#F5BB55"/>
<path d="M70.0701 34.8606L70.3152 34.5793C70.4501 35.0805 70.5214 35.2325 70.4776 35.7633C69.5432 36.8492 69.0524 37.2995 67.959 38.2386L67.7439 38.6461C67.1183 39.0087 66.9841 39.1605 66.2972 39.1333L65.9551 38.5512C66.8513 37.7545 67.4698 37.1828 68.2804 36.3034L70.0701 34.8606Z" fill="#F5BB55"/>
<path d="M78.7504 45.8644L79.5193 46.349C78.6578 47.1884 77.6269 48.141 76.8149 49.0037C76.0427 49.4204 75.9809 49.6289 75.2367 49.5205L75.2012 49.0888C76.3249 47.4608 77.0827 46.9495 78.7504 45.8644Z" fill="#F5BB55"/>
<path d="M48.3172 52.562C48.2474 54.548 46.3588 55.2656 44.7673 56.3434C44.6369 56.166 44.4583 55.5893 44.3721 55.3475L44.4291 55.1299C45.1649 54.6959 45.7677 54.4144 46.2556 53.7026L48.3172 52.562Z" fill="#F5BB55"/>
<path d="M57.0365 61.543C57.1161 62.4151 57.644 63.183 58.4299 63.5692C57.3564 65.0115 56.5457 66.437 54.6123 66.6541C55.4416 65.9495 56.8508 64.9672 57.0892 63.9648L56.5717 63.5233C57.109 62.7204 56.9469 62.6436 57.0365 61.543Z" fill="#28282C"/>
<path d="M64.2998 38.9317C65.1278 38.9592 65.2233 38.9392 65.9548 38.5511L66.297 39.1332C66.9839 39.1605 67.118 39.0087 67.7437 38.6461C66.0505 41.3144 67.1465 39.7141 66.7494 41.6591C66.1162 40.051 65.7385 39.7548 64.2998 38.9317Z" fill="#28282C"/>
<path d="M65.7501 68.4402C67.0889 67.8366 68.6632 68.4335 69.2656 69.7725C69.8679 71.1119 69.2697 72.6857 67.9299 73.2867C66.5919 73.887 65.0206 73.2898 64.4191 71.9523C63.8175 70.6148 64.4131 69.0431 65.7501 68.4402Z" fill="#F5BB55"/>
<path d="M71.135 49.2154C74.2038 49.2753 76.2142 51.6569 73.4541 54.2928C70.2416 54.2668 68.5982 51.928 71.135 49.2154Z" fill="#F5BB55"/>
<path d="M71.1263 49.9908C73.619 49.8053 74.9949 51.1843 73.4221 53.4466L72.3531 53.3377C70.8672 52.3278 69.9712 51.7047 71.1263 49.9908Z" fill="#F5BB55"/>
<path d="M246.392 293.116C248.828 293.1 251.263 293.241 253.681 293.539L254.225 293.443C254.276 295.936 254.264 298.784 254.366 301.241C254.918 314.592 253.056 310.649 242.9 311.404L242.592 306.896C241.902 306.481 240.791 306.042 240.022 305.713C238.234 304.756 236.525 303.648 234.805 302.571C234.148 301.837 233.041 300.997 232.248 300.354C234.96 298.955 237.904 297.043 240.087 294.909L240.539 295.819C242.439 295.889 244.25 294.906 245.597 293.609L246.392 293.116Z" fill="#312E42"/>
<path d="M253.68 293.539L254.225 293.443C254.275 295.936 254.264 298.784 254.366 301.241C254.918 314.592 253.056 310.649 242.899 311.404L242.592 306.896C242.898 306.81 243.199 306.709 243.494 306.595C247.944 304.833 251.884 297.741 253.68 293.539Z" fill="#C58FC1"/>
<path d="M112.528 311.111C101.704 310.875 90.84 311.171 80.015 310.971C78.1763 310.937 75.6738 310.162 75.5296 307.905C75.2556 303.619 75.362 299.279 75.3742 294.981L75.4128 272.955L75.3744 233.95C75.3682 227.444 75.3547 220.941 75.3584 214.427C75.2549 211.683 77.5184 211.28 79.8365 211.257C89.7518 211.151 99.6926 211.223 109.611 211.182C111.972 211.172 114.561 211.078 116.887 211.317C111.597 219.779 107.081 228.544 102.965 237.631C99.2106 245.922 93.6933 253.759 99.655 262.527C97.9792 269.383 93.439 278.999 97.1558 285.269C99.284 288.859 103.709 289.744 104.95 291.204L105.388 291.144C105.473 292.898 105.631 295.609 106.562 297.095L106.052 297.456C107.051 299.759 109.562 304.81 112.086 305.497C112.15 307.759 112.132 308.875 112.528 311.111Z" fill="#C58FC1"/>
<path d="M130.699 264.63C134.435 264.187 143.392 263.691 147.071 263.437C150.968 263.167 168.376 261.422 171.327 262.13C170.834 263.886 170.7 264.988 171.258 266.771C172.481 268.423 173.461 269.121 175.423 269.852C173.057 278.48 171.983 287.967 169.254 297.298C168.158 300.47 167.474 301.596 164.497 303.355C159.984 306.019 140.715 301.941 137.844 303.389C136.8 303.077 134.046 302.784 132.821 302.629L132.187 303.438C131.738 303.121 131.2 302.626 130.771 302.258C130.166 302.014 120.872 300.354 120.089 300.335C118.494 299.609 117.782 299.067 116.665 297.744C114.021 292.374 116.031 290.097 116.992 284.545C117.184 283.44 117.495 282.895 117.244 281.783C117.963 281.3 118.406 278.88 118.641 277.946C119.308 277.367 118.768 275.832 118.755 274.95C118.716 272.216 119.09 268.887 121.064 266.807C123.333 264.42 127.626 264.68 130.699 264.63Z" fill="#4B679E"/>
<path d="M135.121 269.11C138.212 268.856 143.772 269.147 146.494 270.573C148.977 271.86 150.829 274.101 151.625 276.784C153.132 281.967 150.261 287.847 146.199 291.059C143.951 292.836 141.749 293.648 139.063 294.392C115.839 298.439 118.891 273.201 135.121 269.11Z" fill="#312E42"/>
<path d="M139.747 284.856C142.263 280.958 144.132 278.086 147.121 274.527C148.61 278.05 149.291 284.535 146.083 287.279C142.652 291.827 133.568 293.163 128.666 290.636C126.176 289.352 125.53 287.443 124.805 284.994C128.76 286.761 140.578 289.43 144.21 286.903C144.223 286.39 144.346 286.021 144.071 285.718C143.367 284.934 140.825 284.929 139.747 284.856Z" fill="#4B679E"/>
<path d="M129.299 274.937C130.05 275.603 131.022 282.457 131.462 284.169L128.928 283.435C127.643 283.059 126.666 282.641 125.441 282.127C126.493 279.105 127.376 277.437 129.299 274.937Z" fill="#4B679E"/>
<path d="M132.813 272.286C133.861 271.987 135.414 271.411 136.372 271.813C136.272 272.698 135.839 272.939 135.188 273.741C135.101 275.287 135.244 276.368 135.405 277.888L135.404 277.889C135.953 278.87 135.767 278.869 136.626 279.385C137.36 279.326 137.411 279.333 138.066 279.025L138.351 278.65C139.736 276.767 140.633 274.739 141.902 272.781C142.225 272.286 143.574 272.389 144.084 272.591C144.082 273.235 139.775 278.856 139.031 279.994L139.032 279.995C137.964 281.751 136.531 284.259 135.365 285.876C134.88 284.003 134.728 283.29 134.559 281.344V281.341C134.033 278.312 133.451 275.294 132.813 272.286Z" fill="#4B679E"/>
<path d="M180.077 250.441C180.906 251.6 185.729 258.153 186.073 258.895C184.85 260.202 183.43 262.765 182.247 264.374L181.255 266.031C180.278 268.213 179.669 269.87 177.087 270.265L175.423 269.852C173.461 269.121 172.481 268.423 171.258 266.771C170.7 264.988 170.834 263.886 171.327 262.13C172.39 260.926 172.464 260.514 174.066 260.796C174.793 260.355 179.41 251.774 180.077 250.441Z" fill="#4B679E"/>
<path d="M171.327 262.13C172.39 260.926 172.464 260.514 174.066 260.796C172.277 264.965 173.949 268.407 178.96 267.487C179.519 267.385 180.613 266.288 181.255 266.031C180.278 268.213 179.669 269.87 177.087 270.265L175.423 269.852C173.461 269.121 172.481 268.423 171.258 266.771C170.7 264.988 170.834 263.886 171.327 262.13Z" fill="#F5BB55"/>
<path d="M218.11 175.22C221.04 175.267 223.765 176.019 225.436 178.629C224.607 182.979 219.499 193.547 217.441 197.895C212.169 208.977 206.773 219.997 201.253 230.957C199.443 234.581 197.608 238.189 195.746 241.787C195.133 242.972 193.712 245.883 193.068 246.783C191.736 244.913 188.076 239.779 187.163 237.854C187.54 237.325 188.028 236.485 188.384 235.909C196.997 219.317 205.508 202.671 213.919 185.973L215.056 183.526C216.137 182.398 218.19 176.805 218.11 175.22Z" fill="#4B679E"/>
<path d="M163.198 4.20287C181.526 3.75565 199.781 4.01272 218.108 3.93022L239.781 3.84747C243.537 3.8358 247.306 3.77095 251.058 3.89132C251.987 3.90143 252.832 4.18289 253.522 4.81299C254.759 5.94298 254.639 9.41385 254.598 11.0663C254.315 22.3396 254.961 33.9681 254.522 45.1971C236.345 18.7749 214.85 14.5701 185.136 9.14381C178.556 7.94223 170.345 5.61353 163.198 4.20287Z" fill="#C58FC1"/>
<path d="M90.5799 40.168C90.4401 30.0088 90.4142 19.8483 90.5021 9.68862C90.5099 7.08701 90.2764 4.17438 93.8049 4.13754C99.2708 4.08021 104.741 4.15206 110.212 4.13494C122.618 4.07424 135.024 4.09344 147.431 4.19227C133.809 7.75576 122.217 16.4192 117.633 30.1549C105.075 26.608 99.0117 31.5007 90.5799 40.168Z" fill="#C58FC1"/>
<path d="M147.431 4.19226C153.239 3.40759 157.361 3.49876 163.198 4.203C168.926 4.06324 174.647 3.99192 180.364 3.95789L180.363 3.95886C179.22 3.96567 178.076 3.97326 176.933 3.98328C172.358 4.02343 167.78 4.0912 163.198 4.203C170.345 5.61365 178.556 7.94185 185.136 9.14343C214.386 14.4849 235.671 18.6436 253.667 43.9755L254.521 45.1971C260.852 56.0416 264.413 65.2499 264.227 77.9921C264.118 85.4085 263.591 90.0089 260.789 96.9657C252.723 93.3689 248.239 92.7894 240.116 96.9188C238.51 104.768 234.07 116.256 225.303 118.295C225.788 104.103 222.27 102.597 217.095 90.5995C206.459 87.62 196.328 85.1576 188.006 77.455L184.646 78.037L183.985 78.2206C183.813 79.3697 185.416 81.2084 186.212 82.036C188.254 85.5768 193.252 87.9289 197.097 88.9725C198.22 89.269 199.348 89.5514 200.479 89.8173C191.561 93.4667 184.425 94.7443 175.223 90.9882C158.525 84.1731 156.599 65.3315 150.939 50.6356C132.268 50.5009 117.134 59.9701 102.784 70.6307C103.733 74.2385 104.66 77.8524 105.563 81.4716C105.962 83.1107 106.592 86.233 107.093 87.7303C107.345 89.2768 107.608 90.8013 107.777 92.3602C107.641 94.2904 107.897 96.2687 107.883 98.2225C108.672 106.546 102.077 111.423 101.868 114.46C101.852 114.591 101.845 114.736 101.843 114.893C101.844 114.804 101.847 114.719 101.853 114.638C101.857 114.576 101.862 114.516 101.869 114.46C103.368 119.298 104.339 126.725 105.456 131.779C105.873 133.669 106.076 135.982 106.587 137.838C105.575 136.994 103.618 135.454 102.798 134.536L102.604 134.4C100.567 132.913 97.3426 128.664 96.0098 126.618C94.5802 127.81 93.5862 128.776 92.2705 130.088C86.9698 124.642 78.0037 112.667 75.9697 105.432C74.846 101.435 73.7065 92.9526 73.126 88.5624L70.6045 86.0204C70.9852 85.8878 72.295 85.7869 73.127 85.5175C73.1337 73.0675 75.9003 63.9785 82.001 53.0419C82.3581 52.721 82.6733 52.4193 83.0156 52.0829L82.8428 50.6171C85.327 46.95 87.7107 43.5662 90.5801 40.1678C99.0117 31.5007 105.075 26.6073 117.633 30.1542C122.217 16.419 133.81 7.75568 147.431 4.19226C141.228 4.14284 135.024 4.11401 128.821 4.10437H119.517C128.821 4.08887 138.126 4.11814 147.431 4.19226ZM254.664 32.4364C254.675 33.8642 254.682 35.2901 254.679 36.7128C254.682 35.2901 254.675 33.8642 254.664 32.4364ZM254.555 13.1844H254.556H254.555ZM254.62 9.55066C254.62 9.40687 254.618 9.26005 254.615 9.11121C254.618 9.26006 254.621 9.40687 254.621 9.55066H254.62ZM254.486 7.29187C254.507 7.44092 254.525 7.5919 254.54 7.74402L254.577 8.20203C254.557 7.8959 254.527 7.58983 254.486 7.29187ZM254.218 6.03503V6.03406V6.03503ZM253.926 5.33875C253.954 5.39003 253.981 5.44325 254.008 5.49792C253.981 5.44283 253.954 5.38942 253.925 5.33777L253.926 5.33875ZM91.1436 5.32507C91.1269 5.35041 91.1095 5.37528 91.0938 5.40125C91.1095 5.37528 91.1269 5.35041 91.1436 5.32507ZM253.578 4.86902C253.634 4.92548 253.689 4.98556 253.739 5.05164L253.836 5.18933C253.758 5.06951 253.671 4.96301 253.578 4.86902ZM91.4043 4.99304C91.3654 5.03438 91.3286 5.0772 91.293 5.12097C91.3286 5.07719 91.3654 5.03438 91.4043 4.99304ZM253.028 4.4364C253.165 4.52225 253.297 4.61953 253.424 4.72742C253.297 4.61951 253.165 4.52223 253.028 4.4364ZM92.4111 4.35339C92.2106 4.42355 92.0318 4.51095 91.8711 4.61121C91.9705 4.54918 92.0762 4.49108 92.1904 4.44031L92.4111 4.35339ZM245.421 3.82019C247.302 3.81759 249.182 3.8313 251.058 3.89148C251.58 3.89717 252.076 3.98854 252.533 4.17957C252.432 4.13713 252.328 4.10001 252.223 4.06726C251.959 3.98529 251.685 3.93278 251.401 3.90808C251.288 3.89823 251.174 3.89275 251.058 3.89148C249.182 3.83131 247.302 3.81759 245.421 3.82019ZM102.007 4.12097C99.9557 4.11454 97.9048 4.11126 95.8545 4.12195C96.538 4.11838 97.2216 4.11592 97.9053 4.11511L102.007 4.12097Z" fill="#523041"/>
<circle cx="168.131" cy="252.45" r="2.86719" fill="#F5BB55"/>
<circle cx="188.053" cy="281.211" r="2.86719" fill="#F5BB55"/>
<circle cx="158.728" cy="315.806" r="2.86719" fill="#F5BB55"/>
<ellipse cx="190.442" cy="226.966" rx="2.63818" ry="2.51321" fill="#F5BB55"/>
<ellipse cx="173.804" cy="202.09" rx="2.39258" ry="2.50888" fill="#F5BB55"/>
</svg>
