<svg width="320" height="320" viewBox="0 0 320 320" fill="none" xmlns="http://www.w3.org/2000/svg">
<path fill-rule="evenodd" clip-rule="evenodd" d="M155.238 11.9603C169.012 0.34041 186.641 2.5323 201.664 10.6732C209.078 14.6913 215.181 20.1267 220.575 26.5961C222.399 28.7864 224.096 31.0808 225.658 33.4662C228.417 37.6432 232.32 44.9737 236.966 47.2865V47.2875C237.766 47.949 238.296 48.1609 239.237 48.6088L240.07 48.9555L240.075 49.223C239.452 49.6643 238.413 49.8587 237.646 50.0531H237.645C236.161 50.584 234.562 50.5754 232.999 50.5795C238.097 57.6332 242.305 73.5717 240.788 82.3353C240.487 84.0694 239.931 86.0634 239.408 87.7689C239.322 83.0662 238.73 79.2047 237.006 74.7826C237.407 82.2534 236.295 90.285 231.553 96.6908C230.536 98.0653 229.195 98.2229 228.074 101.085C238.845 107.471 232.702 127.913 222.606 131.545C220.398 132.34 218.962 133.029 218.571 135.6C217.91 139.945 213.357 141.689 209.646 139.777C208.291 139.078 207.233 137.035 206.435 135.623C201.361 141.048 196.933 144.092 190.001 146.915C188.399 147.568 185.691 148.16 184.406 148.912C167.284 153.907 149.148 152.094 142.167 150.546C142.055 150.546 141.942 150.547 141.831 150.547C139.853 149.856 135.443 149.447 133.357 148.98C126.869 147.527 120.59 145.198 114.987 141.558C113.641 140.684 111.732 138.672 110.487 137.583C109.895 137.066 109.998 137.12 109.372 137.167L109.195 136.997C108.853 135.879 108.7 135.451 107.524 135.235C105.251 135.679 104.18 135.605 103.124 133.37C102.895 132.855 102.851 132.455 103.065 131.946C104.298 131.088 105.778 132.22 106.449 130.804L106.792 131.236L106.975 131.117C106.037 129.332 107.777 115.566 108.061 112.994C107.539 112.694 106.708 112.006 106.206 111.613L105.938 111.758C104.148 111.435 103.312 106.066 100.265 106.84C100.667 105.334 96.994 100.478 99.0552 98.2308L98.8364 97.9945C97.7937 98.1761 97.0285 98.355 96.0054 98.6283C95.3428 99.0453 94.659 99.414 94.1333 99.9828C93.637 99.7897 93.5988 99.6775 93.2524 99.2416C93.0541 99.5541 93.1813 99.4151 92.7768 99.5785C89.8711 97.549 86.4904 89.8531 85.6538 86.3832C85.2593 84.7457 85.0829 82.847 84.6909 81.1556L84.5991 81.3695L84.4067 81.4008C83.8045 79.4744 84.5644 76.8224 83.7915 75.8949C83.0603 79.0255 82.8209 81.4585 82.5425 84.6322C82.202 83.6541 81.725 82.2591 81.4575 81.2953C78.4535 70.471 84.0669 54.9159 89.2671 45.5258C94.9987 35.3147 102.093 26.1509 111.637 19.2094C125.055 9.45044 139.527 3.68091 155.238 11.9603Z" fill="#493A3F"/>
<path d="M157.021 48.7911C158.286 48.4464 160.559 48.6934 161.876 48.8741L162.133 51.7921C162.238 54.8667 162.288 57.9431 162.28 61.0197C162.351 68.6949 162.36 80.8199 168.05 86.9484C168.947 87.959 169.857 88.8073 171.089 89.4073C172.371 89.786 173.395 89.9473 174.706 90.171C172.466 88.0424 172.482 86.1856 172.136 83.1837L172.299 82.9659C172.727 83.3202 173.23 86.7466 173.362 87.549L173.503 87.6085C175.063 85.9608 172.575 81.3039 174.939 79.9474C176.034 79.6071 177.224 79.4091 178.354 79.1915L179.304 79.0499C180.617 78.7628 184.972 78.5114 186.295 78.7999L187.288 78.7365C188.019 79.4751 188.396 79.8646 189.007 80.6974C188.947 81.8077 188.956 81.8841 188.372 82.8126C188.532 83.2663 188.84 84.2527 189.09 84.6066C189.412 84.6012 192.883 87.4355 193.368 87.8956C198.317 92.5854 204.318 94.458 209.878 97.7638C210.803 104.023 209.946 110.177 208.535 116.317C210.599 114.972 211.577 114.212 213.395 112.534C217.321 107.832 218.377 105.524 220.44 99.5197C221.648 99.5682 222.937 99.7144 224.146 99.8292C225.06 100.123 227.498 101.236 228.074 101.085C238.846 107.47 232.702 127.912 222.606 131.545C220.398 132.34 218.962 133.028 218.571 135.6C217.91 139.945 213.358 141.689 209.646 139.776C208.291 139.078 207.234 137.034 206.436 135.623C201.361 141.048 196.933 144.093 190.002 146.916C188.358 147.585 185.552 148.189 184.31 148.969C182.603 149.648 179.556 150.276 177.711 150.667C166.076 152.612 159.876 152.738 148.159 151.549L147.252 151.383C146.071 151.312 143.193 151.05 142.151 150.672C140.376 149.905 135.565 149.474 133.356 148.98C126.868 147.527 120.589 145.199 114.986 141.559C113.641 140.685 111.733 138.673 110.487 137.584C109.895 137.066 109.999 137.121 109.372 137.168L109.194 136.998C108.852 135.879 108.701 135.451 107.524 135.235C105.251 135.68 104.18 135.605 103.123 133.369C102.894 132.854 102.851 132.455 103.065 131.945C104.298 131.088 105.778 132.22 106.448 130.805L106.792 131.235L106.975 131.117C106.036 129.335 107.776 115.567 108.061 112.994C108.332 112.046 108.274 110.715 108.08 109.747C107.989 106.819 107.684 103.515 107.532 100.521C107.373 99.4686 107.315 97.1027 107.257 95.9532C111.612 93.2198 115.41 86.946 117.804 82.5343C117.089 82.4144 116.667 82.2704 115.999 82.5294C115.447 82.6244 115.174 82.7774 114.756 82.5626C114.596 81.2704 119.311 75.9958 120.444 75.7198L122.742 74.2843C124.706 72.789 131.761 72.6637 134.167 72.7443C134.138 69.3875 134.012 65.424 134.451 62.1437C134.267 60.1713 135.615 53.1382 136.086 50.9406C140.13 49.3975 143.156 48.394 147.543 49.0577C148.628 49.0671 151.565 49.7583 152.381 49.6368C154.268 49.3563 154.879 48.8758 157.021 48.7911Z" fill="#F5C6AE"/>
<path d="M157.022 48.7916C158.287 48.4468 160.559 48.6929 161.876 48.8737L162.133 51.7924C162.239 54.867 162.288 57.9431 162.281 61.0196C162.032 60.22 162.033 59.0778 161.995 58.2124L161.808 58.9374L161.563 59.0341C160.55 58.0189 159.772 55.4349 158.795 54.2095C157.219 52.2326 155.701 51.0287 153.492 49.9104C154.618 49.5514 156.022 49.3068 157.225 48.9657L157.022 48.7916Z" fill="#F2A88A"/>
<path d="M177.323 74.4676C181.239 72.1138 185.328 72.0009 189.72 72.1414C196.492 72.3584 203.7 77.913 206.463 84.1161C205.557 86.6596 192.874 78.2949 189.17 79.2528L189.021 79.4911C189.205 80.1182 189.315 80.139 189.172 80.7245L189.006 80.6971C188.946 81.8077 188.956 81.8845 188.372 82.8133C188.532 83.2671 188.84 84.2535 189.09 84.6073C189.763 86.3915 190.576 87.8386 191.635 89.4256C190.639 89.0576 189.588 88.7277 188.72 88.1258C187.1 87.4329 184.33 85.5705 183.115 84.2899L183.23 83.9881C183.136 83.3932 180.027 80.0585 179.304 79.0497C179.796 78.942 180.717 78.8394 181.744 78.7684C181.23 78.8039 180.743 78.8474 180.323 78.8954C179.903 78.9433 179.55 78.9958 179.304 79.0497L178.354 79.1913C177.223 79.4088 176.034 79.6078 174.939 79.9481C173.51 78.8949 176.107 76.4423 176.043 75.1073C176.594 74.6395 176.738 74.8193 177.323 74.4676Z" fill="#493A3F"/>
<path d="M172.042 66.1542L172.29 65.4483C172.737 65.7847 172.729 66.9076 172.906 67.54C173.509 69.6892 174.564 73.4316 176.044 75.1071C176.108 76.4421 173.51 78.8944 174.94 79.9477C172.576 81.3042 175.064 85.961 173.504 87.6087L173.363 87.5486C173.23 86.7462 172.727 83.3199 172.299 82.9657L172.136 83.1839C171.102 80.5942 171.671 69.2456 172.042 66.1542Z" fill="#F2A88A"/>
<path d="M148.16 151.549C159.877 152.737 166.076 152.613 177.711 150.667C177.742 151.819 177.738 153.35 177.844 154.468L180.466 155.695C180.994 155.794 181.257 155.774 181.578 156.159C181.276 156.486 180.9 156.783 180.871 157.18C182.272 156.458 187.931 157.419 189.293 157.84C190.843 157.948 196.53 158.919 197.549 158.186L197.845 158.332C208.436 164.471 216.913 166.638 224.475 177.606C227.368 181.802 228.975 183.707 230.218 189.026C231.462 194.351 232.847 199.681 234.126 204.988C236.736 215.817 240.817 226.992 239.562 238.253C239.017 243.145 237.233 247.919 235.875 252.648C235.126 255.26 234.713 257.925 234.047 260.412C232.005 268.378 232.188 270.383 227.635 277.56C227.957 278.413 228.205 279.383 227.741 280.223C226.263 282.895 221.991 287.617 219.535 289.159C218.408 289.204 217.526 289.27 216.399 289.109C216.272 293.868 216.05 298.625 215.733 303.375C213.536 304.145 211.245 304.611 208.923 304.761C208.901 306.245 208.926 308.426 208.75 309.836C208.836 310.7 208.702 313.768 208.681 314.793C199.014 316.536 187.522 316.747 177.614 316.914C164.238 317.138 150.858 317.093 137.483 316.783L120.065 316.371C113.153 316.166 104.85 315.863 98.1106 314.133C96.6289 308.235 95.8843 300.172 94.9385 294.064C94.4388 290.837 92.892 284.546 93.1965 281.657C92.6984 281.489 92.6878 281.474 92.3391 281.064C90.959 279.97 86.8513 280.518 85.7676 279.108C82.7829 275.224 80.4047 269.431 79.6171 264.577C79.5285 264.032 80.3201 262.995 80.4275 262.432C80.4215 261.085 80.1692 259.763 80.0768 258.411C80.2003 255.702 80.6177 252.237 80.3856 249.604C80.2366 247.917 78.9854 244.932 79.0346 243.094C79.1396 239.165 80.6488 235.9 80.7648 231.841C80.8562 228.641 79.4589 222.835 80.4431 220.157C81.9225 216.131 85.3543 212.673 87.0303 208.354C88.3985 205.455 89.3173 201.841 90.7874 199.041C95.405 190.237 100.834 176.411 108.486 170.227C114.974 164.983 124.523 160.516 131.876 156.671C135.69 154.657 138.592 153.146 142.151 150.672C143.192 151.05 146.071 151.312 147.252 151.383L148.16 151.549Z" fill="#C3A79E"/>
<path d="M207.294 163.184C207.686 163.409 208.072 163.649 208.459 163.881C208.44 164.246 208.568 164.399 208.933 164.624C210.039 165.307 211.403 165.65 212.148 166.841C212.296 167.078 212.694 167.292 212.469 167.65C212.455 167.672 212.441 167.691 212.427 167.708C212.443 167.69 212.46 167.667 212.477 167.641C212.7 167.283 212.304 167.07 212.156 166.832C211.411 165.643 210.047 165.298 208.94 164.615C208.572 164.4 208.445 164.249 208.464 163.884C210.494 164.82 212.341 166.067 214.184 167.313C217.404 169.488 220.122 172.197 222.514 175.248C224.505 177.788 226.418 180.382 227.939 183.236C229.462 186.095 230.048 189.253 230.811 192.353C231.545 195.34 232.213 198.343 232.962 201.327C233.946 205.251 234.989 209.16 235.994 213.078C236.765 216.086 237.584 219.085 238.255 222.113C238.995 225.457 239.441 228.843 239.654 232.277C239.998 237.805 238.988 243.085 237.241 248.275C235.815 252.511 234.762 256.843 233.91 261.225C233.327 262.813 233.065 264.484 232.691 266.124C231.729 270.347 230.297 274.364 227.747 277.916C227.465 278.308 227.473 278.665 227.533 279.162C227.598 279.706 227.648 280.262 227.593 280.789C227.386 279.713 227.091 278.641 226.714 277.582C226.678 277.229 226.571 276.887 226.325 276.563C226.001 275.766 225.631 274.98 225.222 274.206C224.932 273.572 224.613 272.952 224.253 272.356C223.191 270.595 221.913 269.012 220.448 267.548C220.23 267.329 220.007 267.115 219.783 266.903C214.996 262.117 208.728 258.858 202.742 258.818C202.978 258.318 203.214 257.818 203.448 257.316C204.501 255.06 205.286 252.713 205.72 250.264C205.966 248.866 206.134 247.448 206.219 246.031C206.929 234.305 206.367 222.566 206.608 210.834C206.681 207.317 206.586 203.791 206.787 200.284C206.951 197.421 206.71 194.554 206.961 191.711C207.157 189.488 207.022 187.265 207.204 185.042C207.405 182.59 207.26 180.108 207.266 177.64C207.353 177.595 207.505 177.564 207.519 177.502C207.559 177.32 207.391 177.316 207.266 177.29C207.266 176.948 207.265 176.605 207.264 176.263C207.387 176.237 207.558 176.236 207.517 176.052C207.503 175.99 207.351 175.959 207.264 175.914C207.264 175.803 207.263 175.691 207.262 175.582C207.259 175.583 207.256 175.584 207.254 175.584C207.205 173.578 207.157 171.573 207.111 169.567C207.165 167.677 207.149 164.989 206.898 162.961C207.03 163.035 207.163 163.108 207.294 163.184ZM212.001 172.266C211.819 172.476 211.871 172.753 212.009 172.988C212.121 173.181 212.327 173.353 212.15 173.601C211.366 174.697 211.982 175.761 212.36 176.732C212.629 177.42 212.766 177.7 212.561 177.876C212.778 177.7 212.641 177.42 212.368 176.723C211.99 175.752 211.373 174.688 212.158 173.592C212.335 173.344 212.129 173.172 212.018 172.98C211.883 172.745 211.827 172.469 212.005 172.261C212.004 172.262 212.002 172.264 212.001 172.266ZM210.584 176.53C209.999 176.19 209.558 176.946 208.957 176.712C208.922 176.698 208.896 176.707 208.876 176.731C208.895 176.713 208.919 176.709 208.949 176.721C209.55 176.955 209.99 176.197 210.575 176.539C210.746 176.639 210.922 176.613 211.044 176.488C210.923 176.607 210.752 176.629 210.584 176.53ZM207.796 174.055C207.686 174.205 207.7 174.514 207.578 174.675C207.42 174.884 207.673 175.229 207.546 175.434C207.687 175.23 207.425 174.879 207.586 174.666C207.705 174.508 207.694 174.208 207.796 174.055ZM212.684 169.482C212.594 169.563 212.693 169.711 212.762 169.82C213.027 170.245 213.136 170.712 213.105 171.211C213.087 171.526 213.144 171.766 213.536 171.815C213.823 171.851 214.053 172.051 213.885 172.349C213.868 172.378 213.849 172.406 213.828 172.432C213.852 172.403 213.875 172.372 213.894 172.339C214.061 172.042 213.833 171.842 213.544 171.806C213.152 171.758 213.094 171.518 213.113 171.201C213.142 170.703 213.034 170.236 212.77 169.812C212.703 169.706 212.609 169.564 212.684 169.482ZM211.641 167.602C211.565 168.361 212.427 168.339 212.665 168.827C212.742 168.984 213.173 169.101 212.983 169.297C213.193 169.097 212.751 168.977 212.673 168.818C212.436 168.331 211.578 168.352 211.648 167.598C211.646 167.599 211.643 167.6 211.641 167.602Z" fill="#B1938B"/>
<path d="M142.151 150.672C143.192 151.05 146.071 151.312 147.252 151.383C147.501 152.911 147.45 154.184 147.44 155.723C146.192 156.211 145.07 156.477 144.464 157.705C144.826 157.528 145.278 157.215 145.586 157.298L145.455 165.056L145.37 165.759C145.367 168.078 145.383 170.395 145.419 172.712L145.532 172.676C145.492 174.185 145.526 175.528 145.574 177.035C143.924 177.566 142.562 178.094 140.81 178.071L140.651 177.942L138 200.346C137.13 207.568 136.28 215.091 134.359 222.113C132.706 229.363 126.918 249.452 122.296 254.6C135.518 254.247 147.655 254.681 160.828 254.817C160.832 257.36 160.964 261.661 160.778 264.064C161.182 267.722 161.226 273.068 161.32 276.834C161.519 284.81 161.538 292.748 161.774 300.742C167.757 301.404 174.566 300.834 180.307 301.589C190.493 302.928 198.227 304.906 208.705 304.753C208.697 305.946 208.612 308.775 208.75 309.836C208.836 310.7 208.702 313.768 208.681 314.793C199.014 316.536 187.522 316.747 177.614 316.915C164.238 317.138 150.858 317.093 137.483 316.783L120.065 316.371C113.153 316.167 104.85 315.863 98.1106 314.133C96.6289 308.235 95.8843 300.172 94.9385 294.064C94.4388 290.837 92.892 284.546 93.1965 281.657C92.6984 281.489 92.6878 281.474 92.3391 281.064C90.959 279.97 86.8513 280.518 85.7676 279.108C82.7829 275.224 80.4047 269.431 79.6171 264.578C79.5285 264.032 80.3201 262.996 80.4275 262.432C80.4215 261.085 80.1692 259.763 80.0768 258.411C80.2003 255.702 80.6177 252.238 80.3856 249.604C80.2366 247.917 78.9854 244.932 79.0346 243.094C79.1396 239.165 80.6488 235.9 80.7648 231.841C80.8562 228.641 79.4589 222.835 80.4431 220.157C81.9225 216.131 85.3543 212.673 87.0303 208.354C88.3985 205.455 89.3173 201.842 90.7874 199.041C95.405 190.237 100.834 176.411 108.486 170.227C114.974 164.983 124.523 160.516 131.876 156.671C135.69 154.657 138.592 153.146 142.151 150.672Z" fill="#B99D94"/>
<path d="M102.497 251.783C102.726 252.241 102.739 252.697 102.494 253.153C101.537 253.219 100.575 253.235 99.6259 253.36C97.1086 253.693 94.6424 254.248 92.2187 255.025C87.9352 256.4 84.2205 258.631 81.2553 262.059C80.9828 262.373 80.9794 262.894 80.494 263.036C80.4701 261.616 80.0699 260.231 80.109 258.805C80.2487 257.134 80.1363 255.454 80.3441 253.787C80.6592 251.265 80.3509 248.814 79.5283 246.414C78.7243 244.066 79.0173 241.719 79.5742 239.37C80.2879 236.355 80.9368 233.327 80.6898 230.196C80.5399 228.302 80.4514 226.396 80.1516 224.525C79.6986 221.691 80.5791 219.278 82.1069 216.98C84.0843 214.005 86.0975 211.055 87.3987 207.68C88.4904 204.848 89.5771 202.011 90.7846 199.221C92.389 195.515 94.3085 191.971 96.1821 188.404C97.766 185.388 99.3244 182.351 101.062 179.423C102.857 176.396 104.814 173.455 107.478 171.087C109.816 169.009 112.42 167.292 115.089 165.679C116.714 164.699 118.381 163.79 120.03 162.849C120.054 163.122 119.991 163.346 119.734 163.502C118.833 164.05 118.075 164.805 117.22 165.381C116.789 165.671 116.413 165.739 116.385 166.341C116.375 166.583 116.35 166.803 116.506 166.971C116.799 167.282 116.969 167.526 116.367 167.639C116.157 167.678 116.055 167.902 116.143 168.023C116.583 168.619 116.14 169.352 116.503 169.972C116.779 170.443 116.481 170.947 116.198 171.304C115.856 171.738 115.636 172.169 115.501 172.708C115.368 173.241 115.001 173.723 115.813 174.003C115.96 174.054 115.929 174.232 115.878 174.379C115.076 176.692 114.51 179.081 113.604 181.358C113.011 182.848 112.31 184.296 111.754 185.799C111.002 187.834 110.424 189.929 109.753 191.991C109.079 194.061 108.508 196.154 108.019 198.263C106.95 202.885 106.047 207.543 105.228 212.217C104.477 216.497 103.702 220.774 103.044 225.068C102.642 227.689 102.52 230.353 102.128 232.975C101.603 236.489 101.45 240.012 101.455 243.558C101.459 246.097 101.801 248.573 102.382 251.03C102.438 251.279 102.46 251.534 102.497 251.783Z" fill="#B1938B"/>
<path d="M142.151 150.672C143.192 151.05 146.071 151.312 147.252 151.383C147.5 152.911 147.449 154.184 147.439 155.723C146.191 156.211 145.07 156.477 144.464 157.705C144.826 157.528 145.277 157.215 145.585 157.298L145.454 165.056L145.37 165.759C145.367 168.078 145.383 170.395 145.418 172.712L145.532 172.676C145.492 174.185 145.525 175.528 145.573 177.035C143.924 177.566 142.561 178.094 140.809 178.071L140.651 177.942L137.999 200.346C137.13 207.568 136.279 215.091 134.359 222.113C133.913 221.539 132.779 217.689 132.477 216.703C130.033 208.606 127.785 200.449 125.735 192.242C124.478 187.251 123.208 181.491 121.756 176.641C124.117 175.214 126.735 174.094 129.097 172.598C133.456 169.841 137.942 166.889 141.961 163.641C142.509 163.199 142.596 162.889 142.602 162.255C141.53 160.783 134.749 157.791 132.788 156.886C132.325 156.944 132.376 156.875 131.876 156.671C135.689 154.657 138.592 153.146 142.151 150.672Z" fill="#AF9289"/>
<path d="M142.15 150.672C143.191 151.05 146.07 151.312 147.251 151.383C147.5 152.911 147.448 154.184 147.439 155.723C146.191 156.211 145.069 156.477 144.463 157.705C144.251 158.577 143.918 159.79 143.78 160.647L143.437 160.839C141.952 159.609 134.901 157.24 132.787 156.886C132.324 156.944 132.375 156.875 131.875 156.671C135.689 154.657 138.591 153.146 142.15 150.672Z" fill="#927470"/>
<path d="M122.296 254.599C135.518 254.247 147.654 254.681 160.827 254.816C160.831 257.359 160.964 261.66 160.777 264.063L129.09 263.887C123.773 263.837 116.463 263.502 111.352 263.788C112.418 263.253 113.667 262.827 114.813 262.262C118.257 260.566 120.253 257.729 122.296 254.599Z" fill="#927470"/>
<path d="M88.833 271.59C93.4582 265.763 98.9602 262.829 106.451 263.046C101.304 266.838 94.649 275.339 93.1953 281.656C92.6972 281.489 92.6867 281.474 92.338 281.063C92.3749 280.281 91.459 278.879 91.1064 278.065C90.1915 275.947 89.3616 273.839 88.833 271.59Z" fill="#F5C6AE"/>
<path d="M198.164 268.781C198.367 267.592 202.879 258.709 203.645 257.873C205.532 257.247 210.949 259.725 212.772 260.645C218.806 263.693 222.45 266.922 225.467 273.018C225.932 273.955 227.003 277.084 227.635 277.559C227.957 278.413 228.205 279.382 227.741 280.223C226.263 282.894 221.991 287.617 219.535 289.158C218.408 289.203 217.526 289.27 216.399 289.108C215.21 288.565 212.437 288.044 211.734 287.011C211.496 287.41 211.434 287.44 211.076 287.75L210.741 287.634L210.552 286.993C209.325 285.308 208.093 282.961 206.994 281.13C205.607 278.815 204.263 276.805 202.743 274.589C201.692 273.42 198.266 270.069 198.164 268.781Z" fill="#BA9D94"/>
<path d="M198.164 268.781C203.972 267.833 212.648 275.619 215.839 280.04C214.593 282.454 213.343 284.81 211.734 287.011C211.496 287.41 211.434 287.441 211.076 287.75L210.741 287.634L210.552 286.993C209.325 285.308 208.093 282.961 206.994 281.13C205.607 278.815 204.263 276.805 202.743 274.589C201.692 273.42 198.266 270.069 198.164 268.781Z" fill="#F2A88A"/>
<path d="M202.742 274.589C204.881 274.436 211.517 279.973 210.844 282.774C210.653 283.567 210.761 286.273 210.551 286.993C209.324 285.308 208.092 282.961 206.994 281.13C205.606 278.815 204.262 276.805 202.742 274.589Z" fill="#F5C6AE"/>
<path d="M148.159 151.549C159.876 152.737 166.075 152.613 177.71 150.667C177.741 151.819 177.737 153.35 177.843 154.468L180.465 155.695C180.993 155.794 181.256 155.774 181.577 156.159C181.275 156.486 180.899 156.783 180.87 157.18C180.497 158.876 179.393 161.348 178.633 162.96C178.062 163.439 177.716 163.828 176.965 163.859L176.817 163.964C176.775 163.646 176.771 163.712 176.629 163.414C175.182 164.089 173.724 164.74 172.256 165.367C165.779 168.071 157.568 171.244 150.982 167.085C149.828 166.356 147.438 163.629 146.858 163.452L146.832 164.837C146.629 164.08 146.224 160.998 146.123 160.768L146.116 161C146.07 162.347 145.733 163.732 145.454 165.056L145.585 157.298C145.277 157.215 144.825 157.528 144.463 157.705C145.069 156.477 146.191 156.211 147.439 155.723C147.448 154.184 147.5 152.911 147.251 151.383L148.159 151.549Z" fill="#F2A88A"/>
<path d="M145.454 165.056C145.733 163.732 146.07 162.347 146.117 161L146.123 160.768C146.225 160.998 146.629 164.08 146.832 164.837L146.858 163.452C147.439 163.629 149.828 166.356 150.982 167.085C157.569 171.244 165.78 168.071 172.256 165.367C173.724 164.74 175.182 164.088 176.629 163.414C176.772 163.712 176.776 163.646 176.818 163.964C174.719 167.904 172.577 171.818 170.391 175.711C169.839 176.693 168.092 179.902 167.488 180.712C160.45 181.884 154.589 181.71 147.502 180.538L147.551 182.557C147.358 181.583 147.406 180.979 146.806 180.325L146.073 180.575L145.868 179.838L145.573 177.035C145.525 175.528 145.492 174.184 145.531 172.676L145.418 172.712C145.382 170.395 145.366 168.078 145.37 165.759L145.454 165.056Z" fill="#F5C6AE"/>
<path d="M147.502 180.538C154.589 181.71 160.45 181.884 167.488 180.712C166.681 182.413 165.095 184.897 164.075 186.58C160.964 191.73 157.648 196.754 154.134 201.637C153.488 202.351 153.078 203.486 152.296 203.795C151.498 203.795 151.398 203.744 150.687 203.4C149.013 198.51 148.016 187.752 147.551 182.557L147.502 180.538Z" fill="#B99D94"/>
<path fill-rule="evenodd" clip-rule="evenodd" d="M180.87 157.18C182.271 156.458 187.931 157.419 189.293 157.84H189.292C190.842 157.948 196.529 158.919 197.548 158.186L197.844 158.332C197.644 158.612 197.361 158.878 197.513 159.2C198.491 161.257 203.474 167.912 203 169.825C201.388 170.853 189.966 169.804 189.435 170.98C189.637 171.37 189.633 171.41 189.958 171.724C189.959 171.724 189.96 171.725 189.961 171.726C191.214 172.21 194.47 174.496 195.561 175.397C184.894 191.028 173.112 206.472 163.868 223.046C163.459 223.782 162.864 226.145 162.383 226.45C162.263 225.124 162.59 224.372 162.784 223.125C164.882 209.666 168.225 196.378 172.024 183.307C172.412 181.97 172.792 180.629 173.131 179.277C173.756 177.306 177.454 167.059 177.239 166.012C177.296 165.294 178.256 163.667 178.633 162.96C179.394 161.348 180.497 158.876 180.87 157.18ZM185.042 157.711H185.043H185.042ZM183.926 157.503H183.925H183.926Z" fill="#AF9289"/>
<path d="M180.465 155.695C180.993 155.794 181.256 155.774 181.577 156.159C181.275 156.486 180.899 156.783 180.87 157.181C180.497 158.876 179.393 161.348 178.633 162.96L178.265 163.635C177.833 164.424 177.281 165.474 177.238 166.013C177.453 167.06 173.756 177.305 173.131 179.276C172.1 179.558 170.317 180.235 169.466 179.988C166.181 185.762 162.728 191.436 159.112 197.008C158.562 197.847 155.96 201.757 155.4 202.391C154.935 203.155 154.7 203.222 154.792 203.948C155.45 204.402 157.32 204.808 157.268 205.971C157.155 208.496 156.985 217.081 156.086 218.99C154.451 220.237 150.354 219.695 148.394 219.429C147.178 219.263 145.549 218.917 144.803 217.834C144.113 216.832 145.345 207.37 145.791 205.457C145.906 204.965 146.065 204.63 146.461 204.299C147.642 203.824 148.367 204.07 149.036 203.426L148.827 202.413C147.77 197.101 146.095 186.002 146.069 181.063L146.073 180.575L145.868 179.838L145.573 177.035C145.525 175.528 145.492 174.185 145.532 172.676L145.418 172.712C145.383 170.395 145.367 168.078 145.37 165.759L145.454 165.056L145.585 157.299C145.277 157.215 144.825 157.529 144.463 157.705C145.062 156.492 146.165 156.216 147.396 155.738C146.999 158.832 146.661 162.603 146.799 163.253C146.813 163.321 146.838 163.386 146.858 163.452L146.833 164.837C146.88 167.788 146.879 170.896 146.984 173.832C147.93 174.337 148.426 174.442 148.902 175.328C148.619 176.732 146.195 176.684 147.502 180.538L147.551 182.557C148.001 187.589 148.95 197.843 150.531 202.925L150.687 203.4L151.126 203.606C151.491 203.766 151.698 203.796 152.296 203.796C153.029 203.506 153.434 202.489 154.015 201.775L154.134 201.638C157.648 196.754 160.965 191.73 164.075 186.58C165.095 184.897 166.681 182.413 167.488 180.713C168.092 179.902 169.839 176.693 170.392 175.711C172.577 171.818 174.72 167.904 176.818 163.964L176.966 163.858C177.153 163.851 177.316 163.821 177.463 163.773C177.5 163.761 177.535 163.748 177.57 163.733C177.675 163.691 177.773 163.638 177.867 163.578C177.615 163.739 177.341 163.843 176.966 163.858C178.275 161.208 179.708 158.549 180.465 155.695ZM155.468 201.323H155.47H155.468ZM154.723 201.594C154.692 201.588 154.664 201.584 154.637 201.582C154.664 201.584 154.692 201.588 154.723 201.594ZM147.205 180.936C147.223 180.978 147.24 181.019 147.255 181.061C147.225 180.977 147.19 180.894 147.148 180.812L147.205 180.936ZM146.806 180.325C146.881 180.407 146.946 180.488 147.003 180.569C146.946 180.488 146.881 180.407 146.806 180.325ZM147.439 155.723C147.425 155.728 147.41 155.733 147.396 155.738C147.411 155.616 147.427 155.495 147.442 155.375C147.441 155.489 147.44 155.605 147.439 155.723ZM148.159 151.549C147.979 151.79 147.702 153.409 147.442 155.375C147.455 153.988 147.481 152.794 147.252 151.383L148.159 151.549Z" fill="#927470"/>
<path d="M146.62 204.662C149.848 204.677 153.071 204.928 156.262 205.416C156.231 206.678 155.688 214.697 155.378 215.635C154.899 218.872 154.513 219.372 151.044 218.906C150.177 218.79 148.994 218.685 148.115 218.657C147.242 218.519 146.335 218.321 145.465 218.147C145.613 216.602 145.86 213.113 146.178 211.74C146.413 209.251 146.621 207.172 146.62 204.662Z" fill="#E8BE7F"/>
<path d="M146.62 204.662C149.848 204.677 153.071 204.928 156.262 205.416C154.987 208.636 149.322 210.779 146.178 211.74C146.413 209.251 146.621 207.172 146.62 204.662Z" fill="#F3D5A2"/>
<path d="M148.115 218.657C147.995 218.409 148.049 218.517 148.113 218.152C148.554 217.861 149.01 217.593 149.48 217.352C150.782 216.681 154.034 215.205 155.378 215.635C154.899 218.872 154.513 219.372 151.044 218.906C150.177 218.79 148.994 218.685 148.115 218.657Z" fill="#F3D5A2"/>
<path d="M177.238 166.012C177.454 167.059 173.756 177.305 173.131 179.277C172.1 179.558 170.317 180.235 169.466 179.988C172.063 175.515 174.914 170.593 177.238 166.012Z" fill="#F5C6AE"/>
<path d="M144.464 157.704C144.826 157.528 145.277 157.215 145.585 157.298L145.454 165.056L145.37 165.758C145.369 166.918 145.372 168.077 145.38 169.236C145.388 170.395 145.4 171.554 145.418 172.712L145.267 173.316C145.225 173.32 145.185 173.323 145.146 173.325C145.185 173.323 145.225 173.32 145.267 173.316L145.419 172.712L145.532 172.675C145.492 174.184 145.525 175.528 145.573 177.035L145.868 179.837C145.736 180.084 145.816 179.971 145.481 180.121C144.384 179.803 141.738 178.964 140.886 178.15L140.81 178.071L140.651 177.942L141.631 171.866L141.879 170.529C142.51 167.305 143.462 163.436 143.78 160.647C143.918 159.789 144.252 158.577 144.464 157.704Z" fill="#F5C6AE"/>
<path d="M184.31 148.969C188.523 152.118 193.19 155.203 197.549 158.186C196.53 158.919 190.843 157.948 189.293 157.84C187.931 157.419 182.272 156.458 180.871 157.18C180.899 156.783 181.276 156.486 181.578 156.159C181.257 155.774 180.994 155.794 180.465 155.695L177.844 154.468C177.738 153.35 177.742 151.819 177.711 150.667C179.556 150.276 182.603 149.649 184.31 148.969Z" fill="#927470"/>
<path d="M122.747 100.821C123.512 99.7297 124.008 99.006 125 98.0201C129.385 93.6593 136.332 94.2357 139.808 99.3712C140.188 99.9326 140.551 100.537 140.914 101.119C142.363 105.012 143.334 108.063 141.828 112.248C140.974 114.255 138.942 117.416 136.622 117.879C136.819 117.94 128.168 118.187 128.373 118.088L126.687 117.521C125.165 116.594 123.925 115.841 123.148 114.221C120.401 110.307 120.863 104.985 122.747 100.821Z" fill="#1F1718"/>
<path d="M131.1 98.4086C132.753 97.9676 134.454 98.9367 134.92 100.585C135.385 102.233 134.443 103.951 132.804 104.441C131.721 104.766 130.548 104.481 129.734 103.696C128.92 102.911 128.591 101.748 128.874 100.653C129.157 99.5575 130.008 98.6999 131.1 98.4086Z" fill="#FDFDFD"/>
<path d="M115.272 107.823C115.291 108.407 115.335 108.749 115.195 109.323L114.846 109.427C114.636 109.286 114.416 109.1 114.284 108.882C109.984 101.79 116.056 93.2171 122.724 90.4309C126.179 88.9869 129.694 88.9564 133.302 89.7178C137.022 90.8653 139.203 92.4142 141.428 95.6805C141.935 96.7138 142.429 97.6026 142.674 98.7347L142.333 98.88L141.945 99.2299C142.109 100.094 142.331 100.446 142.045 101.151C141.629 101.157 141.619 101.119 141.259 100.934L140.914 101.119C140.551 100.537 140.188 99.9326 139.808 99.3712C136.332 94.2357 129.385 93.6592 125 98.02C124.008 99.006 123.512 99.7297 122.747 100.821L122.327 100.571C119.723 102.487 117.1 104.35 116.013 107.625C115.662 107.101 115.716 106.707 115.69 106.067C115.889 105.813 115.208 107.464 115.273 107.236L115.272 107.823Z" fill="#1F1718"/>
<path d="M115.273 107.236C114.696 95.8124 130.667 88.3576 139.092 96.066C139.834 96.7448 141.825 98.2812 142.674 98.7348L142.334 98.88L141.946 99.23C142.11 100.094 142.331 100.446 142.046 101.151C141.629 101.157 141.62 101.119 141.259 100.934L140.914 101.119C140.552 100.537 140.188 99.9326 139.808 99.3712C136.332 94.2357 129.385 93.6593 125 98.0201C124.009 99.006 123.513 99.7297 122.748 100.821L122.328 100.571C119.723 102.487 117.1 104.35 116.014 107.626C115.662 107.101 115.717 106.707 115.691 106.067C115.89 105.813 115.209 107.464 115.273 107.236Z" fill="#B99D94"/>
<path d="M220.44 99.5193C221.648 99.5679 222.936 99.7145 224.146 99.8292L223.674 100.064L223.611 100.27C223.026 102.149 221.474 105.469 220.646 107.378C225.592 109.13 228.126 112.226 226.329 117.681C224.737 122.516 217.34 125.803 212.544 124.807C212.925 121.462 212.9 118.411 212.93 115.067C212.938 114.103 213.368 113.164 213.394 112.534C217.321 107.832 218.376 105.524 220.44 99.5193Z" fill="#F2A88A"/>
<path d="M122.742 74.2837C124.706 72.7886 131.761 72.663 134.167 72.7436C137.33 73.6277 141.882 75.2967 142.101 79.1694C141.78 79.7995 141.422 79.7943 140.718 79.7417L135.656 78.9038L135.353 79.1714C135.335 80.2358 136.539 83.4884 137.038 84.4839C138.347 87.3588 138.764 88.4131 140.928 90.7475L140.824 90.9702L140.61 90.9926C139.908 91.5267 140.083 91.2576 139.815 91.9936C140.014 93.57 141.592 94.4334 141.786 95.6147L141.428 95.6801C139.203 92.414 137.022 90.8658 133.302 89.7182C133.83 89.1224 134.176 89.4532 134.707 88.6792C134.42 88.1094 133.962 87.851 133.44 87.4614C133.565 87.7971 133.68 88.1576 133.795 88.4985L133.532 88.646C131.46 88.4403 128.168 85.4229 126.865 83.8647C126.435 83.3628 125.833 82.3785 125.449 81.7895L125.121 81.2202C124.584 80.3745 124.825 80.4766 124.024 80.1733C123.035 80.1988 121.889 80.816 120.958 81.2339C120.029 81.605 118.667 82.1017 117.804 82.5337C117.089 82.4137 116.666 82.2705 115.998 82.5298C115.447 82.6248 115.174 82.7768 114.756 82.562C114.597 81.2693 119.311 75.9952 120.444 75.7192L122.742 74.2837Z" fill="#493A3F"/>
<path d="M136.086 50.9404C140.13 49.3973 143.156 48.3939 147.543 49.0577L146.153 49.1873L146.309 49.1138L146.444 49.3278C147.82 49.5449 148.782 49.6472 150.09 50.1582C140.237 52.7822 136.471 59.2791 135.342 68.8767C135.246 69.6909 135.141 71.0184 134.851 71.7283C134.484 69.8768 135.01 63.4487 134.451 62.1437C134.267 60.1714 135.615 53.1377 136.086 50.9404Z" fill="#F2A88A"/>
<path d="M115.272 107.236C115.208 107.464 115.889 105.813 115.69 106.067C115.715 106.707 115.661 107.101 116.013 107.626C117.099 104.35 119.722 102.487 122.326 100.571L122.747 100.821C120.862 104.985 120.401 110.307 123.148 114.221C123.924 115.841 125.165 116.594 126.686 117.521C125.977 117.767 125.883 117.781 125.135 117.742C118.776 114.23 117.913 115.609 115.271 107.823L115.272 107.236Z" fill="#FDFDFD"/>
<path d="M117.803 82.5341C118.667 82.102 120.029 81.6053 120.958 81.2341C121.573 84.2913 112.264 95.4332 109.307 97.5521C108.679 98.0022 107.903 98.3005 107.572 99.0911L107.532 100.521C107.373 99.469 107.315 97.1029 107.257 95.9533C111.612 93.2199 115.41 86.9458 117.803 82.5341Z" fill="#F2A88A"/>
<path d="M140.914 101.119L141.259 100.934C141.62 101.119 141.629 101.157 142.046 101.151C142.331 100.446 142.11 100.094 141.946 99.2299L142.334 98.88C143.454 100.341 142.627 101.023 142.993 102.102C144.565 106.733 142.8 114.134 138.93 117.097C136.474 118.994 133.349 119.802 130.282 119.333C129.266 119.183 125.849 118.204 125.136 117.742C125.885 117.781 125.979 117.767 126.687 117.521L128.373 118.088C128.168 118.187 136.82 117.94 136.623 117.879C138.942 117.416 140.975 114.255 141.829 112.248C143.334 108.063 142.364 105.012 140.914 101.119Z" fill="#FDFDFD"/>
<path d="M125.606 109.936C127.326 113.789 131.142 116.082 135.421 114.212C137.51 113.298 138.339 111.53 139.081 109.483C140.035 110.303 141.202 111.183 141.829 112.248C140.975 114.255 138.942 117.417 136.622 117.88C136.63 117.882 136.624 117.883 136.604 117.886C134.129 119.038 130.921 119.173 128.397 118.098C128.442 118.104 128.538 118.107 128.676 118.109C128.537 118.107 128.442 118.104 128.397 118.098C128.38 118.096 128.371 118.095 128.369 118.092C128.369 118.091 128.37 118.09 128.373 118.089L126.688 117.521C125.166 116.594 123.925 115.841 123.148 114.221C123.198 113.695 122.965 113.162 122.964 112.569C122.96 111.259 124.377 110.154 125.31 109.251C125.406 109.48 125.505 109.709 125.606 109.936Z" fill="#4E3130"/>
<path d="M103.123 133.37C103.693 131.584 105.263 132.082 106.922 132.16C107.317 132.917 107.89 133.801 107.841 134.624L107.524 135.236C105.25 135.68 104.18 135.606 103.123 133.37Z" fill="#DCC4DD"/>
<path d="M192.07 90.3394C192.021 89.5329 191.809 88.832 192.107 88.2555C193.207 88.1824 198.743 92.2604 199.227 93.1354C198.326 92.9568 196.275 90.9737 195.399 91.059L195.329 91.4128C195.999 91.9066 196.902 92.2288 197.249 92.5478C200.201 95.2675 202.762 98.235 203.463 102.24L203.122 102.63C203.293 105.61 203.181 106.683 201.733 109.306C201.674 110.009 201.619 110.095 201.262 110.708L201.017 110.684L200.92 110.401C201.215 108.943 200.233 107.335 199.602 105.824C198.559 104.06 197.134 102.551 195.432 101.408C194.655 100.882 194.685 100.755 193.984 100.889C195.726 104.903 196.211 108.155 194.574 112.382C194.489 112.602 194.397 112.818 194.299 113.032C192.576 116.352 191.203 117.16 187.88 118.616C184.618 119.425 183.22 119.454 179.927 118.376C179.79 118.397 179.565 118.433 179.43 118.385C175.024 116.828 173.533 112.947 171.702 109.438C173.146 107.085 171.425 106.24 171.823 104.772C172.471 102.384 172.61 99.9578 173.579 97.7262L173.727 98.2984C174.623 95.781 174.877 94.7877 176.684 92.8596C180.372 88.8458 187.22 89.0284 192.07 90.3394Z" fill="#1F1718"/>
<path d="M192.07 90.3394C192.021 89.5329 191.809 88.832 192.107 88.2555C193.207 88.1824 198.743 92.2604 199.227 93.1354C198.327 92.9568 196.275 90.9737 195.399 91.059L195.329 91.4128C196 91.9066 196.903 92.2288 197.249 92.5478C200.202 95.2675 202.762 98.235 203.463 102.24L203.123 102.63C203.293 105.61 203.182 106.683 201.734 109.306C201.674 110.009 201.62 110.095 201.263 110.708L201.017 110.684L200.92 110.401C201.215 108.943 200.233 107.335 199.603 105.824C198.559 104.06 197.134 102.551 195.433 101.408C194.656 100.882 194.685 100.755 193.984 100.889C189.006 93.7145 182.427 93.149 176.144 99.2177L176.01 99.0988C175.482 99.368 175.401 99.4041 174.815 99.4851C174.72 99.0206 174.637 98.8596 174.327 98.5015L174.048 98.5572L173.728 98.2984C174.623 95.781 174.877 94.7877 176.684 92.8596C180.372 88.8458 187.22 89.0284 192.07 90.3394Z" fill="#1F1718"/>
<path d="M176.684 92.8597C177.458 93.0499 178.611 92.8283 179.119 93.2376L179.08 93.532C178.523 93.8271 178.01 93.9505 177.826 94.417C177.986 94.6313 178.094 94.8088 178.296 94.9797C182.125 92.9994 186.163 92.4885 190.319 93.7964C195.274 95.3558 200.077 100.287 201.105 105.443C201.635 106.919 201.264 108.434 201.734 109.306C201.674 110.009 201.62 110.095 201.263 110.708L201.017 110.684L200.92 110.401C201.215 108.943 200.233 107.335 199.603 105.824C198.559 104.06 197.134 102.551 195.433 101.408C194.656 100.882 194.685 100.755 193.984 100.889C189.006 93.7145 182.427 93.149 176.144 99.2178L176.01 99.0989C175.482 99.368 175.401 99.4041 174.815 99.4851C174.72 99.0206 174.637 98.8597 174.327 98.5016L174.048 98.5572L173.728 98.2984C174.623 95.781 174.877 94.7877 176.684 92.8597Z" fill="#B99D94"/>
<path d="M176.684 92.8597C177.458 93.0499 178.611 92.8283 179.119 93.2376L179.08 93.532C178.523 93.8271 178.01 93.9505 177.826 94.417C177.986 94.6313 178.094 94.8088 178.296 94.9797C177.169 95.801 175.105 97.3828 174.327 98.5016L174.048 98.5572L173.728 98.2984C174.623 95.781 174.877 94.7877 176.684 92.8597Z" fill="#21141A"/>
<path d="M174.698 113.289C175.11 112.367 175.711 110.627 176.895 110.235C178.813 111.069 178.126 114.282 183.258 114.894C189.263 115.61 190.054 109.639 192.025 109.725C193.715 110.832 193.467 111.371 194.222 112.881L194.299 113.032C192.575 116.352 191.203 117.16 187.88 118.616C184.618 119.425 183.219 119.453 179.927 118.376C177.253 116.734 176.12 116.158 174.698 113.289Z" fill="#4E3130"/>
<path d="M179.927 118.376C179.79 118.397 179.565 118.433 179.43 118.385C175.024 116.828 173.533 112.947 171.702 109.438C173.146 107.085 171.425 106.24 171.823 104.772C172.471 102.384 172.61 99.9578 173.579 97.7262L173.727 98.2984L174.048 98.5572L174.327 98.5015C174.637 98.8596 174.72 99.0206 174.814 99.4851C175.4 99.4041 175.481 99.368 176.01 99.0989L176.143 99.2177C173.544 102.86 173.075 109.133 174.699 113.289C176.121 116.158 177.254 116.734 179.927 118.376Z" fill="#FDFDFD"/>
<path d="M180.889 98.627C182.531 98.0258 184.349 98.8744 184.945 100.52C185.54 102.166 184.687 103.983 183.041 104.575C181.402 105.164 179.596 104.314 179.003 102.675C178.41 101.036 179.253 99.2259 180.889 98.627Z" fill="#FDFDFD"/>
<path d="M155.467 128.821C156.599 128.576 158.625 128.961 159.761 129.257C159.624 130.63 159.153 132.308 157.65 132.674C155.952 132.545 155.508 130.216 155.467 128.821Z" fill="#E38F76"/>
<path d="M155.138 135.541C155.592 134.606 156.688 134.178 157.655 134.557C158.623 134.936 159.136 135.996 158.836 136.992C158.619 137.71 158.017 138.245 157.279 138.377C156.541 138.51 155.792 138.216 155.34 137.617C154.887 137.018 154.809 136.216 155.138 135.541Z" fill="#4E3130"/>
<path d="M193.984 100.889C194.684 100.755 194.655 100.882 195.432 101.408C197.133 102.551 198.558 104.06 199.602 105.824C200.233 107.335 201.214 108.943 200.919 110.401C200.517 111.164 199.994 112.444 199.538 113.063C196.829 116.732 192.364 117.524 188.38 118.994C187.197 119.431 187.07 119.749 185.645 119.631C186.351 119.394 187.39 119.129 187.879 118.616C191.203 117.16 192.575 116.352 194.299 113.032C194.397 112.818 194.488 112.602 194.573 112.382C196.211 108.155 195.726 104.903 193.984 100.889Z" fill="#FDFDFD"/>
<path d="M213.742 137.097C215.147 136.669 216.104 135.539 215.592 134.057C214.723 133.306 214.614 133.582 213.324 133.249L213.341 133.018L213.737 132.908C214.285 133.069 214.535 133.2 215.078 133.066C215.361 131.534 214.212 130.959 213.702 129.333C213.83 128.532 213.708 128.841 214.273 128.155L216.02 127.99C214.081 127.564 213.73 127.834 213.367 129.517L213.161 129.572L213.151 129.136C212.862 128.757 212.889 128.753 212.836 128.299C213.514 127.55 215.607 127.494 216.452 127.768C219.182 128.656 219.216 132.57 218.546 134.722C217.811 137.082 216.946 138.366 214.933 139.547C211.678 141.458 206.515 138.039 207.653 134.271C207.833 133.671 208.326 132.865 208.921 132.565C210.279 133.257 209.236 136.395 211.417 137.001C212.301 137.114 212.856 137.227 213.742 137.097Z" fill="#F3D5A2"/>
<path d="M154.823 111.86C156.707 111.703 159.384 112.195 159.897 114.368C160.047 114.993 159.921 115.653 159.55 116.179C158.727 117.36 156.711 117.754 155.31 117.983C154.414 117.369 151.05 117.855 149.971 116.329C149.624 113.946 152.968 112.413 154.823 111.86Z" fill="#F2A88A"/>
<path d="M189.587 120.952C191.163 121.608 192.286 125.671 192.76 127.266C193.087 128.371 192.964 128.515 192.444 129.404C190.068 129.024 189.339 124.35 188.95 122.364C188.833 121.767 189.252 121.38 189.587 120.952Z" fill="#E38F76"/>
<path d="M127.335 121.803L128.057 122.042C129.192 123.595 127.375 128.064 126.26 129.379C125.408 129.096 125.443 129.08 125.08 128.457C124.95 126.605 126.37 123.327 127.335 121.803Z" fill="#E38F76"/>
<path d="M123.004 121.375C123.247 121.411 123.497 121.521 123.735 121.607L123.908 122.144C123.672 123.804 121.872 127.958 120.707 129.148C119.842 128.621 119.983 128.881 119.682 128.063C119.874 125.867 121.706 123.149 123.004 121.375Z" fill="#E38F76"/>
<path d="M117.731 120.773C118.019 120.796 118.215 120.868 118.494 120.945C119.267 122.567 115.683 126.325 114.408 127.221C114.113 127.179 113.883 127.098 113.598 127.015L113.386 126.56C113.59 125.151 116.631 121.675 117.731 120.773Z" fill="#E38F76"/>
<path d="M210.175 133.415C211.268 133.57 214.009 133.756 214.673 134.442C215.201 135.764 214.376 136.115 213.742 137.097C212.856 137.227 212.301 137.114 211.417 137.001C211.248 136.766 211.083 136.529 210.921 136.289C210.308 135.381 210.272 134.479 210.175 133.415Z" fill="#DCC4DD"/>
<path d="M184.533 122.249L185.203 122.306C186.75 123.152 186.997 127.427 186.197 128.97C184.286 128.308 183.905 123.733 184.533 122.249Z" fill="#E38F76"/>
<path d="M194.752 121.28C195.793 121.889 197.923 124.976 198.288 126.195C198.375 126.485 198.06 126.732 197.875 126.961C196.518 126.104 193.7 123.411 194.067 121.695L194.752 121.28Z" fill="#E38F76"/>
<path d="M189.006 80.6971L189.172 80.7247C194.203 87.7802 200.674 92.04 209.211 93.4225C209.31 93.4391 209.409 93.4537 209.508 93.4664L209.877 97.7642C204.318 94.4584 198.317 92.5851 193.368 87.8952C192.883 87.435 189.411 84.6005 189.089 84.6068C188.84 84.253 188.532 83.2668 188.372 82.8131C188.956 81.8843 188.946 81.8078 189.006 80.6971Z" fill="#F2A88A"/>
<path d="M120.444 75.7195C120.477 75.3433 121.793 70.9838 122.012 70.2212C122.182 71.6525 122.274 72.9149 122.742 74.2841L120.444 75.7195Z" fill="#F2A88A"/>
<path fill-rule="evenodd" clip-rule="evenodd" d="M99.311 97.8974C99.8315 98.3838 99.9525 98.9288 100.099 99.6513C101.032 104.241 103.217 108.062 106.204 111.613L105.937 111.758L105.938 111.759L106.205 111.613C106.707 112.006 107.538 112.696 108.06 112.995C107.776 115.569 106.035 129.335 106.974 131.117L106.791 131.236L106.448 130.805C105.777 132.22 104.297 131.088 103.064 131.946C102.85 132.456 102.893 132.855 103.123 133.37C104.179 135.606 105.25 135.681 107.524 135.236C108.7 135.452 108.852 135.879 109.194 136.998L109.371 137.169C104.805 141.599 100.189 136.781 99.9497 131.418C90.4777 125.568 86.3849 115.93 90.1753 104.817C90.8789 102.755 92.6119 101.447 94.1323 99.9833C94.6581 99.4143 95.3417 99.0459 96.0044 98.6288C97.0278 98.3554 97.7925 98.1766 98.8354 97.995L99.311 97.8974ZM100.542 106.786C100.452 106.799 100.359 106.816 100.264 106.84V106.841C100.407 106.804 100.545 106.782 100.678 106.771L100.542 106.786Z" fill="#F5C6AE"/>
<path d="M100.264 106.841C103.312 106.066 104.147 111.437 105.938 111.759L106.205 111.613C106.707 112.006 107.538 112.695 108.06 112.995C107.776 115.567 106.035 129.336 106.974 131.117L106.791 131.236L106.448 130.805C105.764 129.62 105.761 128.393 105.665 127.058L103.32 125.902C95.8368 122.486 89.9021 110.015 100.264 106.841Z" fill="#F2A88A"/>
<path d="M103.32 125.902L105.665 127.058C105.761 128.394 105.764 129.62 106.448 130.805C105.778 132.22 104.297 131.088 103.065 131.946C102.85 132.456 102.894 132.855 103.123 133.37C104.18 135.606 105.25 135.68 107.524 135.236C108.701 135.452 108.852 135.879 109.194 136.998C103.865 140.659 99.3814 134.576 100.301 129.442C100.574 127.915 102.959 126.978 103.32 125.902Z" fill="#F3D5A2"/>
</svg>
