<svg width="320" height="320" viewBox="0 0 320 320" fill="none" xmlns="http://www.w3.org/2000/svg">
<g>
<path d="M113.465 244.885C114.337 245.22 115.262 245.559 116.118 245.918C117.686 246.478 124.77 249.462 125.79 249.209L125.84 249.346C126.725 249.583 129.693 250.461 130.434 250.802C130.541 250.154 130.58 249.976 130.818 249.366C131.88 248.425 135.375 248.88 136.107 249.695L136.284 249.765C136.476 249.02 136.104 249.33 136.576 248.574C137.281 248.225 138.233 248.636 139.302 248.681L139.481 248.687C140.83 248.911 144.291 249.12 144.831 249.582C144.773 249.789 144.823 249.702 144.692 249.852L144.771 249.96C147.217 249.784 150.504 249.724 152.959 249.971C153.253 250.476 153.325 250.733 154.063 250.851C156.977 251.32 160.223 250.877 163.2 251.044C164.317 251.108 165.232 251.618 166.407 251.686C168.898 251.596 171.388 251.485 173.877 251.353L174.248 251.338C174.921 251.265 175.691 251.128 176.355 251.104C178.012 251.044 179.298 250.185 179.418 252.314L179.669 252.148L179.556 251.036C180.316 250.504 194.721 249.34 196.773 248.644C197.058 248.548 202.132 247.622 202.581 247.635L202.691 247.625C203.689 247.204 203.9 247.21 204.992 247.148C206.027 249.565 209.207 250.447 207.8 254.38C207.498 255.221 206.459 257.504 206.302 258.225C206.237 258.792 209.355 268.87 209.629 269.017C210.484 270.559 210.95 270.199 212.691 270.16C211.687 270.338 211.34 270.329 210.311 270.307C212.202 275.213 213.75 280.073 215.186 285.127C215.509 286.267 216.594 289.85 216.731 290.832C216.902 291.411 217.069 291.993 217.232 292.574C217.557 293.738 217.864 294.906 218.155 296.078C218.301 296.664 218.441 297.251 218.578 297.839C220.726 304.861 222.865 313.283 224.808 320.47H171.144C170.044 318.138 169.016 315.964 168.052 313.564C167.345 312.159 165.985 309.403 165.531 307.975C163.572 304.714 161.966 298.106 158.03 296.694C157.477 298.658 156.886 300.611 156.26 302.552C155.706 304.701 154.847 307.816 154.096 309.89C153.363 313.122 151.579 317.612 151.009 320.47H106.269C106.303 317.012 106.862 313.178 106.826 309.933L107.074 309.807C107.313 307.149 107.77 304.041 108.104 301.364C108.225 300.058 108.375 298.962 108.572 297.671L108.612 297.437C104.578 294.447 104.644 290.514 105.316 285.938C105.638 285.196 105.799 284.704 106.361 284.118L106.696 284.123L107.206 284.749C107.619 285.264 107.765 285.271 108.398 285.535C107.561 283.838 108.601 282.674 107.993 281.562C108.164 281.344 109.577 273.169 110.118 271.706C110.137 271.098 109.945 270.381 109.818 269.771C109.598 267.18 109.872 266.083 110.886 263.674C110.213 261.716 109.652 260.004 110.155 257.941C110.779 255.385 110.839 252.859 112.125 250.544L112.127 250.238C111.902 248.943 111.906 248.475 112.364 247.21C112.706 246.164 112.9 245.843 113.465 244.885Z" fill="#71A1BD"/>
<path d="M145.221 1.70535C153.787 -0.824346 163.689 0.0920717 168.554 8.60574C176.164 4.68666 185.515 3.06509 193.752 5.77176C200.128 7.8671 210.091 13.1494 214.869 17.7513C215.269 18.0448 215.559 18.2287 215.89 18.596C221.321 22.9363 226.975 28.2008 231.258 33.6136C233.342 36.2472 235.238 39.0231 236.934 41.9202C240.927 48.713 243.135 54.3319 251.395 56.303L251.029 56.4554C251.248 57.0242 251.383 57.628 251.25 58.2317L251.466 58.5393C248.617 60.8172 244.986 60.6994 241.701 59.5286C244.202 65.5829 244.484 73.1957 242.047 79.343C241.846 79.8471 241.393 80.917 241.062 81.2913C240.621 81.3416 240.712 81.3808 240.302 81.7425C239.829 81.0623 239.887 79.0898 239.175 78.219L238.998 78.6526C238.601 79.0283 238.191 81.4773 237.957 82.2845C236.985 85.6352 235.557 88.305 233.833 91.3499C236.521 94.4153 237.678 97.1917 237.532 101.405C237.514 101.929 237.304 103.677 237.122 104.296L237.087 104.405L237.003 104.808C236.855 105.478 236.67 106.137 236.449 106.783C236.405 106.913 236.359 107.041 236.312 107.169C236.218 107.426 236.119 107.68 236.013 107.932C235.856 108.31 235.686 108.682 235.505 109.049C235.202 109.66 234.867 110.255 234.503 110.832C234.43 110.948 234.355 111.063 234.28 111.177C233.828 111.861 233.334 112.517 232.802 113.143C231.562 114.603 230.119 115.895 228.528 116.967C228.301 117.12 228.07 117.268 227.837 117.412C227.72 117.484 227.603 117.556 227.485 117.625C227.131 117.834 226.771 118.032 226.406 118.219C225.553 118.656 224.67 119.033 223.764 119.342C223.505 119.431 223.245 119.514 222.982 119.591C221.539 120.016 220.043 120.272 218.524 120.333C218.351 120.34 218.174 120.341 217.993 120.338C216.909 120.319 215.703 120.146 214.659 120.155C214.485 120.156 214.315 120.162 214.151 120.175C213.814 119.996 210.832 119.27 210.272 119.127C209.855 118.963 209.619 118.829 209.414 118.803C209.355 118.796 209.3 118.798 209.243 118.81C209.101 118.84 208.954 118.937 208.748 119.128C208.665 119.205 208.573 119.296 208.468 119.405C208.195 119.687 207.849 119.989 207.506 120.291C207.162 120.594 206.822 120.898 206.559 121.184C206.38 121.379 205.885 121.807 205.414 122.223C204.943 122.639 204.497 123.042 204.412 123.189C203.875 123.575 203.339 123.962 202.802 124.349C202.266 124.735 201.729 125.121 201.189 125.502C200.649 125.884 200.107 126.262 199.56 126.633C199.287 126.819 199.013 127.002 198.737 127.184C198.461 127.366 198.184 127.546 197.905 127.724C197.428 128.003 196.886 128.309 196.348 128.619C195.811 128.929 195.279 129.243 194.825 129.535L194.713 129.584C194.027 129.933 193.237 130.315 192.518 130.7C192.279 130.829 192.048 130.957 191.831 131.085C191.378 131.279 190.948 131.457 190.517 131.668C190.374 131.739 190.23 131.813 190.086 131.893C189.689 132.064 189.277 132.235 188.872 132.418C188.568 132.556 188.268 132.7 187.981 132.857C187.886 132.909 187.792 132.963 187.7 133.018C186.956 133.256 186.211 133.49 185.465 133.718V133.717L185.464 133.718C184.028 134.298 181.816 134.414 181.69 135.983L181.572 135.172L179.86 135.775C174.9 136.684 171.812 137.804 166.352 138.153C163.604 138.329 158.476 138.094 156.354 138.408C156.071 138.86 156.183 139.188 156.193 139.8C155.947 138.885 156.03 138.943 155.199 138.579C153.047 138.057 150.572 138.445 148.323 138.291C148.789 137.982 154.13 137.961 155.134 137.877C154.589 137.873 154.371 137.844 153.865 137.64C153.318 137.66 152.795 137.665 152.291 137.659C148.76 137.619 146.122 136.97 142.403 136.071C141.547 135.956 138.992 135.225 138.101 134.97C131.342 133.038 125.188 130.466 120.062 125.515C118.313 123.825 117.327 121.556 115.869 119.674C115.77 119.548 114.801 119.275 114.568 119.211C115.226 119.272 115.413 119.402 115.927 119.13C115.69 118.004 115.107 115.461 115.156 114.432C115.408 109.173 116.944 105.144 116.9 99.7591L116.732 99.6741L116.356 100.041C116.306 98.5562 112.596 90.5707 112.348 88.4641C112.287 87.9456 111.518 87.8763 111.029 87.7688L110.828 87.4114C109.081 86.1332 107.453 84.9645 105.933 83.4134C104.789 82.4339 103.331 80.7695 102.398 79.5862C100.201 77.5259 97.2787 72.7314 96.2448 69.8987C85.5656 40.6435 114.714 13.7568 138.528 4.21512C138.952 4.0016 139.581 3.78891 140.04 3.61746C141.593 2.81027 143.541 2.20161 145.221 1.70535Z" fill="#FBC6A9"/>
<path d="M145.221 1.70535C153.787 -0.824346 163.688 0.0920716 168.553 8.60574C176.163 4.68657 185.515 3.06507 193.752 5.77176C200.128 7.8671 210.091 13.1494 214.869 17.7513C215.269 18.0448 215.559 18.2287 215.89 18.596C221.321 22.9363 226.975 28.2008 231.258 33.6136C233.342 36.2472 235.238 39.0231 236.934 41.9202C240.927 48.713 243.135 54.3319 251.395 56.303L251.029 56.4554C251.248 57.0242 251.383 57.628 251.25 58.2317L251.466 58.5393C248.617 60.8172 244.986 60.6994 241.701 59.5286C244.202 65.5829 244.484 73.1957 242.047 79.343C241.846 79.8471 241.393 80.917 241.062 81.2913C240.621 81.3416 240.712 81.3802 240.302 81.7415L240.303 81.7425C240.713 81.3808 240.621 81.3416 241.063 81.2913C240.812 81.8475 240.758 81.9384 240.365 82.4036L240.06 82.3919C239.639 81.7943 239.223 79.56 238.999 78.6526L239.175 78.219L238.998 78.6526C238.601 79.0283 238.191 81.4773 237.957 82.2845C236.985 85.6352 235.557 88.305 233.833 91.3499C232.275 90.015 230.926 89.2505 228.998 88.6126L228.775 88.5628C225.263 87.7984 220.451 88.748 218.481 91.8665C215.925 95.9131 215.131 98.3592 210.789 101.142C210.757 98.5407 211.11 95.0379 211.244 92.3225C211.401 88.7453 211.418 85.1628 211.295 81.5843C211.201 78.3333 211.347 76.6948 209.899 73.7054C209.429 72.5531 208.94 71.4816 208.722 70.2532C207.933 68.2565 207.677 64.8466 207.534 62.7249L207.424 62.5491C206.795 62.4231 206.687 62.4031 206.131 62.0891C203.62 64.2874 201.039 65.9726 198.022 67.4016C197.529 67.6353 196.516 68.021 196.226 68.3929L197.508 69.2151L198.794 70.2503C198.926 70.3779 199.062 70.5186 199.2 70.6663C199.614 71.1089 200.043 71.6166 200.417 72.0403L200.415 72.0393L200.416 72.0403C198.378 71.7378 195.902 70.9891 193.872 70.8567C192.897 70.7931 191.915 70.7653 190.926 70.7698C186.975 70.788 182.936 71.3236 178.992 72.1575C178.499 72.2618 178.007 72.3715 177.517 72.4846C176.048 72.8241 174.595 73.2016 173.168 73.6057C172.692 73.7404 172.219 73.8777 171.75 74.0179C171.28 74.158 170.814 74.3008 170.351 74.4456C170.001 74.5551 169.613 74.6712 169.251 74.6751L169.248 74.6741C169.17 74.6748 169.094 74.6711 169.02 74.6604C168.887 74.6413 168.759 74.6019 168.641 74.5354C168.612 74.1677 168.631 73.9845 168.826 73.6526C170.969 70.0073 174.606 68.5521 178.344 67.4007C178.874 66.5357 179.509 65.6473 180.085 64.805C184.19 58.0672 185.176 55.9679 186.752 48.3391L186.871 47.2864C186.976 46.2904 187.041 45.4204 187.072 44.2864C187.265 43.4486 187.217 42.1668 187.218 41.2688C182.357 38.7536 175.4 37.6615 169.964 37.7854C169.13 37.6533 168.397 37.724 167.557 37.7659C167.03 37.7328 166.227 37.752 165.414 37.7854L163.21 37.8909C155.292 38.7342 146.514 37.4985 138.894 39.5511L138.56 39.5735C134.267 40.6121 130.647 41.7712 126.86 44.1614C126.462 45.6689 125.568 48.9251 125.674 50.4544C125.408 52.3243 125.284 56.5636 125.789 58.3538C126.234 61.3993 127.132 64.7352 128.452 67.5179C133.99 66.1103 144.419 69.3354 146.681 74.9632C146.278 75.1531 146.001 75.1827 145.55 75.0813C141.443 74.1568 137.479 72.818 133.299 72.1907C130.615 71.7729 127.89 71.6859 125.185 71.9309L124.946 71.9485C123.671 72.0515 120.518 72.799 119.833 72.7102L119.748 72.4114L119.874 72.2239V72.2229C121.063 70.2412 122.907 68.7877 125.06 67.9807C123.73 66.9762 121.636 64.9341 120.974 63.4348L120.769 63.4427L120.768 63.4417C119.248 60.4919 118.384 59.3002 117.223 56.1136L117.086 55.9143C116.641 56.6266 116.126 59.0423 115.976 59.9036C116.426 60.9002 115.458 64.5268 115.364 65.9778C115.125 69.6509 115.177 73.2475 115.651 76.9016C115.881 78.672 116.857 81.3812 116.657 83.01C116.203 83.6481 115.774 83.4437 115.02 83.3323C113.6 85.1687 117.758 98.6455 116.9 99.7591L116.732 99.6741L116.356 100.041C116.306 98.5562 112.596 90.5707 112.348 88.4641C112.287 87.9456 111.518 87.8763 111.029 87.7688L110.828 87.4114C109.081 86.1332 107.453 84.9645 105.933 83.4134C104.789 82.4339 103.331 80.7695 102.398 79.5862C100.201 77.5259 97.2787 72.7314 96.2448 69.8987C85.5656 40.6435 114.714 13.7568 138.528 4.21512C138.952 4.0016 139.581 3.78891 140.04 3.61746C141.593 2.81027 143.541 2.20161 145.221 1.70535ZM137.378 72.5491C137.248 72.5376 137.121 72.5213 136.999 72.5003C137.121 72.5213 137.248 72.5376 137.378 72.5491ZM123.494 71.6175C123.307 71.6493 123.12 71.6836 122.934 71.72C123.306 71.6473 123.68 71.584 124.056 71.5286L123.494 71.6175ZM129.885 67.9231H129.886H129.885ZM251.396 56.303C252.149 56.5334 251.967 56.3606 252.37 56.8997C252.398 57.6821 252.059 58.0614 251.467 58.5393L251.251 58.2317C251.384 57.628 251.249 57.0242 251.03 56.4554L251.396 56.303ZM186.578 40.2884C186.984 40.4086 187.39 40.514 187.796 40.596C187.794 40.8065 187.787 41.0633 187.773 41.3548C187.787 41.0633 187.795 40.8066 187.797 40.596C187.391 40.5139 186.985 40.4087 186.578 40.2884ZM126.207 43.7796V43.7805L126.478 43.802L126.207 43.7796ZM133.269 40.4261V40.427V40.4261ZM182.924 39.0022C183.731 39.2872 184.544 39.6037 185.357 39.8899C184.544 39.6037 183.731 39.2872 182.924 39.0022ZM176.445 37.8196C177.318 37.9829 178.4 38.0565 179.425 38.1712C178.4 38.0565 177.318 37.9829 176.445 37.8196ZM175.607 37.6145V37.6155V37.6145ZM169.586 37.3938C168.824 37.3778 167.99 37.3571 167.175 37.3479C167.99 37.3571 168.824 37.3778 169.586 37.3938ZM172.375 37.3567L172.374 37.3577L172.375 37.3567Z" fill="#232132"/>
<path d="M187.7 133.018C188.354 133.321 189 133.604 189.622 133.967C190.033 134.414 190.287 134.673 190.747 135.068C191.142 135.846 191.658 136.749 191.823 137.593C192.438 137.462 192.525 137.521 193.156 137.688C195.142 138.592 197.195 139.496 199.145 140.466C199.903 140.739 200.965 141.088 201.678 141.403C206.001 142.874 212.561 144.991 216.568 147.074C217.836 147.672 219.698 148.555 220.741 149.459C222.03 150.152 223.736 151.556 224.67 152.677C227.433 155.249 230.785 160.313 231.467 163.975C233.305 170.478 232.686 177.518 230.395 183.832C227.946 192.007 223.971 199.179 220.014 206.629C218.133 210.824 213.292 215.982 212.342 220.353C210.711 227.854 211.808 235.684 212.151 243.198C212.257 245.508 206.715 246.677 204.993 247.149C203.9 247.21 203.69 247.204 202.691 247.625L202.582 247.635C202.133 247.622 197.059 248.548 196.773 248.644C194.722 249.34 180.316 250.505 179.557 251.036L179.67 252.149L179.419 252.315C179.298 250.185 178.013 251.044 176.355 251.104C175.692 251.128 174.922 251.265 174.249 251.338L173.878 251.353C171.389 251.486 168.899 251.596 166.408 251.686C165.232 251.618 164.318 251.108 163.201 251.044C160.224 250.878 156.978 251.321 154.063 250.851C153.326 250.733 153.254 250.476 152.96 249.971C150.505 249.724 147.218 249.784 144.771 249.96L144.692 249.852C144.824 249.702 144.774 249.79 144.832 249.582C144.292 249.12 140.831 248.911 139.481 248.687L139.303 248.682C138.234 248.637 137.282 248.225 136.577 248.574C136.105 249.331 136.477 249.02 136.285 249.765L136.108 249.697C135.378 248.88 131.881 248.425 130.818 249.366C130.581 249.977 130.542 250.155 130.435 250.802C129.694 250.461 126.726 249.584 125.841 249.346L125.791 249.209C124.771 249.462 117.687 246.478 116.119 245.918C115.263 245.559 114.337 245.22 113.466 244.885C109.201 243.46 106.583 242.219 103.377 238.932C104.362 238.386 105.104 238.392 105.846 238.248C105.103 238.392 104.361 238.386 103.376 238.932L102.665 238.007C103.693 238.069 106.004 237.83 107.153 237.731C106.811 237.956 106.492 238.085 106.181 238.17C106.493 238.085 106.812 237.956 107.154 237.731L107.864 237.637C108.772 238.348 110.086 239.251 111.162 239.668C114.067 240.911 118.307 239.653 121.28 238.921L125.692 237.329C126.646 236.904 127.629 236.555 128.608 236.192C128.491 232.33 128.785 229.353 129.186 225.559C129.375 223.021 129.88 220.542 131.181 218.327C132.65 217.717 134.408 217.387 135.975 217.031C136.735 216.854 138.481 216.643 138.962 216.192C139.62 214.159 140.253 212.116 140.859 210.067L141.027 209.655C141.866 207.567 142.878 204.265 143.639 202.072L148.588 188.115C151.957 178.701 155.915 168.675 159.06 159.291C159.286 158.906 159.683 157.53 159.838 157.035C159.179 156.815 158.751 156.885 157.756 156.505L157.822 156.474L157.87 156.307L157.278 155.85C154.762 154.993 153.609 154.526 151.609 152.814C151.258 152.299 151.035 152.067 150.615 151.615C150.116 150.689 149.974 150.157 149.664 149.147C149.519 146.47 150.209 142.7 152.377 140.901C153.144 139.824 154.072 139.218 155.199 138.579C156.03 138.943 155.947 138.885 156.193 139.8C156.183 139.188 156.071 138.86 156.354 138.408C158.476 138.094 163.605 138.329 166.353 138.153C171.812 137.804 174.9 136.684 179.86 135.775L181.572 135.172L181.69 135.983C181.816 134.414 184.028 134.298 185.464 133.718C186.21 133.49 186.956 133.256 187.7 133.018Z" fill="#111628"/>
<path d="M100.192 189.067C101.064 188.935 101.496 189.123 102.341 189.372C102.938 189.711 104.533 190.758 105.125 190.583L105.216 190.641C105.424 191.79 108.464 194.336 109.19 195.518C109.927 196.716 110.586 198.23 111.079 199.534L111.332 199.645C111.013 200.717 110.7 201.826 110.363 202.889L109.975 203.85C110.291 204.45 109.419 210.587 111.402 212.178C111.966 212.204 112.249 211.796 112.619 211.363L112.806 211.442C115.477 211.197 116.413 213.382 116.777 215.602L116.451 216.377C115.488 217.467 116.451 218.747 115.453 219.209C115.717 219.872 115.783 220.155 116.337 220.63C117.004 220.841 117.178 220.839 117.705 220.314L118.535 221.069L118.653 221.139C120.132 222.309 120.098 221.074 121.78 222.578L122.122 222.858L121.78 223.423C122.28 223.887 123.077 223.74 123.974 224.064L124.36 224.264C124.513 224.301 125.325 224.49 125.424 224.529H125.425L125.916 224.639C126.399 224.751 126.86 224.873 127.317 225.002C127.623 225.088 127.927 225.179 128.236 225.272C128.545 225.364 128.86 225.46 129.185 225.559C129.035 226.982 128.9 228.29 128.796 229.572C128.726 230.428 128.671 231.272 128.634 232.131C128.615 232.561 128.601 232.994 128.593 233.435C128.58 234.096 128.579 234.773 128.592 235.478C128.596 235.712 128.601 235.95 128.608 236.192C127.629 236.555 126.646 236.905 125.692 237.33L121.281 238.921C120.538 239.104 119.715 239.32 118.853 239.522C117.993 239.723 117.093 239.91 116.196 240.035C115.742 240.099 115.288 240.145 114.841 240.171C113.518 240.247 112.246 240.132 111.161 239.668C110.219 239.303 109.096 238.566 108.222 237.911L107.863 237.637L107.153 237.731C106.671 238.048 106.236 238.177 105.8 238.258C105.151 238.379 104.5 238.396 103.682 238.777C103.582 238.824 103.48 238.875 103.376 238.933L102.665 238.008C101.906 237.578 96.9049 238.649 95.4345 238.713C93.6897 239.05 88.3096 240.121 86.7597 240.125C80.7807 241.689 79.61 235.117 86.4599 233.15L86.6855 233.048C87.3 232.803 88.4782 232.511 89.0126 232.365C89.2356 228.811 92.4272 217.322 93.4638 213.421C90.9539 213.402 89.4503 213.538 88.1992 210.982C87.8246 209.903 88.2063 209.259 87.6513 208.599L87.8652 208.483C88.2273 207.709 87.322 202.593 87.0829 201.584C86.6538 199.132 88.2322 197.835 89.7656 196.167C91.8977 193.876 95.2171 191.168 98.0712 189.865C98.1936 189.756 98.348 189.66 98.5204 189.575C98.693 189.49 98.8839 189.416 99.079 189.352C99.2742 189.287 99.4739 189.233 99.664 189.186C99.8541 189.139 100.035 189.099 100.192 189.067ZM85.8827 233.763C84.478 234.545 83.4214 235.308 82.7861 236.025C82.7154 236.104 82.6499 236.183 82.5898 236.262V236.263C83.1905 235.478 84.3215 234.633 85.8827 233.763Z" fill="#FBC6A9"/>
<path d="M126.546 142.995C121.531 147.832 119.235 168.664 116.974 175.988C116.975 175.99 116.975 175.992 116.975 175.994L116.879 176.329C116.714 176.52 116.546 176.769 116.409 177.042C116.382 177.097 116.356 177.153 116.331 177.209C116.084 177.773 115.988 178.413 116.311 178.875L116.026 178.967C115.624 179.167 115.556 179.174 115.378 179.521C115.14 179.988 114.011 180.579 113.52 180.845L113.275 181.246C110.055 183.963 106.88 188.213 105.514 190.3L105.069 190.591C105.048 190.594 105.026 190.6 105.003 190.601C104.338 190.629 102.901 189.689 102.341 189.371C101.496 189.122 101.064 188.935 100.192 189.066C99.5627 189.197 98.561 189.429 98.0712 189.865C95.2171 191.168 91.8977 193.876 89.7655 196.167C88.28 197.783 86.7526 199.051 87.0487 201.357L87.0829 201.584H87.0839C87.3229 202.593 88.2278 207.708 87.8661 208.482L87.6522 208.599C86.7203 208.777 86.0573 208.906 85.452 208.896C84.6738 208.884 83.9909 208.643 82.954 207.982C81.2538 207.155 78.0828 203.528 76.7889 202.028C76.4329 201.727 75.9657 201.094 75.6542 200.708C74.9906 200.197 73.9616 198.615 73.4784 197.874C73.2926 197.752 73.1388 197.459 73.0028 197.253C68.7536 192.234 67.0863 185.266 67.7802 178.823C68.4529 174.542 69.68 171.588 71.7323 167.852C72.2446 166.981 72.6569 166.329 73.2362 165.504C73.5045 165.118 73.8766 164.678 74.1757 164.304C75.3934 162.61 76.5356 161.579 78.0927 160.24C79.4223 159.114 80.8618 158.148 82.3759 157.307C82.5986 157.183 82.8228 157.061 83.0487 156.942C83.3113 156.805 83.5762 156.671 83.8427 156.54C84.0884 156.419 84.336 156.302 84.5848 156.187C87.0625 155.041 89.6869 154.167 92.327 153.431C93.2814 153.165 94.2379 152.916 95.1903 152.68C95.2867 152.656 95.383 152.631 95.4794 152.607C97.2597 151.926 99.9664 151.724 101.25 150.547C101.969 149.302 108.412 148.145 110.085 147.813C110.498 147.633 111.775 147.309 113.089 146.997C113.746 146.841 114.412 146.688 114.985 146.559C115.395 146.466 115.757 146.385 116.033 146.322C116.142 146.298 116.238 146.276 116.318 146.258C116.586 146.136 117.439 145.956 117.77 145.876C120.1 145.266 122.62 144.673 124.827 143.75V143.749L126.515 142.742L126.546 142.995ZM115.289 183.746C117.025 184.844 125.61 187.914 126.827 188.977C126.835 189.454 126.633 189.73 126.412 190.156C125.188 190.632 116.462 185.66 114.916 185.734C115.048 185.056 115.171 184.389 115.289 183.746Z" fill="#111628"/>
<path d="M126.076 44.1062C125.817 43.2789 126.598 40.974 126.921 40.0764C129.099 34.2227 133.328 28.1844 139.225 25.6299C149.482 21.1875 154.534 28.2127 158.171 36.4017C160.558 30.5834 165.608 25.1631 172.193 24.6382C175.868 24.3813 179.496 25.5869 182.287 27.9922C186.232 31.4039 187.406 35.64 187.796 40.596C185.635 40.1586 183.445 39.0672 181.322 38.4925C179.842 38.0919 177.626 38.0893 176.163 37.7613C174.503 37.3893 174.406 36.8337 172.441 37.0342L172.566 37.2998C171.978 37.6701 164.169 36.9635 162.941 37.6845L163.21 37.891C155.292 38.7343 146.515 37.4988 138.894 39.5515L138.56 39.5734C135.876 38.8686 128.761 42.0249 126.478 43.8018L126.206 43.7801L126.076 44.1062Z" fill="#111628"/>
<path d="M170.566 97.5724C169.673 96.3277 169.092 89.1541 169.392 87.5966C171.484 76.7288 187.303 74.2402 195.027 80.3361C195.702 80.8694 196.468 81.6295 197.095 82.2313L197.331 81.9501C197.697 82.1297 200.304 85.7634 200.59 86.3096C200.377 86.482 200.501 86.4264 200.188 86.4094C202.541 90.2584 204.35 96.7408 198.574 98.4707C197.451 102.056 193.724 105.17 190.075 105.874C187.666 107.02 180.497 108.094 178.393 106.232C174.489 104.966 171.688 101.406 170.566 97.5724Z" fill="#FCFDFD"/>
<path d="M172.815 89.9252C175.327 83.9514 181.029 81.9841 187.029 84.3266C193.358 86.7978 195.684 96.963 191.451 102.039C191.062 102.041 190.645 102.213 190.207 102.477C190.481 102.312 190.747 102.184 191.002 102.11C191.054 102.095 191.104 102.082 191.155 102.072C191.255 102.051 191.355 102.041 191.452 102.04C189.886 104.458 188.229 105.384 185.613 106.385C184.082 106.573 183.241 106.693 181.685 106.619L181.746 106.235H181.745L181.684 106.619L181.519 106.532L181.517 106.531L181.518 106.532C181.37 106.515 181.23 106.497 181.096 106.476C180.159 106.332 179.518 106.096 178.535 105.754L178.036 105.392C175.258 104.473 173.376 101.399 172.451 98.7973C172.197 97.886 172.133 97.5627 172.039 96.6225C171.534 94.4795 172.024 91.9441 172.815 89.9252ZM185.428 105.414C184.637 105.56 183.665 105.628 182.863 105.805C183.13 105.746 183.416 105.699 183.709 105.658C184.293 105.574 184.902 105.512 185.429 105.414H185.428ZM188.836 103.471C188.247 103.938 187.639 104.431 187.027 104.801C187.394 104.579 187.76 104.313 188.122 104.035C188.363 103.849 188.602 103.658 188.837 103.471H188.836ZM169.391 87.5961C171.484 76.7287 187.302 74.2405 195.026 80.3364C195.701 80.8696 196.467 81.6292 197.094 82.2309L197.331 81.9497C197.696 82.1292 200.304 85.7638 200.589 86.31C200.377 86.4824 200.5 86.4266 200.187 86.4096C202.54 90.2586 204.349 96.7412 198.574 98.4711L198.92 97.559L198.724 95.5961H198.723C198.586 94.3051 198.327 93.1583 197.994 91.9741L197.638 90.77C196.479 87.7953 195.415 86.4327 193.109 84.354V84.3549C192.531 83.9188 192.04 83.5858 191.562 83.3002C191.243 83.1098 190.93 82.9402 190.599 82.7758C190.269 82.6116 189.922 82.4525 189.536 82.2817L188.924 82.0141C188.098 81.7263 187.058 81.5379 186.165 81.2582C183.339 81.1718 181.801 81.169 179.025 82.1196L177.72 82.6547L177.229 82.936C177.065 83.0321 176.9 83.1306 176.736 83.2319C176.407 83.4345 176.08 83.6475 175.759 83.8696C175.599 83.9805 175.441 84.0938 175.285 84.2094C174.816 84.5565 174.369 84.9239 173.961 85.31C172.417 86.9666 171.409 88.5605 170.114 90.4077C169.623 91.2828 170.324 96.2887 170.565 97.5727C169.672 96.328 169.091 89.1536 169.391 87.5961Z" fill="#321816"/>
<path d="M185.146 87.2706C189.343 86.546 191.941 91.4395 187.67 93.6443C187.27 93.6818 186.487 93.6861 186.086 93.6202C185.101 93.4513 184.219 92.909 183.624 92.1061C182.215 90.1656 183.43 88.371 185.146 87.2706Z" fill="#FCFDFD"/>
<path d="M128.063 79.0039C130.273 78.2812 133.312 77.3528 135.614 78.1553C136.737 78.5244 137.776 77.7127 138.914 78.2119C142.752 79.8965 146.271 82.2286 147.964 86.1943C151.858 95.3148 148.927 108.403 136.85 107.58C135.701 107.502 134.003 107.509 132.974 106.981C127.662 105.924 123.641 103.96 121.516 98.7188C118.638 96.8535 118.422 95.4868 118.447 92.1416L118.394 93.3233C117.749 88.1019 123.078 80.6337 128.063 79.0039Z" fill="#36120F"/>
<path d="M185.614 106.386C186.123 106.519 188.803 105.945 190.074 105.875C187.665 107.02 180.496 108.094 178.393 106.232L178.536 105.754C179.66 106.145 180.336 106.397 181.52 106.532L181.685 106.619C183.241 106.694 184.083 106.573 185.614 106.386Z" fill="#F1E1D9"/>
<path d="M130.846 82.463C134.603 81.6138 138.049 82.182 141.34 84.2408C141.721 84.4789 142.092 84.732 142.453 84.9995C140.148 84.1962 136.947 83.1227 134.606 84.3934L134.28 84.4754C134.173 84.7447 130.159 88.8122 129.615 89.2455C126.676 91.5874 128.818 99.1007 128.316 100.38C129.428 103.879 132.635 105.877 135.947 106.9C135.015 107.43 134.29 106.914 132.976 106.982C127.663 105.924 123.642 103.96 121.518 98.719L121.539 98.1589L121.595 98.0131C121.929 97.1119 122.041 96.877 122.083 95.8764C122.336 89.8798 123.743 86.3743 129.002 83.188C129.215 83.1333 130.568 82.5734 130.846 82.463Z" fill="#FCFDFD"/>
<path d="M143.214 93.1801C142.051 94.0699 140.425 94.0259 139.313 93.0746C138.2 92.1232 137.904 90.5234 138.603 89.237C139.301 87.9506 140.804 87.3276 142.208 87.7426C143.612 88.1576 144.534 89.4974 144.421 90.957C145.046 91.2454 144.925 91.0766 145.171 91.5815C145.115 92.4398 144.298 93.6803 143.508 94.0111L143.2 93.7404C143.297 93.3093 143.364 93.4244 143.214 93.1801Z" fill="#FCFDFD"/>
<path d="M171.828 110.402C173.764 110.271 175.471 111.473 174.096 113.366C172.079 116.144 167.706 117.687 164.472 118.548C158.787 120.062 153.047 119.485 147.94 116.436C147.088 115.83 145.151 114.145 146.325 113.155C148.027 112.849 148.787 114.545 150.299 115.214C156.299 117.869 165.845 117.138 170.846 112.646C170.93 112.569 171.558 110.841 171.828 110.402Z" fill="#EA2F2E"/>
<path d="M187.7 133.018C188.354 133.321 189 133.604 189.622 133.967C190.033 134.414 190.287 134.673 190.747 135.068C191.142 135.846 191.658 136.749 191.823 137.593C192.438 137.462 192.525 137.521 193.156 137.688C195.142 138.592 197.195 139.496 199.145 140.466C199.903 140.739 200.965 141.088 201.678 141.403C205.731 142.782 211.75 144.729 215.788 146.684L216.568 147.074C217.836 147.672 219.698 148.555 220.741 149.459L220.988 149.597C222.241 150.326 223.794 151.626 224.67 152.677C224.14 152.95 220.829 152.676 219.613 152.96C210.306 155.135 203.094 159.211 198.306 167.713C196.518 171.058 192.741 177.666 191.36 180.919L191.192 180.835C190.989 181.357 190.789 181.869 190.491 182.35C190.097 182.986 189.239 183.624 188.763 184.288C188.664 184.426 188.58 184.564 188.521 184.704C188.473 184.821 188.442 184.94 188.431 185.059C188.17 185.243 188.092 185.308 187.995 185.335C187.899 185.363 187.783 185.353 187.444 185.388L187.699 185.847L187.496 185.898L187.277 185.669C187.295 185.273 187.331 184.971 187.376 184.724C187.391 184.642 187.406 184.566 187.423 184.494C187.456 184.352 187.492 184.228 187.526 184.111C187.561 183.993 187.595 183.883 187.626 183.769C187.641 183.712 187.656 183.654 187.67 183.593C187.711 183.41 187.74 183.205 187.75 182.937C187.753 182.848 187.755 182.752 187.753 182.648C187.748 182.335 187.719 181.947 187.658 181.446L187.296 182.571C186.682 182.335 186.221 182.185 185.754 182.06C185.287 181.935 184.812 181.834 184.172 181.698C181.619 181.885 166.496 179.142 165.228 181.105C163.433 183.883 162.869 193.619 162.535 197.187C162.178 201.004 177.417 198.752 178.188 200.545C177.893 200.856 176.291 202.516 176.15 202.75C175.647 204.034 172.871 206.41 171.519 206.674L171.308 206.884C170.085 208.979 165.586 210.608 163.271 210.967C157.07 212.594 150.817 214.018 144.522 215.237C143.397 215.463 139.85 216.24 138.962 216.192C139.62 214.159 140.254 212.116 140.86 210.067L141.027 209.655C141.866 207.567 142.879 204.265 143.64 202.072L148.588 188.115C151.957 178.701 155.914 168.675 159.06 159.291C159.286 158.906 159.683 157.53 159.838 157.035C159.179 156.815 158.751 156.885 157.756 156.505L157.822 156.474L157.871 156.307L157.279 155.85C154.763 154.992 153.609 154.527 151.609 152.814C151.258 152.299 151.035 152.067 150.615 151.615C150.116 150.689 149.974 150.157 149.664 149.147C149.519 146.47 150.209 142.7 152.377 140.901C153.144 139.824 154.072 139.218 155.199 138.579C156.03 138.943 155.947 138.885 156.193 139.8C156.183 139.188 156.071 138.86 156.354 138.408C158.476 138.094 163.604 138.329 166.353 138.153C171.812 137.804 174.9 136.684 179.86 135.775L181.572 135.172L181.69 135.983C181.816 134.414 184.029 134.298 185.465 133.718C186.211 133.49 186.956 133.256 187.7 133.018Z" fill="#DD2729"/>
<path d="M185.464 133.718C186.211 133.489 186.956 133.255 187.7 133.018C188.354 133.321 188.999 133.603 189.622 133.967C190.033 134.414 190.287 134.672 190.747 135.067C191.142 135.846 191.658 136.748 191.823 137.593C192.018 141.683 190.998 143.13 188.414 146.327C187.562 147.381 185.165 149.373 184.728 149.922C184.449 151.331 182.061 151.913 181.03 153.023L180.976 153.42C180.265 153.675 178.522 154.253 178.135 154.811C177.204 154.072 176.371 155.073 174.802 155.193L174.621 154.895C171.375 155.773 169.061 156.163 165.675 156.374C163.639 157.016 162.084 156.9 159.951 156.803L159.838 157.035C159.18 156.814 158.751 156.885 157.756 156.505L157.822 156.473L157.871 156.307L157.279 155.85C154.762 154.993 153.609 154.527 151.609 152.814C151.258 152.299 151.035 152.067 150.615 151.616C150.116 150.689 149.974 150.157 149.664 149.147C149.519 146.47 150.208 142.699 152.377 140.9C153.144 139.824 154.072 139.218 155.199 138.579C156.03 138.942 155.948 138.884 156.194 139.8C156.183 139.188 156.071 138.86 156.354 138.409C158.476 138.094 163.605 138.328 166.353 138.152C171.812 137.804 174.9 136.685 179.86 135.775L181.573 135.172L181.69 135.983C181.816 134.414 184.028 134.298 185.464 133.718Z" fill="#FC8D6E"/>
<path d="M185.464 133.718C186.211 133.489 186.956 133.255 187.7 133.018C188.353 133.321 188.999 133.603 189.621 133.967C190.033 134.414 190.286 134.672 190.747 135.067C191.141 135.846 191.658 136.748 191.823 137.593C192.018 141.683 190.997 143.13 188.413 146.327C187.562 147.381 185.165 149.373 184.728 149.922C184.448 151.331 182.061 151.913 181.03 153.023L180.975 153.42C180.265 153.675 178.522 154.253 178.134 154.811C177.204 154.072 176.371 155.073 174.801 155.193L174.621 154.895C171.375 155.773 169.06 156.163 165.675 156.374L164.848 155.736C163.471 152.997 165.037 152.361 167.462 152.121C173.568 151.516 179.517 149.731 183.999 145.337C183.846 144.659 183.867 144.57 183.384 144.118C182.707 142.883 182.342 142.007 182.166 140.597C181.952 139.663 181.596 138.385 181.874 137.467L182.31 137.304C181.64 137.031 181.77 136.64 181.69 135.983C181.815 134.414 184.028 134.298 185.464 133.718Z" fill="#FCFDFD"/>
<path d="M182.31 137.304C184.052 137.031 185.141 136.928 186.884 137.192C187.537 137.261 187.716 137.245 188.229 137.635C188.705 138.51 188.218 139.547 187.729 140.346H187.73C187.274 141.266 186.726 142.288 186 143.031L185.916 143.177C185.469 143.918 184.6 144.724 183.997 145.337C183.845 144.659 183.865 144.57 183.383 144.119C182.706 142.883 182.341 142.007 182.165 140.597C181.951 139.663 181.595 138.385 181.873 137.468L182.31 137.304Z" fill="#111628"/>
<path d="M156.193 139.8C156.183 139.188 156.071 138.86 156.354 138.409C158.475 138.094 163.604 138.328 166.352 138.152C171.812 137.804 174.899 136.685 179.86 135.775L179.798 136.127C173.762 138.119 166.397 138.911 160.081 138.811C159.054 138.795 156.951 138.452 156.65 139.184C156.194 140.288 157.076 141.638 156.12 142.336L155.963 142.318L155.979 142.089C156.35 141.413 156.226 140.586 156.193 139.8Z" fill="#F28D70"/>
<path d="M157.278 155.85C157.876 155.678 158.206 155.283 158.676 154.854C158.915 155.614 158.785 155.592 159.608 156.035C160.641 156.595 163.402 156.597 164.466 156.284L164.848 155.736L165.675 156.374C163.639 157.016 162.083 156.9 159.95 156.803L159.838 157.035C159.179 156.814 158.751 156.885 157.756 156.505L157.822 156.473L157.87 156.307L157.278 155.85Z" fill="#F28D70"/>
<path d="M178.135 154.811C178.522 154.253 180.265 153.675 180.976 153.42C181.232 154.379 182.954 160.242 182.229 160.852C181.431 160.738 180.838 160.792 180.037 160.833C179.718 160.44 178.478 155.756 178.135 154.811Z" fill="#FCFDFD"/>
<path d="M174.397 162.37C177.912 162.209 191.805 161.994 194.164 163.377C195.031 164.557 193.498 173.188 193.25 175.274C192.362 175.223 191.443 175.122 190.556 175.036C187.411 174.782 184.262 174.568 181.111 174.398C178.764 174.282 171.927 174.154 170.179 173.548C169.309 172.666 170.538 164.092 171.374 162.885C171.746 162.346 173.751 162.393 174.397 162.37Z" fill="#FCFDFD"/>
<path d="M183.464 175.899C184.593 176.023 185.626 176.139 186.765 176.184C186.988 178.366 187.181 180.377 187.296 182.571C186.069 182.099 185.454 181.97 184.173 181.698L183.464 175.899Z" fill="#FCFDFD"/>
<path d="M172.583 165.966C172.634 165.412 172.611 164.774 172.956 164.377C174.306 164.244 180.765 164.386 181.838 164.774C182.051 165.38 181.975 166.131 181.78 166.728C181.786 166.927 181.797 167.666 181.823 167.818C181.713 168.291 181.605 168.735 181.522 169.214L181.657 169.718C182.382 169.97 182.988 170.354 183.656 170.734C183.75 171.064 183.846 171.251 183.733 171.571L183.827 172.153C180.505 172.17 175.422 171.717 171.966 171.562C171.986 170.715 171.944 169.894 172.238 169.106L172.155 168.628C172.335 167.739 172.454 166.863 172.583 165.966Z" fill="#FBC20A"/>
<path d="M173.449 168.601C174.726 168.624 176.534 168.739 178.165 168.873C179.097 168.95 179.971 169.034 180.655 169.109C180.997 169.146 181.292 169.182 181.522 169.214L181.657 169.718C182.382 169.971 182.988 170.355 183.656 170.735C183.75 171.064 183.845 171.251 183.732 171.571L183.827 172.154C183.62 172.155 183.405 172.153 183.185 172.151C179.876 172.114 175.206 171.708 171.966 171.562C171.983 170.822 171.953 170.1 172.143 169.403C172.17 169.303 172.201 169.204 172.238 169.106L172.155 168.628C172.254 168.618 172.37 168.611 172.501 168.606C172.763 168.596 173.084 168.594 173.449 168.601Z" fill="#DD2729"/>
<path d="M172.584 165.966C172.635 165.412 172.612 164.774 172.957 164.377C174.307 164.244 180.766 164.386 181.839 164.774C182.052 165.38 181.976 166.131 181.781 166.728C179.711 166.322 174.824 166.11 172.584 165.966Z" fill="#DD2729"/>
<path d="M164.532 210.445C159.721 206.77 164.463 202.754 169.411 204.295C169.532 205.025 169.739 206.066 169.735 206.77L169.001 206.88C168.825 206.807 168.648 206.738 168.471 206.671C167.662 206.362 167.203 206.223 166.387 206.59C166.055 207.105 166.119 206.86 166.228 207.549C166.633 208.226 167.289 208.529 167.972 208.941C166.804 209.527 165.738 209.956 164.532 210.445Z" fill="#FBC20A"/>
<path d="M169.41 204.295C170.252 204.797 171.914 205.523 171.518 206.674L171.308 206.884L170.266 207.466C169.522 207.47 169.712 207.436 169 206.88L169.734 206.77C169.738 206.066 169.531 205.025 169.41 204.295Z" fill="#FBC20A"/>
<path d="M191.36 180.92C191.072 181.929 190.8 182.636 190.865 183.679C190.339 184.647 189.787 185.601 189.21 186.539C200.696 189.299 211.201 196.249 217.717 206.174C217.735 207.417 216.411 209.618 215.482 210.478C214.474 211.41 214.64 210.665 214.154 211.382C212.732 209.763 211.677 207.988 210.057 206.245C203.975 199.703 194.793 194.016 186.213 191.529C185.586 192.552 184.994 193.569 184.25 194.512L184.058 194.361C183.752 194.496 183.487 194.651 183.253 194.816C186.655 190.02 188.962 185.394 191.29 180.884L191.36 180.92Z" fill="#36120F"/>
<path d="M113.466 244.885C114.337 245.22 115.262 245.559 116.118 245.918C117.686 246.478 124.769 249.461 125.79 249.209L125.841 249.346C126.727 249.584 129.693 250.462 130.434 250.803C130.541 250.155 130.58 249.976 130.817 249.366C131.88 248.425 135.377 248.88 136.107 249.696L136.285 249.766C136.477 249.021 136.104 249.33 136.576 248.574C137.281 248.224 138.233 248.637 139.303 248.682L139.48 248.687C140.83 248.911 144.291 249.12 144.831 249.582C144.773 249.789 144.823 249.702 144.691 249.852L144.771 249.96C147.217 249.784 150.504 249.724 152.959 249.971C153.253 250.476 153.325 250.733 154.062 250.851C156.977 251.32 160.224 250.877 163.201 251.044C164.317 251.108 165.232 251.618 166.407 251.686C168.898 251.596 171.388 251.485 173.877 251.353L174.249 251.338C174.922 251.265 175.691 251.128 176.354 251.104C177.96 251.045 179.218 250.237 179.404 252.124L179.419 252.314L179.67 252.148L179.557 251.036C180.318 250.504 194.719 249.341 196.772 248.645C197.056 248.549 202.136 247.622 202.582 247.635C201.406 248.144 198.481 250.809 197.034 251.71C193.155 254.121 189.253 256.368 185.173 258.437C183.541 259.264 181.386 260.499 179.758 261.205C179.789 261.172 179.82 261.136 179.849 261.098V261.097C179.82 261.135 179.79 261.171 179.758 261.205L169.533 266.442C169.151 266.639 166.103 268.156 165.912 268.296C161.002 270.827 156.051 273.278 151.062 275.647C147.562 276.84 129.515 284.552 126.529 284.253C120.526 285.81 114.249 288.53 108.397 285.535C107.561 283.837 108.601 282.674 107.993 281.562C108.163 281.346 109.576 273.171 110.118 271.707C110.137 271.099 109.945 270.382 109.817 269.771C109.598 267.181 109.873 266.083 110.887 263.674C110.214 261.716 109.652 260.005 110.155 257.942C110.779 255.385 110.839 252.86 112.125 250.544L112.127 250.239C111.902 248.944 111.906 248.475 112.364 247.21C112.706 246.164 112.901 245.843 113.466 244.885ZM180.398 258.768L180.399 258.769L180.398 258.768Z" fill="#48201A"/>
<path d="M166.419 261.812C168.194 261.609 176.949 260.623 178.225 261.19C178.007 261.759 167.524 266.883 166.287 267.484C164.857 267.811 157.067 268.111 156.537 267.078C157.339 265.767 159.67 265.582 160.677 264.528L161.374 264.298C163.037 264.41 165.41 263.139 166.419 261.812Z" fill="#2D5986"/>
<path d="M163.723 197.736C163.964 193.14 164.88 187.814 165.664 183.22C165.997 181.268 169.097 181.741 170.795 181.874C175.604 182.253 180.874 182.473 185.618 183.335C185.585 188.921 185.911 188.801 182.997 193.496C182.617 194.123 182.26 194.731 181.835 195.328L180.681 197.333L180.531 197.314C180.147 198.101 179.838 198.466 179.19 199.063C174.886 198.745 167.748 198.415 163.723 197.736Z" fill="#FCFDFD"/>
<path d="M167.068 185.515L167.476 186.092L167.749 186.069L168.008 185.731C168.295 186.301 167.851 185.905 168.031 186.24C168.357 186.848 169.685 188.057 170.271 188.233C171.276 188.537 171.718 187.825 172.669 188.13L172.729 188.836C173.137 187.928 172.902 188.16 173.591 187.649C174.303 187.485 174.958 187.754 175.662 187.962C176.99 188.514 178.599 188.862 178.551 190.547C178.332 191.927 178.287 191.813 179.32 192.773C180.393 192.868 181.637 192.949 182.689 193.102L182.996 193.496C182.616 194.123 182.259 194.731 181.834 195.328C179.719 194.967 176.517 194.735 174.224 194.415C171.454 193.986 168.807 193.69 166.024 193.383C166.013 192.389 166.116 192.12 166.383 191.156C166.534 189.284 166.815 187.38 167.068 185.515Z" fill="#FABC10"/>
<path d="M172.729 188.836C173.136 187.928 172.902 188.16 173.59 187.649C174.302 187.485 174.958 187.754 175.662 187.962C176.99 188.514 178.599 188.862 178.55 190.547C176.836 191.771 175.462 190.968 173.757 190.266C173.251 189.778 173.086 189.431 172.729 188.836Z" fill="#FABC10"/>
<path d="M167.589 184.017C169.731 183.697 180.29 184.832 182.64 185.305L182.403 185.332C182.34 185.338 182.271 185.343 182.199 185.346C182.272 185.343 182.34 185.338 182.404 185.332L182.641 185.305L183.182 185.422C183.727 186.307 183.305 191.478 183.048 192.732C183 192.966 182.964 192.902 182.69 193.102C181.638 192.949 180.394 192.869 179.321 192.773C178.289 191.813 178.333 191.927 178.552 190.548C178.601 188.863 176.992 188.514 175.664 187.962C175.499 187.691 175.333 187.491 175.17 187.339L175.008 187.202C175.222 187.365 175.443 187.601 175.663 187.962C174.959 187.754 174.303 187.484 173.591 187.649C172.903 188.16 173.137 187.928 172.729 188.836L172.67 188.131C172.491 188.073 172.33 188.052 172.181 188.052C172.33 188.052 172.491 188.073 172.669 188.131L172.729 188.836C173.086 189.431 173.251 189.778 173.757 190.266C173.238 190.59 173.123 190.765 172.804 191.285C172.43 191.399 171.999 191.431 171.544 191.436C171.696 191.434 171.845 191.431 171.99 191.421C172.063 191.416 172.135 191.41 172.205 191.402C172.416 191.379 172.618 191.342 172.805 191.285C173.044 190.895 173.168 190.699 173.435 190.489C173.479 190.454 173.527 190.418 173.581 190.382C173.634 190.345 173.693 190.307 173.758 190.266C175.463 190.968 176.837 191.772 178.551 190.548C178.332 191.927 178.288 191.813 179.32 192.773C176.322 192.449 172.139 192.06 169.229 191.497C169.303 191.485 169.377 191.476 169.452 191.468C169.377 191.476 169.302 191.484 169.229 191.496C168.728 191.513 166.968 191.236 166.383 191.155C166.534 189.283 166.815 187.38 167.067 185.515L167.477 186.092L167.068 185.515C167.171 184.688 167.084 184.448 167.589 184.017ZM170.453 188.279C170.571 188.302 170.68 188.31 170.784 188.309C170.68 188.31 170.571 188.302 170.453 188.279ZM168.008 185.73C168.295 186.301 167.851 185.905 168.03 186.24C168.316 186.772 169.369 187.764 170.021 188.122L169.876 188.036C169.224 187.625 168.297 186.734 168.031 186.24C167.852 185.905 168.295 186.301 168.008 185.73ZM175.9 185.127C174.756 185.195 173.85 185.426 173.567 185.991C173.54 186.045 173.519 186.102 173.504 186.162C173.496 186.192 173.49 186.223 173.485 186.255C173.735 186.772 174.18 186.744 174.693 187.005C174.18 186.745 173.736 186.772 173.486 186.255C173.606 185.432 174.765 185.16 176.234 185.112L175.9 185.127Z" fill="#3166A8"/>
<path d="M166.024 193.383C168.807 193.69 171.454 193.986 174.225 194.414V194.415C176.518 194.735 179.72 194.967 181.835 195.328L180.681 197.333L180.531 197.315C179.936 197.156 175.896 196.899 175.032 196.833C174.203 196.773 173.411 196.68 172.586 196.584C170.494 196.506 167.987 196.253 165.866 196.096C165.874 195.274 165.971 194.222 166.024 193.383Z" fill="#821B1B"/>
<path d="M188.502 187.661C198.232 189.3 212.131 198.797 217.051 207.399C216.502 208.357 215.869 209.34 215.284 210.283C214.728 210.24 212.321 206.594 211.588 205.791C204.828 198.381 196.596 193.183 186.929 190.358C187.476 189.315 187.846 188.632 188.502 187.661Z" fill="#EA2F2E"/>
<path d="M190.866 183.679C192.171 183.715 194.248 184.358 195.506 184.78C204.125 187.67 215.342 194.696 219.366 203.245C218.854 204.215 218.33 205.274 217.717 206.174C211.202 196.249 200.697 189.299 189.211 186.539C189.788 185.601 190.34 184.647 190.866 183.679Z" fill="#FCFDFD"/>
<path d="M186.214 191.528C194.794 194.016 203.975 199.703 210.057 206.246C211.677 207.988 212.732 209.763 214.155 211.382C214.232 212.253 212.838 213.713 212.244 214.439C205.5 204.679 195.486 198 184.25 194.512C184.994 193.569 185.586 192.552 186.214 191.528Z" fill="#FCFDFD"/>
<path d="M191.001 220.001C196.188 219.381 199.301 224.576 197.637 229.256C197.012 231.014 194.858 232.017 193.2 232.612C186.516 233.043 182.311 222.719 191.001 220.001Z" fill="#FBC20A"/>
<path d="M191.717 223.071C192.402 223.028 193.302 224.02 193.722 224.606C193.777 224.7 194.004 225.07 194.028 225.145C194.828 226.708 195.381 229.269 192.813 229.176C189.464 229.056 187.707 223.324 191.717 223.071Z" fill="#111628"/>
<path d="M178.011 225.611C180.062 224.524 183.305 224.132 184.615 226.513C184.649 227.139 184.727 226.92 184.387 227.373C182.926 228.086 182.142 227.195 180.425 227.107C179.812 227.515 179.345 227.771 179.108 228.432C179.282 228.986 179.293 229.001 179.754 229.378C182.044 229.363 183.806 229.069 185.918 229.907C186.538 230.323 186.91 230.754 187.177 231.457C189.032 236.34 180.774 238.535 177.547 236.845C176.877 236.495 176.573 236.025 176.362 235.334C176.903 233.423 181.383 235.722 183.515 234.275C183.81 233.659 183.747 233.915 183.596 233.144C182.151 231.714 174.124 234.576 176.074 227.579C176.307 226.742 177.303 226.057 178.011 225.611Z" fill="#FBC20A"/>
<path d="M200.551 213.23C203.863 213.095 206.584 217.539 208.512 219.969C207.771 220.651 207.019 221.426 206.302 222.139C205.18 220.952 202.131 216.266 200.472 217.141C200.093 217.341 199.821 217.695 199.725 218.11C199.502 219.041 200.536 220.383 201.057 221.182C201.977 222.547 202.754 223.696 203.554 225.136C202.631 225.892 202.088 226.263 201.072 226.901C200.088 225.836 198.933 223.971 198.036 222.732C197.133 221.484 194.767 218.932 194.648 217.562C195.586 216.223 196.923 217.034 197.074 216.839C198.715 214.724 197.691 214.366 200.551 213.23Z" fill="#FBC20A"/>
<path d="M207.634 165.502C206.92 163.931 209.433 161.401 211.536 163.17C212.231 163.755 215.101 165.015 215.532 165.934L215.446 166.206C216.42 167.114 217.941 167.973 219.015 168.81C221.59 170.817 225.433 173.636 227.336 176.199C226.912 176.919 226.496 177.644 226.088 178.374C226.208 179.707 223.115 183.827 222.043 184.701L221.723 184.563C220.893 185.57 219.79 187.43 218.667 187.648L218.097 187.449C218.012 187.457 217.926 187.462 217.84 187.466C216.676 187.513 216.306 187.107 215.424 186.414C213.898 185.212 212.211 184.065 210.808 182.732C210.811 182.44 210.82 182.384 210.76 182.103L209.831 182.221C208.875 181.738 205.746 180.062 205.431 179.147L205.808 178.741L202.915 177.346C202.706 177.355 202.79 177.342 202.547 177.155C202.322 175.629 202.313 173.527 203.658 172.471L204.432 172.578C205.315 170.744 207.04 167.322 207.634 165.502Z" fill="#FCFDFD"/>
<path d="M209.457 164.616C213.649 166.509 222.194 173.097 225.365 176.38C223.609 178.306 220.762 182.582 219.206 184.821L218.755 185.494C218.116 185.682 216.98 184.521 216.38 183.995C212.769 180.839 208.6 178.357 204.346 176.159C205.237 173.43 208.161 167.445 209.457 164.616Z" fill="#131012"/>
<path d="M206.579 172.447C211.714 174.372 216.907 177.498 220.561 181.624C220.179 182.457 219.377 183.64 218.867 184.445L218.709 184.491C218.172 184.447 217.646 183.924 217.222 183.576C213.415 180.452 209.464 177.893 205.131 175.523C205.534 174.503 206.089 173.437 206.579 172.447Z" fill="#8EADC6"/>
<path d="M207.46 174.381C209.417 174.227 217.126 179.759 218.676 181.373C218.868 181.571 218.682 181.96 218.617 182.213C217.433 181.97 209.925 176.107 207.981 175.605C207.249 175.416 207.301 175.012 207.46 174.381Z" fill="#FCFDFD"/>
<path d="M209.742 165.729C211.171 165.895 213.852 167.904 212.967 169.837C212.526 169.995 212.423 169.998 212.114 170.362C212.376 171.917 212.416 171.788 211.343 172.958C209.662 172.722 208.607 172.252 207.181 171.371C207.68 169.867 208.988 167.153 209.742 165.729Z" fill="#FCFDFD"/>
<path d="M213.631 170.62C214.818 170.697 215.935 171.182 216.348 172.382C216.364 172.99 216.314 173.059 215.97 173.566C215.389 173.789 214.539 173.13 213.574 173.243C213.623 173.647 213.621 173.525 214.03 173.883C214.565 173.958 214.605 173.95 215.062 174.216L215.065 174.502L214.674 174.742C211.348 174.875 212.329 172.35 213.631 170.62Z" fill="#FCFDFD"/>
<path d="M220.149 172.834C220.614 172.984 220.593 172.967 220.904 173.342C220.841 174.379 219.088 177.001 218.481 177.984C217.87 177.818 218.117 177.969 217.69 177.55C217.61 176.387 218.725 175.068 219.529 174.313C220.033 173.84 219.989 173.507 220.149 172.834Z" fill="#FCFDFD"/>
<path d="M217.198 172.743C217.702 172.924 218.591 173.273 218.901 173.684C218.3 174.546 218.005 173.516 216.91 175.264C216.656 175.826 216.534 176.313 215.86 176.257L215.735 175.848C215.95 174.443 216.351 173.892 217.198 172.743Z" fill="#FCFDFD"/>
<path d="M222.317 175.813C222.89 176.148 223.315 176.452 223.976 176.936C223.377 177.86 222.315 180.014 221.409 180.416C220.081 179.409 221.667 177.524 222.317 175.813ZM221.983 173.924C222.262 173.982 222.446 174.246 222.404 174.526C222.362 174.807 222.108 175.006 221.825 174.98L221.665 175.452L221.666 175.453C221.862 175.557 222.036 175.654 222.198 175.746C221.305 176.855 220.29 178.778 219.654 179.064C219.19 178.746 219.328 178.935 219.192 178.31C219.45 177.164 220.369 175.905 221.046 174.926L221.153 174.89L221.358 174.313C221.43 174.038 221.705 173.868 221.983 173.924ZM222.438 175.465C222.404 175.58 222.362 175.696 222.317 175.813C222.279 175.791 222.239 175.769 222.198 175.746C222.28 175.645 222.359 175.551 222.438 175.465Z" fill="#FCFDFD"/>
<path d="M165.063 228.975C173.968 225.016 173.623 232.833 175.292 238.704L173.311 239.198C172.348 239.241 172.189 239.02 171.419 238.516C171.2 238.58 171.011 238.663 170.838 238.757C170.751 238.803 170.669 238.854 170.589 238.906C170.189 239.168 169.85 239.487 169.367 239.771H169.366C166.421 240.988 162.669 240.51 163.459 236.259C164.092 232.854 169.609 233.333 169.783 231.568C167.483 228.127 164.784 235.364 162.836 231.936C162.671 230.444 163.822 229.526 165.063 228.975Z" fill="#FBC20A"/>
<path d="M168.483 234.834C169.162 234.657 169.466 234.499 170.113 234.741C171.76 236.332 169.542 237.826 167.855 238.131C166.373 236.632 166.913 235.92 168.483 234.834Z" fill="#111628"/>
<path d="M161.085 229.009L161.448 229.044C161.682 229.814 158.822 239.687 158.366 241.508L155.193 241.897C154.08 240.02 152.622 236.896 151.596 234.853C150.81 233.326 150.007 231.806 149.187 230.295L152.986 229.911C154.23 232.144 155.1 234.185 156.506 236.474C157.021 234.129 157.524 231.587 158.236 229.31L161.085 229.009Z" fill="#FBC20A"/>
<path d="M130.435 250.803C130.542 250.155 130.581 249.977 130.819 249.367C131.882 248.425 135.378 248.88 136.108 249.696C135.252 251.993 134.566 256.988 134.597 259.41C134.465 260.415 134.416 260.986 134.402 261.999C133.497 261.808 129.74 260.784 129.396 260.75L129.45 258.951C129.662 256.302 129.918 253.393 130.435 250.803Z" fill="#8EADC6"/>
<path d="M113.465 244.885C114.337 245.22 115.262 245.559 116.118 245.918C115.516 247.081 114.569 250.859 114.303 252.261L112.612 250.087L112.128 250.239C111.903 248.944 111.907 248.475 112.365 247.21C113.002 246.398 113.28 245.758 114.254 245.664L114.457 245.653C113.314 245.673 113.044 246.344 112.364 247.21C112.706 246.164 112.9 245.843 113.465 244.885ZM112.612 250.087C113.027 250.125 113.309 250.332 113.677 250.539C113.31 250.332 113.027 250.125 112.613 250.087H112.612Z" fill="#8EADC6"/>
<path d="M113.465 244.885C114.337 245.22 115.262 245.559 116.118 245.918C117.685 246.478 124.768 249.461 125.789 249.209L125.84 249.346C126.726 249.583 129.694 250.462 130.434 250.803C130.541 250.155 130.58 249.976 130.818 249.366C131.881 248.425 135.376 248.88 136.107 249.696C135.251 251.993 134.564 256.988 134.595 259.41C134.615 260.389 134.465 260.535 134.895 261.276C135.638 261.705 136.803 261.517 137.87 261.693L137.82 261.897C138.846 262.04 141.181 262.33 142.112 262.607C144.572 263.339 147.002 264.359 149.483 265.117C150.458 265.286 151.613 265.806 152.395 265.687C156.319 266.375 156.794 265.797 160.677 264.468C159.67 265.522 157.339 265.707 156.536 267.018C157.067 268.051 164.856 267.751 166.286 267.424C164.075 268.508 160.607 267.471 158.642 268.189L162.135 268.392L161.01 268.56C161.031 268.578 161.052 268.594 161.071 268.61L162.136 268.452C162.746 268.486 162.742 268.384 163.138 268.686C162.671 269.157 162.268 269.257 161.65 269.502C161.643 269.483 161.637 269.465 161.631 269.448C158.997 270.574 156.378 271.934 153.807 273.006C153.509 271.387 152.666 269.986 150.732 270.439C150.125 270.58 149.605 270.969 149.3 271.512C148.798 272.41 149.006 273.263 149.467 274.114C149.666 274.311 149.765 274.597 149.777 274.876C149.775 274.877 149.774 274.876 149.773 274.877C149.774 274.897 149.777 274.917 149.778 274.937C147.423 275.973 134.117 272.572 131.4 271.767C130.967 271.521 128.946 270.878 128.376 270.682C125.923 269.841 123.818 269.169 121.505 267.979C121.522 267.966 121.54 267.955 121.557 267.943H121.556C121.539 267.955 121.521 267.967 121.504 267.979C121.27 267.922 120.285 267.384 120.008 267.242C119.802 267.027 118.827 266.516 118.508 266.336C117.731 265.986 116.204 264.872 115.335 264.355C115.293 264.306 115.254 264.262 115.218 264.22C114.653 263.856 114.192 263.532 113.638 263.124C113.087 262.634 112.718 262.165 112.022 262.12L111.66 262.3C111.64 263.077 112.028 263.225 112.668 263.565C113.102 263.833 113.315 264.221 113.615 264.644L113.44 264.782C113.406 265.478 113.437 265.653 112.993 266.171C112.411 266.366 112.371 266.418 111.657 266.158L111.618 266.04C111.468 265.57 111.454 265.529 111.439 265.044L111.234 264.972C110.843 265.715 110.565 266.212 110.293 267.01L110.273 266.774C109.932 267.319 109.969 267.489 109.975 268.145L109.817 269.771C109.597 267.181 109.872 266.083 110.886 263.674C110.213 261.716 109.652 260.005 110.156 257.942C110.779 255.385 110.838 252.86 112.124 250.544L112.126 250.239C111.901 248.944 111.907 248.475 112.365 247.21C112.706 246.164 112.9 245.843 113.465 244.885Z" fill="#B4471F"/>
<path d="M118.844 261.941C119.466 261.585 120.259 261.804 120.61 262.428C120.962 263.051 120.738 263.843 120.112 264.191C119.491 264.535 118.708 264.315 118.36 263.695C118.011 263.077 118.228 262.293 118.844 261.941Z" fill="#EFE7E1"/>
<path d="M113.467 244.885C114.338 245.22 115.263 245.559 116.119 245.918C117.687 246.478 124.77 249.461 125.791 249.209L125.842 249.346C126.728 249.584 129.696 250.461 130.436 250.802C130.543 250.155 130.582 249.977 130.819 249.366C131.882 248.425 135.378 248.88 136.108 249.696L136.108 249.697L136.285 249.765C136.29 250.692 136.147 250.553 136.61 251.188C137.291 251.616 138.418 251.699 139.246 251.819C141.007 253.146 142.064 252.048 142.821 252.443C143.1 253.739 142.374 260.099 142.383 262.108C141.318 261.95 138.74 261.493 137.871 261.693L137.872 261.694L137.821 261.898C136.831 261.795 136.907 261.651 136.126 262.018C135.64 262.682 135.686 262.421 135.688 263.126C136.755 264.805 153.415 267.995 154.966 267.145L155.001 266.902C152.641 266.353 152.044 266.714 149.403 265.409L149.484 265.117C150.46 265.286 151.615 265.806 152.397 265.687C156.32 266.376 156.795 265.797 160.678 264.468C159.671 265.522 157.34 265.708 156.538 267.018C157.069 268.051 164.858 267.752 166.288 267.424C164.076 268.508 160.608 267.471 158.644 268.19C152.072 268.266 141.711 265.891 135.427 264.004L135.425 264.002C132.866 263.447 126.255 261.17 124.085 259.789L124.084 259.788L124.085 259.79C123.865 259.7 123.641 259.603 123.414 259.502C122.961 259.3 122.498 259.077 122.029 258.835C118.983 257.266 115.715 254.926 113.715 252.566H113.716C113.287 252.1 112.903 251.38 112.57 250.824L112.126 250.544L112.128 250.239C111.903 248.943 111.907 248.475 112.365 247.21C112.707 246.164 112.902 245.843 113.467 244.885ZM134.401 261.998V261.999V261.998ZM135.126 261.383C135.239 261.427 135.359 261.461 135.485 261.488C135.359 261.461 135.239 261.427 135.126 261.383ZM130.023 261.29C130.047 261.31 130.071 261.33 130.094 261.35C130.042 261.304 129.986 261.26 129.923 261.219L130.023 261.29Z" fill="#48201A"/>
<path d="M111.657 266.218C111.601 265.361 111.495 264.947 112.133 264.354C112.926 264.376 112.636 264.335 113.44 264.842C113.407 265.539 113.437 265.713 112.993 266.231C112.411 266.426 112.371 266.479 111.657 266.218Z" fill="#EFE7E1"/>
<path d="M114.767 259.086C116.722 259.564 117.174 260.872 115.63 262.259C113.845 261.565 113.19 260.475 114.767 259.086Z" fill="#F1E1D9"/>
<path d="M111.561 257.508C112.217 257.83 112.005 257.628 112.358 258.274C112.417 258.978 112.296 259.262 112.101 259.923C110.927 259.388 111.29 258.588 111.561 257.508Z" fill="#F1E1D9"/>
<path d="M134.597 259.47C134.617 260.449 134.467 260.595 134.896 261.336C135.639 261.765 136.804 261.578 137.872 261.754L137.821 261.958C138.848 262.1 141.182 262.39 142.113 262.667C144.574 263.399 147.004 264.42 149.485 265.178C150.46 265.346 151.615 265.867 152.397 265.747C156.32 266.436 156.795 265.857 160.678 264.528C159.671 265.582 157.34 265.767 156.538 267.078C157.068 268.111 164.858 267.812 166.288 267.484C164.076 268.568 160.608 267.531 158.644 268.25C152.071 268.326 141.711 265.951 135.427 264.064C134.554 263.302 132.161 262.881 131.081 262.299C130.251 261.851 130.331 261.273 129.361 261.057L129.397 260.81C129.74 260.844 133.497 261.868 134.402 262.059C134.416 261.046 134.465 260.475 134.597 259.47Z" fill="#2D5986"/>
<path d="M123.751 264.116C125.932 264.067 126.754 265.574 125.438 267.349C123.099 267.349 122.485 265.99 123.751 264.116Z" fill="#F1E1D9"/>
<path d="M128.814 265.803C129.584 265.72 130.284 266.254 130.407 267.02C130.529 267.785 130.032 268.512 129.274 268.673C128.748 268.787 128.203 268.6 127.856 268.188C127.509 267.776 127.418 267.207 127.619 266.707C127.819 266.207 128.279 265.861 128.814 265.803Z" fill="#EFE7E1"/>
<path d="M133.866 267.673C134.471 267.407 135.178 267.591 135.579 268.117C135.98 268.641 135.969 269.373 135.553 269.886C135.138 270.4 134.425 270.561 133.828 270.281C133.32 270.039 133 269.526 133.008 268.965C133.016 268.403 133.351 267.898 133.866 267.673Z" fill="#F1E1D9"/>
<path d="M112.023 262.181C112.719 262.226 113.089 262.693 113.64 263.184C114.231 263.62 114.716 263.961 115.336 264.355C116.205 264.872 117.732 265.986 118.51 266.336C118.828 266.516 119.804 267.027 120.01 267.242L120.773 267.643C120.96 267.738 121.145 267.828 121.288 267.893C121.358 267.924 121.419 267.948 121.464 267.963C121.48 267.968 121.494 267.975 121.506 267.978C121.795 268.126 122.081 268.267 122.364 268.401C122.648 268.535 122.93 268.662 123.21 268.784C124.893 269.515 126.537 270.05 128.377 270.681C128.947 270.877 130.967 271.521 131.399 271.767L131.928 272.713C134.001 272.591 136.026 273.44 138.042 273.937C141.834 274.869 145.407 275.425 149.275 275.78L149.143 276.023C147.628 276.415 143.744 278.185 142.418 278.096C142.393 277.862 142.363 277.302 142.27 277.128C142.254 277.452 142.06 277.74 141.767 277.879C141.473 278.016 141.127 277.98 140.868 277.783L140.49 278.251L141.044 278.812C139.223 280.567 134.044 281.13 131.718 282.63C131.24 282.752 130.712 282.872 130.246 283.02C128.97 283.527 127.832 283.895 126.529 284.312C120.526 285.87 114.249 288.59 108.397 285.595C107.561 283.897 108.601 282.735 107.993 281.623C108.163 281.41 109.576 273.23 110.118 271.767C110.125 271.538 110.102 271.295 110.064 271.048C110.002 270.636 109.897 270.212 109.817 269.831L109.975 268.204C109.969 267.549 109.933 267.379 110.273 266.834L110.294 267.07C110.566 266.273 110.843 265.774 111.233 265.031L111.438 265.104C111.454 265.589 111.469 265.631 111.618 266.101L111.656 266.219C112.371 266.479 112.411 266.426 112.993 266.231C113.437 265.713 113.407 265.539 113.44 264.843L113.614 264.704C113.314 264.281 113.102 263.894 112.668 263.626C112.027 263.285 111.641 263.137 111.66 262.36L112.022 262.181H112.023Z" fill="#36120F"/>
<path d="M133.866 267.673C134.471 267.407 135.179 267.591 135.579 268.117C135.98 268.641 135.969 269.373 135.554 269.886C135.138 270.4 134.425 270.561 133.828 270.281C134.448 270.017 134.984 270.335 135.225 269.395C134.627 268.433 134.417 268.847 133.866 267.673Z" fill="#EFE7E1"/>
<path d="M144.549 272.819C143.834 272.016 143.783 271.54 144.254 270.632C145.237 269.874 146.051 270.108 146.948 270.861C147.117 271.482 147.086 271.572 146.911 272.197C146.282 273.07 145.52 273.044 144.549 272.819Z" fill="#F1E1D9"/>
<path d="M146.948 270.861C147.117 271.482 147.086 271.572 146.912 272.197C146.283 273.07 145.52 273.044 144.55 272.819L144.844 272.534C144.962 272.078 144.878 271.759 144.815 271.291L145.051 271.153L145.834 271.484C146.462 271.319 146.565 271.338 146.948 270.861Z" fill="#F2D0BC"/>
<path d="M139.348 269.103C140.089 268.867 140.881 269.273 141.121 270.013C141.36 270.754 140.956 271.548 140.217 271.789C139.474 272.033 138.676 271.626 138.435 270.883C138.195 270.138 138.604 269.341 139.348 269.103Z" fill="#F2D0BC"/>
<path d="M110.118 271.766C110.445 272.126 110.867 272.645 111.266 272.888C115.601 276.642 119.236 277.512 123.954 279.824L123.92 280.125C126.031 281.268 127.675 281.417 129.654 282.48L129.711 282.578C129.795 282.722 129.874 282.84 129.966 282.978L130.246 283.019C128.97 283.527 127.832 283.896 126.529 284.313C120.526 285.871 114.249 288.591 108.397 285.595C107.561 283.898 108.601 282.735 107.993 281.623C108.163 281.409 109.576 273.23 110.118 271.766ZM123.955 279.824C125.77 280.481 129.83 282.022 131.571 282.235L131.719 282.63C131.241 282.751 130.714 282.871 130.248 283.019L129.967 282.978C129.875 282.84 129.796 282.722 129.712 282.578L129.656 282.48C127.677 281.417 126.032 281.269 123.921 280.125L123.955 279.824Z" fill="#71A1BD"/>
<path d="M111.134 270.464C111.279 269.659 111.379 269.451 111.95 269.049C112.664 269.169 112.424 269.109 113.039 269.659L112.931 270.833C112.059 271.11 111.878 270.913 111.134 270.464Z" fill="#EFE7E1"/>
<path d="M125.004 271.962C126.257 271.728 126.649 271.784 127.395 272.899C126.72 273.762 126.186 273.978 125.272 273.371C124.914 272.768 124.93 272.667 125.004 271.962Z" fill="#F1E1D9"/>
<path d="M121.757 270.835C121.989 270.623 122.306 270.529 122.617 270.582C122.927 270.634 123.196 270.827 123.346 271.104C123.598 271.572 123.449 272.156 123.003 272.446C122.557 272.737 121.963 272.635 121.638 272.214C121.312 271.795 121.364 271.194 121.757 270.835Z" fill="#F1E1D9"/>
<path d="M114.56 272.454C114.792 271.849 114.788 271.715 115.295 271.374C115.925 271.385 115.68 271.288 116.186 271.799C116.424 272.624 116.436 272.302 116.233 273.059C115.655 273.478 115.532 273.461 114.824 273.195L114.56 272.454Z" fill="#EFE7E1"/>
<path d="M114.885 266.402C116.234 266.651 116.177 266.688 116.575 267.948C116.311 268.143 116.046 268.317 115.774 268.498C115.122 268.485 115.352 268.586 114.929 268.162C114.695 267.441 114.783 267.134 114.885 266.402Z" fill="#FCFDFD"/>
<path d="M117.966 268.592C118.436 268.566 118.955 268.525 119.42 268.523L119.955 269.322C119.661 270.022 119.609 270.037 119.047 270.314L118.636 270.17C118.07 269.638 118.083 269.343 117.966 268.592Z" fill="#FCFDFD"/>
<path d="M140.869 277.783C140.537 277.533 140.428 277.081 140.608 276.707C140.788 276.333 141.208 276.136 141.611 276.237C142.015 276.34 142.291 276.713 142.27 277.128C142.254 277.452 142.061 277.74 141.767 277.879C141.473 278.016 141.127 277.98 140.869 277.783Z" fill="#EFE7E1"/>
<path d="M129.158 277.087C129.707 276.743 129.463 276.829 130.13 276.823L130.453 277.106C130.374 277.401 130.433 277.415 130.267 277.538C130.548 277.941 130.531 278.48 130.225 278.864C129.919 279.245 129.397 279.382 128.944 279.197C128.49 279.011 128.212 278.549 128.262 278.06C128.311 277.574 128.676 277.177 129.158 277.087Z" fill="#EFE7E1"/>
<path d="M137.392 275.161C137.734 274.966 138.154 274.972 138.491 275.176C138.829 275.378 139.03 275.747 139.02 276.14C139.009 276.533 138.788 276.89 138.44 277.074C137.912 277.355 137.258 277.158 136.971 276.634C136.684 276.112 136.872 275.455 137.392 275.161Z" fill="#EFE7E1"/>
<path d="M135.122 279.346C135.016 279.869 134.538 280.23 134.007 280.189C133.476 280.148 133.058 279.719 133.032 279.185C133.007 278.654 133.382 278.186 133.907 278.096C134.431 278.004 134.942 278.319 135.097 278.828C135.149 278.996 135.157 279.174 135.122 279.346Z" fill="#EFE7E1"/>
<path d="M130.218 273.435C130.749 273.233 131.344 273.5 131.545 274.032C131.746 274.564 131.477 275.159 130.944 275.357C130.414 275.558 129.823 275.29 129.622 274.758C129.422 274.228 129.689 273.637 130.218 273.435Z" fill="#F1E1D9"/>
<path d="M124.964 275.889C125.493 275.741 126.043 276.044 126.198 276.572C126.353 277.098 126.055 277.652 125.53 277.813C125.185 277.92 124.809 277.832 124.547 277.583C124.285 277.336 124.176 276.965 124.263 276.615C124.349 276.265 124.617 275.988 124.964 275.889Z" fill="#EFE7E1"/>
<path d="M118.708 273.704C119.143 273.39 119.752 273.487 120.068 273.921C120.384 274.356 120.288 274.966 119.853 275.282C119.418 275.599 118.807 275.503 118.491 275.067C118.174 274.631 118.271 274.021 118.708 273.704Z" fill="#EFE7E1"/>
<path d="M143.328 252.841C143.701 249.788 156.451 252.105 158.828 251.516C159.907 251.248 165.296 251.533 165.481 252.42C165.791 253.9 166.092 260.119 165.443 261.939C164.857 263.238 162.533 263.82 161.373 264.237L160.677 264.468C156.793 265.797 156.319 266.376 152.395 265.687C149.991 264.876 145.086 263.596 143.149 262.308C142.973 260.307 143.082 254.857 143.328 252.841Z" fill="#FBC20A"/>
<path d="M146.361 260.606C150.907 260.79 155.426 261.048 159.975 260.866C160.598 260.842 161.265 260.797 161.883 260.842L161.793 261.046C160.105 261.709 155.421 262.381 153.648 262.135C152.543 261.984 146.492 261.359 145.954 260.741L146.361 260.606Z" fill="#F8EBB8"/>
<path d="M145.987 254.563L162.394 254.831C162.428 256.394 162.528 258.928 162.229 260.4L161.883 260.781L161.792 260.986C160.104 261.648 155.42 262.321 153.647 262.075C152.541 261.924 146.494 261.299 145.954 260.681L146.36 260.546L146.353 260.393L146.062 260.295C145.619 259.576 145.935 255.63 145.987 254.563Z" fill="#321816"/>
<path d="M174.249 251.338C174.922 251.265 175.691 251.128 176.355 251.104C178.012 251.044 179.299 250.185 179.419 252.315L179.437 253.453C179.557 255.211 179.629 256.971 179.655 258.732C178.104 259.152 176.28 259.475 174.688 259.794C174.655 257.038 174.58 254.073 174.249 251.338Z" fill="#8EADC6"/>
<path d="M127.7 245.746C132.122 246.987 135.256 247.577 139.759 248.393L139.48 248.686L139.481 248.687L139.76 248.394C142.096 248.665 144.438 248.88 146.784 249.043C147.855 249.114 152.357 249.189 153.087 249.427L152.96 249.971C150.812 249.755 148.026 249.774 145.725 249.9L144.771 249.96C143.292 250.632 143.097 250.728 142.323 252.165C141.332 252.055 140.224 251.957 139.247 251.819C138.418 251.699 137.291 251.616 136.61 251.188C136.147 250.554 136.29 250.692 136.285 249.766C136.477 249.021 136.105 249.331 136.577 248.574C136.753 248.487 136.945 248.448 137.15 248.438L137.306 248.436C137.041 248.431 136.796 248.465 136.576 248.574C136.104 249.331 136.476 249.02 136.284 249.765L136.107 249.697C135.377 248.88 131.88 248.425 130.817 249.366C130.58 249.977 130.541 250.155 130.434 250.802C129.693 250.461 126.725 249.584 125.84 249.346L125.79 249.209C126.514 248.118 127.099 246.913 127.7 245.746Z" fill="#4A7AAF"/>
<path d="M150.659 271.091C151.755 271.129 152.485 271.295 152.752 272.39C152.599 273.085 152.321 273.249 151.802 273.747C149.709 273.819 149.033 272.54 150.659 271.091Z" fill="#EFE7E1"/>
<path d="M204.991 247.149C206.026 249.565 209.207 250.447 207.799 254.38C207.498 255.221 206.459 257.504 206.302 258.225C206.236 258.79 209.355 268.875 209.628 269.017C207.833 269.689 205.581 271.299 203.794 272.069C199.352 273.976 194.046 275.947 189.384 277.242C188.654 277.433 187.776 277.638 187.069 277.857C183.274 278.94 180.808 279.255 176.965 279.948C173.782 280.245 171.133 280.467 167.917 280.52L167.345 281.108C166.496 281.289 159.514 285.043 157.944 285.738C147.476 290.367 119.019 304.122 108.572 297.671L108.612 297.438C104.577 294.448 104.643 290.515 105.315 285.938C105.637 285.197 105.798 284.704 106.361 284.118L106.696 284.123L107.205 284.749C107.619 285.264 107.764 285.271 108.397 285.535C114.248 288.53 120.525 285.811 126.529 284.253C129.514 284.553 147.561 276.84 151.061 275.648C156.05 273.278 161.001 270.827 165.911 268.296C166.104 268.155 169.151 266.639 169.532 266.443L179.756 261.205C180.752 260.152 186.84 258.091 186.788 256.746L186.969 258.225C186.823 257.321 189.734 256.095 189.199 255.578L191.195 254.38L191.446 254.213L194.948 252.434C195.708 251.902 194.721 249.34 196.772 248.644C197.057 248.548 202.131 247.623 202.58 247.635L202.69 247.626C203.688 247.205 203.899 247.21 204.991 247.149Z" fill="#B4471F"/>
<path d="M205.096 247.37C206.221 249.623 209.164 250.57 207.8 254.38C207.498 255.221 206.459 257.504 206.303 258.225C206.237 258.79 209.355 268.872 209.629 269.017C207.834 269.689 205.582 271.299 203.795 272.069C199.353 273.976 194.047 275.947 189.385 277.242C188.655 277.433 187.777 277.638 187.069 277.857C183.275 278.94 180.81 279.255 176.967 279.948C173.783 280.245 171.134 280.467 167.918 280.52C168.032 280.409 168.204 280.284 168.382 280.162C168.56 280.041 168.745 279.923 168.887 279.827L168.973 279.788C169.081 279.729 169.238 279.622 169.3 279.582L169.827 279.427C172.527 277.789 175.465 276.189 178.229 274.631C179.275 274.191 182.018 272.727 183.169 272.128C189.854 268.646 196.123 265.513 202.174 260.983C202.29 260.805 202.827 260.351 203.019 260.181C203.149 258.766 203.609 259.224 203.643 258.509C202.816 258.501 202.04 259.248 200.84 259.306C200.74 259.311 200.637 259.312 200.531 259.306C200.266 259.292 199.981 259.242 199.671 259.145C199.609 259.125 199.546 259.104 199.482 259.08C199.434 259.128 199.39 259.174 199.352 259.219C198.818 259.847 199.263 260.199 198.472 260.84C198.415 260.886 198.353 260.934 198.283 260.983C198.323 260.909 198.36 260.836 198.395 260.765C199.472 258.561 198.348 257.659 196.076 257.541C196.272 257.499 196.457 257.48 196.632 257.474C196.807 257.468 196.973 257.476 197.13 257.491C197.445 257.521 197.726 257.577 197.983 257.596C198.069 257.602 198.153 257.605 198.233 257.601C198.314 257.597 198.392 257.585 198.469 257.566C199.883 255.146 198.861 255.355 201.81 254.409C202.886 251.175 202.353 251.225 205.498 250.046C205.466 249.578 204.628 248.099 204.361 247.586C204.032 247.46 203.552 247.514 203.111 247.573C202.964 247.592 202.821 247.612 202.69 247.626C202.815 247.574 202.928 247.527 203.031 247.487C203.549 247.285 203.84 247.227 204.312 247.19C204.502 247.175 204.72 247.164 204.993 247.149C205.025 247.224 205.059 247.298 205.096 247.37Z" fill="#502114"/>
<path d="M204.625 263.019C204.78 261.982 205.182 261.357 206.273 261.495C207.222 262.315 207.028 263.182 206.123 263.991C205.421 263.796 205.16 263.494 204.625 263.019Z" fill="#EFE7E1"/>
<path d="M206.842 265.851C207.659 265.797 207.379 265.707 207.969 266.098C208.231 266.924 207.9 267.4 207.424 268.072C206.919 267.877 206.946 267.888 206.59 267.476C206.413 266.834 206.616 266.492 206.842 265.851Z" fill="#EFE7E1"/>
<path d="M203.712 251.75C206.608 251.682 206.635 254.303 204.943 255.969L204.35 256.027C202.38 255.173 202.314 253.2 203.712 251.75Z" fill="#FABC10"/>
<path d="M204.327 252.038C206.06 252.579 205.527 254.472 204.425 255.486C202.919 254.269 203.081 253.294 204.327 252.038Z" fill="#FBC20A"/>
<path d="M200.717 255.376C201.527 255.145 202.369 255.613 202.603 256.422C202.836 257.231 202.372 258.077 201.565 258.315C200.752 258.554 199.898 258.086 199.663 257.272C199.428 256.456 199.901 255.606 200.717 255.376Z" fill="#F1E1D9"/>
<path d="M194.464 267.873C195.437 268.515 195.778 268.873 195.191 270.024C194.659 270.348 194.442 270.464 193.782 270.226L193.102 269.345C193.429 268.495 193.745 268.306 194.464 267.873Z" fill="#F1E1D9"/>
<path d="M203.491 269.887C202.928 269.923 202.423 269.541 202.305 268.989C202.188 268.437 202.493 267.881 203.023 267.684C203.552 267.488 204.146 267.71 204.417 268.205C204.688 268.701 204.555 269.32 204.104 269.659C203.927 269.794 203.713 269.873 203.491 269.887Z" fill="#EFE7E1"/>
<path d="M191.901 274.76C191.296 274.569 191.202 274.547 190.844 274.032C190.803 272.993 191.366 272.613 192.4 272.647C193.485 273.366 193.088 274.09 192.129 274.682L191.901 274.76Z" fill="#EFE7E1"/>
<path d="M201.453 263.914C202.327 263.527 202.034 263.525 202.829 263.613C203.28 264.024 203.263 264.084 203.394 264.711C203.146 264.934 202.908 265.101 202.642 265.299C201.961 265.395 202.228 265.449 201.638 265.138C201.323 264.474 201.404 264.751 201.453 263.914Z" fill="#EFE7E1"/>
<path d="M177.226 277.566C177.945 276.51 178.079 276.417 179.264 276.155C179.351 277.166 179.433 276.799 179.058 277.643C178.463 278.087 178.748 277.98 177.955 278.002C177.68 277.866 177.452 277.774 177.226 277.566Z" fill="#EFE7E1"/>
<path d="M198.866 269.753C199.22 269.537 199.663 269.528 200.026 269.728C200.389 269.931 200.615 270.311 200.618 270.726C200.621 271.142 200.401 271.525 200.041 271.733C199.496 272.046 198.799 271.864 198.478 271.323C198.157 270.78 198.33 270.082 198.866 269.753Z" fill="#EFE7E1"/>
<path d="M183.097 277.01C182.556 277.048 182.068 276.686 181.946 276.159C181.823 275.631 182.103 275.092 182.606 274.887C183.108 274.683 183.684 274.876 183.964 275.34C184.163 275.67 184.176 276.078 183.999 276.419C183.822 276.759 183.48 276.984 183.097 277.01Z" fill="#EFE7E1"/>
<path d="M183.965 275.34C184.163 275.67 184.176 276.078 183.999 276.419C183.822 276.759 183.481 276.984 183.098 277.01C182.876 276.426 182.651 276.17 182.76 275.634C183.197 275.543 183.534 275.462 183.965 275.34Z" fill="#F1E1D9"/>
<path d="M187.238 274.185C187.68 273.965 188.218 274.139 188.445 274.579C188.672 275.018 188.503 275.558 188.067 275.79C187.78 275.943 187.432 275.93 187.157 275.756C186.882 275.582 186.723 275.273 186.739 274.947C186.756 274.622 186.947 274.33 187.238 274.185Z" fill="#EFE7E1"/>
<path d="M196.075 257.602C198.421 257.723 199.543 258.68 198.283 261.042C195.344 262.94 192.715 259.846 196.075 257.602Z" fill="#36120F"/>
<path d="M196.252 258.225C197.015 257.94 197.864 258.332 198.145 259.095C198.425 259.859 198.031 260.707 197.266 260.984C196.505 261.259 195.665 260.87 195.386 260.11C195.106 259.35 195.494 258.508 196.252 258.225Z" fill="#EFE7E1"/>
<path d="M180.34 266.269C181.143 267.143 181.206 267.323 181.743 268.321C181.599 269.592 181.101 270.802 179.681 271.055C179.001 271.171 178.304 270.999 177.754 270.583C176.732 269.805 176.556 268.489 177.399 267.504C178.227 266.535 179.161 266.406 180.34 266.269ZM183.073 264.34C183.799 263.341 185.183 263.093 186.212 263.774C187.241 264.455 187.551 265.825 186.915 266.884C186.279 267.942 184.923 268.311 183.838 267.723L183.404 267.851C182.974 267.581 182.932 267.553 182.567 267.205C182.143 267.613 181.909 268.296 181.884 268.871L181.744 268.321C181.207 267.323 181.144 267.143 180.341 266.269L180.835 266.166C182.906 267.034 181.468 265.421 182.726 264.258L183.073 264.34Z" fill="#36120F"/>
<path d="M184.494 264.247C185.016 264.071 185.593 264.191 185.999 264.563C186.405 264.934 186.577 265.498 186.447 266.033C186.316 266.568 185.905 266.989 185.373 267.134C184.587 267.345 183.775 266.894 183.537 266.115C183.3 265.337 183.724 264.511 184.494 264.247Z" fill="#F1E1D9"/>
<path d="M178.841 267.218C179.693 266.975 180.58 267.471 180.818 268.324C181.056 269.178 180.555 270.062 179.7 270.296C178.852 270.528 177.976 270.03 177.74 269.184C177.504 268.337 177.996 267.458 178.841 267.218Z" fill="#EFE7E1"/>
<path d="M191.021 260.297C193.807 259.666 194.89 262.832 192.009 264.532C188.694 264.651 188.411 261.946 191.021 260.297Z" fill="#36120F"/>
<path d="M191.169 260.949C191.963 260.936 192.136 260.898 192.773 261.36C193.446 262.502 192.939 263.021 192.079 263.805C189.684 264.013 189.309 262.201 191.169 260.949Z" fill="#EFE7E1"/>
<path d="M145.175 294.23C147.41 294.417 156.549 295.715 158.03 296.694C157.477 298.658 156.886 300.61 156.26 302.552C155.706 304.7 154.847 307.815 154.096 309.889C153.358 313.145 151.553 317.675 150.997 320.53H138.854C139.106 318.664 140.372 314.059 140.853 312.106C142.356 306.163 143.797 300.204 145.175 294.23Z" fill="#4A7AAF"/>
<path d="M148.747 138.314C149.174 138.331 149.607 138.332 150.044 138.327C150.626 138.321 151.213 138.303 151.798 138.297C152.967 138.285 154.123 138.318 155.199 138.579C154.072 139.218 153.143 139.824 152.376 140.901C150.208 142.7 149.519 146.47 149.664 149.147C149.974 150.157 150.115 150.689 150.614 151.615C151.034 152.067 151.258 152.299 151.609 152.814C153.609 154.526 154.762 154.993 157.278 155.85L157.87 156.307L157.822 156.474L157.756 156.505C158.751 156.885 159.179 156.815 159.838 157.035C159.683 157.53 159.286 158.906 159.06 159.291C155.914 168.675 151.956 178.701 148.587 188.115L143.639 202.072C142.878 204.265 141.866 207.567 141.027 209.655L140.859 210.067C140.253 212.116 139.62 214.159 138.962 216.192C138.481 216.643 136.734 216.855 135.974 217.032C134.407 217.388 132.65 217.717 131.181 218.327C129.88 220.542 129.375 223.02 129.186 225.559C127.883 225.164 126.76 224.814 125.424 224.53C125.325 224.49 124.513 224.301 124.36 224.264L123.975 224.063C123.078 223.739 122.28 223.887 121.78 223.423L122.122 222.858L121.781 222.578C120.099 221.073 120.133 222.309 118.653 221.139L118.536 221.07L117.706 220.314C117.179 220.84 117.005 220.842 116.338 220.63C115.784 220.155 115.717 219.872 115.453 219.209C116.451 218.747 115.488 217.467 116.451 216.377L116.777 215.602C116.413 213.382 115.478 211.198 112.807 211.443L112.62 211.364C112.25 211.796 111.967 212.204 111.402 212.178C109.419 210.587 110.291 204.45 109.975 203.85L110.363 202.889C110.7 201.826 111.013 200.717 111.332 199.645C112.136 197.477 113.386 191.987 113.961 189.6C114.159 188.503 114.464 187.335 114.726 186.243L114.797 185.755C115.86 185.381 124.031 190.007 126.087 190.183C126.155 190.189 126.217 190.19 126.271 190.186C126.299 190.184 126.324 190.18 126.348 190.175C126.371 190.17 126.393 190.164 126.412 190.156C126.55 189.89 126.681 189.682 126.758 189.448C126.773 189.4 126.786 189.352 126.797 189.302C126.818 189.203 126.829 189.096 126.827 188.977C126.428 188.628 125.236 188.063 123.752 187.423C123.455 187.295 123.147 187.164 122.831 187.031C121.567 186.5 120.181 185.938 118.931 185.417C118.305 185.157 117.713 184.907 117.188 184.677C116.925 184.562 116.678 184.451 116.452 184.347C115.775 184.034 115.281 183.774 115.081 183.599L115.115 183.205C115.211 182.638 115.38 182.049 115.244 181.541C115.199 181.372 115.119 181.211 114.991 181.064L113.078 181.572L113.52 180.845C113.642 180.779 113.805 180.691 113.983 180.591C114.385 180.366 114.868 180.074 115.159 179.794C115.224 179.732 115.279 179.67 115.322 179.61C115.344 179.58 115.362 179.551 115.377 179.522C115.466 179.348 115.528 179.259 115.617 179.189C115.707 179.119 115.824 179.067 116.025 178.967L116.311 178.875C116.181 178.691 116.12 178.477 116.107 178.252C116.104 178.196 116.104 178.138 116.106 178.08C116.115 177.908 116.15 177.73 116.202 177.555C116.255 177.38 116.326 177.206 116.408 177.042C116.463 176.933 116.523 176.828 116.585 176.729C116.616 176.679 116.648 176.631 116.681 176.584C116.745 176.492 116.813 176.406 116.879 176.329L116.976 175.994C116.747 174.361 120.838 155.919 121.676 152.962C122.177 151.193 124.605 145.339 124.827 143.749L126.516 142.742C126.715 142.578 127.044 142.428 127.285 142.303C127.959 141.936 128.81 141.596 129.787 141.284C129.983 141.222 130.183 141.161 130.389 141.101C130.799 140.98 131.227 140.864 131.67 140.752C134.33 140.08 137.531 139.556 140.548 139.155C141.554 139.021 142.539 138.9 143.478 138.792C144.415 138.685 145.306 138.59 146.122 138.507C146.939 138.424 147.682 138.352 148.323 138.291C148.464 138.301 148.605 138.308 148.747 138.314Z" fill="#DD2729"/>
<path d="M134.292 149.811C136.046 149.622 136.901 149.652 138.753 150.33C141.93 151.49 146.275 155.238 144.951 159.074C144.521 160.317 142.968 161.208 141.726 161.665C134.146 162.827 126.167 152.726 134.292 149.811Z" fill="#F9CC28"/>
<path d="M134.857 151.449C139.974 151 147.01 157.612 141.279 159.952C136.548 160.352 128.846 154.066 134.857 151.449Z" fill="#231311"/>
<path d="M115.526 192.666C116.019 192.949 116.544 193.134 116.685 193.712C117.067 195.29 116.387 197.852 116.077 199.409L116.442 199.235L116.752 198.68C117.525 197.254 118.643 195.043 119.98 194.645C120.729 194.422 122.098 195.031 122.434 195.796C122.39 196.841 118.097 202.15 117.351 202.848L116.791 203.578C115.573 205.137 114.897 205.615 113.069 204.006C113.64 201.816 114.514 193.69 115.526 192.666ZM114.151 204.49C114.296 204.707 114.492 204.872 114.756 204.961C114.762 204.96 114.768 204.958 114.774 204.956C114.507 204.854 114.304 204.693 114.151 204.49ZM114.957 198.519C114.878 198.609 114.813 198.705 114.754 198.806C114.813 198.705 114.878 198.609 114.957 198.519Z" fill="#FBC20A"/>
<path d="M123.667 196.706C125.5 196.994 125.602 196.873 126.255 198.355C127.096 198.895 128.432 198.848 129.611 199.205C134.353 200.661 130.961 206.439 129.707 209.275C128.868 211.168 128.241 213.314 125.675 211.341C124.235 210.235 126.346 207.269 127.027 206.017C127.479 205.209 128.799 203.169 127.584 202.409C122.599 199.288 124.857 213.873 118.757 207.518C118.443 206.311 122.933 198.13 123.667 196.706Z" fill="#FBC20A"/>
<path d="M137.032 162.327C138.026 162.63 138.464 162.748 139.487 162.889C139.199 163.542 136.919 166.052 136.299 166.771C135.735 166.586 134.674 166.067 134.098 165.805C134.816 164.875 136.183 163.012 137.032 162.327Z" fill="#FCFDFD"/>
<path d="M124.051 163.536C126.036 163.58 137.654 168.911 139.642 170.236C138.95 172.279 136.454 177.453 135.258 179.175C133.987 179.282 121.799 173.638 119.774 172.646C120.713 170.146 122.663 165.721 124.051 163.536Z" fill="#FCFDFD"/>
<path d="M131.334 168.602C132.847 169.255 135.45 170.317 136.752 171.262C135.975 173.216 134.927 175.373 133.616 177.028C132.605 176.599 131.168 176.041 130.213 175.581C130.821 174.882 130.849 174.259 131.042 173.338C131.312 172.954 131.403 172.621 131.564 172.185C131.412 171.474 131.564 171.732 130.944 171.238C132.008 170.335 131.938 169.667 131.334 168.602Z" fill="#1F1A21"/>
<path d="M123.088 169.894C125.487 170.856 128.619 172.275 131.042 173.338C130.85 174.259 130.821 174.882 130.213 175.581C127.559 174.54 124.816 173.293 122.192 172.149C122.502 171.52 122.83 170.577 123.088 169.894Z" fill="#DD2729"/>
<path d="M124.712 165.652C126.934 166.505 129.169 167.593 131.334 168.602C131.939 169.667 132.008 170.336 130.945 171.238C128.666 170.161 126.082 169.079 123.757 168.05C124.164 167.194 124.396 166.549 124.712 165.652Z" fill="#DD2729"/>
<path d="M157.755 156.505C158.751 156.885 159.179 156.814 159.837 157.035C159.683 157.529 159.286 158.905 159.059 159.291C155.914 168.675 151.956 178.701 148.587 188.116L143.638 202.071C142.877 204.265 141.865 207.567 141.027 209.655L140.859 210.066C140.252 212.116 139.62 214.159 138.961 216.192C138.48 216.643 136.734 216.854 135.974 217.032C136.789 214.99 137.704 211.725 138.438 209.561C140.253 204.211 142.02 198.769 144.08 193.509C144.811 191.309 145.947 187.767 146.872 185.701C147.396 184.166 147.969 182.745 148.572 181.242L148.741 180.787C149.243 178.831 151.457 173.282 152.29 171.234C152.406 170.543 155.312 162.857 155.67 162.104C156.132 160.691 156.599 159.426 157.128 158.039C157.248 157.372 157.44 157.086 157.755 156.505Z" fill="#BCB4BA"/>
<path d="M114.992 181.064C115.797 180.895 115.518 180.856 116.208 181.064C118.472 181.916 125.881 184.956 127.897 186.075L127.019 188.005C123.094 186.478 119.252 184.727 115.366 183.093L115.115 183.205C115.243 182.449 115.503 181.654 114.992 181.064Z" fill="#FCFDFD"/>
<path d="M116.312 178.875C117.473 179.087 127.918 183.374 128.485 184.035C128.52 184.6 128.561 184.379 128.12 184.926C127.183 185.017 117.715 180.845 116.257 180.197C115.931 179.731 116.038 179.613 116.027 178.967L116.312 178.875Z" fill="#FCFDFD"/>
<path d="M150.897 151.921C151.154 152.201 151.346 152.428 151.609 152.814L151.319 153.001C149.968 154.502 147.889 156.333 146.347 157.703C146.212 156.942 145.971 156.243 145.742 155.504C147.189 154.053 148.335 152.853 150.122 151.795L150.614 151.615C150.719 151.728 150.812 151.828 150.897 151.921ZM155.199 138.579C156.03 138.943 155.947 138.885 156.193 139.8C156.227 140.586 156.35 141.413 155.979 142.089L155.963 142.318C154.983 143.127 153.067 145.581 153.032 146.889C152.945 150.2 156.597 151.163 158.927 152.366C159.434 152.631 158.832 154.425 158.676 154.854C158.206 155.282 157.876 155.678 157.278 155.85C154.762 154.993 153.609 154.526 151.609 152.814C151.258 152.299 151.035 152.067 150.615 151.615C150.116 150.689 149.974 150.157 149.664 149.147C149.519 146.47 150.209 142.7 152.377 140.901V140.9L152.376 140.901C152.424 140.834 152.472 140.768 152.521 140.704C153.26 139.748 154.142 139.178 155.199 138.579Z" fill="#FCFDFD"/>
<path d="M122.268 175.646C123.019 175.682 124.708 176.558 125.567 176.878C125.087 177.713 124.203 179.364 123.612 180.025L120.796 178.804C121.291 177.872 122.019 176.637 122.268 175.646Z" fill="#FCFDFD"/>
<path d="M103.578 150.885C106.329 150.219 105.7 152.196 107.899 152.802C109.416 153.222 114.007 151.219 115.208 150.227C116.103 149.487 115.695 148.853 116.779 148.121C117.464 148.044 117.54 148.07 118.128 148.433C118.158 149.36 118.236 149.869 117.496 150.575C116.061 151.962 114.166 152.722 112.361 153.516C110.899 154.158 109.369 154.719 107.771 154.807C106.48 154.877 103.529 152.338 103.357 151.28L103.578 150.885Z" fill="#FBC20A"/>
<path d="M95.6191 154.641C97.752 156.273 98.9608 157.325 100.665 159.358C102.848 162.922 104.82 165.21 106.093 169.504C106.869 171.69 107.045 173.237 107.625 175.369C107.746 176.114 107.877 177.118 108.03 177.835L108.493 177.125L108.698 177.205C109.191 178.409 108.832 180.04 108.814 181.314C108.808 181.78 111.356 181.829 111.605 181.9C111.856 181.869 112.437 181.725 112.833 181.629C109.768 184.348 106.818 188.308 105.514 190.3L105.42 190.36C108.355 186.269 105.189 184.881 104.872 181.7L104.854 181.502C104.351 170.517 100.444 162.112 91.5635 155.567C92.5781 155.133 94.1037 154.581 95.1885 154.469L95.6191 154.641ZM115.289 183.746C117.024 184.844 125.611 187.914 126.828 188.977C126.836 189.454 126.634 189.729 126.412 190.156C125.187 190.631 116.46 185.659 114.916 185.734C115.049 185.056 115.171 184.389 115.289 183.746Z" fill="#FCFDFD"/>
<path d="M89.4885 156.092C94.5543 158.246 98.957 164.227 100.886 169.233C101.693 171.328 103.62 177.312 103.462 179.371L103.255 179.735C102.061 177.928 100.816 176.028 99.5489 174.28C94.7937 165.077 94.5217 163.458 85.9395 157.636C87.1093 157.065 88.2427 156.47 89.4885 156.092Z" fill="#EA2F2E"/>
<path d="M84.2357 158.57C88.8322 160.551 92.1776 163.754 94.9152 167.907C95.6651 169.046 96.237 170.414 96.8568 171.393C95.2125 171.212 88.7654 164.529 86.739 163.258C86.5705 163.089 85.1846 162.185 84.8965 161.99C83.6425 161.337 82.9757 161.06 81.6202 160.685L81.4873 160.421C82.0942 159.639 83.3505 159.017 84.2357 158.57Z" fill="#FCFDFD"/>
<path d="M73.7934 173.527C74.1706 172.984 74.3757 172.541 74.9673 172.305C75.711 172.505 75.4978 172.337 75.9242 172.874C76.1444 174.259 74.1895 177.11 73.4366 178.406C75.2786 177.331 76.0221 176.618 78.1635 177.148L78.4772 177.543C77.8134 179.156 73.1395 180.717 71.5086 181.674C71.4388 181.715 71.2855 181.721 71.1883 181.726C70.7664 181.288 70.7853 180.867 70.6934 180.244C71.4517 177.966 72.6795 175.665 73.7934 173.527Z" fill="#F9CC28"/>
<path d="M75.8727 188.818C74.719 188.31 73.9502 187.962 73.2362 186.871C71.8311 184.725 75.1449 181.607 77.2376 183.117C77.9706 183.645 78.8353 184.508 79.6075 184.849C80.0774 184.695 80.0839 184.66 80.3954 184.25C80.3741 183.014 78.7634 182.73 77.7548 181.455C77.6191 180.796 77.5861 181.069 77.9197 180.427C79.2627 179.572 80.8786 180.695 81.8505 181.706C83.8986 183.84 82.9179 185.422 81.1513 187.163C80.255 188.198 79.3529 189.227 78.445 190.253C78.0622 190.736 78.0055 190.806 77.4785 191.122C76.0627 191.217 76.0208 189.948 75.8727 188.818Z" fill="#F9CC28"/>
<path d="M77.7176 187.094C79.2397 186.987 80.353 184.937 81.4095 185.07C81.6909 185.862 81.4275 186.343 81.1516 187.163C80.2553 188.198 79.3532 189.228 78.4452 190.253C77.878 190.268 77.8069 190.411 77.1304 190.325C76.5877 189.941 76.7004 190.137 76.5469 189.587C76.7822 188.834 77.1337 188.127 77.7028 187.575L77.5911 187.137L77.7176 187.094Z" fill="#FBC20A"/>
<path d="M110.636 203.779C110.952 204.378 110.08 210.516 112.064 212.107C112.628 212.133 112.911 211.725 113.281 211.292L113.468 211.371C116.139 211.126 117.075 213.31 117.439 215.531L117.113 216.306C116.149 217.395 117.112 218.676 116.115 219.138C116.379 219.801 116.445 220.083 116.999 220.559C117.666 220.77 117.839 220.768 118.367 220.242L119.197 220.998L119.314 221.068C120.793 222.238 120.76 221.002 122.442 222.507L122.784 222.786L122.442 223.352C122.942 223.816 123.739 223.669 124.636 223.992L125.022 224.193C121.985 224.151 120.903 224.441 118.089 225.628C111.732 230.756 109.148 228.322 102.487 230.285L102.121 229.948L102.217 229.667C101.977 229.33 102.036 228.77 102.039 228.329C102.861 225.974 104.59 220.753 105.715 218.687L105.761 218.689L105.716 218.687L105.809 218.401L106.244 217.854L106.613 218.626L107.324 218.66L107.419 218.904C108.611 220.998 109.46 223.256 110.558 225.396C112.143 228.485 114.335 227.5 116.61 226C114.683 218.9 111.169 212.826 109.222 206.355C109.711 205.505 110.182 204.647 110.636 203.779Z" fill="#DD2729"/>
<path d="M112.645 211.784C113.802 210.477 115.22 211.728 116.049 212.763C116.637 213.497 117.08 214.334 117.355 215.232C118.003 215.193 118.115 215.157 118.729 214.936C119.984 215.305 120.678 215.676 121.342 216.872C121.463 217.093 121.577 217.317 121.684 217.548C124.192 217.375 126.441 215.785 127.839 216.743C128.46 218.057 127.481 219.338 126.872 220.536C126.226 221.809 126.003 222.704 125.707 224.044C124.857 223.759 125.04 223.676 124.309 223.899C123.983 224.27 124.051 224.068 123.999 224.483C123.102 224.16 122.306 224.307 121.806 223.844L122.147 223.278L121.806 222.999L122.828 222.709L122.827 222.708V222.709L121.805 222.999C120.26 222.015 120.157 222.729 118.678 221.559L118.55 221.335C118.553 221.387 118.556 221.439 118.561 221.49L118.247 221.205H118.054C117.526 221.731 117.029 221.262 116.361 221.051C115.946 220.694 115.805 220.446 115.649 220.064L115.478 219.63C115.193 219.006 112.906 212.306 112.83 211.862L112.645 211.784ZM126.734 216.745C126.821 216.743 126.911 216.746 127.006 216.756C127.306 216.995 127.497 217.089 127.598 217.456C126.779 219.564 126.054 221.157 125.454 223.348L125.455 223.349C126.055 221.157 126.779 219.564 127.599 217.456C127.498 217.089 127.307 216.995 127.007 216.756C126.912 216.746 126.821 216.743 126.734 216.745ZM123.129 222.6C123.163 222.621 123.204 222.644 123.254 222.667C123.204 222.644 123.163 222.621 123.129 222.6ZM119.843 215.993C120.353 216.275 120.758 216.721 120.981 217.267C121.29 218.032 121.105 218.512 121.058 219.239C121.105 218.512 121.29 218.032 120.981 217.267C120.758 216.721 120.353 216.275 119.843 215.993ZM123.688 217.976C123.807 217.977 123.937 217.98 124.081 217.985C123.937 217.98 123.807 217.977 123.688 217.976ZM114.77 212.219C116.003 212.909 116.545 214.457 116.802 216.022V216.02C116.544 214.455 116.003 212.909 114.77 212.219ZM118.97 215.687C118.888 215.674 118.807 215.666 118.729 215.662C118.808 215.665 118.888 215.674 118.97 215.687ZM114.236 211.99C114.367 212.031 114.491 212.079 114.609 212.136C114.491 212.079 114.367 212.031 114.236 211.99ZM113.731 211.877C113.827 211.89 113.919 211.908 114.009 211.929C113.919 211.908 113.827 211.89 113.731 211.877Z" fill="#FBC20A"/>
<path d="M102.95 211.532C103.533 213.448 105.788 217.008 105.809 218.401L105.715 218.687C104.591 220.753 102.861 225.974 102.039 228.329L101.459 230.02C100.018 230.229 97.4459 230.903 96.2676 230.969C97.6274 227.676 98.4324 224.031 99.5264 220.657C100.027 219.114 101.536 212.022 102.417 211.274L102.95 211.532Z" fill="#FCFDFD"/>
<path d="M111.029 87.7688C111.518 87.8762 112.287 87.9457 112.348 88.4641C112.595 90.5706 116.306 98.5561 116.356 100.041L116.731 99.6741L116.899 99.759C116.902 100.095 116.899 100.427 116.891 100.753C116.886 100.916 116.88 101.079 116.873 101.24C116.852 101.723 116.819 102.196 116.777 102.662C116.749 102.973 116.717 103.28 116.682 103.584C116.398 106.018 115.899 108.275 115.541 110.678C115.452 111.279 115.371 111.888 115.305 112.512C115.239 113.136 115.187 113.774 115.155 114.432C115.149 114.561 115.153 114.713 115.165 114.883C115.177 115.053 115.196 115.241 115.222 115.442C115.299 116.043 115.431 116.754 115.566 117.42C115.701 118.086 115.839 118.708 115.928 119.13C115.413 119.403 115.226 119.272 114.567 119.211C114.154 119.082 113.782 118.959 113.435 118.831C113.261 118.768 113.093 118.704 112.929 118.637C112.107 118.303 111.381 117.915 110.478 117.324C102.31 112.747 99.5206 97.5563 105.877 90.4817C107.323 88.8728 109.012 88.4503 110.734 87.4661L110.827 87.4114L111.029 87.7688Z" fill="#FC8D6E"/>
<path d="M209.242 118.81C209.498 118.755 209.736 118.916 210.272 119.127C210.832 119.27 213.814 119.996 214.151 120.175C212.035 125.726 210.65 129.719 214.849 134.648C210.852 135.803 206.678 135.019 203.426 132.368C203.681 133.947 204.616 137.649 204.292 138.821C203.342 139.962 200.37 138.63 199.572 137.877L199.307 137.763C198.903 137.581 198.673 137.437 198.368 137.215C198.246 137.126 198.112 137.024 197.95 136.904C196.964 136.346 195.978 135.221 195.195 134.38C195.104 134.563 195.013 134.748 194.925 134.934L194.663 135.492L194.341 136.132C194.136 136.515 193.936 136.826 193.653 137.159C193.512 137.326 193.35 137.499 193.156 137.689C192.92 137.626 192.759 137.578 192.619 137.55C192.526 137.531 192.441 137.522 192.349 137.522C192.21 137.522 192.054 137.544 191.823 137.593C191.658 136.749 191.142 135.846 190.747 135.068C190.287 134.673 190.033 134.414 189.622 133.967C189 133.604 188.354 133.321 187.7 133.018C188.437 132.578 189.292 132.235 190.086 131.893C190.663 131.573 191.226 131.344 191.83 131.086C192.699 130.573 193.799 130.048 194.713 129.584L194.824 129.535C195.733 128.949 196.952 128.282 197.905 127.724C200.135 126.303 202.265 124.732 204.411 123.189C204.432 123.152 204.476 123.099 204.537 123.034C204.904 122.645 205.896 121.814 206.37 121.369C206.449 121.295 206.514 121.233 206.559 121.184C207.084 120.612 207.922 119.97 208.468 119.405C208.835 119.025 209.044 118.852 209.242 118.81Z" fill="#111628"/>
<path d="M210.647 257.98C211.085 258.005 211.506 258.065 211.89 258.171C212.273 258.277 212.618 258.43 212.904 258.644C216.624 260.281 218.372 268.186 213.845 269.865C213.467 270.004 213.081 270.123 212.69 270.221C210.95 270.26 210.485 270.619 209.63 269.077C209.357 268.935 206.238 258.853 206.303 258.285L206.434 258.347C207.527 258.189 209.184 257.897 210.647 257.98Z" fill="#36120F"/>
<path d="M107.994 281.623C108.602 282.735 107.562 283.897 108.399 285.595C107.766 285.331 107.621 285.324 107.208 284.809L106.697 284.184L106.363 284.178C105.8 284.764 105.64 285.256 105.317 285.998C104.645 290.575 104.578 294.508 108.613 297.497L108.574 297.731C108.376 299.023 108.227 300.118 108.105 301.425C107.771 304.101 107.315 307.209 107.076 309.867L106.828 309.993C105.646 309.478 103.982 307.969 103.328 306.863C100.595 302.239 103.651 296.104 104.662 291.477C104.965 290.092 104.355 288.575 105.007 285.94C105.462 284.023 106.639 282.92 107.994 281.623Z" fill="#963612"/>
</g>
</svg>
