<svg width="320" height="320" viewBox="0 0 320 320" fill="none" xmlns="http://www.w3.org/2000/svg">
<path d="M176.188 95.662C176.721 97.8575 178.662 104.503 182.155 113.518C186.522 124.788 183.32 114.983 186.231 116.886C188.56 118.408 190.501 121.423 191.181 122.74C191.181 120.593 191.355 116.417 192.054 116.886C192.927 117.472 197.44 123.178 198.604 124.349C199.769 125.521 206.32 129.766 207.339 132.547C208.154 134.772 207.678 140.304 207.339 142.792C208.455 140.987 211.181 136.761 213.161 134.303C215.636 131.229 221.167 128.595 223.06 127.277C224.952 125.96 232.959 126.984 235.579 127.277C235.908 127.314 236.246 127.44 236.587 127.639C236.292 128.453 235.98 129.267 235.647 130.08C243.144 135.136 242.805 144.805 239.618 152.431C239.185 153.469 237.761 155.331 237.633 156.319L237.392 156.252C236.589 156.989 235.97 157.965 235.207 158.795C233.08 161.109 231.254 162.287 228.602 163.863C225.837 165.174 223.188 165.94 220.166 166.347C219.804 166.395 218.941 166.495 218.631 166.614C218.18 166.51 215.608 166.483 215.001 166.464C213.296 166.414 212.427 166.233 210.779 165.847C209.84 166.916 209.078 168.166 208.596 169.513C206.924 169.95 205.315 170.423 204.281 170.748L183.32 181.432C169.695 186.585 147.756 185.022 138.49 183.598C134.693 182.308 126.978 179.729 126.479 179.726C125.987 179.726 118.362 176.57 114.611 174.992C103.548 169.372 103.015 158.111 104.131 153.183C104.762 151.378 106.14 147.33 106.605 145.573C107.188 143.378 105.296 137.23 105.15 135.181C105.005 133.132 107.916 135.18 108.644 135.181C109.371 135.18 109.662 130.35 109.662 129.18C109.663 128.008 114.612 121.129 116.213 118.641C117.494 116.651 118.105 112.835 118.251 111.177C118.93 112.299 120.318 114.69 120.435 115.275C120.551 115.861 121.551 119.422 122.036 121.13C122.328 120.836 123.318 119.578 124.947 116.886C126.985 113.519 126.479 115.275 131.061 102.834C134.726 92.8816 135.791 95.6623 135.865 98.2968C136.108 98.8823 136.709 100.609 137.175 102.834C137.757 105.615 140.086 113.519 141.833 116.886C143.58 120.252 145.909 125.814 148.966 127.277C152.023 128.741 154.061 131.228 153.333 130.35C152.751 129.648 153.09 127.033 153.333 125.813C154.449 126.692 156.827 128.594 157.409 129.18C157.992 129.765 161.533 130.79 163.231 131.229V121.13C163.232 117.91 168.181 111.177 169.346 106.055C170.277 101.956 172.547 97.4184 173.566 95.662H176.188Z" fill="#FBD5BD"/>
<path d="M217.015 226.749C219.757 225.637 224.196 225.146 227.112 225.688L228.584 226.272C229.655 228.514 230.112 230.582 230.555 232.935L230.745 233.963C231.487 238.833 231.898 244.481 228.8 248.6C226.397 251.798 223.117 253.597 219.247 254.295C219.489 258.467 220.228 261.814 215.905 263.857C215.796 263.907 215.515 263.926 215.379 263.942C215.008 263.692 214.95 263.626 214.525 263.523L214.476 263.335C214.319 262.394 212.366 259.971 211.655 259.202C207.173 254.352 201.18 252.291 194.766 251.988L194.166 252.18L193.717 252.215C192.77 252.316 186.67 253.339 186.01 253.595C184.713 253.841 181.523 254.382 180.414 254.802C175.095 256.799 167.434 259.807 164.921 265.432C163.113 265.292 160.452 265.358 158.532 265.286C156.58 265.233 154.009 265.276 152.038 265.458C149.155 265.887 144.276 265.641 141.936 263.837C140.579 262.79 139.188 261.744 137.839 260.682C136.801 260.108 135.761 259.001 134.451 258.356L134.311 258.199L129.551 255.081C128.641 254.296 127.807 253.839 126.784 253.233L125.915 252.831C125.03 253.383 124.268 253.873 123.321 254.325C123.109 253.444 123.017 253.122 122.662 252.294L122.723 251.995C122.432 251.508 122.132 251.505 121.539 251.153L121.557 250.814C120.933 250.325 116.201 248.257 115.37 248.036L115.297 247.76C114.94 246.222 115.112 240.847 115.727 239.314C115.725 237.563 115.746 236.023 115.846 234.276C115.956 234.012 116.282 231.911 116.533 230.432V230.434C116.282 231.913 115.957 234.012 115.847 234.276C115.747 236.023 115.726 237.563 115.728 239.314L116.013 239.372C122.15 243.491 137.921 245.237 145.495 245.491C146.547 243.339 148.631 244.016 150.71 244.194C151.32 244.332 153.379 244.25 154.296 244.344L155.479 245.382C155.937 245.406 156.477 245.447 157.013 245.463C157.28 245.471 157.547 245.473 157.801 245.463C158.055 245.453 158.298 245.431 158.517 245.392L158.654 245.209C159.978 243.795 162.265 243.592 164.07 244.134C164.693 244.32 164.855 244.797 165.097 245.35C166.122 245.329 167.147 245.286 168.171 245.221C171.986 245.003 180.356 244.437 184.491 243.642L184.82 243.271C188.479 244.211 194.173 244.199 198.026 243.96C198.829 243.968 199.285 243.917 200.084 243.817C202.103 245.874 203.673 245.588 205.536 246.609C208.009 247.529 209.578 247.724 212.225 246.883C212.901 246.669 213.661 246.235 214.341 246.186C214.198 246.754 213.895 246.998 213.925 247.323C214.494 246.816 214.61 246.722 215.026 246.064C214.993 245.163 216.351 243.403 216.741 242.337C217.213 241.044 217.157 239.732 217.418 238.606C218.199 235.232 218.102 232.701 217.411 229.327C217.254 228.558 216.955 227.856 216.824 227.151L217.015 226.909V226.749ZM117.681 220.362C117.457 222.357 117.222 224.425 116.992 226.433C117.156 224.382 117.337 222.27 117.601 220.356L117.681 220.362Z" fill="#4E3933"/>
<path d="M99.393 66.0214C92.7216 62.0329 88.5438 44.6096 91.7094 37.7538C94.6028 31.4874 101.764 24.0283 107.006 19.0911C112.412 13.9993 121.983 6.04908 129.958 6C138.127 6.58895 154.852 19.4011 160.129 25.2067L161.49 25.1128C166.465 24.7445 170.995 24.5709 176.002 25.1115L177.619 25.2416C182.902 18.8345 207.469 11.4747 216.071 10.6673C221.826 10.1272 226.699 11.8933 231.023 15.6831C238.499 22.2356 247.968 35.0049 251.567 44.1234C252.577 46.652 253.218 49.3136 253.474 52.0264C253.58 53.1752 253.586 54.3313 253.49 55.4811C253.409 56.2252 253.218 57.8612 252.978 58.5144C251.438 66.6669 242.701 76.2169 235.709 80.2101C241.22 96.7217 242.375 113.652 235.649 130.08C235.458 130.072 234.259 129.585 233.987 129.482C231.568 128.571 230.529 128.517 228.023 128.649C227.243 127.434 226.337 124.554 225.03 122.476C214.744 106.24 193.694 94.494 175.252 90.2911C154.053 85.4596 129.207 86.4789 110.443 98.3201C102.917 103.069 95.8768 108.788 93.7427 117.767C91.063 115.323 91.8547 113.617 88.6031 110.551C88.7489 110.188 88.5737 106.218 88.5566 105.54C88.2138 91.9206 92.1946 77.566 99.393 66.0214Z" fill="#EF5336"/>
<path d="M152.563 51.8977C156.65 50.0968 160.995 50.1441 165.12 51.7372C166.435 52.3208 167.886 52.9184 168.957 53.896C172.529 56.706 174.172 61.5446 171.229 65.5181C171.082 65.717 171.035 65.7557 170.839 65.9066C170.047 67.2507 168.077 68.5402 166.658 69.0391C163.383 70.5385 156.721 70.8305 153.421 69.1377C152.269 68.9334 150.562 67.9338 149.629 67.2106L149.548 67.1301C148.457 66.4734 147.758 65.6894 147.016 64.6716C146.678 64.3298 146.177 63.4287 145.999 62.977C143.978 57.8598 148.596 53.7102 152.563 51.8977Z" fill="#F9CC3F"/>
<path d="M173.534 41.2005C175.319 41.3275 176.79 42.6563 177.105 44.4271C177.421 46.1977 176.499 47.9578 174.869 48.6995C173.239 49.4409 171.317 48.9746 170.202 47.5677C169.381 46.5312 169.134 45.1485 169.547 43.89C170.107 42.1814 171.75 41.0736 173.534 41.2005Z" fill="#4E3933"/>
<path d="M147.51 40.5389C152.418 40.2873 153.493 46.4178 148.497 48.2753C147.617 48.3017 146.931 48.3371 146.108 47.978C145.268 47.6188 144.608 46.9317 144.282 46.074C143.329 43.5052 145.17 41.3551 147.51 40.5389Z" fill="#4E3933"/>
<path d="M172.416 34.1367C174.846 33.8788 179.229 34.6056 179.87 37.4445C179.605 38.6394 178.61 38.6591 177.554 38.6616C175.794 38.4984 171.048 38.24 169.976 36.7274C169.65 35.0685 171.124 34.5684 172.416 34.1367Z" fill="#4E3933"/>
<path d="M148.574 33.4831C150.003 33.3411 153.575 33.0971 152.971 35.555C151.896 36.8861 148.693 37.101 146.788 37.5882C145.596 37.9458 143.769 38.6785 142.964 37.3539C142.841 34.9827 146.802 33.7982 148.574 33.4831Z" fill="#4E3933"/>
<path d="M84.0811 184.015C86.8859 184.484 87.7156 185.686 89.4321 187.848C91.6161 190.706 92.7739 192.025 95.5586 194.319C98.6753 196.801 98.6527 196.74 101.94 198.586C104.954 204.897 106.5 218.12 106.397 225.193C106.258 227.268 106.052 228.854 105.696 230.913C99.9509 232.136 96.9653 231.635 91.4874 229.699C82.7358 225.755 78.2165 219.188 73.4987 210.987C72.7313 209.651 72.3439 207.697 71.5748 206.423C70.2038 204.15 68.1779 202.317 67.8319 199.515C67.4308 197.892 67.5748 197.095 68.222 195.562C68.594 195.654 69.2937 195.849 69.6471 195.882L69.6126 196.318C70.4078 198.561 70.8762 201.409 73.9971 200.644C79.1197 199.709 84.5079 193.622 85.7112 188.623L85.6461 188.517C84.975 187.404 84.2997 186.741 83.4232 185.791C83.828 185.047 83.8712 184.838 84.0811 184.015Z" fill="#4E3933"/>
<path d="M110.939 170.754C112.361 172.018 113.694 173.183 115.31 174.265C115.869 174.64 118.072 175.874 118.334 176.516C118.379 176.624 118.228 177.249 118.186 177.426L118.124 177.547C116.15 181.473 114.825 186.064 111.656 189.575C109.462 191.26 105.968 193.281 103.382 194.293C100.304 193.166 98.6857 193.013 95.5581 194.319C92.7734 192.025 91.6156 190.706 89.4316 187.848C90.8191 186.844 94.9912 184.747 96.7955 183.572C102.856 179.628 106.375 176.138 110.939 170.754Z" fill="#F9CC3F"/>
<path d="M126.509 179.62L126.123 180.189C124.428 185.493 123.088 190.977 121.743 196.38C121.561 197.113 121.413 197.871 121.19 198.59C120.999 199.487 120.809 200.488 120.589 201.371C120.292 202.748 119.971 204.144 119.735 205.53L119.376 207.485C118.862 210.261 118.452 213.055 118.148 215.862C118.047 216.721 117.775 219.644 117.601 220.356C117.218 223.131 117.011 226.321 116.775 229.142C116.565 230.021 115.999 233.912 115.846 234.276L115.762 234.019C115.705 233.99 115.648 233.961 115.591 233.932C111.552 235.408 106.807 237.935 102.588 238.56C98.1057 239.225 93.1075 233.402 91.4873 229.699C91.3018 229.615 91.1192 229.528 90.9375 229.442C91.1189 229.528 91.3012 229.615 91.4863 229.698C96.9642 231.635 99.9499 232.135 105.694 230.913C106.051 228.854 106.257 227.267 106.396 225.192C106.499 218.119 104.953 204.896 101.939 198.586C98.6521 196.739 98.6742 196.8 95.5576 194.318C95.4553 194.234 95.3568 194.149 95.2588 194.067C95.357 194.149 95.4561 194.234 95.5586 194.318C98.6856 193.012 100.305 193.166 103.382 194.293C105.968 193.281 109.462 191.259 111.656 189.575L111.91 189.432C113.242 188.652 115.449 186.88 116.571 185.975C119.95 183.251 122.17 181.812 126.122 180.189L126.509 179.62ZM87.4326 227.503C87.6057 227.614 87.7811 227.723 87.958 227.832C87.7811 227.723 87.6057 227.614 87.4326 227.503ZM69.6475 195.883L69.6123 196.318C70.308 198.28 70.7539 200.705 72.9443 200.768C70.7531 200.705 70.3071 198.28 69.6113 196.318L69.6455 195.882L69.6475 195.883ZM68.2217 195.562C68.5088 195.633 68.9917 195.765 69.3594 195.837C68.9918 195.765 68.5091 195.633 68.2217 195.562ZM94.8965 193.765C94.7941 193.678 94.6946 193.591 94.5967 193.507C94.6946 193.591 94.7941 193.678 94.8965 193.765ZM94.2812 193.232C94.1668 193.131 94.0553 193.032 93.9463 192.933C94.0553 193.032 94.1668 193.131 94.2812 193.232ZM93.7275 192.734C93.6234 192.639 93.5217 192.543 93.4219 192.449C93.5217 192.543 93.6234 192.639 93.7275 192.734ZM91.5957 190.547C91.7075 190.675 91.8195 190.801 91.9316 190.926L92.2695 191.295C92.1557 191.173 92.0428 191.05 91.9307 190.926L91.5957 190.547ZM84.0811 184.015C86.8857 184.484 87.7153 185.686 89.4316 187.848C87.7152 185.686 86.8848 184.484 84.0801 184.015H84.0811ZM112.521 172.136C113.4 172.881 114.301 173.589 115.311 174.266C115.52 174.406 115.961 174.667 116.443 174.973L116.934 175.291C116.28 174.855 115.589 174.453 115.31 174.266C114.3 173.589 113.4 172.881 112.521 172.136Z" fill="#8CCDEF"/>
<path d="M119.13 200.545C119.377 200.554 119.583 200.679 119.88 201.03H119.879L120.589 201.371C120.292 202.747 119.971 204.144 119.735 205.531C118.501 205.659 116.93 206.159 116.038 205.016C115.845 203.679 116.894 202.908 116.78 202.039C117.641 201.845 117.436 201.55 118.306 200.781L118.414 200.686C118.72 200.603 118.938 200.539 119.13 200.545Z" fill="#F8991C"/>
<path d="M119.224 198.697C119.409 197.882 119.363 197.309 120.186 196.997C120.751 197.349 120.972 197.938 121.19 198.59C120.998 199.487 120.808 200.488 120.588 201.371L119.877 201.03C119.349 200.407 119.113 200.496 118.413 200.686L118.304 200.78C117.435 201.549 117.641 201.845 116.78 202.04C116.106 201.94 115.477 201.783 115.024 201.25C114.731 199.65 118.107 198.993 119.224 198.697Z" fill="#E5A01D"/>
<path d="M107.333 230.78C107.929 231.827 107.326 232.591 106.955 233.705C108.13 232.919 108.784 232.346 110.205 232.14L110.394 232.293C109.91 233.744 107.177 234.716 105.882 235.263C106.13 234.143 106.305 233.344 106.679 232.247C106.89 231.605 106.949 231.362 107.333 230.78Z" fill="#71C04C"/>
<path d="M115.774 187.393C116.215 186.928 116.987 186.376 117.635 186.281C118.181 186.714 117.932 187.076 118.085 187.233C118.596 187.761 119.52 187.901 119.837 188.607C119.721 189.283 118.793 189.408 118.19 189.426C118.017 190.254 118.102 191.319 117.404 191.81C116.419 191.462 115.987 191.943 115.355 191.536C115.062 191.031 115.233 190.399 115.306 189.772C115.066 189.315 114.521 189.159 113.979 188.871C114.592 188.396 115.191 187.903 115.774 187.393Z" fill="#F9CC3F"/>
<path d="M109.593 224.783C110.047 224.751 110.177 224.699 110.555 224.91C111.002 225.836 110.262 227.398 109.912 228.432C107.575 227.961 108.725 226.354 109.593 224.783Z" fill="#EEE2D9"/>
<path d="M108.93 199.931L109.32 200.135L109.281 200.37C108.364 200.999 105.238 201.79 104.086 202.112L103.783 201.962L103.735 201.642C104.342 200.915 107.886 200.127 108.93 199.931Z" fill="#F9CC3F"/>
<path d="M111.724 220.31C111.873 220.487 111.839 220.496 111.915 220.739C111.782 221.649 111.651 222.482 111.193 223.304C110.98 223.687 110.857 223.606 110.358 223.711L110.149 223.31C110.442 222.103 110.681 220.983 111.724 220.31Z" fill="#AE8255"/>
<path d="M68.8832 151.09C65.7507 149.743 64.5542 146.736 62.1733 145.561C61.3924 145.175 57.8976 146.717 55.5921 145.175C53.9031 144.045 53.3107 143.348 52.6475 141.231C51.343 137.067 55.3881 136.653 56.6292 133.374C57.3088 131.579 56.5813 130.042 57.6216 128.237C58.6178 126.507 61.1079 125.4 61.7234 123.6C62.4104 121.59 61.2282 119.493 62.17 117.352C63.1242 115.183 65.3593 113.959 66.0661 111.737C66.3279 110.913 66.195 110.025 66.2757 109.224C66.5458 106.544 66.1583 102.847 67.5136 100.503C68.2902 99.1588 69.7042 97.8789 71.2302 97.5665C78.3881 96.1013 76.2532 104.323 79.5613 106.712C82.0904 108.539 85.3879 108.556 88.6042 110.551C91.8557 113.617 91.064 115.323 93.7438 117.767C94.7825 119.969 106.107 120.098 103.56 127.205C103.135 128.392 102.391 129.087 101.269 129.724C100.132 130.376 98.6338 130.199 97.5791 130.585L97.5117 130.712C96.0463 132.321 95.0857 135.515 94.4603 137.638C94.2087 138.554 94.0604 138.937 93.6702 139.808C93.4368 140.176 93.0921 140.789 92.7795 141.053C91.0799 144.008 87.5146 143.332 86.2956 145.34C84.4397 148.881 88.4396 152.97 84.7459 156.093C82.719 157.807 80.9861 158.325 78.5042 156.995C75.8169 155.555 75.5918 152.089 72.3888 151.914C71.2971 151.758 69.9704 151.373 68.8832 151.09Z" fill="#842A15"/>
<path d="M93.2568 132.088C94.5563 131.068 95.9137 130.491 97.5786 130.585L97.5113 130.712C96.0459 132.321 95.0852 135.515 94.4599 137.638C94.4343 137.601 93.3597 132.603 93.2568 132.088Z" fill="#432C21"/>
<path d="M69.5684 142.858C69.8824 142.945 69.8706 142.967 70.1221 143.185C70.2904 143.972 70.1588 144.826 69.8428 145.56L69.3086 145.149C69.018 144.477 69.3703 143.606 69.5684 142.858ZM62.7354 137.509C64.2844 137.301 64.6171 138.975 64.2842 140.089C63.4099 140.533 63.3592 140.401 62.5615 139.918C62.1532 138.922 61.8207 138.292 62.7354 137.509ZM87.1143 131.953C88.468 132.115 88.3229 132.997 88.3867 134.144L88.8252 134.114C89.4651 134.694 89.9528 134.946 90.3369 135.687L90.2949 136.039C89.6337 136.43 89.2074 136.181 88.5615 135.907C88.1256 136.447 87.7762 137.019 87.1582 137.258L86.6992 137.222C86.7994 136.537 87.7578 136.093 87.9258 135.296L87.7207 135.04C87.3204 135.009 87.2485 135.002 86.8535 135.042C86.0234 134.302 85.8577 132.562 87.1143 131.953ZM76.1504 128.72C76.7389 129.58 76.8944 130.186 76.2422 131.011C75.624 130.702 75.3184 130.479 75.1738 129.786C75.2431 129.162 75.4381 129.027 75.8604 128.585L76.1504 128.72ZM64.75 126.307H64.749L64.877 126.54L65.7588 126.483L65.9287 126.716L65.8262 127.082C65.2798 127.315 64.9916 127.176 64.457 126.92C63.839 127.852 63.0537 130.283 62.0762 130.519C61.2231 129.58 63.1023 125.943 64.3301 125.835L64.75 126.307ZM67.1699 116.403C67.4949 117.067 67.1272 116.863 67.1777 117.689C67.5487 117.465 67.6639 117.402 68.0752 117.26L68.1709 117.229C68.5616 117.711 68.7602 117.883 68.8242 118.517C68.7375 118.843 68.7532 118.887 68.5801 119.176L68.207 119.44L68.2197 119.769C68.5715 120.197 69.1255 120.946 69.6006 121.205C70.0201 121.433 70.3129 121.474 70.4531 121.961L70.1562 122.194C67.1505 122.821 67.7398 121.378 67.2676 119.417C67.2095 119.177 66.5454 119.689 65.8662 119.445C65.3734 118.954 65.232 118.328 64.9932 117.653C65.5752 117.162 66.3974 116.379 67.1699 116.403ZM75.3086 116.775C75.514 117.449 75.3607 118.15 75.0693 118.777C74.4701 118.382 74.6368 118.602 74.4053 117.966C74.4681 117.314 74.5164 117.231 74.8291 116.651L75.3086 116.775ZM83.2441 112.056C83.7223 113.388 84.3219 113.928 83.9365 115.135C82.6055 114.751 81.979 112.921 82.8086 111.823L83.2441 112.056Z" fill="#BA4224"/>
<path d="M72.2266 162.127C74.0461 161.08 75.8237 161.243 77.3936 162.833C80.2401 165.719 83.0888 170.951 84.1367 174.921C84.4462 176.092 84.5334 177.966 84.5908 179.161C84.6121 179.593 84.6268 180.024 84.6338 180.455C84.3753 181.073 84.1786 183.221 84.0811 184.015C83.8712 184.838 83.8275 185.047 83.4229 185.79C84.2993 186.741 84.9744 187.404 85.6455 188.517L85.7109 188.623C84.5075 193.623 79.1195 199.709 73.9971 200.644C70.8764 201.41 70.4075 198.561 69.6123 196.319L69.6465 195.882C69.293 195.848 68.5935 195.655 68.2217 195.563C67.6891 195.428 67.2792 195.277 66.7676 195.094C65.7275 194.657 64.7148 194.156 63.7344 193.598C54.5623 188.298 53.2313 177.143 58.1494 168.426C59.5041 166.025 61.6159 163.583 64.1562 162.462C65.1539 162.023 66.026 162.09 66.9844 161.799L67.0879 162.194C68.1815 162.768 69.1446 162.922 70.2734 163.621L70.4297 163.261L70.623 162.483L70.8457 162.687C71.2952 162.658 71.8396 162.349 72.2266 162.127Z" fill="#FBD5BD"/>
<path d="M72.6855 143.546C74.042 143.759 76.1766 145.066 76.29 146.587C76.1434 146.767 75.9882 146.923 75.8125 147.075C76.495 147.134 77.2327 147.106 77.7305 147.551C76.4055 148.644 74.8448 146.481 74.0068 145.567C73.9296 145.483 73.9812 144.77 73.7305 144.471C73.2349 144.813 73.241 144.884 72.7285 144.672C72.4866 144.173 72.5915 144.166 72.6855 143.546ZM80.791 136.944C81.1427 136.933 81.1642 136.904 81.4756 137.086C81.442 137.624 81.0372 137.975 80.6602 138.484C81.0518 138.815 81.4532 139.091 81.6904 139.535C81.2435 139.804 80.7547 139.441 80.1152 139.668C80.1823 140.197 80.2785 140.421 79.8369 140.739C79.5268 140.615 79.323 140.523 79.1543 140.148C78.6614 139.052 79.814 139.105 79.9932 138.259C80.1996 137.285 80.0916 137.556 80.791 136.944ZM67.5361 138.307C68.224 138.293 68.4917 138.321 68.9746 138.681L69.0205 139.003C68.4641 139.14 68.3466 139.206 67.7998 139.115C67.4651 138.75 67.5625 138.913 67.5361 138.307ZM71.46 135.796C71.9269 136.065 71.8038 135.905 71.9688 136.368C71.8357 136.954 71.5522 137.179 71.1484 137.631C70.6167 137.523 70.5867 137.403 70.5293 136.942C70.7536 136.392 71.0286 136.203 71.46 135.796ZM61.0117 135.136C61.5102 135.234 61.3343 135.105 61.5938 135.481C61.6275 136.305 61.149 136.922 60.7031 137.592C59.4203 137.376 60.6727 135.675 61.0117 135.136ZM79.3965 134.269C79.6219 134.174 79.8824 134.266 79.998 134.483C80.1134 134.7 80.0463 134.969 79.8428 135.105C79.693 135.205 79.4995 135.211 79.3438 135.121C79.1878 135.03 79.0963 134.859 79.1074 134.678C79.1186 134.498 79.2306 134.339 79.3965 134.269ZM62.8486 132.853C63.0634 132.937 63.1098 132.984 63.3047 133.11C63.3688 133.649 63.2481 133.689 63.0049 134.233L62.7002 134C62.5485 133.477 62.6661 133.439 62.8486 132.853ZM68.2402 131.8C68.7681 131.924 68.9345 132.121 69.0732 132.596C68.8878 133.163 68.5849 133.3 68.1016 133.631C67.5567 133.384 67.314 133.278 67.2021 132.689C67.4354 132.174 67.7368 132.083 68.2402 131.8ZM84.125 128.538C84.8223 128.667 85.4429 129.794 85.4023 130.441C84.8044 130.369 84.4247 130.247 84.0674 129.745C83.8968 129.21 83.9637 129.086 84.125 128.538ZM87.4883 129.313L87.5742 129.575L87.2852 130.13C86.859 130.005 86.8644 130.022 86.5186 129.755L86.5322 129.507L87.0146 129.104L87.4883 129.313ZM76.3105 123.992C76.702 124.457 76.6094 125.45 76.6211 126.134C77.1377 126.54 78.079 127.091 77.9893 127.777L77.6094 127.89C76.753 127.232 75.7461 126.196 75.4688 125.1C75.3569 124.658 75.7597 124.288 76.0469 123.899L76.3105 123.992ZM70.6182 125.402C71.3958 125.59 71.5072 125.748 71.7236 126.517C71.4485 126.453 71.1076 126.342 70.8301 126.26C70.4934 125.813 70.5671 126.033 70.6182 125.402ZM88.29 120.898C89.6932 121.261 89.8915 123.283 88.7646 123.284C88.339 122.956 88.3256 122.657 88.1797 122.125C87.6935 122.77 87.6291 122.898 86.8467 122.899L86.6738 122.654C86.8328 121.558 87.3844 121.44 88.29 120.898ZM90.9043 121.813C91.3509 122.347 91.2227 122.233 91.3545 122.997C91.1921 123.006 90.954 122.982 90.7852 122.971C90.3575 122.467 90.4621 122.366 90.3408 121.631L90.9043 121.813ZM84.916 121.248C85.4794 121.284 85.5629 121.284 86.0039 121.63C86.2285 122.176 86.2044 121.932 86.0273 122.578C85.4745 122.367 84.9875 122.274 84.709 121.792C84.7583 121.49 84.7359 121.488 84.916 121.248ZM77.1055 118.739C77.3512 118.892 77.414 118.982 77.6182 119.185C77.9167 120.557 78.1336 121.396 76.9561 122.351C76.6442 122.138 76.6492 122.161 76.4551 121.841C76.6886 121.073 76.7894 120.27 76.7539 119.467C76.7421 119.175 76.9088 119.045 77.1055 118.739ZM83.1611 119.493C83.7608 119.614 84.1995 119.651 84.7061 119.991L84.2812 120.746C83.8493 120.575 83.7175 120.571 83.251 120.506L83.1611 119.493ZM82.8965 118.811L82.9932 119.313L83.1602 119.493L83.25 120.505C82.8191 120.722 83.0445 120.68 82.5469 120.611C81.7024 120.034 81.5918 119.089 82.5732 118.617L82.8965 118.811ZM74.082 107.819C74.5399 107.806 74.6618 107.759 75.0205 108C75.6149 109.447 77.3333 110.686 77.0342 112.478C76.7734 112.442 76.3008 112.369 76.168 112.129C75.4206 110.772 73.9802 109.397 74.082 107.819Z" fill="#D78770"/>
<path d="M70.4289 163.262L70.5169 163.234C71.056 163.06 71.4003 162.748 71.7035 162.925C74.1182 164.328 77.8898 171.293 78.5683 173.645C79.2805 177.791 78.0144 182.611 76.9291 186.605C76.4703 188.295 76.4642 189.912 75.5863 191.34C74.8414 192.553 72.3632 194.774 70.973 193.872C70.3026 192.484 72.2883 189.109 72.719 187.243C76.0812 185.183 77.1307 183.043 75.3746 179.329C77.023 175.617 75.9579 174.441 73.3117 171.708C75.2785 167.067 73.3311 166.536 70.2734 163.622L70.4289 163.262Z" fill="#F5A77F"/>
<path d="M104.442 157.302L104.741 157.181C105.017 163.067 106.944 166.631 110.938 170.754C106.375 176.138 102.856 179.628 96.7951 183.572C94.9907 184.747 90.8186 186.844 89.4312 187.848C87.7146 185.686 86.885 184.484 84.0801 184.015C84.1777 183.22 84.3744 181.073 84.633 180.455C91.2162 175.356 96.8829 170.492 101.303 163.273C102.491 161.333 103.304 159.203 104.442 157.302Z" fill="#EF5336"/>
<path d="M97.5115 130.712C99.3488 134.034 102.081 135.592 105.627 136.583C106.251 136.758 106.828 136.806 107.435 136.988L107.164 137.128C107.42 140.245 108.286 143.344 108.554 146.28C106.211 150.735 105.258 152 104.742 157.181L104.443 157.302C104.119 156.905 101.931 155.895 101.261 155.522C97.0678 153.106 94.6835 148.01 93.9305 143.364C93.781 142.441 93.8966 140.476 93.6699 139.807C94.0601 138.937 94.2084 138.554 94.4601 137.638C95.0854 135.515 96.0461 132.321 97.5115 130.712Z" fill="#F5A77F"/>
<path d="M68.8816 151.09C69.9688 151.373 71.2955 151.758 72.3872 151.914C71.875 155.449 71.2864 158.973 70.6219 162.483L70.4283 163.262L70.2728 163.622C69.1437 162.922 68.1805 162.768 67.0865 162.193L66.9834 161.799C67.6413 158.735 68.0509 153.997 68.8816 151.09Z" fill="#E5A01D"/>
<path d="M194.768 251.988C201.182 252.29 207.174 254.352 211.656 259.202C212.367 259.971 214.32 262.394 214.477 263.335L214.526 263.523C214.952 263.626 215.01 263.692 215.381 263.943C215.517 263.927 215.799 263.907 215.907 263.857C218.556 269.287 216.566 279.51 213.178 284.411C212.178 286.187 210.929 288.26 209.345 289.576L209.188 289.702L209.06 289.903C206.679 293.297 199.765 296.939 195.456 297.698C189.723 298.665 183.833 297.606 178.787 294.703C179.323 294.335 185.514 292.507 186.32 292.464C195.521 292.018 205.322 286.764 203.518 275.942C202.257 268.387 199.95 265.878 194.16 261.309C194.146 261.129 194.102 260.937 194.068 260.757C192.364 259.402 189.754 258.79 187.67 258.205C188.635 258.107 189.646 257.827 189.857 256.76L189.726 256.594H189.725L189.855 256.76C189.644 257.827 188.633 258.107 187.668 258.205C189.752 258.79 192.363 259.402 194.067 260.757C194.101 260.937 194.145 261.129 194.159 261.309C188.365 258.354 183.015 257.248 176.645 259.341C174.715 259.992 172.859 260.847 171.108 261.891C168.998 263.132 167.147 265.255 164.921 265.432C167.434 259.807 175.095 256.799 180.414 254.802C181.523 254.382 184.713 253.842 186.01 253.595C185.876 253.816 185.74 254.034 185.604 254.253C185.813 254.43 186.143 254.487 186.488 254.495C186.144 254.487 185.814 254.43 185.604 254.253C185.741 254.034 185.877 253.816 186.011 253.595C186.669 253.34 192.773 252.316 193.719 252.215L194.168 252.179L194.768 251.988ZM189.82 254.153C189.248 254.9 188.138 256.284 187.987 257.165L188.066 257.343V257.342L187.988 257.165C188.139 256.283 189.25 254.899 189.822 254.153H189.82ZM189.209 256.172L189.502 256.485C189.366 256.702 189.326 256.752 189.156 256.945L189.302 257L189.157 256.945C189.327 256.752 189.367 256.702 189.503 256.485L189.21 256.172H189.209Z" fill="#8CCDEC"/>
<path d="M208.396 286.46C207.472 287.839 206.518 289.282 205.271 290.38C205.864 288.796 206.806 287.403 207.695 285.966L208.396 286.46ZM208.931 287.831C209.117 288.532 209.287 288.982 209.186 289.701L209.058 289.902C208.692 289.228 208.85 288.594 208.931 287.831ZM209.545 279.999C209.867 280.727 209.85 281.13 209.898 281.924C210.836 281.255 211.144 281.056 212.195 280.599C211.637 281.585 211.405 282.003 210.683 282.857L210.311 282.954L210.308 283.142C211.513 283.615 211.632 283.258 212.441 283.43C211.971 283.634 211.619 283.79 211.165 284.033L211.16 284.279C211.421 284.546 211.677 284.815 211.93 285.09L212.02 285.21V285.21L211.929 285.09L211.636 285.653C210.986 285.854 210.49 285.225 209.989 284.797C209.843 287.292 209.661 287.434 209.343 289.576C210.927 288.26 212.176 286.187 213.176 284.412C213.127 284.422 213.081 284.435 213.038 284.448C213.081 284.435 213.127 284.421 213.177 284.411C212.177 286.186 210.928 288.26 209.344 289.576L209.188 289.702C209.289 288.983 209.118 288.532 208.932 287.831C209.02 287.186 209.136 286.597 209.079 285.952L208.885 285.878L208.397 286.46L207.696 285.966C207.911 285.511 207.981 285.54 207.955 285.106C207.444 285.074 207.238 285.29 206.719 285.553C206.561 285.248 206.266 284.921 206.039 284.648C206.081 284.623 206.218 284.513 206.356 284.4L206.689 284.126C207.132 283.913 207.415 283.817 207.752 283.451C207.589 283.109 207.367 283.004 207.038 282.853L206.673 282.677L206.373 282.475C206.096 282.294 205.889 282.152 205.768 281.83C206.712 281.021 208.014 281.664 208.8 282.389L208.963 282.32L209.362 280.04L209.545 279.999ZM206.039 284.648C206.266 284.921 206.56 285.248 206.718 285.553C206.137 285.724 206.088 285.836 205.549 285.701C205.577 285.183 205.726 285.124 206.039 284.648Z" fill="#4771CF"/>
<path d="M193.692 252.44L193.738 252.495C194.381 252.639 194.821 252.714 195.475 252.797C195.493 252.98 195.518 253.053 195.505 253.17L195.478 253.307L194.395 253.346C194.597 253.896 195.501 254.476 196.027 254.774L196.026 254.776C196.253 255.379 196.403 255.45 196.242 255.969C195.503 256.047 193.792 254.644 192.855 254.147C192.896 255.001 193.104 256.602 192.595 257.219C191.964 256.597 191.857 254.774 191.747 253.856C191.103 254.437 189.757 255.588 189.208 256.172C188.755 256.33 188.42 256.902 188.065 257.343L187.986 257.164C188.137 256.283 189.248 254.899 189.82 254.153C189.037 254.275 188.25 254.37 187.461 254.438C186.922 254.485 186.022 254.608 185.603 254.253C185.739 254.035 185.875 253.815 186.009 253.595C186.667 253.339 192.768 252.317 193.716 252.215L193.692 252.44Z" fill="#3A7DC4"/>
<path d="M208.356 267.047C209.294 267.263 209.077 267.633 209.571 268.263C210.745 268.9 210.592 268.03 211.727 269.037C213.672 270.764 216.976 272.465 212.869 274.742C213.371 275.329 214.302 276.27 213.669 276.991C212.093 277.522 212.032 276.904 210.911 276.911C210.756 277.437 210.726 277.79 210.346 278.059C209.623 277.728 210.189 277.556 209.386 277.009C208.831 277.06 208.73 277.096 208.205 276.957C207.616 276.431 207.786 275.986 207.513 275.321C207.337 274.897 206.565 274.993 205.895 274.673C205.389 273.608 206.185 273.012 206.908 272.305C206.255 271.794 205.723 271.401 205.453 270.6C205.648 269.326 206.863 269.622 207.894 269.674C208.062 268.728 208.015 267.98 208.356 267.047Z" fill="#F7C937"/>
<path d="M209.377 271.326C211.346 271.993 211.772 272.797 210.22 274.307C209.483 274.37 209.358 274.314 208.842 273.971C208.217 272.977 208.657 272.094 209.377 271.326Z" fill="#EF5336"/>
<path d="M200.49 260.251L201.391 260.898C201.664 261.163 202.016 261.465 202.2 261.787L202.447 262.078C202.876 262.471 202.999 262.546 203.284 263.039L203.406 263.138C204.17 263.753 205.639 264.242 205.771 264.842C204.787 265.751 203.573 267.107 202.3 267.359C201.381 267.14 201.037 265.411 200.805 264.533L200.446 263.624L200.066 262.809L199.683 261.789L199.365 260.994C199.659 260.766 200.163 260.463 200.49 260.251Z" fill="#FACAA1"/>
<path d="M200.49 260.251L201.391 260.898C201.664 261.163 202.016 261.465 202.2 261.787C201.268 262.147 200.909 262.29 200.066 262.808L199.683 261.788L199.365 260.994C199.659 260.766 200.163 260.463 200.49 260.251Z" fill="#F05036"/>
<path d="M200.49 260.251L201.391 260.898C200.849 261.184 200.228 261.531 199.683 261.788L199.365 260.994C199.659 260.766 200.163 260.463 200.49 260.251Z" fill="#EEE2D9"/>
<path d="M112.09 247.53C113.228 247.522 114.335 247.596 115.298 247.759L115.37 248.036C116.2 248.256 120.931 250.324 121.557 250.813C122.829 251.378 124.747 252.431 125.915 252.83C125.911 252.832 125.908 252.835 125.904 252.837C125.908 252.835 125.911 252.833 125.914 252.831H125.916L126.785 253.233C127.808 253.84 128.642 254.296 129.552 255.081L134.312 258.198H134.31L134.45 258.356H134.451L134.693 258.482C135.891 259.137 136.866 260.143 137.839 260.682L137.838 260.684C139.186 261.745 140.578 262.79 141.935 263.837C144.275 265.641 149.154 265.887 152.037 265.458C154.008 265.276 156.579 265.233 158.531 265.286C160.451 265.358 163.113 265.293 164.92 265.433C163.749 266.082 162.01 266.512 160.699 266.941C156.609 268.28 153.26 271.092 149.556 273.132C148.386 273.867 146.146 275.257 145.106 276.122C144.984 276.35 144.222 276.944 143.974 277.155C142.646 276.063 138.53 272.767 137.493 271.61C137.158 271.237 136.835 271.025 136.437 270.727C135.375 270.108 132.452 267.748 131.306 266.952C130.168 266.162 126.366 263.593 125.693 262.83C123.629 260.493 122.073 258.606 119.764 256.37V256.368C113.548 251.735 110.192 250.383 102.368 250.87C103.157 249.612 104.642 248.875 106.046 248.419L106.64 248.24C107.109 248.105 107.617 247.987 108.148 247.89C108.858 247.759 109.61 247.664 110.372 247.604C110.562 247.589 110.753 247.577 110.944 247.566C111.327 247.545 111.71 247.533 112.09 247.53ZM123.966 253.996C123.758 254.108 123.545 254.217 123.321 254.324C123.109 253.443 123.016 253.122 122.662 252.294H122.661C123.016 253.122 123.108 253.444 123.32 254.325C123.545 254.218 123.758 254.108 123.966 253.996ZM120.51 253.133C120.822 253.13 121.152 253.248 121.418 253.36L122.365 253.752L121.42 253.36C121.153 253.247 120.822 253.13 120.51 253.133ZM121.775 251.284C121.913 251.356 122.032 251.415 122.139 251.47C122.031 251.415 121.913 251.356 121.775 251.284Z" fill="#8CCDEF"/>
<path d="M202.201 261.787L202.448 262.078C202.57 263.058 201.235 263.35 200.446 263.624L200.066 262.808C200.91 262.291 201.269 262.147 202.201 261.787Z" fill="#EEE2D9"/>
<path d="M202.446 262.078C202.874 262.471 202.998 262.546 203.283 263.038C202.451 263.527 201.625 264.026 200.804 264.532L200.444 263.624C201.234 263.35 202.569 263.058 202.446 262.078Z" fill="#F05036"/>
<path d="M210.355 247.331H210.354C210.368 247.329 210.383 247.327 210.398 247.325C210.384 247.327 210.37 247.329 210.355 247.331ZM210.488 247.311C210.458 247.316 210.428 247.32 210.398 247.325C210.427 247.32 210.456 247.316 210.484 247.311C210.486 247.311 210.487 247.311 210.488 247.311ZM207.23 247.15C207.106 247.118 206.98 247.085 206.853 247.048L206.837 247.043C206.97 247.082 207.101 247.117 207.23 247.15ZM212.545 246.771C212.542 246.772 212.538 246.773 212.535 246.774C212.556 246.766 212.578 246.759 212.599 246.75C212.581 246.757 212.563 246.764 212.545 246.771ZM213.754 246.308C213.711 246.321 213.669 246.334 213.626 246.348C213.617 246.351 213.608 246.355 213.599 246.358C213.597 246.358 213.595 246.359 213.593 246.36C213.65 246.34 213.708 246.321 213.765 246.304C213.761 246.305 213.758 246.307 213.754 246.308ZM200.263 187.761C197.807 192.93 196.46 198.97 196.417 204.214C199.127 204.203 208.431 203.71 210.263 205.059C210.609 205.566 210.655 206.439 210.672 207.063C210.774 207.685 210.872 208.308 210.966 208.93C211.535 209.099 212.321 209.305 212.861 209.501C213.511 210.946 213.607 212.356 213.754 213.913C213.24 214.08 212.696 214.293 212.167 214.335C212.028 215.945 211.928 217.557 211.867 219.172L211.729 221.178C211.772 221.309 211.857 221.436 211.967 221.558C211.962 221.552 211.955 221.547 211.95 221.541C211.925 221.512 211.9 221.483 211.878 221.454C211.811 221.364 211.758 221.272 211.728 221.178C211.105 221.387 209.586 220.488 208.812 220.259C206.164 219.473 201.541 219.023 199.926 221.923C198.903 223.761 201.338 225.588 202.512 226.478C199.111 227.604 195.428 230.068 199.384 233.515C197.292 236.24 197.861 237.593 200.316 239.697C199.951 240.453 199.629 241.084 199.363 241.88C199.541 242.45 199.701 243.06 199.969 243.593L200.091 243.817C199.292 243.917 198.836 243.967 198.033 243.959C198.019 243.96 198.005 243.96 197.991 243.961C197.542 243.989 197.069 244.013 196.577 244.034C195.495 244.078 194.324 244.104 193.127 244.095C190.197 244.074 187.115 243.858 184.828 243.271L184.827 243.272C183.712 242.358 183.773 241.798 183.546 240.412C183.079 238.678 182.551 234.174 182.283 232.271C181.719 229.097 181.322 225.185 180.954 221.968C180.827 220.162 180.565 218.11 180.377 216.289L180.201 215.799C179.987 215.783 179.245 215.714 179.054 215.637C177.73 215.106 178.421 212.218 178.712 211.289C179.721 210.587 180.3 211.058 180.913 210.276C180.879 205.402 181.271 205.821 186.054 205.094C189.521 204.567 192.92 204.388 196.416 204.214C196.459 198.969 197.807 192.93 200.263 187.76V187.761ZM219.192 226.075C218.823 226.162 218.465 226.257 218.123 226.362C218.318 226.302 218.518 226.245 218.723 226.191C218.877 226.15 219.034 226.112 219.192 226.075ZM216.634 226.138C216.667 226.188 216.7 226.239 216.732 226.289C216.7 226.239 216.667 226.188 216.634 226.138ZM216.24 225.575C216.279 225.627 216.317 225.68 216.354 225.733C216.317 225.68 216.279 225.627 216.24 225.575ZM215.854 225.072C215.888 225.115 215.924 225.158 215.958 225.202C215.924 225.158 215.888 225.115 215.854 225.072ZM215.48 224.624C215.52 224.67 215.559 224.716 215.598 224.762C215.559 224.716 215.52 224.67 215.48 224.624ZM215.032 224.137C215.063 224.169 215.094 224.2 215.124 224.232C215.094 224.2 215.063 224.169 215.032 224.137ZM214.617 223.722C214.647 223.751 214.677 223.78 214.707 223.809C214.677 223.78 214.647 223.751 214.617 223.722ZM214.168 223.311C214.199 223.338 214.229 223.366 214.26 223.393C214.229 223.366 214.199 223.338 214.168 223.311ZM212.728 222.184C212.642 222.124 212.555 222.062 212.469 221.997C212.555 222.062 212.642 222.124 212.728 222.184ZM212.35 221.908C212.33 221.892 212.31 221.877 212.29 221.861C212.31 221.877 212.33 221.892 212.35 221.908ZM212.094 221.688C212.118 221.711 212.143 221.734 212.168 221.756C212.143 221.734 212.118 221.711 212.094 221.688Z" fill="#9AD8EB"/>
<path d="M197.581 257.613C198.216 258.004 200.281 259.61 200.491 260.25C200.164 260.463 199.66 260.765 199.366 260.993C198.886 260.521 197.884 258.301 197.581 257.613Z" fill="#F05036"/>
<path d="M98.8041 283.909C99.5203 283.67 101.81 285.444 102.629 285.909C105.471 287.516 108.389 288.979 111.374 290.298C114.019 291.469 116.684 292.597 119.366 293.681C121.394 294.482 132.646 298.41 133.411 299.137L118.541 303.815C113.981 305.282 109.187 308.594 106.001 303.426C103.33 302.235 103.906 301.857 102.329 299.924C100.045 297.125 99.5606 297.616 99.3958 293.892C96.0968 291.046 96.3545 287.276 98.8041 283.909Z" fill="#F5A77F"/>
<path d="M102.369 250.871C110.193 250.383 113.55 251.734 119.765 256.367V256.369C122.074 258.604 123.63 260.492 125.694 262.829C126.367 263.591 130.169 266.161 131.307 266.952C132.453 267.748 135.376 270.107 136.438 270.727C136.836 271.024 137.159 271.237 137.494 271.61C138.531 272.766 142.647 276.062 143.975 277.155C144.223 276.944 144.985 276.35 145.107 276.122C146.147 275.256 148.387 273.866 149.557 273.131C153.261 271.092 156.61 268.278 160.7 266.94C162.011 266.511 163.748 266.08 164.919 265.431L164.922 265.432C164.99 265.281 165.062 265.131 165.137 264.984C167.367 264.685 169.248 262.563 171.385 261.308C173.213 260.218 175.152 259.324 177.167 258.644C183.923 256.9 188.816 257.951 194.641 260.844C194.711 260.977 194.911 261.004 194.924 261.169C200.971 265.94 202.118 268.982 203.434 276.872C205.318 288.175 196.345 293.242 186.735 293.707C186.112 293.741 182.4 294.799 180.291 295.5C179.782 295.252 179.28 294.986 178.787 294.703C178.181 294.547 172.441 295.886 170.996 295.973C171.596 300.483 170.632 301.605 168.109 305.073C167.364 306.097 167.049 307.521 165.948 308.863C163.633 311.684 159.718 315.766 156.04 312.474C154.279 310.898 152.197 309.746 150.288 308.373C146.036 304.896 142.032 301.74 136.659 300.17C135.945 299.961 134.121 299.179 133.413 299.137L133.312 299.06C131.955 298.168 121.333 294.457 119.368 293.681C116.686 292.597 114.022 291.469 111.376 290.298C108.391 288.979 105.472 287.516 102.631 285.909C101.812 285.444 99.5209 283.669 98.8047 283.909C98.7125 283.584 94.9009 280.272 94.1523 279.496C88.9835 274.134 87.6763 264.972 91.4688 258.378C94.0029 253.974 97.2409 252.19 102.369 250.871ZM115.589 304.913C115.142 305.087 114.698 305.258 114.256 305.415C114.698 305.258 115.142 305.087 115.589 304.913ZM106.307 303.886V303.885V303.886ZM100.932 298.325C101.209 298.629 101.537 298.983 101.924 299.436C102.053 299.587 102.188 299.749 102.331 299.923V299.924C101.76 299.225 101.301 298.73 100.932 298.325ZM97.9082 292.203C98.2856 292.792 98.7792 293.358 99.3975 293.891V293.892C98.779 293.359 98.2857 292.792 97.9082 292.203ZM145.981 265.366C146.295 265.42 146.614 265.463 146.934 265.5C146.614 265.463 146.295 265.42 145.981 265.366ZM161.741 265.332C162.034 265.335 162.325 265.339 162.612 265.343H162.611C162.324 265.339 162.033 265.335 161.741 265.332ZM143.107 264.527C143.363 264.644 143.632 264.751 143.912 264.848C143.632 264.751 143.363 264.644 143.107 264.527ZM142.164 264.001C142.115 263.968 142.068 263.933 142.021 263.898C142.068 263.933 142.115 263.968 142.164 264.001ZM137.84 260.682C139.098 261.673 140.393 262.65 141.663 263.627C140.393 262.65 139.097 261.673 137.839 260.682V260.681L137.84 260.682ZM135.163 258.761C135.267 258.828 135.368 258.898 135.469 258.968C135.442 258.949 135.415 258.929 135.388 258.911L135.163 258.761ZM122.663 252.292C122.9 252.846 123.018 253.175 123.135 253.595C123.149 253.646 123.165 253.697 123.179 253.75C123.212 253.876 123.245 254.012 123.282 254.164C123.295 254.216 123.309 254.268 123.322 254.324L123.321 254.325C123.109 253.444 123.017 253.121 122.662 252.292H122.663ZM121.421 253.359L122.366 253.75V253.751L121.419 253.359C121.407 253.354 121.395 253.349 121.383 253.344C121.395 253.349 121.408 253.354 121.421 253.359ZM121.03 253.217C121.067 253.228 121.102 253.24 121.138 253.252C121.102 253.24 121.067 253.228 121.03 253.217ZM120.747 253.151C120.819 253.162 120.89 253.179 120.961 253.198L120.747 253.151Z" fill="#FBD5BD"/>
<path d="M141.407 269.4L141.783 269.167C142.848 269.31 142.983 269.331 143.913 268.902C145.08 269.647 145.697 270.145 146.648 271.163L147.029 271.192C147.346 270.843 147.454 270.607 147.855 270.486C148.066 270.877 147.997 271.007 147.927 271.477C148.281 271.831 148.45 271.797 148.98 271.865C149.291 272.283 149.382 272.643 149.556 273.132C148.386 273.867 146.146 275.257 145.107 276.122C144.984 276.351 144.223 276.944 143.974 277.155C142.647 276.063 138.53 272.767 137.493 271.611C138.42 271.112 138.891 270.517 139.549 269.695C139.604 270.271 139.666 271.202 139.783 271.731C139.815 269.55 140 271.189 140.632 269.519C140.849 269.396 141.131 269.418 141.407 269.4Z" fill="#8CCDEC"/>
<path d="M125.916 252.831L126.785 253.233C127.808 253.839 128.642 254.296 129.552 255.081L129.29 255.418C127.665 255.553 125.596 254.952 123.947 255.362L123.322 254.325C124.269 253.873 125.031 253.383 125.916 252.831Z" fill="#EF5336"/>
<path d="M127.764 257.602C128.447 257.611 129.093 257.621 129.776 257.599L129.894 257.438C130.034 257.25 130.094 257.185 130.268 257.02L130.588 257.071C130.507 257.581 130.477 257.769 130.478 258.279L130.704 258.456L131.145 258.372C131.429 257.866 131.44 257.616 131.88 257.47L132.185 257.636C132.328 258.366 132.254 259.159 132.616 259.635C133.099 259.751 132.881 259.781 133.296 259.6C133.597 258.951 133.697 258.493 134.31 258.199L134.451 258.356C135.761 259.001 136.801 260.108 137.838 260.682C137.627 261.448 137.788 261.208 137.285 261.71C136.356 262.038 135.158 261.889 134.46 261.15C133.349 260.607 128.202 258.512 127.703 257.965L127.764 257.602Z" fill="#71C04C"/>
<path d="M122.019 254.217L120.045 253.547L119.986 253.293C120.403 252.989 120.992 253.18 121.418 253.36L122.365 253.753L122.583 253.653C122.389 253.165 122.27 252.987 122.294 252.479L122.661 252.294C123.016 253.122 123.107 253.444 123.32 254.325L123.945 255.363C124.445 255.639 125.612 255.673 126.242 255.728C126.043 256.249 126.189 256.093 125.731 256.323C125.041 256.275 124.922 256.135 124.483 256.481C124.268 257.256 124.363 258.245 124.079 258.567C123.497 257.671 123.495 256.659 123.41 255.607C123.023 256.326 122.461 257.78 121.454 257.164C121.3 256.146 121.762 255.89 122.436 255.157C121.511 255.414 120.799 255.573 119.953 256.054L119.746 255.873L119.752 255.577C120.251 254.787 121.175 254.515 122.019 254.217Z" fill="#3470B9"/>
<path d="M138.666 264.609C139.437 264.786 140.031 266.746 140.167 267.481C141.04 266.484 142.781 266.045 143.965 266.648L144.005 266.914C143.423 267.406 142.242 267.499 141.444 267.642C141.384 267.606 141.328 267.576 141.275 267.55C141.328 267.576 141.384 267.606 141.444 267.642L141.522 268.01C142.226 268.248 143.288 268.571 143.913 268.902H143.914C145.081 269.646 145.698 270.145 146.649 271.163C146.488 271.605 146.521 271.653 146.381 271.737C146.521 271.653 146.489 271.605 146.649 271.164L147.031 271.192C147.348 270.843 147.456 270.607 147.856 270.486C148.068 270.877 147.999 271.007 147.929 271.477C148.283 271.831 148.452 271.797 148.981 271.865C149.292 272.283 149.383 272.643 149.558 273.132C148.388 273.868 146.148 275.257 145.108 276.123L144.913 275.85C144.915 275.358 144.923 275.503 145.233 275.017L145.136 274.913C145.404 274.427 145.55 274.37 145.478 273.909L145.084 273.794C144.085 273.461 143.259 274.215 142.421 273.869L142.438 273.578C143.014 272.684 143.333 272.901 143.851 272.376L143.957 272.26C143.221 271.984 142.841 271.936 142.492 271.254L142.645 270.99C143.189 270.755 143.56 270.851 144.156 270.906L145.369 271.36C145.468 271.636 145.567 271.746 145.723 271.809C145.566 271.746 145.468 271.635 145.369 271.359C145.186 270.328 142.334 269.652 141.408 269.4L140.998 269.421C140.866 269.433 140.741 269.457 140.633 269.519C140.435 270.041 140.281 270.239 140.162 270.333C140.138 270.351 140.116 270.366 140.095 270.378C139.883 270.497 139.803 270.368 139.783 271.731C139.667 271.202 139.604 270.271 139.55 269.695C138.892 270.517 138.421 271.112 137.494 271.611C137.159 271.238 136.836 271.025 136.438 270.727C137.004 269.86 137.589 269.393 138.391 268.766C136.287 268.694 136.146 268.607 134.37 267.568C135.012 267.513 136.753 267.493 137.183 267.21C137.051 266.814 136.71 266.743 136.256 266.487C135.735 266.28 135.653 266.277 135.264 265.894L135.318 265.711C136.279 265.471 136.691 265.738 137.579 266.13L138.543 266.672C138.757 266.045 138.272 265.27 138.666 264.609ZM145.476 273.909C145.548 274.37 145.402 274.427 145.134 274.913C144.682 275.168 144.396 275.385 143.883 275.435L143.743 275.242C144.008 274.613 144.557 274.241 145.083 273.794L145.476 273.909ZM140.634 269.519C140.867 270.703 141.249 272.325 140.613 273.425L140.363 273.568C139.816 273.19 139.766 272.374 139.784 271.731C139.817 269.55 140.002 271.189 140.634 269.519Z" fill="#4771CF"/>
<path d="M204.324 181.348L204.578 181.649C206.286 182.21 207.51 182.779 209.064 183.698C221.051 192.411 229.707 214.781 234.27 228.796C235.241 231.782 231.561 232.715 230.745 233.963C230.23 231.169 229.808 228.835 228.584 226.272L227.112 225.689C224.196 225.147 219.756 225.637 217.014 226.749C215.952 224.99 214.736 223.67 213.098 222.451C212.657 222.122 211.886 221.679 211.721 221.178L211.86 219.172C211.921 217.557 212.02 215.946 212.159 214.336C212.689 214.294 213.233 214.08 213.746 213.913C213.599 212.355 213.503 210.946 212.853 209.502C212.313 209.306 211.527 209.1 210.958 208.931C210.864 208.308 210.766 207.686 210.664 207.063C210.647 206.439 210.601 205.566 210.255 205.059C208.423 203.71 199.119 204.203 196.409 204.215C196.472 196.56 199.313 187.213 204.324 181.348Z" fill="#F9CC3F"/>
<path d="M208.333 183.846L209.064 183.698C221.051 192.411 229.707 214.781 234.27 228.796C235.24 231.781 231.561 232.714 230.745 233.962C230.23 231.169 229.808 228.834 228.584 226.272L227.112 225.689C226.191 221.956 225.525 218.994 224.313 215.302C220.663 204.395 215.227 194.176 208.232 185.067C208.232 185.065 208.231 185.064 208.23 185.062C206.971 183.836 205.941 183.01 204.561 181.961L204.579 181.649C206.287 182.21 207.511 182.779 209.065 183.697L208.333 183.846Z" fill="#EF5336"/>
<path d="M196.409 204.215C199.119 204.203 208.423 203.71 210.255 205.059C210.601 205.566 210.647 206.439 210.664 207.063C210.766 207.686 210.864 208.308 210.958 208.931C211.527 209.1 212.313 209.306 212.853 209.502C213.503 210.946 213.599 212.355 213.746 213.913C213.233 214.08 212.689 214.294 212.159 214.336C202.594 215.482 193.235 216.182 183.567 215.883C182.489 215.849 181.251 215.767 180.194 215.799C179.98 215.783 179.238 215.714 179.047 215.637C177.723 215.106 178.414 212.217 178.705 211.289C179.714 210.586 180.293 211.057 180.906 210.276C180.872 205.402 181.264 205.822 186.047 205.095C189.514 204.567 192.913 204.388 196.409 204.215Z" fill="#FCFCFD"/>
<path d="M196.409 204.215C199.119 204.203 208.423 203.71 210.255 205.059C210.602 205.566 210.647 206.439 210.664 207.063C210.649 207.318 210.676 208.27 210.527 208.419C209.247 209.716 190.996 210.317 187.811 210.33C186.009 210.337 182.475 209.946 180.906 210.276C180.872 205.402 181.265 205.822 186.048 205.095C189.515 204.567 192.913 204.388 196.409 204.215Z" fill="#FCFCFD"/>
<path d="M210.664 207.063C210.766 207.686 210.864 208.308 210.958 208.931C211.527 209.1 212.313 209.306 212.854 209.502L212.719 209.512C210.262 209.705 206.872 210.338 204.224 210.62C197.932 211.303 191.608 211.644 185.279 211.641C183.761 211.638 180.088 211.641 178.705 211.289C179.714 210.586 180.293 211.057 180.906 210.276C182.475 209.946 186.009 210.337 187.811 210.33C190.995 210.317 209.247 209.716 210.527 208.419C210.676 208.27 210.649 207.318 210.664 207.063Z" fill="#EEE2D9"/>
<path d="M180.194 215.799C181.251 215.767 182.489 215.849 183.567 215.883C193.235 216.182 202.594 215.482 212.159 214.336C212.02 215.946 211.921 217.557 211.86 219.172C211.666 218.5 211.681 215.959 211.665 215.1C211.222 214.789 203.949 215.822 202.99 215.901C201.674 216.01 199.91 215.962 198.598 216.01L187.946 216.486C185.734 216.563 183.512 216.523 181.305 216.637C180.958 216.427 180.762 216.243 180.37 216.29L180.194 215.799Z" fill="#9AD8EB"/>
<path d="M117.6 220.356L117.887 220.379C120.102 220.713 122.428 221.325 124.617 221.609C131.395 222.489 138.433 222.973 145.268 223.051C145.698 222.177 145.682 222.048 146.607 221.661C147.659 221.218 150.241 221.389 151.228 221.812C152.478 221.751 153.893 221.601 155.051 222.108C155.437 222.275 155.879 222.582 156.241 222.705C156.637 222.713 158.077 222.766 158.374 222.697C159.281 221.444 162.05 221.244 163.451 221.613C164.364 221.852 164.489 222.048 164.954 222.811C170.407 222.743 175.527 222.563 180.947 221.968C181.314 225.185 181.711 229.097 182.276 232.271C180.597 232.386 177.925 232.486 176.332 232.718L165.202 233.112C165.023 233.442 164.785 233.916 164.587 234.219C162.696 235.189 160.313 234.925 158.675 233.588C158.032 232.674 156.692 232.957 155.606 232.966C152.575 236.181 151.779 233.987 150.716 234.597C148.309 235.012 146.614 235.232 145.237 232.906C135.188 232.639 127.378 232.128 117.517 229.398L116.774 229.142C117.01 226.321 117.218 223.131 117.6 220.356Z" fill="#4E3933"/>
<path d="M116.775 229.142L117.519 229.398C127.379 232.127 135.189 232.639 145.238 232.906C146.615 235.232 148.31 235.012 150.718 234.597L151.046 234.714C151.226 235.537 151.182 243.04 151.04 243.953C150.893 244.084 150.88 244.127 150.71 244.195C148.631 244.016 146.547 243.339 145.495 245.492C137.921 245.237 122.15 243.492 116.013 239.372L115.728 239.315C115.726 237.563 115.747 236.023 115.847 234.277C116 233.913 116.565 230.02 116.775 229.142Z" fill="#4771CF"/>
<path d="M182.276 232.271C182.544 234.174 183.072 238.677 183.539 240.411C183.767 241.798 183.705 242.358 184.82 243.271C184.728 243.376 184.618 243.5 184.491 243.643C180.356 244.438 171.986 245.004 168.171 245.221C167.147 245.287 166.122 245.33 165.097 245.351C164.855 244.798 164.693 244.32 164.07 244.134C162.265 243.591 159.978 243.796 158.654 245.21L158.516 245.393C157.64 245.547 156.395 245.43 155.478 245.382L154.296 244.344C153.38 244.251 151.32 244.333 150.71 244.195C150.88 244.127 150.892 244.084 151.039 243.953C151.181 243.04 151.225 235.536 151.045 234.714L150.717 234.597C151.78 233.987 152.575 236.181 155.607 232.966C156.693 232.957 158.032 232.674 158.675 233.588C160.313 234.925 162.696 235.189 164.587 234.219C164.786 233.916 165.023 233.442 165.203 233.112L176.333 232.718C177.925 232.486 180.597 232.386 182.276 232.271Z" fill="#4771CF"/>
<path d="M155.607 232.966C156.693 232.958 158.032 232.674 158.675 233.588C158.321 234.352 158.351 244.645 158.654 245.21L158.516 245.393C157.64 245.547 156.395 245.43 155.478 245.382L154.296 244.344C153.38 244.251 151.32 244.333 150.71 244.195C150.88 244.127 150.892 244.084 151.039 243.953C151.181 243.04 151.225 235.536 151.045 234.714L150.717 234.597C151.78 233.987 152.575 236.181 155.607 232.966Z" fill="#2C4B98"/>
<path d="M126.784 253.233C127.746 253.066 133.898 254 135.436 254.155C138.789 254.486 142.153 254.694 145.521 254.779C146.225 255.934 146.529 256.354 147.941 256.526C149.404 256.453 152.131 256.619 153.755 256.617C154.407 256.164 155.089 255.514 155.688 254.972C156.467 254.932 158.23 254.726 158.684 255.393C158.375 257.878 158.518 262.654 158.533 265.286C156.58 265.233 154.01 265.276 152.038 265.458C149.156 265.887 144.276 265.641 141.936 263.836C140.579 262.789 139.188 261.744 137.839 260.682C136.801 260.108 135.761 259.001 134.451 258.356L134.311 258.199L129.551 255.081C128.642 254.296 127.807 253.839 126.784 253.233Z" fill="#4771CF"/>
<path d="M155.687 254.972C156.466 254.932 158.228 254.726 158.683 255.393C158.374 257.879 158.517 262.654 158.531 265.286C156.579 265.233 154.008 265.276 152.037 265.458C151.644 265.432 151.503 265.453 151.16 265.247C150.894 263.121 151.087 258.998 151.13 256.717C150.108 256.728 148.925 256.753 147.939 256.526C149.403 256.453 152.13 256.619 153.753 256.617C154.406 256.164 155.087 255.514 155.687 254.972Z" fill="#2C4B98"/>
<path d="M165.228 255.496C170.156 255.318 175.107 254.566 180.023 254.528C180.023 254.528 180.378 254.777 180.413 254.801C175.094 256.799 167.433 259.807 164.92 265.432C163.113 265.292 160.452 265.358 158.532 265.286C158.517 262.654 158.375 257.878 158.683 255.393C159.978 257.592 163.686 257.346 165.228 255.496Z" fill="#4771CF"/>
<path d="M194.766 251.988C197.934 251.554 201.695 250.413 205.078 249.921C208.83 254.29 213.845 255.043 219.247 254.295C219.489 258.467 220.228 261.815 215.905 263.857C215.796 263.907 215.515 263.927 215.379 263.943C215.008 263.692 214.95 263.626 214.525 263.523L214.475 263.335C214.318 262.394 212.365 259.971 211.655 259.202C207.172 254.353 201.18 252.29 194.766 251.988Z" fill="#2C4B98"/>
<path d="M205.536 246.609C208.009 247.529 209.578 247.723 212.224 246.882C212.901 246.669 213.661 246.234 214.341 246.186C214.198 246.754 213.894 246.998 213.925 247.323C212.125 250.033 206.658 251.063 205.536 246.609Z" fill="#F5A77F"/>
<path d="M199.919 221.923C201.535 219.023 206.158 219.473 208.806 220.259C209.579 220.488 211.098 221.387 211.721 221.178C211.885 221.679 212.657 222.123 213.099 222.451C214.737 223.67 215.952 224.991 217.015 226.749V226.91L217.21 227.397C219.15 232.582 218.763 242.058 215.026 246.064L214.759 246.467C214.524 246.795 214.353 246.943 213.926 247.323C213.896 246.998 214.199 246.754 214.342 246.186C213.662 246.235 212.901 246.669 212.225 246.883C209.579 247.724 208.009 247.529 205.537 246.609C203.674 245.588 202.103 245.874 200.084 243.817C199.74 243.235 199.56 242.531 199.356 241.88C199.622 241.084 199.945 240.453 200.31 239.697C197.854 237.593 197.285 236.24 199.377 233.515C195.421 230.068 199.105 227.604 202.506 226.478C201.332 225.589 198.895 223.761 199.919 221.923Z" fill="#FBD5BD"/>
<path d="M93.7432 117.767C95.8773 108.788 102.918 103.069 110.443 98.3201C129.208 86.4789 154.053 85.4596 175.253 90.2911C193.694 94.494 214.744 106.24 225.031 122.476C226.338 124.554 227.243 127.434 228.024 128.649C227.386 128.743 226.496 128.84 225.907 129.045C220.649 130.349 216.123 134.11 213.466 138.764C212.095 141.165 207.704 148.895 205.359 150.027L205.061 149.973C204.733 149.014 205.168 145.389 205.254 144.064C205.372 142.258 204.934 132.531 203.932 131.554C202.101 130 200.055 128.528 198.383 126.784C197.156 125.503 195.995 123.96 194.799 122.621C194.157 121.637 193.634 121.074 193.017 119.957L192.351 118.854C191.895 117.128 184.892 114.757 183.046 114.48C182.607 114.414 180.685 113.791 180.507 113.846C180.585 114.252 180.631 114.559 180.675 114.97C180.421 114.622 180.126 114.107 179.893 113.729C178.536 113.629 177.1 113.556 175.748 113.674C173.711 113.584 170.637 114.164 168.567 114.593C168.539 115.407 168.035 116.505 167.772 117.386C166.888 120.35 165.351 124.061 164.842 127.025C164.593 128.477 166.866 132.94 166.327 134.355C163.841 135.806 159.707 132.445 157.708 131.026C156.418 130.85 156.979 130.354 155.832 129.876L155.584 129.955C155.363 131.132 156.253 131.893 155.42 133.039L155.108 133.099C152.724 132.887 150.4 131.087 148.54 129.573C144.51 126.294 141.078 121.476 139.023 116.704C138.758 116.09 138.283 114.911 138.218 114.283C137.467 114.117 136.714 113.961 135.959 113.815C134.57 113.544 130.512 112.74 129.402 113.493C129.12 115.151 125.746 120.162 124.646 121.728C124.437 122.024 123.547 123.288 123.495 123.493L123.245 123.299L123.071 123.418C122.54 123.775 122.346 123.945 121.691 123.926C121.605 123.569 120.509 122.437 120.096 120.877C119.793 120.419 119.441 119.087 119.26 118.49C119.117 117.528 118.899 116.164 118.879 115.214C117.142 117.103 116.868 118.584 115.721 120.107C114.592 122.21 113.447 124.303 112.285 126.387C110.761 129.123 109.758 130.477 109.547 133.66C109.422 135.544 109.633 136.931 107.435 136.988C106.828 136.806 106.25 136.758 105.627 136.583C102.08 135.592 99.3484 134.034 97.5111 130.712L97.5785 130.585C98.6332 130.199 100.131 130.376 101.268 129.724C102.391 129.087 103.134 128.392 103.56 127.205C106.106 120.098 94.7819 119.969 93.7432 117.767Z" fill="#4E3933"/>
<path d="M135.692 104.782L135.866 104.171C136.04 104.384 136.256 106.281 136.29 106.621C136.402 107.745 138.257 113.675 138.218 114.283C137.467 114.117 136.714 113.961 135.959 113.815C134.57 113.544 130.512 112.74 129.402 113.493C129.12 115.151 125.747 120.162 124.646 121.728C124.437 122.024 123.548 123.288 123.495 123.493L123.245 123.299L123.071 123.418C122.54 123.775 122.346 123.945 121.691 123.926C121.605 123.569 120.509 122.437 120.097 120.877C119.793 120.419 119.441 119.087 119.261 118.49C119.117 117.528 118.899 116.164 118.879 115.214C117.142 117.103 116.868 118.584 115.721 120.107L115.601 119.949C115.667 119.508 117.049 116.976 117.354 116.37C116.306 117.117 114.012 118.47 112.663 117.822C111.662 117.341 112.161 115.433 112.707 114.728C117.167 108.972 124.848 106.713 131.852 106.594C131.972 106.592 132.032 106.541 132.257 106.56C133.979 107.01 134.688 107.158 136.309 107.86C136.046 106.932 135.866 105.749 135.692 104.782Z" fill="#432C21"/>
<path d="M120.096 120.877C120.543 120.409 118.844 117.288 119.348 115.484C120.237 114.201 128.028 112.687 129.402 113.493C129.12 115.151 125.746 120.162 124.646 121.728C124.437 122.024 123.547 123.288 123.495 123.493L123.245 123.299L123.071 123.417C122.54 123.775 122.346 123.945 121.691 123.926C121.605 123.569 120.509 122.437 120.096 120.877Z" fill="#4E3933"/>
<path d="M172.038 105.812C172.261 105 174.975 96.8035 175.078 96.622L175.315 96.8409C175.801 97.4959 177.109 105.657 177.735 106.954C178.961 107.661 182.636 108.06 183.776 108.445C188.121 109.911 193.294 112.173 196.009 115.987C196.521 116.707 196.432 118.285 195.445 118.624C194.567 118.927 193.802 118.773 192.893 118.863C192.965 119.224 193.07 119.598 193.018 119.957L192.352 118.854C191.895 117.129 184.893 114.757 183.047 114.48C182.608 114.414 180.685 113.791 180.508 113.846C180.585 114.252 180.631 114.559 180.675 114.97C180.422 114.622 180.126 114.107 179.893 113.729C178.537 113.629 177.1 113.556 175.749 113.674C173.712 113.584 170.638 114.164 168.567 114.593C168.334 113.56 169.907 110.247 170.343 109.166C170.584 108.567 170.681 108.47 171.165 108.304C171.009 107.833 171.788 106.376 172.038 105.812Z" fill="#432C21"/>
<path d="M175.315 96.8408C175.305 97.6046 175.326 97.9352 175.427 98.6924C175.426 98.6937 175.426 98.695 175.426 98.6963C175.918 100.896 176.783 105.202 177.545 107.196C175.412 107.214 173.14 107.436 171.165 108.304C171.009 107.832 171.789 106.376 172.038 105.812C172.176 106.591 171.793 106.511 171.938 107.382V107.381C171.793 106.511 172.177 106.591 172.039 105.812C172.262 104.999 174.974 96.8092 175.079 96.6221L175.315 96.8408Z" fill="#FBD5BD"/>
<path d="M135.408 101.43L135.523 103.108C135.567 103.662 135.62 104.216 135.692 104.782C135.867 105.749 136.047 106.932 136.31 107.861C134.689 107.158 133.979 107.01 132.257 106.56C132.503 106.337 132.619 106.045 132.773 105.745L133.474 104.124C134.167 102.501 134.84 100.869 135.492 99.2289L135.408 101.43Z" fill="#FBD5BD"/>
<path d="M126.51 179.62C127.535 179.723 129.175 180.278 130.229 180.547C134.891 181.737 139.565 182.427 144.338 182.985L147.287 183.287C147.495 185.436 147.273 187.262 147.688 189.573C147.991 191.238 148.357 192.891 148.782 194.526C148.855 194.802 149.316 196.161 149.317 196.169C149.773 197.147 150.324 198.062 150.743 198.963C152.85 201.989 155.064 205.725 157.863 208.158L158.621 208.339C157.947 209.594 157.212 210.791 156.478 212.01C156.958 212.468 157.187 212.507 157.226 213.031C157.842 212.78 159.09 212.249 159.726 212.508C159.662 212.934 159.469 212.955 159.052 213.293C159.289 213.563 159.483 213.794 159.704 214.078L159.646 214.332L160.152 214.477C160.198 214.75 160.218 214.752 160.2 215.024L160.294 215.201C160.134 215.779 160.082 216.214 159.659 216.616L159.56 217.118C159.575 217.855 158.971 219.775 158.8 220.703C158.686 221.342 158.583 222.093 158.376 222.696C158.079 222.766 156.64 222.713 156.243 222.705C155.881 222.583 155.439 222.275 155.053 222.108C153.894 221.601 152.48 221.751 151.229 221.812C150.243 221.389 147.66 221.219 146.608 221.661C145.684 222.049 145.7 222.177 145.27 223.051C138.435 222.974 131.396 222.489 124.618 221.609C122.43 221.325 120.104 220.714 117.889 220.379L117.602 220.357C117.776 219.644 118.048 216.722 118.149 215.862C118.453 213.056 118.863 210.261 119.377 207.484L119.736 205.53C119.972 204.144 120.293 202.748 120.59 201.371C120.81 200.488 121 199.487 121.191 198.59C121.414 197.871 121.562 197.113 121.744 196.38C123.089 190.977 124.429 185.493 126.124 180.19L126.51 179.62Z" fill="#4771CF"/>
<path d="M144.337 182.985L147.286 183.288C147.494 185.437 147.272 187.262 147.688 189.574C147.991 191.239 148.355 192.891 148.781 194.527C148.853 194.802 149.315 196.161 149.316 196.169C149.772 197.147 150.323 198.062 150.742 198.963C152.849 201.988 155.063 205.725 157.863 208.159L158.62 208.339C157.946 209.594 157.211 210.79 156.476 212.01C156.957 212.468 157.186 212.507 157.225 213.031C157.842 212.78 159.089 212.249 159.725 212.508C159.661 212.935 159.469 212.955 159.051 213.293C159.288 213.563 159.483 213.793 159.704 214.078L159.645 214.332L160.151 214.477C160.197 214.751 160.216 214.752 160.199 215.024L160.293 215.201C160.133 215.778 160.082 216.214 159.659 216.616L159.559 217.118C159.574 217.855 158.97 219.776 158.799 220.704C158.685 221.342 158.582 222.094 158.375 222.697C158.078 222.766 156.638 222.713 156.242 222.705C155.88 222.582 155.438 222.275 155.052 222.108C153.893 221.601 152.479 221.751 151.228 221.812C150.99 213.491 147.094 207.486 145.436 199.492C144.488 194.921 143.986 190.187 144.295 185.536C144.349 184.719 144.435 183.79 144.337 182.985Z" fill="#2C4B98"/>
<path d="M157.862 208.159L158.619 208.339C157.946 209.594 157.21 210.79 156.476 212.01C156.956 212.468 157.185 212.507 157.224 213.031C156.698 213.319 155.233 214.188 154.737 214.257C154.695 213.835 154.447 213.065 154.322 212.631C155.366 210.937 156.555 209.645 157.862 208.159Z" fill="#3A7DC4"/>
<path d="M155.357 216.615C156.243 217.089 158.577 215.912 159.659 216.616L159.559 217.118C159.574 217.855 158.97 219.776 158.799 220.704C158.685 221.342 158.582 222.093 158.375 222.696C158.078 222.765 156.638 222.713 156.242 222.705L155.929 219.579L155.72 218.426C155.632 218.221 155.412 216.916 155.357 216.615ZM157.226 213.031C157.842 212.78 159.09 212.249 159.726 212.508C159.662 212.934 159.469 212.955 159.052 213.293C158.091 213.928 156.501 214.665 155.308 215.08C155.265 215.215 155.222 215.351 155.179 215.486C155.013 215.179 154.853 214.608 154.738 214.256C155.235 214.186 156.699 213.319 157.226 213.031Z" fill="#3470B9"/>
<path d="M195.29 175.018C196.387 175.541 199.531 177.271 200.501 177.551C201.821 178.562 202.754 179.075 203.645 180.349C203.687 180.41 203.73 180.473 203.772 180.538C203.816 180.603 203.86 180.67 203.903 180.74L204.325 181.347C199.314 187.212 196.473 196.56 196.41 204.214C192.914 204.388 189.515 204.567 186.048 205.094C181.265 205.821 180.872 205.402 180.906 210.276C180.294 211.057 179.714 210.586 178.705 211.289C178.414 212.217 177.724 215.106 179.048 215.636C179.239 215.713 179.979 215.783 180.194 215.799L180.37 216.29C180.559 218.111 180.82 220.162 180.947 221.968C175.528 222.564 170.408 222.744 164.955 222.811C164.49 222.049 164.365 221.853 163.451 221.613C162.05 221.245 159.282 221.444 158.375 222.697C158.582 222.094 158.685 221.342 158.799 220.704C158.97 219.776 159.574 217.856 159.559 217.119L159.659 216.617C160.082 216.215 160.133 215.778 160.294 215.201L160.199 215.024C160.217 214.752 160.197 214.751 160.151 214.477L159.646 214.333L159.704 214.078C159.483 213.793 159.288 213.564 159.051 213.294C159.468 212.956 159.661 212.934 159.725 212.508C159.089 212.25 157.843 212.78 157.226 213.031C157.187 212.507 156.957 212.468 156.477 212.009C157.211 210.79 157.946 209.593 158.62 208.339C159.966 206.637 163.746 202.473 165.242 200.998C165.749 200.641 166.668 200.216 167.254 199.923C167.618 199.229 168.484 197.763 168.547 197.071C169.994 194.825 171.417 192.02 172.682 189.636C172.728 188.755 172.563 188.604 171.896 188.045C173.999 186.443 175.674 183.65 177.028 181.421L177.259 181.399C184.717 179.374 188.158 178.455 195.178 174.757L195.29 175.018Z" fill="#4771CF"/>
<path d="M121.691 123.926C122.347 123.945 122.541 123.775 123.072 123.418L123.246 123.299L123.496 123.493C127.835 122.798 132.27 123.872 135.818 126.478C137.444 127.691 138.942 129.389 139.847 131.22C140.152 131.85 140.455 132.207 140.124 132.891L139.945 133.006C139.694 133.166 139.542 133.235 139.274 133.36C139.165 133.779 140.193 136.554 140.302 137.252C141.637 145.818 136.269 151.761 127.537 150.265C124.206 151.052 118.44 148.296 116.911 145.199C116.469 144.303 116.235 143.153 115.7 142.289C114.735 142.358 114.572 142.211 113.723 141.788C108.009 135.442 112.796 128.303 119.114 124.891L120.573 124.21L121.691 123.926Z" fill="#432C21"/>
<path d="M115.496 137.593C115.596 138.149 115.706 138.555 115.855 139.092L116.006 139.093C116.844 137.568 118.478 136.211 119.93 135.306C120.631 134.868 121.277 134.711 121.912 134.102L122.12 134.163C120.582 139.842 121.427 147.703 127.537 150.265C124.206 151.052 118.44 148.296 116.911 145.199C116.469 144.303 116.235 143.153 115.7 142.289C115.697 140.615 115.358 139.431 115.496 137.593Z" fill="#FCFCFD"/>
<path d="M126.076 127.546C127.18 127.409 127.891 127.424 129.129 127.458C128.181 127.886 127.43 128.216 126.528 128.752L126.529 128.753C122.695 131.927 124.333 130.637 122.119 134.163L121.912 134.101C121.277 134.711 120.631 134.868 119.93 135.306C118.478 136.211 116.843 137.568 116.005 139.094L115.854 139.092C115.706 138.555 115.595 138.149 115.495 137.593C115.456 136.488 116.212 134.481 116.81 133.532C118.936 130.156 121.852 128.534 125.577 127.613L126.076 127.546Z" fill="#EEE2D9"/>
<path d="M128.743 133.774C129.172 131.615 130.282 130.539 132.475 131.122C138.636 132.763 131.644 138.918 129.075 134.511L128.743 133.774Z" fill="#FCFCFD"/>
<path d="M148.094 183.331C148.405 185.866 149.296 188.615 151.269 190.14C157.459 194.922 166.321 193.008 172.045 188.47C172.712 189.029 172.729 188.756 172.683 189.637C171.418 192.021 169.995 194.826 168.548 197.072C168.484 197.763 167.618 199.228 167.254 199.923C166.668 200.216 165.75 200.64 165.243 200.997C163.748 202.472 159.966 206.637 158.62 208.339L157.863 208.158C155.064 205.725 152.85 201.989 150.743 198.963C150.324 198.062 149.772 197.147 149.316 196.169C149.315 196.161 148.855 194.802 148.782 194.527C148.357 192.891 147.991 191.238 147.688 189.574C147.273 187.262 147.495 185.436 147.287 183.287L148.094 183.331Z" fill="#4E3933"/>
<path d="M159.558 217.118C159.573 217.854 158.969 219.773 158.798 220.701L158.8 220.703C158.686 221.341 158.583 222.092 158.376 222.695C158.079 222.765 156.638 222.712 156.242 222.704L155.93 219.579L156.746 218.915L158.421 219.989C158.543 218.647 157.401 218.114 156.436 217.426C157.382 217.456 158.742 217.568 159.558 217.118ZM155.719 218.426C156.209 218.357 156.238 218.532 156.744 218.915L155.928 219.579L155.719 218.426ZM160.293 215.201C160.133 215.778 160.082 216.214 159.659 216.616C158.577 215.912 156.243 217.089 155.357 216.614L155.411 216.177C156.465 216.108 159.236 215.472 160.199 215.024L160.293 215.201ZM159.05 213.293C159.287 213.563 159.482 213.794 159.703 214.078L159.645 214.332C159.104 214.456 155.215 215.502 155.177 215.486C155.22 215.351 155.263 215.215 155.307 215.08C156.5 214.665 158.089 213.928 159.05 213.293ZM149.316 196.169C149.772 197.147 150.323 198.062 150.742 198.963H150.741C152.848 201.989 155.062 205.726 157.861 208.159L158.618 208.339C157.944 209.594 157.209 210.791 156.475 212.01L156.476 212.011L156.477 212.01L157.571 210.188C157.931 209.579 158.283 208.966 158.62 208.339C159.966 206.637 163.747 202.472 165.242 200.997C165.749 200.64 166.668 200.216 167.254 199.923C164.846 205.044 162.641 210.123 160.294 215.201L160.199 215.023C160.217 214.752 160.197 214.75 160.151 214.477L159.646 214.332L159.704 214.078C159.483 213.793 159.288 213.563 159.051 213.293C159.468 212.955 159.661 212.934 159.725 212.508C159.089 212.249 157.841 212.779 157.225 213.03C156.773 213.277 155.634 213.948 155.005 214.179C154.975 214.19 154.946 214.201 154.918 214.21C154.869 214.226 154.824 214.238 154.784 214.246C154.767 214.25 154.751 214.255 154.735 214.257C154.694 213.836 154.446 213.065 154.321 212.631C154.004 211.129 151.816 205.12 151.249 203.44V203.44C150.795 202.003 149.239 197.359 149.316 196.169ZM168.547 197.071C168.483 197.763 167.618 199.228 167.254 199.923C166.961 200.069 166.585 200.248 166.219 200.436C166.035 200.529 165.854 200.625 165.688 200.72C165.521 200.814 165.369 200.908 165.242 200.997C166.225 199.749 167.506 198.323 168.547 197.071Z" fill="#8CCDEF"/>
<path d="M147.875 183.697C154.591 184.137 161.33 183.958 168.019 183.162C170.748 182.815 174.527 181.855 176.891 181.625L177.028 181.614C175.664 184.044 173.976 187.087 171.857 188.833C166.09 193.778 157.881 195.503 151.644 190.291C149.656 188.629 148.188 186.459 147.875 183.697Z" fill="#F5A77F"/>
<path d="M207.027 163.873C208.311 164.722 209.4 165.225 210.782 165.846C209.004 167.872 207.855 170.54 208.052 173.291C208.149 174.639 209.297 177.244 206.543 177.265C204.713 177.28 202.847 175.951 201.445 174.817C201.166 175.757 200.927 176.667 200.501 177.552C199.531 177.272 196.387 175.541 195.29 175.018L195.178 174.758C200.186 171.848 203.431 168.269 207.027 163.873Z" fill="#4E3933"/>
<path d="M180.676 114.97C180.632 114.559 180.586 114.252 180.509 113.846C180.686 113.791 182.609 114.414 183.048 114.48C184.894 114.757 191.896 117.129 192.353 118.854L193.019 119.957C193.635 121.074 194.158 121.637 194.801 122.621L193.963 122.36L193.677 122.565C193.612 123.076 194.156 124.35 194.163 125.763L194.075 125.788L194.009 125.629C193.936 125.992 193.872 126.09 193.713 126.413C192.09 127.723 188.203 123.988 186.852 122.869C186.776 122.726 185.462 121.308 185.253 121.08C183.63 119.315 181.724 117.152 180.676 114.97Z" fill="#4E3933"/>
<path d="M183.909 152.887C177.903 153.329 169.966 152.111 168.006 145.323C167.512 144.068 167.002 142.465 167.318 141.115C167.768 139.195 167.847 137.062 168.288 135.113C168.288 135.113 168.822 134.711 168.87 134.675L168.805 134.347C168.349 134.101 167.859 134.254 167.314 134.334L167.143 134.167C167.065 133.144 167.485 131.822 168.088 130.997L167.533 131.156C167.979 130.427 168.715 130.117 169.323 129.55C172.265 126.803 175.726 125.589 179.669 125.369C185.138 125.065 190.209 126.692 194.257 130.442C195.342 131.431 197.86 133.922 197.933 135.349C199.043 137.696 200.302 140.073 199.363 142.708C198.912 143.975 197.279 146.18 195.937 146.415L195.559 146.244C195.238 145.345 195.555 144 195.327 142.938C195.273 143.798 195.221 145.6 195.309 146.475C192.751 151.932 189.799 153.173 183.909 152.887Z" fill="#432C21"/>
<path d="M189.818 138.172L190.033 138.117C191.62 139.332 193.031 140.439 194.306 141.994C194.658 142.423 194.819 142.737 195.319 142.859L195.329 142.938C195.275 143.798 195.223 145.6 195.311 146.475C192.753 151.932 189.801 153.173 183.91 152.887C183.647 152.697 183.032 152.793 182.396 152.54C188.529 150.186 190.572 144.315 189.818 138.172Z" fill="#FCFCFD"/>
<path d="M186.278 131.318C190.756 133.413 195.262 137.526 195.318 142.859C194.818 142.737 194.658 142.423 194.306 141.994C193.031 140.439 191.62 139.332 190.032 138.117L189.818 138.172C188.985 135.284 188.391 133.591 186.278 131.318Z" fill="#EEE2D9"/>
<path d="M176.973 131.559C180.472 131.647 182.131 135.704 178.02 136.621C176.629 136.589 174.943 136.303 174.46 134.735C174.304 134.214 174.36 133.652 174.617 133.173C175.159 132.153 175.974 131.852 176.973 131.559Z" fill="#FCFCFD"/>
<path d="M226.616 139.807C234.665 139.025 236.397 145.072 232.119 151.017C229.563 154.5 225.759 156.847 221.513 157.559C212.017 158.383 212.545 151.817 216.718 145.54C219.075 141.996 222.62 140.481 226.616 139.807Z" fill="#F5A77F"/>
<path d="M145.579 161.429C149.368 155.714 158.925 160.968 158.468 168.028C157.829 174.032 148.835 173.511 145.9 168.689L145.661 168.187C144.51 166.326 144.322 163.292 145.579 161.429Z" fill="#EF5336"/>
<path d="M145.579 161.429C149.368 155.714 158.925 160.968 158.468 168.028C158.329 167.83 158.256 167.429 158.25 167.178C158.22 166.036 156.043 163.704 155.219 162.864C152.798 163.167 146.461 166.195 145.9 168.689L145.661 168.187C144.51 166.326 144.322 163.292 145.579 161.429Z" fill="#CF5137"/>
<path d="M228.604 163.863C231.257 162.287 233.082 161.109 235.21 158.795C235.973 157.965 236.591 156.988 237.394 156.252L237.635 156.319C240.408 164.785 246.995 172.425 252.383 179.41C253.465 180.809 256.49 184.282 257.288 185.581C258.138 186.532 259.267 187.991 259.918 189.096C260.955 190.233 262.182 192.328 262.884 193.698C265.798 199.256 267.173 205.495 266.869 211.768C266.618 217.429 264.34 229.2 256.84 228.711C256.736 228.705 256.634 228.697 256.532 228.687C257.38 226.2 258.759 225.113 259.474 221.704C260.685 217.342 260.016 211.685 258.64 207.435C257.148 201.109 249.734 191.126 245.418 186.183C244.689 185.347 243.089 183.145 242.327 182.514C241.433 181.135 238.174 177.298 236.986 175.958C236.746 175.483 233.778 171.761 233.199 170.974C231.388 168.515 230.151 166.469 228.604 163.863Z" fill="#EF5336"/>
<path d="M257.528 228.722H257.529H257.528ZM228.604 163.863C230.151 166.469 231.388 168.515 233.199 170.975C233.779 171.762 236.745 175.483 236.985 175.958C238.174 177.298 241.433 181.135 242.327 182.514C243.089 183.144 244.688 185.346 245.418 186.183C249.734 191.125 257.148 201.108 258.641 207.435C260.016 211.684 260.685 217.342 259.474 221.704C258.759 225.112 257.379 226.199 256.531 228.685L255.732 228.28L255.366 228.117C252.135 226.657 252.381 221.554 251.895 218.667C250.918 212.872 244.131 210.953 239.779 208.043C229.4 201.097 224.136 189.236 220.97 177.519C220.047 174.106 219.334 170.112 218.634 166.613C218.944 166.494 219.808 166.395 220.17 166.347C223.192 165.94 225.84 165.174 228.604 163.863ZM266.907 210.593C266.901 210.984 266.889 211.376 266.87 211.768C266.639 216.987 264.684 227.398 258.505 228.61H258.504C258.609 228.59 258.712 228.566 258.814 228.54C259.326 228.411 259.808 228.218 260.261 227.97C260.533 227.82 260.794 227.651 261.046 227.464C261.381 227.214 261.699 226.933 262 226.623C262.075 226.546 262.149 226.466 262.223 226.386C264.344 224.042 265.587 220.301 266.251 216.872C266.434 215.926 266.573 215.004 266.674 214.142C266.775 213.279 266.838 212.476 266.869 211.768C266.879 211.573 266.886 211.376 266.893 211.181L266.907 210.593ZM265.161 199.088C266.13 202.048 266.705 205.128 266.865 208.247L266.89 208.833C266.828 207.076 266.636 205.33 266.315 203.608C266.28 203.417 266.243 203.226 266.204 203.035C265.972 201.892 265.683 200.76 265.338 199.644L265.161 199.088ZM264.574 197.436C264.644 197.619 264.713 197.801 264.779 197.984L264.975 198.535C264.911 198.351 264.845 198.167 264.778 197.984L264.574 197.436ZM263.153 194.221C263.506 194.921 263.834 195.631 264.138 196.351H264.137C264.061 196.171 263.983 195.991 263.904 195.812C263.746 195.455 263.582 195.1 263.412 194.748L263.153 194.221ZM259.353 188.215C259.563 188.522 259.756 188.82 259.919 189.096C260.826 190.091 261.879 191.819 262.599 193.153C262.033 192.105 261.261 190.814 260.517 189.826C260.449 189.736 260.382 189.649 260.314 189.564C260.18 189.396 260.048 189.238 259.918 189.096C259.837 188.958 259.748 188.814 259.653 188.667L259.353 188.215ZM254.942 182.533C255.933 183.739 256.89 184.931 257.289 185.581C257.714 186.056 258.209 186.659 258.679 187.281C258.209 186.659 257.713 186.056 257.288 185.581C257.188 185.419 257.054 185.223 256.893 185.001C256.812 184.89 256.725 184.772 256.632 184.649C256.353 184.281 256.024 183.864 255.671 183.427L254.942 182.533ZM242.567 166.239C245.563 170.884 249.185 175.262 252.384 179.409C252.519 179.584 252.685 179.792 252.873 180.023L253.494 180.781C253.046 180.239 252.654 179.759 252.384 179.409C249.858 176.135 247.069 172.717 244.532 169.138C244.194 168.66 243.86 168.18 243.532 167.697C243.368 167.456 243.206 167.214 243.045 166.971L242.567 166.239ZM239.95 161.758C240.344 162.519 240.762 163.272 241.2 164.019L241.644 164.764C241.193 164.021 240.761 163.272 240.352 162.517L239.95 161.758ZM237.636 156.319C237.982 157.377 238.389 158.422 238.845 159.455C238.389 158.422 237.981 157.377 237.635 156.319L237.394 156.252H237.395L237.636 156.319Z" fill="#F9CC3F"/>
<path d="M111.896 198.996C111.609 199.392 111.646 199.488 111.279 199.604C111.181 199.394 111.157 199.379 111.134 199.26L111.108 199.096L111.265 198.452L111.896 198.996ZM111.272 192.426C111.689 192.502 112.053 192.882 112.335 193.259L112.589 193.623L113 194.42C113.433 194.472 113.287 194.464 113.743 194.207C114.484 193.751 114.759 193.535 115.605 193.379L115.934 193.461C115.768 194.016 114.969 194.346 114.437 194.635L114.353 194.681L114.154 194.737L114.354 194.681C114.852 194.768 116.29 194.929 116.557 195.223C116.078 195.561 115.185 195.618 114.609 195.617L114.587 195.79L115.635 196.466L116.132 196.9C116.578 197.309 116.873 197.69 117.035 198.428L116.916 198.604C116.379 198.47 115.554 197.818 114.905 197.288L114.333 196.824L113.936 196.685L113.739 196.834L113.891 197.438C114.048 198.081 114.17 198.805 113.796 199.29C113.284 198.882 113.262 198.01 113.182 197.344L112.969 197.055C112.498 197.346 112.152 198.406 111.896 198.996L111.266 198.452V198.451C111.479 197.869 111.763 197.262 112.015 196.693C111.465 197.067 110.835 197.451 110.378 197.937L110.193 198.152C109.688 198.279 109.917 198.308 109.479 198.131C109.452 197.584 109.487 197.713 109.763 197.152V197.149C110.247 196.65 110.596 196.491 111.141 196.067L111.086 195.828L110.389 195.548L110.39 195.547C109.898 195.613 109.102 195.58 108.789 195.168L108.99 194.863C109.512 194.525 110.105 194.597 110.729 194.604L110.729 194.605C111.235 194.783 111.76 195.094 112.143 194.93L112.04 194.436L111.28 193.18H111.281L111.208 192.906C111.15 192.707 111.145 192.685 111.272 192.426Z" fill="#2C4B98"/>
<path d="M112.21 210.429C112.703 210.557 112.913 210.834 113.288 211.19C113.842 211.856 113.899 212.205 114.115 213.042C114.979 212.8 116.195 211.522 117.41 212.074L117.518 212.302C117.038 212.968 115.931 212.949 115.568 213.514C115.868 213.716 115.844 213.713 116.199 213.769C116.832 214.083 117.018 214.147 117.507 214.695L117.571 214.978C116.867 215.416 115.873 214.919 115.151 214.663L115.078 214.977C115.422 215.437 116.014 216.187 116.277 216.653V216.654L116.278 216.653C116.442 217.144 116.561 217.42 116.564 217.821C116.566 217.955 116.553 218.104 116.526 218.278L116.301 218.421C115.85 218.138 115.834 218.078 115.521 217.628L114.453 216.559C114.384 217.71 114.164 221.126 113.368 221.861L113.127 221.744C113.125 220.586 113.723 216.542 112.989 215.808L112.729 216.174H112.73C112.526 216.595 112.175 217.402 111.824 218.083C111.573 218.572 111.323 218.997 111.123 219.167C111.048 218.905 111.023 218.821 110.99 218.553L110.831 218.276C110.868 217.879 110.803 217.792 110.653 217.429H110.654C110.804 217.792 110.869 217.879 110.832 218.276L110.991 218.553C111.221 217.768 111.432 216.958 111.786 216.224L111.662 215.811C110.855 216.437 110.009 217.156 109.428 218.01L109.427 218.011C109.147 218.295 109.078 218.398 108.706 218.562L108.574 218.336C108.833 217.091 110.214 215.386 111.183 214.538C111.46 214.398 111.475 214.362 111.705 214.145C111.5 213.811 111.095 213.805 110.616 213.665C110.691 213.613 110.765 213.567 110.837 213.527L111.049 213.423C110.91 213.482 110.766 213.56 110.616 213.664C109.843 213.577 109.268 213.79 108.562 213.492L108.511 213.286C109.801 212.758 109.992 212.765 111.369 212.613C111.372 212.613 111.376 212.613 111.379 212.613L109.771 211.574L109.653 211.878C109.681 211.809 109.72 211.715 109.771 211.573C109.412 211.228 109.329 211.181 109.113 210.744L109.262 210.507C110.31 210.451 112.084 212.018 112.854 212.692C112.526 212.134 111.681 210.985 112.21 210.429Z" fill="#4771CF"/>
</svg>
