<svg width="320" height="320" viewBox="0 0 320 320" fill="none" xmlns="http://www.w3.org/2000/svg">
<path d="M181.595 130.296C183.342 122.965 189.202 119.122 196.719 120.614C198.823 121.336 205.943 124.58 207.376 125.85C209.114 127.406 209.177 128.22 210.502 130.066C210.671 130.302 211.726 131.291 211.995 131.545C215.565 130.397 218.277 130.707 220.508 134.036C221.561 134.311 222.45 134.537 223.476 134.948C224.935 135.536 225.025 137.906 225.93 138.544C228.97 138.847 228.674 141.824 229.674 143.272C231.564 144.859 231.852 145.767 231.498 148.191C231.329 148.768 231.271 148.982 230.984 149.505C231.314 149.759 233.163 151.145 233.3 151.35C234.289 151.919 239.63 155.776 240.371 156.5C241.912 157.582 244.295 158.932 244.624 160.805C247.012 162.535 249.367 164.311 251.685 166.134C252.428 166.837 252.905 167.296 252.905 168.435C252.908 170.77 250.665 173.49 248.232 173.588C247.836 173.603 247.133 173.23 246.765 173.044C244.65 171.787 242.528 170.546 240.397 169.316C239.033 169.963 238.702 169.698 237.464 168.986C235.542 167.958 231.103 165.351 229.376 164.178L228.631 163.802C227.984 164.144 227.958 164.695 227.569 165.315L227.465 165.949C228.741 168.444 228.878 170.247 227.005 172.524L226.896 177.495C226.91 183.591 225.895 198.759 222.334 203.751C221.011 206.372 215.366 213.984 212 212.883C205.947 211.188 200.303 206.231 196.25 201.64C195.974 201.048 195.011 199.889 194.499 199.451C194.105 198.776 193.165 197.611 192.66 196.947C192.545 196.649 192.9 192.645 192.892 191.864C192.883 191.016 192.794 190.169 192.627 189.338C192.708 188.812 192.695 188.738 192.96 188.292L193.485 188.169C193.983 187.936 194.479 187.693 194.795 187.238C195.971 185.545 195.557 180.498 195.256 178.538C195.01 176.897 194.581 175.288 193.979 173.74C192.911 171.001 188.627 163.154 186.322 161.477C185.631 161.259 184.668 161.775 184.005 162.069C183.538 161.628 182.241 157.374 181.767 156.253C181.007 154.415 180.202 152.61 179.207 150.889C178.911 150.376 178.978 150.32 179.116 149.903C178.483 149.91 178.243 149.363 177.308 149.036C175.954 148.564 175.241 148.53 173.854 148.426C170.823 148.33 168.417 147.472 165.532 146.595C164.579 146.306 162.019 145.587 161.551 144.808C160.908 143.737 161.396 138.47 162.332 137.808C169.302 139.001 174.907 138.497 181.768 136.922L181.902 136.861C182.097 136.432 181.193 131.982 181.595 130.296ZM207.755 162.365C207.128 167.131 206.92 170.047 209.26 174.556C209.865 174.082 210.407 170.807 210.561 169.87C209.574 167.832 209.498 166.869 210.614 164.849C209.63 164.053 208.751 163.167 207.755 162.365Z" fill="#3E2128"/>
<path d="M89.5264 70.5305C92.5528 75.6573 96.5948 79.4648 102.565 81.1428C108.931 82.9316 117.722 79.5092 123.427 76.6721C125.144 75.818 127.402 74.138 129.108 73.8616C129.192 73.836 129.276 73.81 129.359 73.7844L129.512 73.9065C129.265 74.195 129.075 74.3792 128.925 74.7297C128.391 77.1968 127.804 79.3867 127.07 81.7854C126.746 82.8442 125.49 86.1093 125.355 86.9622C124.54 89.3121 124.836 97.5186 125.116 100.193C124.842 100.501 125.004 100.395 124.61 100.528C124.06 100.233 123.744 99.4728 123.416 98.8899L123.19 98.8655C122.818 98.64 122.356 97.5255 122.178 97.0969C120.818 93.8271 118.866 91.0504 116.321 88.5686C115.725 87.9868 114.593 87.2804 114.332 86.5042C109.451 82.2987 101.762 85.9014 100.076 91.3938C99.0069 93.8459 98.3373 96.959 98.7129 99.6292C99.0915 104.234 101.341 108.49 104.947 111.427C107.735 113.733 113.074 116.504 116.71 115.745C116.223 114.707 115.236 114.137 115.322 112.642C115.406 111.202 116.663 111.053 117.825 111.107L117.022 111.426L117.672 111.626C117.022 111.824 116.791 111.856 116.296 112.346C116.087 112.908 116.194 113.478 116.425 114.06C116.194 113.478 116.088 112.908 116.297 112.346C116.792 111.856 117.023 111.824 117.673 111.626L117.023 111.426L117.826 111.107C119.547 112.088 119.846 112.976 120.498 114.823L122.906 113.542L123.202 113.273C123.495 113.439 123.431 113.332 123.559 113.57C123.965 114.196 125.676 116.914 126.108 117.249C127.446 119.275 130.626 122.591 132.574 124.023C135.561 126.596 138.749 128.504 142.122 130.515C142.894 130.887 144.297 131.656 145.032 132.148C145.865 132.387 148.992 133.538 149.604 134.025C153.879 135.608 157.152 136.616 161.614 137.729C161.727 137.739 162.262 137.785 162.333 137.807C161.396 138.469 160.909 143.737 161.552 144.808C162.02 145.587 164.58 146.306 165.533 146.595C168.417 147.472 170.824 148.33 173.854 148.426C175.241 148.53 175.955 148.565 177.309 149.036C178.244 149.363 178.484 149.91 179.117 149.904C178.979 150.32 178.912 150.375 179.208 150.888C180.203 152.61 181.007 154.414 181.767 156.252C182.241 157.372 183.538 161.627 184.005 162.07C184.668 161.775 185.632 161.259 186.323 161.476C188.628 163.154 192.912 171.001 193.979 173.74C194.582 175.288 195.01 176.897 195.256 178.538C195.557 180.498 195.972 185.546 194.796 187.239C194.48 187.693 193.983 187.936 193.486 188.168L192.961 188.291C192.696 188.737 192.708 188.812 192.627 189.338C192.477 189.902 192.602 189.716 192.564 190.053C192.356 191.925 192.165 194.653 191.337 196.33C190.413 201.215 188.492 206.474 184.163 209.42C183.929 209.579 183.686 209.728 183.438 209.863C182.932 209.986 182.77 210.159 182.561 210.661C182.141 210.408 181.32 209.721 180.906 209.391L180.816 209.129L181.071 208.981C180.643 208.793 180.591 208.746 180.301 208.382C179.053 209.319 161.162 210.237 159.482 209.368C158.88 210.028 158.654 209.892 158.023 210.247L157.739 210.236C148.924 209.832 140.398 210.815 131.367 209.334C128.997 211.27 130.278 211.832 126.807 212.959L127.047 213.252C126.397 214.486 123.44 215.131 122.121 217.732C124.264 216.453 126.433 214.431 128.309 212.75L128.325 215.828C128.308 216.329 128.229 217.787 128.277 218.21C128.224 218.633 128.174 219.434 127.972 219.762C127.384 219.518 127.038 219.31 126.4 219.409C124.676 220.248 124.328 223.551 123.467 225.266C121.013 226.029 116.977 229.757 115.232 231.709C113.351 230.293 111.643 228.928 110.313 226.953C107.83 232.329 101.407 235.113 95.7744 233.152L95.7734 233.153C94.9835 232.865 94.4276 232.568 93.8506 232.209C93.5041 231.994 93.1502 231.756 92.7334 231.485C93.0654 231.526 93.3839 231.561 93.6904 231.585C95.8348 231.757 97.4003 231.443 99.0117 229.608L99.1182 229.3C101.199 222.895 93.354 219.389 89.9609 214.692C87.796 211.694 87.1242 210.541 86.1309 206.88C86.0458 207.229 85.9674 207.582 85.8965 207.936C84.9513 212.676 85.5551 215.388 88.2119 219.321C88.682 219.734 88.9495 219.822 89.0752 220.343C88.8044 220.459 88.4224 220.462 88.0283 220.424C87.6202 220.385 87.1984 220.303 86.873 220.252V220.251C86.738 220.217 86.6034 220.182 86.4697 220.145C82.2842 219.014 78.7443 216.248 76.6689 212.481C74.0487 207.806 73.9256 202.593 75.374 197.57C70.0066 202.156 61.8225 203.47 56.7148 197.797L56.7139 197.796V197.797C56.2703 197.214 55.9354 196.628 55.5605 196L55.5625 196.001V196C56.7634 196.633 57.6717 196.961 58.6104 197.066C58.829 197.09 59.0493 197.103 59.2754 197.104C59.2786 197.104 59.282 197.104 59.2852 197.104C59.8859 197.105 60.5278 197.028 61.2871 196.888L61.7578 196.797H61.7588C66.2663 194.904 68.6122 192.125 69.8652 187.419V187.418L69.8643 187.419C70.1103 186.157 70.1991 185.347 70.2666 184.292C70.2883 183.952 70.3082 183.586 70.3301 183.172C70.315 183.123 70.1288 181.094 70.083 180.725C69.824 178.639 69.4197 177.279 68.7471 175.299C53.0887 168.647 51.5807 157.054 58.7939 143.03C57.9669 132.169 62.9961 121.642 69.6074 113.302C75.7447 105.56 80.7263 99.9273 84.6768 90.7317L85.4453 88.5403L85.8154 87.3567L86.3857 84.9006C86.9931 81.773 87.3033 74.6264 87.9443 72.4036C89.0477 71.5515 87.6981 70.8663 89.5264 70.5305ZM58.8076 152.215C55.2493 161.531 58.7557 167.709 67.1924 172.259L67.5479 172.324C67.6445 171.874 65.9127 166.322 65.5371 165.813C63.1908 162.639 61.7793 160.66 60.293 156.926C59.6867 155.403 59.2487 153.337 58.8076 152.215ZM73.3379 133.65C68.2537 138.312 63.1244 142.689 60.0176 148.959C60.4996 153.063 61.594 156.27 63.667 159.899C64.3256 160.96 64.9846 162.063 65.709 163.08C65.1157 156.034 66.4027 149.512 69.0938 143.004C69.483 142.063 73.3379 133.771 73.3379 133.65ZM85.9248 92.0803C85.4797 93.1118 84.9746 94.3078 84.3867 95.3088L84.1299 95.7249C83.8793 95.7879 83.6207 95.9459 83.3613 96.1682C82.4105 96.9829 81.4433 98.6631 80.7773 99.7083C80.7168 99.8033 80.6588 99.8934 80.6035 99.9768C80.5484 100.06 80.4958 100.137 80.4463 100.206C80.3156 100.389 80.2202 100.541 80.1543 100.672C80.1104 100.76 80.0793 100.839 80.0586 100.912C80.0171 101.06 80.0174 101.187 80.042 101.321C80.0481 101.354 80.0556 101.388 80.0645 101.423C80.1176 101.632 80.2154 101.875 80.2959 102.246C70.5894 116.787 61.7216 121.67 60.0107 141.031C62.9205 136.617 68.1543 131.318 72.0498 127.454C81.5501 118.032 83.9127 104.816 85.9248 92.0803ZM117.637 116.707L117.639 116.708C117.61 116.611 117.577 116.515 117.541 116.419L117.637 116.707Z" fill="#3E2128"/>
<path d="M192.625 189.339C192.792 190.17 192.882 191.016 192.891 191.864C192.899 192.644 192.544 196.648 192.659 196.947C193.164 197.61 194.103 198.775 194.497 199.451C195.009 199.889 195.973 201.048 196.249 201.639C196.398 208.807 195.332 213.789 190.114 219.187C188.498 220.846 186.678 222.297 184.697 223.51C183.911 223.571 181.677 222.997 180.772 222.794C180.626 221.788 180.416 219.688 179.82 218.965C179.353 218.963 179.556 219.03 179.182 218.784C179.176 218.177 179.313 217.717 179.445 217.135C180.032 214.553 180.671 212.032 180.904 209.39C181.318 209.72 182.139 210.408 182.559 210.661C182.768 210.158 182.93 209.986 183.436 209.863C183.685 209.728 183.927 209.579 184.161 209.42C188.49 206.473 190.411 201.215 191.335 196.33C192.163 194.652 192.354 191.925 192.562 190.052C192.6 189.716 192.476 189.902 192.625 189.339Z" fill="#3E2128"/>
<path d="M155.961 33.4786C162.57 30.0298 177.073 26.3998 196.898 32.3898C212.76 37.1819 221.009 56.6536 223.15 65.7902C223.6 69.6346 224.285 75.608 224.835 80.6456C223.808 84.7211 221.344 88.649 217.968 91.0695C217.316 91.8926 216.787 93.5478 216.613 94.5773L216.739 94.9103L217.189 95.0675L217.934 95.2941C218.437 95.2947 218.838 95.2894 219.236 95.2706C219.635 95.2517 220.033 95.2188 220.532 95.1613C219.66 95.9695 218.809 96.545 217.921 97.049C216.97 97.5887 215.976 98.047 214.866 98.6183C214.812 98.6463 214.76 98.7129 214.712 98.7892C214.641 98.9009 214.579 99.0354 214.548 99.1154C214.179 100.012 214.027 100.367 213.507 101.177L212.944 102.491C212.836 103.763 211.544 106.53 211.373 107.933C210.796 112.657 211.735 116.544 209.925 121.186C209.195 123.056 208.022 124.439 207.376 125.849V125.85C206.123 124.739 200.514 122.116 197.722 120.994C197.522 120.914 197.337 120.842 197.169 120.778L196.719 120.614C189.203 119.122 183.343 122.965 181.596 130.296C181.194 131.982 182.097 136.432 181.902 136.861L181.769 136.922C174.908 138.497 169.303 139.001 162.333 137.808C162.213 137.892 162.1 138.052 161.996 138.27C141.197 134.86 127.808 121.494 123.182 115.26C122.753 116.833 118.364 119.814 107 113.654C97.4285 108.466 97.3584 94.9093 99.5645 90.4982C101.626 86.3763 102.337 86.3055 108.164 83.463C113.603 80.8101 122.359 93.6777 124.012 95.6144C124.441 94.4623 126.641 80.3352 128.56 75.8585C130.903 70.3903 124.385 66.8787 129.525 57.4396C134.666 48.0005 149.352 36.9275 155.961 33.4786Z" fill="#FCD1BB"/>
<path d="M145.03 132.147C145.862 132.387 148.99 133.539 149.602 134.025C153.877 135.609 157.15 136.615 161.612 137.729C161.724 137.739 162.26 137.785 162.331 137.808C161.395 138.471 160.907 143.737 161.55 144.808C162.018 145.587 164.578 146.306 165.531 146.595C168.416 147.472 170.822 148.33 173.853 148.426C175.24 148.53 175.953 148.564 177.307 149.036C178.242 149.363 178.482 149.91 179.115 149.903C178.977 150.321 178.91 150.376 179.206 150.889C180.201 152.611 181.006 154.415 181.766 156.253C182.24 157.374 183.537 161.628 184.004 162.069C184.667 161.775 185.63 161.259 186.321 161.477C188.626 163.154 192.91 171.001 193.978 173.74C194.58 175.288 195.009 176.897 195.255 178.538C195.556 180.498 195.97 185.545 194.794 187.238C194.478 187.693 193.982 187.936 193.484 188.169L192.959 188.292C192.694 188.738 192.707 188.812 192.626 189.338C192.476 189.902 192.6 189.716 192.562 190.053C192.354 191.925 192.163 194.653 191.335 196.33C190.411 201.215 188.49 206.474 184.161 209.42C183.927 209.579 183.684 209.727 183.436 209.862C182.93 209.985 182.769 210.158 182.559 210.661C182.139 210.408 181.319 209.721 180.905 209.391L180.814 209.129L181.069 208.98C180.64 208.792 180.589 208.746 180.299 208.382C179.051 209.319 161.16 210.237 159.481 209.368C158.879 210.028 158.653 209.892 158.022 210.247L157.737 210.235C148.922 209.832 140.396 210.815 131.365 209.334C128.995 211.27 130.276 211.832 126.805 212.959L127.045 213.252C126.396 214.486 123.439 215.131 122.12 217.731C121.001 218.475 120 219.089 118.843 219.771L117.048 220.68C116.363 220.975 115.676 221.28 114.978 221.542C112.918 222.311 110.934 222.424 108.905 221.511C106.097 220.245 104.206 217.419 103.156 214.647C101.812 211.101 101.45 207.185 101.42 203.425C101.356 195.378 105.093 161.236 108.312 154.266C109.72 151.219 111.985 148.662 115.221 147.482C117.847 146.525 124.597 146.458 127.144 147.629L127.621 147.554L127.665 147.421C127.414 147.161 127.192 146.924 126.953 146.654C127.986 145.256 131.612 146.814 132.841 147.435C135.481 146.492 137.046 145.728 139.504 144.372L139.894 144.009C140.713 143.494 141.078 143.212 141.817 142.583C144.7 140.439 146.001 135.639 145.027 132.265L145.03 132.147Z" fill="#F6DDCF"/>
<path d="M145.031 132.148C145.863 132.387 148.99 133.538 149.601 134.025C153.877 135.608 157.15 136.615 161.612 137.729C161.724 137.739 162.262 137.785 162.331 137.807C161.395 138.469 160.907 143.737 161.55 144.808C162.018 145.588 164.578 146.306 165.531 146.595C168.416 147.472 170.822 148.33 173.852 148.426C175.24 148.53 175.953 148.565 177.307 149.037C178.242 149.363 178.482 149.91 179.116 149.903C178.978 150.321 178.91 150.375 179.206 150.888C180.202 152.61 181.005 154.414 181.765 156.252C182.24 157.372 183.537 161.629 184.004 162.07C183.723 162.559 181.538 163.925 181.007 164.077C179.101 165.601 177.739 166.644 176.212 168.525C175.898 166.657 175.075 166.854 175.659 164.912C175.81 164.342 175.56 163.605 175.168 163.181C173.281 161.151 169.649 163.149 167.634 162.909L167.949 162.709C169.615 161.851 171.625 160.637 170.568 158.251C170.307 157.665 169.292 157.225 168.672 157.145C163.99 156.793 155.426 161.068 151.464 163.226C152.258 161.437 153.2 159.117 152.431 157.14C152.148 156.413 151.49 155.15 150.714 154.944C148.357 154.32 146.664 157.932 145.539 159.313C144.051 161.139 142.573 162.796 140.981 164.443C140.391 163.421 139.746 160.596 139.259 159.347C137.847 155.729 136.5 152.022 134.025 148.953C133.74 148.599 132.937 147.769 132.841 147.434C135.481 146.492 137.046 145.728 139.504 144.372L139.894 144.009C140.713 143.495 141.078 143.212 141.818 142.583C144.7 140.439 146 135.639 145.027 132.265L145.031 132.148Z" fill="#FCD1BB"/>
<path d="M145.032 132.148C145.864 132.387 148.991 133.538 149.602 134.025C153.878 135.608 157.151 136.615 161.614 137.729C161.725 137.739 162.263 137.785 162.333 137.807C161.396 138.469 160.908 143.737 161.551 144.808C162.019 145.588 164.579 146.306 165.532 146.595C168.417 147.472 170.823 148.33 173.853 148.426L173.267 148.631L173.367 148.751C173.816 149.296 174.149 149.825 174.483 150.444C170.281 152.597 163.091 153.176 158.381 152.308C153.421 152.217 143.062 147.598 138.563 145.422C138.891 145.153 139.216 144.883 139.538 144.609L139.505 144.372L139.895 144.009C140.714 143.495 141.079 143.212 141.819 142.583C144.702 140.439 146.001 135.639 145.028 132.265L145.032 132.148Z" fill="#FCA889"/>
<path d="M149.601 134.025C153.877 135.608 157.15 136.615 161.612 137.729C161.076 139.37 161.297 140.86 160.362 141.576C159.641 141.696 158.914 141.258 158.21 140.94C156.377 139.941 149.646 136.48 149.312 134.364L149.601 134.025Z" fill="#FC8678"/>
<path d="M173.853 148.426C175.241 148.53 175.954 148.565 177.308 149.036C178.243 149.363 178.482 149.91 179.116 149.903C178.979 150.321 178.911 150.375 179.207 150.888C180.202 152.61 181.006 154.414 181.766 156.252C182.24 157.372 183.538 161.629 184.004 162.07C183.724 162.559 181.539 163.925 181.007 164.077C179.956 160.597 176.982 153.134 174.483 150.444C174.149 149.825 173.815 149.296 173.366 148.751L173.267 148.631L173.853 148.426Z" fill="#F693AD"/>
<path d="M167.352 182.798L167.367 183.377C167.582 184.278 167.684 184.677 168.043 185.525C167.797 186.772 167.525 187.664 167.155 188.871C167.215 189.277 167.269 189.685 167.315 190.092L167.54 190.138C167.806 189.877 167.885 189.819 168.092 189.502L168.236 189.542C167.814 191.399 165.566 196.906 164.73 198.823C163.283 202.229 161.425 206.171 159.481 209.369C158.878 210.029 158.653 209.892 158.022 210.247L157.737 210.235C148.921 209.832 140.396 210.815 131.365 209.334C135.425 205.183 140.516 196.369 143.617 191.344C144.65 189.67 145.52 187.471 146.685 185.858C146.954 185.487 147.831 185.489 148.32 185.452C147.725 185.917 147.783 185.73 147.584 186.334C147.985 186.806 148.141 186.744 148.792 186.785L151.288 186.236C154.353 185.549 156.742 184.162 159.6 183.155C160.687 182.772 164.028 182.888 165.381 182.878C165.988 182.798 166.73 182.81 167.352 182.798Z" fill="#F9B3C6"/>
<path d="M167.352 182.798L167.367 183.377C166.079 183.572 165.102 184.027 163.903 184.338C158.727 186.081 153.227 189.044 148.367 191.556C142.609 194.533 147.157 196.98 147.713 200.477C149.777 203.78 154.026 208.163 157.774 209.416C156.452 209.543 156.156 209.929 154.919 209.782L153.884 209.911C154.986 209.897 156.883 209.7 157.737 210.235C148.921 209.832 140.396 210.815 131.365 209.334C135.425 205.183 140.516 196.369 143.617 191.344C144.65 189.67 145.52 187.471 146.685 185.858C146.954 185.487 147.831 185.489 148.32 185.452C147.725 185.917 147.783 185.73 147.584 186.334C147.985 186.806 148.141 186.744 148.792 186.785L151.288 186.236C154.353 185.549 156.742 184.162 159.6 183.155C160.687 182.772 164.028 182.888 165.381 182.878C165.988 182.798 166.73 182.81 167.352 182.798Z" fill="#F17A94"/>
<path d="M147.714 200.477C149.777 203.78 154.026 208.163 157.774 209.416C156.453 209.543 156.156 209.929 154.92 209.782C155.343 209.688 155.765 209.589 156.186 209.486L155.826 209.206L156.162 209.483C154.17 208.122 147.188 203.004 147.714 200.477Z" fill="#EF6E8B"/>
<path d="M177.688 186.587C181.648 188.95 184.187 191.985 187.777 194.74C188.607 195.378 190.973 195.62 191.335 196.33C190.411 201.215 188.49 206.474 184.161 209.42C183.927 209.579 183.684 209.728 183.435 209.863C181.969 209.114 180.352 204.401 179.648 202.715C179.454 202.04 179.028 201.132 178.739 200.465C177.521 197.065 175.613 192.38 174.154 189.075C175.369 188.181 176.424 187.416 177.688 186.587Z" fill="#F9B3C6"/>
<path d="M173.808 179.174C173.81 180.275 173.702 181.023 173.557 182.102L175.41 182.899L175.384 183.097C174.658 183.314 174.727 183.207 173.898 183.031L173.862 183.102L173.896 183.163C173.698 183.285 173.488 183.372 173.379 183.55C174.088 183.754 176.758 185.067 177.409 185.588C177.625 185.761 177.424 186.235 177.688 186.587C181.648 188.95 184.187 191.985 187.776 194.74C188.607 195.377 190.972 195.621 191.335 196.33C190.411 201.216 188.49 206.474 184.161 209.42C183.927 209.579 183.684 209.728 183.436 209.863C182.93 209.986 182.769 210.159 182.559 210.661C182.139 210.408 181.318 209.721 180.904 209.391L180.814 209.129C179.85 209.083 178.292 209.31 177.286 209.414C171.77 209.982 166.21 209.941 160.67 210.006C159.65 210.018 159.018 210.01 158.022 210.247C158.653 209.892 158.878 210.028 159.48 209.368C161.425 206.171 163.282 202.23 164.729 198.823C165.566 196.907 167.813 191.398 168.235 189.541L168.092 189.502C167.885 189.818 167.806 189.877 167.54 190.138L167.314 190.092C167.268 189.685 167.215 189.277 167.155 188.871C167.524 187.664 167.796 186.771 168.043 185.525C167.684 184.677 167.582 184.278 167.367 183.377L167.352 182.798C167.585 182.807 168.268 182.589 168.536 182.516C169.999 182.529 171.27 182.072 172.546 181.412C173.428 180.944 173.472 180.236 173.808 179.174ZM179.115 208.729C176.668 209.181 171.086 209.573 166.477 209.685C167.629 209.657 168.842 209.612 170.052 209.552C172.471 209.433 174.877 209.258 176.756 209.054C177.696 208.952 178.503 208.842 179.115 208.729Z" fill="#F693AD"/>
<path d="M173.809 179.174C173.811 180.275 173.702 181.023 173.557 182.102L175.411 182.899L175.385 183.097C174.659 183.314 174.727 183.207 173.899 183.031L173.863 183.102L173.896 183.163C173.698 183.285 173.488 183.372 173.38 183.55C174.089 183.754 176.757 185.067 177.409 185.588C177.625 185.761 177.425 186.235 177.688 186.587C176.425 187.416 175.369 188.18 174.154 189.074C175.613 192.38 177.521 197.066 178.739 200.465C179.028 201.132 179.454 202.04 179.648 202.715C180.352 204.401 181.969 209.113 183.436 209.863C182.93 209.986 182.768 210.159 182.559 210.661C182.139 210.408 181.319 209.721 180.905 209.391L180.815 209.129L181.069 208.981C180.64 208.793 180.589 208.746 180.299 208.382C177.771 203.027 176.084 196.971 173.632 191.554C172.956 190.061 172.202 187.922 171.202 186.665C170.695 186.347 169.917 186.459 169.268 186.471C168.93 187.645 168.676 188.401 168.236 189.541C167.814 191.398 165.567 196.905 164.73 198.823L164.731 198.823C163.284 202.23 161.427 206.171 159.482 209.368C158.88 210.028 158.654 209.892 158.023 210.247L157.738 210.236C156.884 209.701 154.988 209.897 153.886 209.91L154.921 209.782C156.158 209.93 156.454 209.543 157.775 209.416C159.923 206.355 161.048 202.585 162.804 199.781L163.137 199.696C163.474 199.263 165.002 195.822 165.324 195.07V195.069C165.003 195.818 163.472 199.263 163.135 199.696L162.803 199.781C164.081 196.256 165.789 192.69 167.156 188.871L167.416 188.015C167.66 187.196 167.859 186.46 168.044 185.525C167.685 184.677 167.582 184.278 167.367 183.377L167.353 182.798C167.586 182.807 168.268 182.59 168.536 182.516C169.999 182.53 171.271 182.072 172.547 181.412C173.429 180.944 173.473 180.236 173.809 179.174Z" fill="#EF6E8B"/>
<path d="M173.381 183.55C174.09 183.754 176.759 185.067 177.41 185.588C177.626 185.761 177.426 186.235 177.689 186.587C176.425 187.416 175.37 188.181 174.156 189.075C173.764 188.492 172.656 186.283 172.265 185.551C172.866 184.703 173.002 184.506 173.381 183.55Z" fill="#F693AD"/>
<path d="M172.547 181.413C172.681 182.815 172.138 184.959 170.411 185.021C169.976 185.034 169.558 184.855 169.27 184.533C168.849 184.07 168.645 183.117 168.537 182.516C170 182.529 171.271 182.073 172.547 181.413Z" fill="#F693AD"/>
<path d="M173.808 179.174C173.783 177.719 173.094 177.528 171.979 176.75C172.228 175.705 173.193 174.604 173.789 173.677C176.68 169.185 180.163 165.654 184.649 162.685C185.083 162.398 185.496 162.232 186.023 162.201C189.436 163.619 198.211 182.738 193.675 186.717C192.299 187.924 180.51 184.815 178.609 184.022C178.036 183.783 176.174 183.172 175.411 182.899L173.557 182.102C173.702 181.023 173.81 180.275 173.808 179.174Z" fill="#F9B3C6"/>
<path d="M173.38 183.55C173.488 183.372 173.699 183.285 173.897 183.164L173.863 183.102L173.899 183.03C174.727 183.206 174.658 183.314 175.385 183.097L175.68 183.321L175.393 183.531C176.687 184.36 178.125 183.848 178.981 184.477L178.848 184.8C181.081 185.503 182.945 186.137 185.328 186.125L185.189 186.351L185.282 186.518C186.73 186.814 188.168 187.119 189.633 187.331C190.246 187.42 193.705 187.312 193.911 187.512L193.175 187.794L193.112 187.945L193.485 188.169L192.96 188.292C192.695 188.738 192.707 188.811 192.626 189.338C192.476 189.902 192.6 189.716 192.563 190.053C192.354 191.925 192.164 194.653 191.336 196.33C190.973 195.62 188.608 195.378 187.777 194.74C184.188 191.985 181.649 188.95 177.688 186.587C177.425 186.235 177.625 185.761 177.409 185.588C176.758 185.067 174.089 183.753 173.38 183.55Z" fill="#EF6E8B"/>
<path d="M148.477 185.463C149.757 185.663 150.486 186.192 151.287 186.237L148.792 186.786L147.238 187.066C146.186 188.906 145.284 190.754 144.186 192.556C141.769 196.522 138.956 200.037 136.228 203.77C135.399 204.902 132.683 207.902 132.571 208.918L132.727 209.129C138.695 209.641 144.406 210.153 150.423 210.018C151.097 210.004 153.341 210.041 153.884 209.911C154.986 209.897 156.882 209.701 157.736 210.236C148.921 209.832 140.396 210.815 131.365 209.334C135.425 205.183 140.516 196.37 143.616 191.344C144.649 189.67 145.52 187.471 146.685 185.859C146.953 185.488 147.83 185.489 148.319 185.452L148.477 185.463Z" fill="#E9687D"/>
<path d="M166.689 174.592C170.464 173.465 171.491 172.1 174.311 170.796C172.558 173.188 171.84 174.292 170.551 176.938L168.527 176.898C167.74 176.601 166.783 175.71 166.454 174.942L166.689 174.592Z" fill="#F693AD"/>
<path d="M127.622 147.554L127.666 147.421C127.415 147.161 127.193 146.925 126.954 146.654C127.987 145.256 131.613 146.814 132.842 147.434C132.938 147.769 133.741 148.599 134.026 148.953C136.501 152.022 137.848 155.729 139.26 159.347C139.747 160.596 140.392 163.421 140.982 164.443C140.46 165.255 139.602 166.505 138.954 167.244C138.711 167.55 138.344 167.981 138.131 168.287L137.715 168.412C136.651 168.012 136.302 163.617 135.494 161.856L135.463 162.225C134.628 160.565 133.654 157.393 132.736 155.36C131.959 153.658 130.467 150.292 129.15 149.001L129.095 148.92C128.611 148.199 128.337 148.053 127.622 147.554Z" fill="#F693AD"/>
<path d="M173.917 166.463C171.7 167.728 163.24 171.218 160.912 170.98L160.83 170.804C161.77 169.795 171.052 167.506 174.012 165.734L174.176 165.635L173.787 166.208L173.917 166.463Z" fill="#FCD1BB"/>
<path d="M135.492 161.855C136.301 163.617 136.651 168.012 137.714 168.412L138.13 168.287L138.314 168.038C138.519 167.773 138.772 167.474 138.954 167.244C139.583 168.4 138.435 169.575 137.979 170.917C137.379 172.172 136.429 175.582 135.588 176.571C133.367 179.182 130.72 181.531 128.371 184.06C127.666 184.819 124.925 186.711 123.904 186.418C123.459 185.541 124.517 183.444 124.401 182.208C124.565 181.389 125.005 179.598 125.446 178.916L125.664 179.106C128.244 177.496 132.934 172.65 134.707 170.207C135.564 169.219 136.008 168.537 136.717 167.458L135.462 162.226L135.492 161.855ZM127.57 178.261C127.378 178.402 127.191 178.53 127.013 178.641C127.191 178.53 127.378 178.402 127.57 178.261ZM129.42 176.679H129.421H129.42ZM133.931 171.821C133.644 172.157 133.099 172.795 132.414 173.561C133.099 172.795 133.645 172.157 133.932 171.821H133.931ZM135.771 169.454C135.979 169.196 136.175 168.961 136.345 168.775C136.175 168.961 135.979 169.196 135.771 169.454Z" fill="#F17A94"/>
<path d="M127.144 147.629L127.622 147.554C128.337 148.053 128.611 148.199 129.095 148.92L129.15 149.001C128.418 149.03 127.713 148.388 127.073 147.928L127.144 147.629Z" fill="#FCD1BB"/>
<path d="M117.672 111.626C120.828 113.91 121.269 120.117 119.457 123.249C119.212 123.695 119.152 123.838 118.814 124.211L118.806 123.292L118.512 123.208C118.514 123.212 118.517 123.215 118.52 123.219L118.736 123.567L118.213 123.372C117.989 123.647 117.462 124.362 117.228 124.678L116.663 123.981L117.129 123.878C117.572 123.377 118.151 122.825 118.14 122.162L117.56 122.234C118.187 120.127 118.022 118.803 117.638 116.709C117.175 115.159 115.781 113.73 116.296 112.346C116.791 111.856 117.022 111.823 117.672 111.626Z" fill="#F8D26F"/>
<path d="M117.56 122.234L117.661 122.092C118.778 120.507 118.602 118.385 118.336 116.563C118.254 116.008 118.119 115.912 118.379 115.777C119.589 118.375 119.878 120.468 119.457 123.249C119.212 123.695 119.152 123.838 118.814 124.211L118.805 123.292L118.511 123.208C118.514 123.212 118.517 123.215 118.52 123.219L118.736 123.567L118.212 123.372C117.989 123.647 117.461 124.362 117.228 124.678L116.663 123.981L117.128 123.878C117.572 123.377 118.15 122.825 118.14 122.162L117.56 122.234Z" fill="#FABC4A"/>
<path d="M118.814 124.211C118.408 124.777 117.111 125.621 116.401 125.58C113.405 125.41 112.042 121.311 112.935 118.867C113.265 117.965 113.482 116.632 114.629 116.626C114.836 117.181 112.88 123.089 115.32 123.404C116.311 123.531 116.951 122.911 117.56 122.234L118.14 122.162C118.151 122.825 117.572 123.377 117.129 123.878L116.663 123.981L117.228 124.679C117.462 124.362 117.989 123.647 118.213 123.372L118.737 123.567L118.52 123.219C118.517 123.216 118.514 123.212 118.512 123.208L118.806 123.292L118.814 124.211Z" fill="#F7AD44"/>
<path d="M89.8349 59.9239C89.9915 56.821 90.1408 54.0116 90.8925 50.9516C93.6121 39.8826 100.844 29.4863 109.025 21.704C122.53 8.85584 139.944 3.87802 158.379 4.39528C169.916 4.71898 184.495 7.1777 192.819 15.9135C202.996 15.5335 210.549 21.6028 216.948 28.6543C218.269 28.6616 218.314 30.2869 219.037 30.7669L219.326 30.6399L219.448 30.8558L218.954 31.4981C219.3 32.0432 221.333 35.5238 221.496 35.6338C226.39 38.9351 227.184 44.8297 227.87 50.0724C228.975 58.5027 229.015 65.9925 225.434 73.844C225.124 74.5218 225.472 77.0514 225.299 77.9407C224.853 82.9148 222.087 88.1147 217.966 91.0693L217.666 90.9053C216.569 91.6731 216.987 93.1579 216.272 93.8328C216.177 93.7644 215.879 93.5622 215.814 93.4933L216.057 92.6271C219.153 79.0787 219.765 67.5193 214.089 54.4591C210.941 47.2181 205.985 40.3296 198.393 37.2986C196.552 36.8259 193.727 35.7134 192.092 36.2257C190.758 35.7729 188.745 34.4076 187.116 33.8908C182.181 32.3243 175.234 31.9146 170.184 32.8635C168.225 33.2316 165.527 34.4857 163.778 35.3448C162.976 36.5448 161.12 38.2669 160.194 39.4777C157.785 42.6276 155.087 45.3736 152.449 48.2855C150.088 50.8907 146.763 53.7749 144.548 56.2678C141.703 59.4707 139.109 64.216 136.195 67.621C135.707 68.1913 131.695 72.3622 131.734 72.2986L129.51 73.9064L129.357 73.7843C129.273 73.81 129.19 73.8355 129.106 73.8611C127.399 74.1374 125.142 75.8178 123.425 76.6719C117.72 79.5091 108.929 82.9317 102.563 81.1427C96.5926 79.4648 92.5506 75.6576 89.5241 70.5307C87.6953 70.8665 89.0463 71.5517 87.9419 72.4039C88.0448 71.1184 88.2664 70.4332 88.6119 69.2051C87.897 66.6612 87.5629 64.7351 88.4701 62.2012C88.7255 61.5107 89.4043 60.5724 89.8349 59.9239Z" fill="#4D2D34"/>
<path d="M163.778 35.3448C164.167 34.3588 164.557 34.9722 164.458 34.3293L163.97 34.1749C164.486 32.9483 165.67 31.7642 166.447 30.6618C170.077 25.5138 175.507 19.7812 182.514 21.999C187.532 23.5872 189.925 27.8015 191.234 32.4493C191.409 33.0706 191.916 35.4017 192.178 35.7174C193.059 35.379 197.944 36.6259 198.621 37.0905C198.536 37.1815 198.495 37.2488 198.393 37.2986C196.553 36.826 193.728 35.7135 192.093 36.2258C190.758 35.773 188.746 34.4076 187.117 33.8908C182.181 32.3244 175.234 31.9146 170.185 32.8635C168.226 33.2316 165.527 34.4857 163.778 35.3448Z" fill="#3E2128"/>
<path d="M194.575 90.372C200.619 85.6908 205.372 89.6595 207.111 96.0468C207.142 96.3712 207.176 97.0672 207.283 97.3339C207.246 99.6863 206.953 102.888 205.702 104.905H205.703C205.256 105.836 204.882 106.446 204.444 107.008C204.335 107.148 204.222 107.285 204.103 107.424C203.745 107.84 203.332 108.267 202.808 108.82C202.346 109.064 201.711 109.465 201.29 109.657V109.656L201.289 109.657C200.669 110.115 199.314 110.422 198.551 110.448C188.843 110.784 188.486 100.017 192.061 93.6328C192.731 92.4346 193.674 91.379 194.575 90.372Z" fill="#4B1917"/>
<path d="M199.506 96.093C198.167 95.7551 197.238 94.5529 197.259 93.1868C197.281 91.8209 198.248 90.648 199.597 90.3517C200.945 90.0552 202.324 90.7127 202.928 91.9411C204.049 92.7446 203.752 93.2418 203.767 94.5635C202.835 95.9189 201.356 97.1595 199.601 96.3274L199.506 96.093Z" fill="#FDFDFD"/>
<path d="M207.113 96.0472C207.467 96.3262 207.77 96.9586 207.743 97.4085L207.502 97.1907H207.501L207.743 97.4085C208.387 98.7892 209.153 100.72 210.294 101.775C210.412 101.884 210.666 101.77 210.874 101.879C210.662 102.652 210.435 103.422 210.194 104.187C209.17 105.507 208.31 106.487 206.977 107.554C206.469 107.72 203.047 108.819 202.809 108.82C204.207 107.345 204.809 106.767 205.704 104.906C206.799 103.141 207.16 100.468 207.258 98.2513L207.285 97.3333C207.178 97.0664 207.144 96.3715 207.113 96.0472Z" fill="#FDFDFD"/>
<ellipse cx="150.473" cy="91.164" rx="11.4779" ry="12.195" fill="#4B1917"/>
<path d="M140.314 88.0293C140.23 88.4545 140.039 89.2939 140.016 89.6924C139.564 93.1692 140.214 96.3454 142.251 99.2617C142.095 99.2445 141.963 99.2373 141.845 99.2373C141.963 99.2373 142.094 99.2445 142.25 99.2617C143.177 100.234 143.991 101.199 145.204 101.818C145.612 102.064 145.853 102.235 146.302 102.388C148.282 103.257 150.371 103.579 152.513 103.088L153.875 102.688L154.683 102.934C150.745 105.268 143.509 102.792 140.801 99.415V99.4141C138.742 97.1167 137.573 94.6333 136.58 91.748L136.748 90.9346C138.137 89.6497 137.971 89.3066 139.92 88.2324L140.314 88.0293ZM158.503 83.0762C159.774 83.1611 162.987 85.0628 164.241 85.7295C165.163 88.1866 164.083 94.117 162.982 96.4814C161.747 99.2001 159.455 101.311 156.626 102.34C156.07 102.543 155.101 102.728 154.684 102.934L153.876 102.688C154.235 102.523 154.584 102.329 154.933 102.143C154.944 102.008 154.956 101.847 154.972 101.659C156.411 100.429 157.917 98.9031 158.959 97.3252C159.517 96.2616 159.702 94.9546 160.146 93.8555C160.465 93.066 160.036 92.7677 160.09 92.0449C160.206 90.5627 160.483 87.8623 159.691 86.5322C158.871 85.1538 157.906 85.507 158.49 83.3506L158.503 83.0762Z" fill="#FDFDFD"/>
<path d="M148.047 79.0919C150.966 78.3383 154.373 78.507 157.324 79.2891L157.908 79.4532L158.256 79.5372C160.074 80.0198 162.985 81.3981 164.138 82.5381L164.072 82.9131L164.667 83.419C164.563 84.38 164.485 84.793 164.241 85.7296C162.987 85.0629 159.774 83.1612 158.503 83.0762C158.371 83.0331 156.351 81.2873 155.411 80.5694L155.083 80.3321C148.048 77.2128 142.627 81.4277 140.314 88.0294L139.92 88.2325C137.971 89.3066 138.138 89.6499 136.749 90.9346L136.551 89.8008C136.846 88.0288 137.001 86.8389 138.036 85.4835L138.255 85.21C140.288 82.3139 144.608 79.9798 148.047 79.0919ZM138.917 84.8282H138.916H138.917ZM141.732 82.5264H141.733H141.732Z" fill="#F9B3C6"/>
<path d="M158.491 83.3506C160.647 86.5142 161.413 90.4076 160.613 94.1397C159.922 97.4237 158.063 100.631 154.933 102.142C154.944 102.008 154.957 101.847 154.973 101.659C156.412 100.429 157.917 98.9029 158.959 97.325C159.517 96.2614 159.703 94.955 160.147 93.8559C160.466 93.066 160.037 92.7677 160.09 92.0445C160.206 90.5622 160.484 87.8618 159.692 86.5318C158.871 85.1534 157.906 85.5071 158.491 83.3506Z" fill="#4B1917"/>
<path d="M153.879 82.2021C155.482 81.7262 157.172 82.6205 157.661 84.203C158.149 85.7856 157.252 87.461 155.654 87.9512C154.046 88.4447 152.338 87.5509 151.846 85.9581C151.354 84.3655 152.266 82.681 153.879 82.2021Z" fill="#FDFDFD"/>
<path d="M168.351 127.012C163.799 125.142 162.752 121.435 163.073 116.896C163.541 110.26 167.668 109.244 173.552 109.912C176.918 110.294 181.616 111.206 183.806 113.922C184.857 116.281 183.834 119.406 182.51 121.469C180.792 124.347 178.874 126.219 175.644 127.401C174.025 128.1 169.827 128.075 168.351 127.012Z" fill="#FC8678"/>
<path d="M163.073 116.896C163.541 110.26 167.668 109.244 173.552 109.911C176.917 110.293 181.616 111.205 183.806 113.921C184.857 116.281 183.833 119.406 182.51 121.469C180.792 124.347 178.874 126.219 175.645 127.402C175.473 127.276 175.55 127.342 175.459 127.096C177.522 126.263 177.993 125.701 179.329 123.935C176.914 116.05 171.524 117.094 169.406 112.573C169.305 112.062 169.223 112.01 168.886 111.583C166.845 110.9 165.078 113.945 164.606 115.542C163.608 118.928 164.595 122.324 166.299 125.308C166.368 125.43 166.44 125.551 166.514 125.67C167.053 125.975 168.045 126.479 168.438 126.893L168.351 127.012C163.8 125.142 162.753 121.435 163.073 116.896Z" fill="#E54E3F"/>
<path d="M169.275 111.144C170.118 111.074 170.964 111.049 171.81 111.068C174.209 111.118 179.543 111.771 181.274 113.597C181.769 114.119 181.672 114.446 181.621 115.036C179.255 115.696 169.825 113.718 169.275 111.144Z" fill="#F6DDCF"/>
<path d="M147.419 58.738C152.59 56.0964 164.41 54.4138 168.867 59.7743C168.931 59.8516 168.956 60.0889 168.966 60.1864C168.871 60.3697 168.762 60.6696 168.524 60.6804C166.732 60.7611 164.423 60.1062 162.544 60.0511C157.477 59.9025 152.582 60.0934 147.629 61.0873C146.576 61.2836 145.431 61.554 144.375 61.7799C145.407 60.4059 145.913 59.6416 147.419 58.738Z" fill="#4B1917"/>
<path d="M202.21 65.8368C207.376 64.1086 214.143 68.0421 215.778 72.8632C215.953 73.4089 216.23 73.9927 216.077 74.5028C215.554 74.5216 215.679 74.4802 215.141 74.1083C211.758 71.4001 208.069 69.8967 203.951 68.7264C202.905 68.4291 200.676 68.06 200.651 66.871C201.05 66.2968 201.565 66.0527 202.21 65.8368Z" fill="#4B1917"/>
<path d="M234.243 269.396C235.364 266.585 235.654 264.477 236.434 261.612C236.588 261.048 236.74 260.79 237.207 260.576C238.582 260.622 242.259 262.811 243.744 263.574L244.076 263.457C244.109 263.509 244.144 263.56 244.177 263.611C253.316 269.726 264.512 276.489 262.857 289.204C261.932 296.307 256.503 302.981 249.356 304.918C246.568 305.673 243.3 305.387 240.434 305.642C237.735 305.785 234.939 305.987 232.255 306.018C226.688 305.703 219.982 306.122 214.199 305.936C218.209 301.222 219.347 295.151 218.159 289.214C217.377 285.198 212.163 279.84 209.173 277.205C209.478 276.928 210.08 276.843 210.624 276.573C211.466 276.197 214.164 274.692 214.743 274.051C218.088 272.004 221.846 269.511 225.076 267.619C228.099 268.368 231.158 268.962 234.243 269.396Z" fill="#FBA388"/>
<path d="M218.688 286.058C223.055 287.817 226.569 289.194 230.629 291.575C231.179 291.668 231.915 292.335 232.402 292.711C230.906 292.255 227.858 291.487 226.637 290.907C228.009 290.954 229.509 291.622 230.323 291.62C229.508 291.621 228.01 290.954 226.639 290.907C224.462 290.244 220.439 289.249 218.618 288.498C218.686 287.804 217.999 286.825 218.317 286.129L218.688 286.058ZM210.624 276.573C212.7 278.342 214.397 280.056 216.098 282.194C216.735 282.996 218.191 285.739 218.688 286.058L218.316 286.129C217.998 286.825 218.685 287.804 218.617 288.498C218.43 288.736 218.239 288.929 218.158 289.214C217.376 285.198 212.163 279.84 209.173 277.205C209.478 276.928 210.081 276.843 210.624 276.573Z" fill="#E76F5E"/>
<path d="M175.998 289.893C176.194 289.577 178.155 288.185 178.651 287.809C184.958 283.016 191.947 278.828 199.62 276.598C202.392 275.793 205.247 276.691 207.325 275.639C207.785 276.031 208.726 276.884 209.173 277.205C212.163 279.84 217.377 285.198 218.159 289.214C219.347 295.151 218.209 301.222 214.199 305.936C219.981 306.122 226.688 305.703 232.254 306.018C229.283 306.312 224.898 306.143 221.811 306.189C220.021 306.215 215.793 306.266 214.209 306.076C208.838 311.707 202.256 313.306 194.664 313.523C185.667 313.699 176.678 312.909 167.853 311.17C168.383 311.15 168.733 311.199 169.151 310.898C169.448 309.563 169.249 305.44 169.285 303.896C169.392 299.298 169.195 294.431 169.384 289.859L169.746 289.659C168.196 288.929 164.001 288.443 162.311 287.61C163.309 287.041 164.16 286.552 165.118 285.907C167.49 286.738 169.85 287.6 172.198 288.495C172.926 288.772 175.362 289.762 175.998 289.893Z" fill="#FCD1BB"/>
<path d="M180.3 208.382C180.59 208.746 180.642 208.793 181.07 208.981L180.815 209.13L180.905 209.391C180.672 212.033 180.033 214.554 179.446 217.135C179.314 217.717 179.177 218.177 179.183 218.784C179.556 219.03 179.354 218.964 179.821 218.965C180.416 219.69 180.627 221.789 180.773 222.794C181.678 222.997 183.91 223.572 184.697 223.51C187.969 224.434 197.763 226.848 200.199 228.481C205.421 230.155 210.824 233.72 215.596 236.273C217.51 237.297 221.321 238.594 223.628 239.668C231.091 243.14 237.769 247.01 244.856 251.115H244.858C245.866 251.804 246.012 253.813 245.782 256.047C245.766 256.207 245.748 256.368 245.728 256.529C245.627 257.337 245.484 258.163 245.319 258.959C245.188 259.595 245.043 260.211 244.896 260.782C244.637 261.783 244.369 262.644 244.159 263.228C244.13 263.31 244.104 263.387 244.077 263.458L244.177 263.612C244.144 263.561 244.109 263.51 244.076 263.459L243.744 263.575C242.259 262.812 238.583 260.624 237.208 260.577C237.161 260.598 237.118 260.621 237.077 260.643C236.711 260.846 236.574 261.105 236.436 261.613C235.656 264.477 235.364 266.584 234.243 269.395V269.397C231.158 268.963 228.099 268.369 225.076 267.62C221.846 269.511 218.087 272.005 214.742 274.051C214.498 274.321 213.88 274.741 213.184 275.168C212.223 275.756 211.112 276.356 210.624 276.574C210.455 276.658 210.279 276.722 210.108 276.782C209.975 276.829 209.845 276.872 209.724 276.917C209.502 276.997 209.308 277.083 209.173 277.206C208.726 276.884 207.786 276.032 207.326 275.64H207.327C207.149 275.374 206.139 274.559 204.854 273.582C204.175 273.065 203.419 272.503 202.669 271.951C200.819 270.59 199.006 269.293 198.465 268.915C193.241 270.235 188.948 272.082 184.254 274.725C182.6 275.66 180.997 276.684 179.455 277.791C178.598 278.406 175.429 280.999 174.43 280.73C173.353 280.99 172.236 282.311 171.345 282.156C171.174 282.127 171.011 282.044 170.858 281.888C169.13 282.713 166.657 285.239 165.12 285.908C165.177 285.928 165.233 285.949 165.29 285.968C165.233 285.948 165.176 285.928 165.119 285.908C164.161 286.552 163.31 287.042 162.312 287.611C164.002 288.443 168.198 288.93 169.748 289.66L169.386 289.86C169.196 294.432 169.393 299.299 169.286 303.897C169.25 305.442 169.449 309.564 169.152 310.899C168.735 311.2 168.384 311.15 167.854 311.171H167.854C167.288 310.979 165.169 310.62 164.488 310.492L157.572 309.174C148.163 307.37 138.741 305.327 129.22 304.165C128.026 304.019 123.525 303.429 122.465 303.552C117.835 304.091 112.812 305.222 108.247 306.215C106.768 306.537 105.071 307.19 103.663 307.464L103.56 307.482C103.569 307.402 103.578 307.323 103.588 307.243C103.439 307.167 103.32 307.109 103.215 307.064C103.11 307.019 103.018 306.986 102.925 306.96C102.831 306.933 102.735 306.913 102.621 306.894L102.208 306.833C101.83 306.436 101.537 306.015 101.322 305.58C101.251 305.435 101.188 305.287 101.134 305.139C101.025 304.843 100.95 304.541 100.907 304.237C100.891 304.124 100.881 304.01 100.874 303.897C100.788 302.558 101.296 301.186 102.227 300.001L102.39 299.799L102.718 299.737C103.152 299.347 104.28 298.478 105.414 297.589C106.252 296.933 107.093 296.264 107.659 295.765C108.025 295.443 108.276 295.193 108.339 295.061C108.341 295.056 108.345 295.051 108.347 295.047L108.53 294.995C106.629 293.997 104.795 292.94 102.971 291.876C101.146 290.811 99.3298 289.739 97.4648 288.714C96.9935 288.498 95.8296 287.737 95.334 287.429L95.333 287.43C95.3304 287.438 95.3269 287.447 95.3242 287.455C95.2801 287.587 95.2285 287.712 95.1709 287.831C94.9024 288.385 94.5072 288.808 94.1719 289.246C93.925 289.568 93.7108 289.897 93.6035 290.292C93.2926 289.888 91.5825 288.809 91.0312 288.465C88.7129 287.021 84.2188 283.556 83.0332 281.215C81.9723 279.885 81.5398 278.379 82.6826 276.896C84.5211 274.576 86.8058 272.524 88.9404 270.464C90.7072 268.757 92.6368 266.897 94.5312 265.336C95.1754 264.582 97.3371 262.972 97.7295 262.29C99.0974 259.908 100.085 256.952 101.324 254.454C105.124 246.79 109.586 238.223 115.231 231.71C116.976 229.757 121.012 226.029 123.466 225.266C124.327 223.551 124.675 220.248 126.399 219.41C127.037 219.311 127.383 219.518 127.971 219.762C128.173 219.434 128.223 218.633 128.276 218.211C128.228 217.788 128.307 216.33 128.324 215.829L128.308 212.752C126.432 214.432 124.263 216.453 122.12 217.732C123.439 215.132 126.396 214.487 127.046 213.253L126.806 212.96C130.277 211.833 128.996 211.27 131.366 209.335C140.397 210.815 148.923 209.832 157.738 210.236L158.022 210.248C158.653 209.892 158.879 210.029 159.481 209.369C161.162 210.237 179.053 209.319 180.3 208.382ZM170.437 287.831C171.025 288.05 171.613 288.271 172.199 288.495C172.563 288.633 173.355 288.95 174.134 289.249C173.355 288.95 172.564 288.634 172.199 288.496C171.56 288.252 170.92 288.011 170.279 287.772C170.331 287.792 170.384 287.811 170.437 287.831Z" fill="#F9B3C6"/>
<path d="M165.118 285.907C167.49 286.738 169.85 287.6 172.198 288.494C172.926 288.772 175.362 289.762 175.998 289.893C178.705 290.982 183.869 293.282 185.958 295.278C180.662 293.115 175.25 291.239 169.746 289.659C168.196 288.929 164.001 288.443 162.311 287.61C163.309 287.041 164.16 286.552 165.118 285.907Z" fill="#E76F5E"/>
<path d="M180.299 208.382C180.371 208.473 180.429 208.544 180.481 208.603C180.638 208.778 180.748 208.84 181.069 208.981L180.814 209.129L180.905 209.391C180.672 212.033 180.032 214.553 179.445 217.135C179.313 217.716 179.176 218.176 179.182 218.783C179.369 218.906 179.412 218.952 179.466 218.966C179.52 218.98 179.586 218.964 179.82 218.965L179.599 219.076C179.048 219.376 178.273 219.929 177.759 220.25C175.411 221.719 173.589 221.779 170.86 222.154L170.997 222.18C167.634 222.517 162.79 222.753 157.45 222.786C156.479 222.792 155.492 222.792 154.494 222.783C145.014 222.706 134.588 221.961 128.288 220.011C128.267 220.004 127.984 219.774 127.97 219.762C128.173 219.434 128.222 218.633 128.275 218.21C128.227 217.787 128.306 216.329 128.323 215.828L128.307 212.751C127.838 213.171 127.35 213.613 126.85 214.059C125.348 215.396 123.727 216.772 122.12 217.732C123.439 215.131 126.395 214.486 127.045 213.252L126.805 212.959C130.06 211.903 129.137 211.343 130.962 209.682C131.084 209.571 131.217 209.455 131.365 209.334L132.21 209.466C135.866 210.007 139.443 210.161 142.994 210.186C144.633 210.197 146.266 210.181 147.899 210.163C148.988 210.151 150.077 210.139 151.167 210.133C152.257 210.127 153.349 210.127 154.443 210.142C155.538 210.156 156.635 210.185 157.737 210.236L158.022 210.247C158.101 210.203 158.174 210.166 158.241 210.135C158.648 209.945 158.881 209.942 159.271 209.581C159.337 209.521 159.406 209.451 159.481 209.368C159.508 209.382 159.538 209.395 159.571 209.407C160.081 209.598 161.454 209.692 163.266 209.712C163.749 209.717 164.264 209.718 164.802 209.713C170.581 209.662 179.044 209.055 180.228 208.426C180.255 208.411 180.279 208.397 180.299 208.382Z" fill="#FCD1BB"/>
<path d="M174.43 280.73C175.428 281 178.597 278.406 179.454 277.79C180.997 276.684 182.599 275.66 184.253 274.724C188.948 272.081 193.24 270.234 198.465 268.914C199.638 269.735 206.823 274.883 207.326 275.639C205.248 276.691 202.393 275.793 199.621 276.598C191.949 278.828 184.959 283.016 178.652 287.809C178.156 288.185 176.195 289.577 175.999 289.893C175.363 289.761 172.927 288.771 172.199 288.494C169.851 287.6 167.491 286.738 165.119 285.907C166.656 285.239 169.13 282.711 170.859 281.887C171.808 282.857 173.146 281.039 174.43 280.73Z" fill="#FCA889"/>
<path d="M180.772 222.794C181.677 222.997 183.909 223.571 184.696 223.51C187.865 224.404 197.155 226.698 199.948 228.325L200.198 228.48L200.688 228.643C205.758 230.377 210.971 233.8 215.594 236.273C217.508 237.297 221.319 238.593 223.626 239.667C231.09 243.14 237.769 247.009 244.857 251.115L244.202 251.351C244.064 251.187 241.231 249.468 240.869 249.268C234.434 245.719 228.133 242.223 221.399 239.289C220.929 239.398 220.859 239.414 220.382 239.412L220.756 239.289C220.242 238.295 214.518 236.546 213.205 236.215C211.839 235.649 208.032 234.646 206.468 234.2C200.5 232.531 194.512 230.934 188.505 229.409C186.511 228.887 182.816 228.031 181.031 227.301C181.072 225.604 180.951 224.49 180.772 222.794ZM211.221 234.127V234.126V234.127Z" fill="#EF6E8B"/>
<path d="M123.466 225.266C124.002 226.357 126.061 226.903 127.255 227.558L127.085 227.786L127.256 227.558L129.063 228.046C127.115 229.828 125.782 231.408 124.176 233.515C124.031 233.706 122.416 235.907 122.389 235.931C122.382 235.908 122.377 235.884 122.373 235.859C122.377 235.884 122.382 235.908 122.389 235.931C118.411 242.023 115.06 248.494 112.387 255.246C110.338 260.342 108.255 267.063 105.304 271.588C103.689 274.064 94.8932 285.432 95.3066 287.339C95.3132 287.369 95.3252 287.398 95.334 287.429C94.9392 288.65 93.8897 289.239 93.6035 290.292C93.293 289.888 91.5822 288.81 91.0312 288.466C88.7127 287.021 84.2185 283.556 83.0332 281.215C81.9724 279.885 81.5398 278.378 82.6826 276.896C84.521 274.575 86.8058 272.523 88.9404 270.463C90.7072 268.756 92.6368 266.896 94.5312 265.335C95.1754 264.581 97.3373 262.971 97.7295 262.289C99.0974 259.907 100.085 256.951 101.324 254.453C105.124 246.789 109.586 238.222 115.231 231.709C116.976 229.756 121.012 226.028 123.466 225.266ZM127.069 229.401C126.831 229.702 126.547 230.037 126.238 230.392C126.547 230.037 126.831 229.702 127.069 229.401ZM127.759 228.319H127.76H127.759Z" fill="#F17A94"/>
<path d="M243.98 160.197L244.224 160.136L244.623 160.804C247.012 162.535 249.367 164.311 251.684 166.134C252.428 166.837 252.905 167.295 252.905 168.434C252.909 170.77 250.666 173.49 248.233 173.588C247.837 173.603 247.133 173.23 246.764 173.044C244.649 171.787 242.527 170.546 240.397 169.316L240.428 169.217L240.451 169.192C240.539 168.617 238.975 168.246 238.771 166.384C238.605 164.877 239.034 163.831 239.954 162.603C240.705 161.695 241.924 160.57 243.148 160.44C243.603 160.392 243.594 160.413 243.98 160.197Z" fill="#262427"/>
<path d="M181.594 130.296C183.341 122.965 189.202 119.122 196.718 120.614C198.823 121.336 205.942 124.58 207.375 125.849C209.112 127.406 209.176 128.22 210.501 130.066C210.671 130.302 211.725 131.291 211.994 131.545C215.564 130.397 218.276 130.707 220.507 134.036C221.56 134.31 222.449 134.537 223.475 134.948C224.934 135.536 225.023 137.907 225.928 138.545C228.968 138.847 228.672 141.824 229.672 143.272C231.562 144.859 231.852 145.768 231.497 148.192C231.328 148.768 231.27 148.982 230.983 149.505C231.314 149.76 233.164 151.147 233.299 151.35C233.49 151.46 233.84 151.694 234.29 152.002C234.398 152.076 234.513 152.152 234.631 152.234C234.801 152.352 234.979 152.479 235.166 152.61C235.334 152.728 235.507 152.85 235.685 152.975C235.891 153.122 236.103 153.275 236.317 153.429C236.436 153.514 236.555 153.599 236.675 153.685C236.967 153.897 237.26 154.111 237.547 154.321C237.628 154.381 237.709 154.439 237.789 154.498C238.022 154.669 238.248 154.838 238.465 155C238.592 155.095 238.716 155.187 238.835 155.277C239.04 155.432 239.231 155.579 239.406 155.715C239.537 155.816 239.66 155.91 239.771 155.998C240.051 156.22 240.261 156.394 240.37 156.501C240.777 156.787 241.242 157.091 241.713 157.419C241.887 157.54 242.062 157.666 242.235 157.794C242.412 157.924 242.587 158.058 242.757 158.196C242.808 158.238 242.86 158.28 242.91 158.322C242.951 158.357 242.991 158.393 243.031 158.428C243.09 158.479 243.147 158.53 243.204 158.582C243.234 158.61 243.264 158.637 243.294 158.665C243.354 158.721 243.412 158.778 243.469 158.836C243.502 158.87 243.536 158.903 243.568 158.937C243.633 159.005 243.695 159.074 243.755 159.143C243.772 159.163 243.79 159.182 243.807 159.202C243.881 159.29 243.952 159.38 244.019 159.472C244.067 159.538 244.114 159.606 244.158 159.675C244.172 159.696 244.185 159.717 244.198 159.738C244.374 160.022 244.509 160.319 244.586 160.631C244.6 160.688 244.612 160.746 244.622 160.805L246.407 162.111C246.912 162.484 247.414 162.86 247.915 163.237C248.138 163.405 248.361 163.574 248.584 163.743C248.913 163.992 249.241 164.243 249.568 164.494C249.77 164.649 249.972 164.803 250.174 164.959C250.553 165.252 250.931 165.547 251.309 165.843C251.433 165.94 251.559 166.037 251.684 166.135C252.427 166.837 252.904 167.296 252.904 168.434C252.907 170.697 250.803 173.321 248.459 173.571L248.231 173.588C248.182 173.59 248.127 173.585 248.069 173.576C247.664 173.512 247.085 173.207 246.763 173.044C244.648 171.787 242.526 170.546 240.396 169.316C240.225 169.397 240.071 169.463 239.929 169.516C239.645 169.623 239.41 169.676 239.194 169.683L239.036 169.68C238.776 169.66 238.535 169.572 238.252 169.429C238.139 169.371 238.019 169.305 237.889 169.231C237.758 169.157 237.618 169.075 237.463 168.986C237.223 168.858 236.943 168.704 236.635 168.532C235.709 168.016 234.52 167.332 233.346 166.637C231.78 165.71 230.238 164.765 229.374 164.179V164.178L228.63 163.802C228.402 163.521 219.254 158.106 218.443 157.735C217.988 157.286 216.244 156.357 215.603 155.998C214.498 156.504 214.163 155.54 213.241 155.666L213.094 155.989C212.835 155.64 212.235 154.387 212.005 153.933C209.503 152.282 209.298 149.004 206.552 147.173C204.002 145.473 201.179 145.155 199.178 147.869C198.64 148.164 197.73 147.937 197.055 147.847C192.597 147.357 187.698 143.462 184.356 140.581C183.474 139.82 182.559 137.604 181.767 136.922L181.9 136.862C182.096 136.435 181.192 131.983 181.594 130.296Z" fill="#EF6E8B"/>
<path d="M211.225 170.539C211.523 170.734 211.79 170.961 212.048 171.202L212.808 171.948L214.899 173.248C219.353 174.92 222.985 175.79 227.004 172.524L226.895 177.495C226.895 177.496 226.894 177.498 226.894 177.499C226.894 177.497 226.895 177.496 226.896 177.495C226.909 183.591 225.895 198.76 222.334 203.752V203.75L222.333 203.752C221.01 206.373 215.365 213.984 211.999 212.883C213.107 212.696 213.543 212.617 214.589 212.243C208.212 210.153 203.43 204.179 203.186 197.44C203.161 196.749 203.146 196.082 203.085 195.391C203.81 191.163 205.627 187.546 207.178 183.563L206.95 183.512L206.308 182.741C206.534 182.221 206.957 181.375 207.181 180.855C207.59 179.903 208.799 175.199 209.229 174.669C209.773 174.863 209.616 174.72 209.875 175.166C210.107 174.208 210.371 173.258 210.665 172.317L210.749 171.822C210.832 171.299 210.932 170.739 211.225 170.539ZM212.396 172.115L212.568 172.155L212.396 172.115H212.396Z" fill="#FCD1BB"/>
<path d="M251.685 166.134C252.428 166.837 252.906 167.295 252.906 168.434C252.909 170.77 250.666 173.49 248.233 173.588C247.837 173.603 247.133 173.23 246.765 173.044C247.596 172.509 247.885 170.055 248.617 169.041C249.513 167.798 250.759 167.205 251.685 166.134Z" fill="#0A0A0C"/>
<path d="M211.995 131.545C215.565 130.398 218.277 130.707 220.508 134.035C221.561 134.31 222.45 134.537 223.476 134.949C224.935 135.537 225.025 137.906 225.929 138.544C228.969 138.847 228.674 141.823 229.673 143.272C229.909 143.47 230.12 143.659 230.309 143.84C230.497 144.022 230.662 144.196 230.806 144.369C231.236 144.888 231.476 145.389 231.574 145.988C231.624 146.287 231.638 146.61 231.623 146.973C231.608 147.335 231.565 147.737 231.498 148.192C231.329 148.768 231.271 148.982 230.984 149.505C230.158 148.775 229.332 147.996 228.52 147.248C226.856 147.401 221.25 147.448 222.846 144.317L222.63 143.946C220.389 145.332 218.398 145.975 216.537 143.563C216.437 142.947 216.678 142.636 216.459 141.939C215.674 142.524 214.904 142.694 213.958 142.347C213.324 142.119 212.819 141.634 212.573 141.013C212.292 140.295 212.447 139.684 212.728 139.009L212.661 138.125C208.476 141.213 206.214 135.272 212.451 131.91L211.995 131.545Z" fill="#FCD1BB"/>
<path d="M242.716 159.814C243.148 159.915 243.593 159.992 243.98 160.197C243.594 160.413 243.603 160.392 243.148 160.44C241.924 160.57 240.705 161.695 239.954 162.603C239.034 163.831 238.605 164.877 238.771 166.384C238.975 168.246 240.539 168.617 240.451 169.192L240.428 169.217C240.042 169.004 239.449 168.59 239.06 168.337C236.696 165.091 239.755 161.369 242.716 159.814Z" fill="#2C1C21"/>
<path d="M212.451 131.91C214.038 131.331 216.259 131.008 217.683 132.128C218.14 132.488 219.269 133.079 219.465 133.574C219.214 133.702 219.112 133.765 218.82 133.762C217.649 133.749 216.644 134.702 215.734 135.347C215.047 135.832 212.945 137.476 212.661 138.125C208.476 141.213 206.213 135.271 212.451 131.91Z" fill="#FCD1BB"/>
<path d="M224.243 143.276C224.058 143.867 223.406 144.057 222.846 144.317L222.629 143.946C223.191 143.542 223.586 143.202 224.243 143.276ZM223.32 138.01C221.413 139.332 216.841 141.28 216.538 143.563C216.438 142.947 216.679 142.636 216.46 141.938C217.872 140.115 221.116 138.629 223.32 138.01ZM211.995 131.544C215.565 130.397 218.278 130.707 220.509 134.036C221.562 134.31 222.45 134.537 223.476 134.949C224.935 135.537 225.025 137.907 225.93 138.544L226.008 138.67C224.384 138.339 225.058 135.635 221.626 134.746C218.065 133.823 214.775 136.602 212.729 139.009L212.662 138.125C212.946 137.476 215.048 135.832 215.734 135.346C216.644 134.702 217.65 133.748 218.82 133.761C219.113 133.764 219.215 133.701 219.466 133.574C219.27 133.079 218.141 132.488 217.684 132.128C216.26 131.008 214.038 131.331 212.451 131.911L211.995 131.544Z" fill="#FBA388"/>
<path d="M190.139 143.2C187.613 142.067 185.128 140.3 183.832 137.83C181.042 132.507 183.522 125.177 188.981 122.555C192.13 121.043 194.602 121.049 197.854 122.103L198.004 121.937L197.761 121.697C198.47 120.987 200.195 122.275 200.674 122.886C200.645 123.019 200.61 123.236 200.56 123.351C201.131 123.747 201.959 124.195 202.579 124.554C195.192 126.411 189.886 136.032 190.139 143.2Z" fill="#F693AD"/>
<path d="M197.608 136.03C199.409 132.892 204.316 127.013 208.473 129.224C209.21 129.616 210.919 131.168 211.527 131.83C206.377 135.863 202.94 138.963 201.187 145.475C201.17 145.534 200.166 145.991 200.037 146.082C199.955 146.142 199.874 146.196 199.795 146.244C199.4 146.485 199.048 146.588 198.709 146.596C198.641 146.597 198.573 146.595 198.506 146.589C198.141 146.558 197.785 146.423 197.397 146.243C197.142 146.125 196.872 145.988 196.579 145.846C193.69 144.221 196.319 138.277 197.608 136.03Z" fill="#F693AD"/>
<path d="M203.048 125.138C206.078 124.859 206.547 125.668 208.362 127.812C203.831 127.716 200.712 130.243 198.114 133.777C195.601 137.197 193.885 141.071 194.56 145.394C194.803 145.817 194.844 145.912 195 146.376L194.797 146.482C194.143 146.403 193.509 146.203 192.929 145.892C188.94 143.765 192.145 136.094 193.875 133.131C195.983 129.52 198.843 126.288 203.048 125.138Z" fill="#F9B3C6"/>
<path d="M227.005 172.524L226.896 177.495C226.817 177.849 226.704 178.56 226.505 178.817C225.656 178.615 224.811 178.395 223.97 178.159C221.935 177.575 214.777 175.07 213.84 173.39C214.315 173.425 214.475 173.463 214.901 173.248C219.355 174.92 222.986 175.79 227.005 172.524Z" fill="#FCA889"/>
<path d="M179.115 149.903C188.325 152.441 189.233 157.189 193.29 164.821C194.789 167.641 197.413 171.281 199.328 173.949C201.723 176.892 203.763 179.839 206.309 182.741L206.951 183.512L207.178 183.564C206.984 184.062 206.786 184.554 206.587 185.042C205.988 186.507 205.376 187.937 204.822 189.385C204.73 189.627 204.64 189.868 204.551 190.111C204.373 190.596 204.203 191.084 204.044 191.577C203.964 191.823 203.887 192.07 203.812 192.319C203.664 192.817 203.528 193.321 203.406 193.833C203.284 194.344 203.177 194.863 203.086 195.391C203.147 196.082 203.161 196.749 203.186 197.44C203.43 204.179 208.213 210.153 214.59 212.243C213.544 212.617 213.107 212.696 211.999 212.882C205.946 211.188 200.302 206.23 196.249 201.639C195.973 201.048 195.01 199.889 194.498 199.451C194.104 198.775 193.164 197.611 192.659 196.948C192.543 196.652 192.899 192.644 192.891 191.864C192.882 191.016 192.793 190.169 192.626 189.339C192.707 188.812 192.694 188.738 192.959 188.292L193.484 188.169C193.982 187.936 194.479 187.693 194.795 187.238C195.971 185.545 195.556 180.497 195.255 178.538C195.009 176.896 194.58 175.287 193.978 173.74C192.91 171 188.626 163.154 186.321 161.476C185.63 161.259 184.667 161.776 184.004 162.07C183.537 161.629 182.24 157.373 181.766 156.253C181.006 154.414 180.201 152.61 179.206 150.888C178.91 150.375 178.977 150.32 179.115 149.903Z" fill="#FBA388"/>
<path d="M199.18 147.869C201.181 145.155 204.004 145.473 206.554 147.173C209.3 149.004 209.504 152.282 212.006 153.934C212.236 154.387 212.838 155.64 213.096 155.989C214.425 158.773 214.688 160.568 214.629 163.653C213.292 163.46 212.691 163.374 211.382 162.947C210.974 163.291 210.773 163.479 210.415 163.874L209.21 162.324C207.839 160.645 206.346 158.84 205.478 156.859C204.889 155.517 204.463 153.457 203.597 152.313C201.99 150.191 200.27 150.548 199.18 147.869Z" fill="#FCD1BB"/>
<path d="M212.006 153.934C213.264 154.606 214.382 155.262 215.604 155.998H215.604C216.245 156.357 217.989 157.285 218.444 157.735C218.748 157.874 220.225 158.723 221.964 159.744C223.123 160.425 224.399 161.182 225.521 161.857C226.644 162.532 227.613 163.125 228.16 163.476C228.365 163.608 228.511 163.705 228.583 163.76C228.607 163.779 228.624 163.794 228.631 163.802C227.984 164.144 227.957 164.694 227.568 165.315L227.465 165.95L227.153 165.741C225.766 167.146 226.897 169.425 226.014 170.606C222.925 174.738 213.2 171.743 211.626 167.421C211.16 166.142 211.459 165.36 210.519 164.021L210.414 163.874L209.21 162.325C210.294 162.171 210.377 162.323 211.382 162.947H211.381C212.69 163.374 213.292 163.46 214.629 163.653C214.688 160.568 214.424 158.773 213.095 155.989V155.988C212.836 155.637 212.236 154.387 212.006 153.934ZM213.242 155.666C213.53 155.626 213.762 155.693 213.977 155.789C213.762 155.693 213.53 155.626 213.242 155.666Z" fill="#FBA388"/>
<path d="M197.056 147.847C197.731 147.937 198.641 148.164 199.179 147.868C200.269 150.548 201.99 150.191 203.597 152.313C204.462 153.457 204.888 155.517 205.477 156.859C206.345 158.84 207.838 160.645 209.209 162.324L210.414 163.874L210.519 164.021C211.459 165.36 211.16 166.141 211.626 167.42C213.199 171.743 222.925 174.739 226.014 170.606C226.897 169.424 225.767 167.147 227.153 165.741L227.465 165.949C228.741 168.444 228.877 170.247 227.004 172.525C222.985 175.79 219.354 174.919 214.9 173.247L212.808 171.948L212.568 172.155C211.615 171.867 211.226 172.841 210.665 172.318C210.371 173.258 210.108 174.209 209.876 175.166C209.617 174.72 209.773 174.863 209.229 174.668L209.26 174.556L209.259 174.555C209.864 174.081 210.406 170.807 210.56 169.87C209.573 167.832 209.497 166.87 210.613 164.849C209.629 164.054 208.751 163.167 207.754 162.365H207.755C207.556 162.073 206.756 160.951 206.579 160.737C204.667 158.487 204.043 155.212 202.674 152.805C202.385 152.299 197.656 148.156 197.056 147.847Z" fill="#8E4E26"/>
<path d="M210.879 166.885C211.085 167.3 211.425 168.048 211.688 168.415C214.387 172.177 221.373 174.436 225.42 171.716L225.586 171.605L225.967 171.151C227.676 169.02 226.539 168.761 227.35 167.003L227.543 167.092C228.07 169.275 227.72 170.507 226.168 171.982L225.842 172.279C223.362 173.663 221.323 173.898 218.489 173.362C216.015 172.894 209.971 170.076 210.701 166.942L210.879 166.885Z" fill="#FCEBC2"/>
<path d="M95.333 287.429C95.8283 287.737 96.9934 288.498 97.4648 288.714C101.195 290.765 104.728 292.998 108.53 294.994L108.347 295.046C108.127 295.614 103.689 298.864 102.718 299.736L102.39 299.798C100.602 301.924 100.191 304.715 102.208 306.832C102.762 306.911 102.935 306.936 103.318 307.114C103.397 307.15 103.486 307.19 103.587 307.242H103.586L103.588 307.243C103.578 307.323 103.569 307.402 103.56 307.482C102.848 307.709 101.654 308.133 100.968 308.297C98.7853 309.059 94.1045 310.345 90.999 310.384C90.2824 310.394 89.6493 310.337 89.1504 310.192C78.8194 307.182 88.422 293.52 93.5361 290.394H93.5371L93.6035 290.292C93.8897 289.238 94.9381 288.65 95.333 287.429Z" fill="#F693AD"/>
<path d="M162.311 287.61C163.895 288.391 167.681 288.867 169.426 289.525C169.542 289.569 169.649 289.613 169.746 289.659L169.385 289.859C169.382 289.918 169.38 289.978 169.378 290.037C169.2 294.558 169.391 299.358 169.285 303.896C169.249 305.441 169.448 309.563 169.151 310.898C168.734 311.199 168.383 311.149 167.853 311.17C167.569 311.074 166.898 310.936 166.213 310.807C165.527 310.677 164.827 310.555 164.487 310.491L157.571 309.175C156.202 308.912 154.831 308.644 153.461 308.375C151.461 307.982 149.459 307.586 147.456 307.197C146.929 307.095 146.401 306.995 145.874 306.893C145.062 306.738 144.25 306.581 143.438 306.43C140.486 305.878 137.529 305.358 134.564 304.904C132.786 304.632 131.004 304.383 129.219 304.165C128.92 304.129 128.415 304.065 127.81 303.991C126.9 303.88 125.763 303.748 124.753 303.654C123.743 303.561 122.861 303.506 122.464 303.553C117.834 304.091 112.811 305.221 108.246 306.215C107.744 306.324 107.217 306.474 106.684 306.632C105.648 306.939 104.592 307.282 103.662 307.463L103.559 307.481C103.568 307.401 103.577 307.322 103.587 307.242C103.289 307.091 103.111 307.013 102.924 306.96C102.737 306.907 102.541 306.88 102.207 306.832C101.829 306.435 101.536 306.014 101.321 305.579C101.178 305.289 101.07 304.992 100.995 304.691C100.957 304.541 100.928 304.389 100.906 304.237C100.895 304.161 100.888 304.084 100.881 304.008C100.867 303.855 100.861 303.702 100.863 303.549C100.864 303.472 100.866 303.395 100.871 303.318C100.904 302.781 101.027 302.244 101.23 301.721C101.318 301.496 101.419 301.274 101.535 301.056C101.604 300.926 101.679 300.798 101.757 300.672C101.942 300.371 102.153 300.079 102.389 299.799C103.23 298.335 106.683 295.296 108.347 295.045H108.346L108.529 294.994C111.389 296.494 114.19 297.573 117.179 298.684C118.851 299.307 120.488 299.856 122.109 300.308C122.341 300.373 122.572 300.435 122.803 300.496C125.121 301.105 127.412 301.508 129.729 301.637C130.176 301.661 130.624 301.676 131.073 301.68C131.078 301.68 131.082 301.68 131.087 301.68C132.247 301.689 133.416 301.626 134.601 301.483C135.074 301.426 135.55 301.357 136.029 301.273C137.228 301.065 138.444 300.772 139.687 300.388C140.276 300.205 141.204 299.882 142.2 299.495C142.532 299.366 142.872 299.231 143.209 299.091C143.715 298.88 144.215 298.661 144.676 298.441C145.443 298.075 146.1 297.71 146.491 297.39L146.541 297.578C146.9 297.615 147.215 297.374 147.49 296.976C147.525 296.927 147.559 296.875 147.592 296.82C147.658 296.712 147.722 296.594 147.783 296.47C147.814 296.407 147.844 296.343 147.873 296.277C148.168 295.622 148.402 294.816 148.582 294.094C148.618 293.949 148.652 293.808 148.684 293.672C148.81 293.129 148.903 292.669 148.966 292.414C151.854 291.749 154.207 290.963 156.561 290.037C156.822 289.934 157.084 289.83 157.347 289.724C158.921 289.085 160.522 288.382 162.311 287.61ZM103.976 298.715C103.698 298.933 103.443 299.133 103.229 299.307H103.229C103.531 299.063 103.91 298.765 104.325 298.441C104.355 298.418 104.384 298.394 104.414 298.371C104.263 298.489 104.116 298.604 103.976 298.715Z" fill="#FBA388"/>
<path d="M192.627 189.338C192.794 190.169 192.883 191.016 192.892 191.864C192.9 192.644 192.545 196.652 192.661 196.947C192.345 198.093 192.038 199.24 191.738 200.39C190.864 202.778 185.969 213.139 182.56 210.661C182.77 210.158 182.931 209.986 183.437 209.863C183.686 209.728 183.928 209.579 184.162 209.42C188.491 206.474 190.412 201.215 191.336 196.33C192.165 194.653 192.355 191.925 192.563 190.053C192.601 189.716 192.477 189.902 192.627 189.338Z" fill="#F17A94"/>
</svg>
