<svg width="320" height="320" viewBox="0 0 320 320" fill="none" xmlns="http://www.w3.org/2000/svg">
<path d="M102.337 265.681C103.121 264.841 104.18 264.514 104.611 264.456C106.009 266.614 108.95 271.182 109.532 272.187C110.26 273.445 112.179 273.842 113.039 272.187C113.899 270.533 119.921 269.011 120.384 269.011C120.847 269.011 127.53 270.467 130.64 272.187C133.127 273.564 134.985 277.26 135.602 278.936C142.06 289.153 141.998 295.368 141.16 297.198C139.89 302.28 131.544 303.462 127.53 303.418C112.576 303.815 102.337 290.714 102.337 290.119C102.337 289.523 97.3669 285.735 94.8821 283.355C92.8942 281.451 93.6806 279.155 94.3222 278.245L102.337 265.681Z" fill="#F3F3F3"/>
<path d="M227.078 288.414C227.974 283.281 226.297 274.326 225.347 270.49C223.615 272.221 217.2 275.582 216.487 275.175C215.916 274.849 215.298 272.459 215.061 271.304C210.906 267.882 199.207 270.897 193.877 272.832C193.714 276.743 190.822 283.967 189.396 287.09C186.714 290.825 185.811 298.314 203.654 298.395C221.498 298.477 226.705 291.775 227.078 288.414Z" fill="#F3F3F3"/>
<path d="M174.012 127.704C175.601 128.668 176.612 129.166 178.199 129.9C180.951 131.175 194 135.656 194.815 137.908C194.676 138.935 194.543 139.227 194.184 140.223C197.053 144.652 199.63 149.655 202.151 154.312C207.808 164.68 213.132 175.226 218.119 185.932C217.381 186.931 216.511 187.678 215.539 188.443C215.739 188.757 215.936 189.117 216.129 189.509C214.846 190.652 213.441 191.713 212.428 192.407L215.949 202.224C215.532 202.822 215.06 203.408 214.529 204.016C215.763 207.784 217.203 211.42 218.532 215.146C217.606 215.74 216.91 216.156 216.069 216.608L215.166 217.082C213.701 217.718 212.125 218.446 210.615 218.923C207.5 212.663 204.632 206.417 201.397 200.165C199.767 204.5 198.249 209.121 196.571 213.373C198.95 213.324 200.924 213.298 203.307 213.416C203.424 216.615 203.438 219.881 202.794 223.033C197.654 224.033 190.868 224.231 185.651 224.215C180.568 224.193 173.503 223.382 168.528 222.486C159.835 221.492 144.687 217.098 136.631 213.757C135.332 212.997 134.599 212.79 133.495 211.722L135.253 206.982L134.849 206.033C134.827 205.899 134.818 205.806 134.812 205.736C137.937 196.044 141.765 182.381 141.122 180.515C153.86 180.18 181.452 183.17 191.962 180.515C187.03 165.903 175.478 135.461 168.729 130.594V128.106C169.1 128.107 169.482 128.11 169.88 128.115C171.256 127.942 172.627 127.738 174.012 127.704Z" fill="#191919"/>
<path d="M201.397 200.165C204.632 206.417 207.5 212.662 210.615 218.922C212.125 218.446 213.701 217.718 215.166 217.082C215.804 221.188 216.103 226.785 216.77 230.618C217.458 234.573 219.554 249.49 221.378 252.38C222.867 254.599 224.499 267.541 225.497 271.148C223.737 273.325 218.532 277.325 215.737 276.872C215.103 276.207 215.091 273.616 214.453 273.227C209.725 270.331 198.332 271.64 193.71 273.4C193.588 270.441 193.433 267.484 193.243 264.529C193.121 262.729 192.763 259.005 192.944 257.367C192.97 256.623 191.332 247.872 191.112 246.699C189.701 239.363 188.372 232.01 187.124 224.645C186.667 224.238 186.38 224.328 185.651 224.214C190.868 224.23 197.654 224.033 202.794 223.033C203.438 219.881 203.424 216.615 203.307 213.416C200.924 213.298 198.95 213.323 196.572 213.373C198.249 209.12 199.767 204.5 201.397 200.165Z" fill="#FAB6A8"/>
<path d="M93.1097 77.5989C92.8292 74.7659 92.9853 70.7266 93.1374 67.8633C94.0338 50.9711 96.2778 32.908 109.673 20.9953C119.632 12.1384 130.387 8.09413 143.634 7.01214C147.15 6.72511 150.294 7.00427 153.769 6.9456C155.361 6.81035 156.987 6.2794 158.554 6.08135C167.463 4.95625 177.639 5.81952 185.116 11.2511C186.996 12.617 188.66 14.378 190.52 15.7249C192.115 16.8796 194.485 17.358 196.049 18.6571C198.541 20.6199 200.13 23.4243 202.198 25.6467C203.663 27.2207 205.441 28.6027 206.922 30.2379C209.88 33.5012 209.581 35.9738 210.942 39.6385C211.486 41.1013 213.629 42.9103 214.059 45.2908C215.041 47.3814 212.745 52.5314 213.144 54.1426C214.713 60.4918 216.509 66.4006 216.019 73.116C215.707 77.3928 214.285 79.4231 211.149 82.1796C210.306 85.7963 209.416 88.4229 206.971 91.3237C216.147 98.7315 209.599 110.426 200.427 113.595C199.425 113.942 198.354 114.127 197.313 114.301C196.744 115.2 196.324 115.958 195.571 116.716C192.845 120.901 184.555 124.559 179.957 125.986C178.211 126.528 175.602 127.098 174.012 127.704C172.627 127.738 171.256 127.942 169.879 128.115C164.164 128.034 161.522 128.605 155.355 127.461C153.999 127.318 146.932 125.836 146.414 126.004C139.267 123.655 135.636 122.22 129.081 118.491C127.603 122.705 124.665 126.248 120.801 128.476C116.994 130.663 111.157 131.692 106.925 130.476C104.325 129.748 102.14 127.977 100.885 125.581C99.3724 122.71 99.2917 120.037 100.27 117.03C95.6149 118.783 91.1627 118.94 86.4261 117.166C82.5973 115.787 80.8219 112.752 79.296 109.174C75.2592 99.7095 81.1167 95.1932 89.0992 92.2514C85.6558 86.5747 85.2421 79.2776 93.1097 77.5989Z" fill="#F3D0B9"/>
<path d="M152.193 75.2286C152.709 69.4082 150.927 62.8873 152.292 56.8298C153.101 53.2447 154.872 49.9501 158.034 47.9981C162.985 44.9433 167.031 47.0228 171.722 48.9533C172.888 49.4337 174.552 49.7997 175.807 50.081C181.532 44.7593 186.079 47.2522 190.414 52.4621C195.446 58.5087 188.937 68.6284 190.347 72.709L190.149 72.7242L190.231 73.2207C189.023 74.1928 187.344 78.1399 186.963 79.5412L186.391 79.6815C185.802 80.8299 185.419 82.0776 184.995 83.3019C181.96 83.7234 178.26 83.662 175.391 84.215C171.352 84.9928 170.219 86.3156 165.698 85.5785C163.038 85.1452 159.369 85.0222 156.647 84.9025C155.699 82.9523 154.887 81.3281 153.811 79.4337L153.565 79.729C152.854 78.5889 152.371 77.8534 151.839 76.6177L152.193 75.2286Z" fill="#FAB6A8"/>
<path d="M204.231 91.6592C205.451 92.0017 205.521 91.04 206.971 91.3237C216.147 98.7315 209.599 110.426 200.427 113.595C199.425 113.942 198.354 114.127 197.313 114.301C196.744 115.2 196.324 115.958 195.571 116.716C196.133 114.482 196.844 114.817 197.266 113.547C197.987 111.369 198.549 108.375 199.034 106.09C200.112 106.749 200.537 107.07 201.746 106.79C202.208 106.452 202.212 106.485 202.499 106C203.379 103.53 202.143 97.2495 201.674 94.4725L204.231 91.6592Z" fill="#FAB6A8"/>
<path d="M197.001 114.119C196.808 114.425 196.586 114.615 196.357 114.909C196.243 115.056 196.128 115.23 196.014 115.457C195.938 115.608 195.862 115.783 195.788 115.99L195.678 116.326C196.112 114.879 196.614 114.731 197.001 114.119ZM198.014 110.833C197.86 111.477 197.7 112.105 197.529 112.694C197.7 112.105 197.86 111.477 198.014 110.833ZM203.324 112.267C202.972 112.47 202.611 112.659 202.246 112.837C202.475 112.726 202.702 112.611 202.926 112.489L203.324 112.267ZM190.347 72.709C190.902 73.08 191.506 73.6705 192.078 74.3018C192.221 74.4596 192.362 74.6202 192.5 74.7803C192.914 75.2605 193.298 75.7386 193.619 76.1387C196.928 78.2969 199.811 79.5114 200.569 83.7617C200.997 83.9476 200.803 83.9163 201.135 83.9277C202.838 83.858 205.948 83.474 207.292 84.4385C208.119 86.0795 205.197 90.0962 204.23 91.6592L201.674 94.4727C202.143 97.2497 203.378 103.53 202.498 106C202.211 106.484 202.208 106.452 201.746 106.79C200.536 107.07 200.111 106.749 199.033 106.09C198.912 106.661 198.786 107.276 198.654 107.912C198.786 107.276 198.912 106.661 199.033 106.09C196.295 104.168 193.492 102.047 190.682 100.283C189.946 100.9 188.667 102.063 187.226 103.277C186.985 103.48 186.741 103.684 186.493 103.887C184.266 105.713 181.819 107.468 180.442 107.481C180.402 107.482 180.361 107.479 180.321 107.475C179.691 107.409 179.164 106.797 178.779 106.309V106.307C178.164 104.022 179.745 97.2087 180.262 94.5459C177.934 93.1002 175.163 90.8727 172.688 89.8604C165.736 90.5283 166.515 91.1949 160.856 95.3662C163.056 115.348 159.352 107.08 148.929 101.931C146.166 103.922 143.294 106.989 140.632 108.84C138.129 107.421 137.219 106.66 135.449 104.396C133.063 100.972 132.359 96.301 133.231 92.2617C133.637 91.3227 134.061 90.3926 134.506 89.4717L134.776 88.9971C135.543 87.8362 136.208 86.9583 137.315 86.1211C137.384 86.0639 137.454 86.0072 137.524 85.9521C137.879 85.6758 138.252 85.4266 138.64 85.1992C139.26 84.8354 139.918 84.5282 140.596 84.2559C141.104 84.0516 141.624 83.8667 142.148 83.6934C143.197 83.3467 144.263 83.0443 145.289 82.7158L148.124 81.5332C147.712 82.8703 146.679 86.9698 145.643 87.6885C144.269 88.6403 140.978 88.3648 139.323 88.6963C138.59 89.2156 138.14 89.415 137.324 89.8145L137.817 91.9639C139.34 92.9907 140.691 93.8967 142.036 95.1572C141.347 97.368 138.84 104.321 138.609 105.948C140.34 105.354 145.982 100.048 149.417 98.4238C151.953 99.56 156.243 102.769 158.568 104.463C158.504 101.231 157.993 98.0051 157.895 94.6973C159.269 92.9708 162.694 90.038 164.478 88.4395C161.272 88.1155 158.069 87.966 154.874 87.6152C153.607 85.9378 151.442 81.2543 150.535 79.2412C151.018 78.3752 151.414 77.5125 151.838 76.6182V76.6172L152.192 75.2285C154.234 76.0193 159.286 77.9763 159.758 80.3135C158.699 81.3567 155.173 79.3726 153.812 79.4336C154.888 81.328 155.699 82.9522 156.647 84.9023C159.37 85.022 163.039 85.1448 165.698 85.5781C170.219 86.3151 171.353 84.9927 175.391 84.2148C178.26 83.6619 181.961 83.7232 184.995 83.3018C185.419 82.0775 185.802 80.8299 186.392 79.6816L186.676 79.6113L186.391 79.6816C185.026 79.6931 182.995 80.1716 181.734 79.8633L181.632 79.5928C182.392 76.9897 185.545 76.7197 187.507 75.3359C188.428 74.6861 188.826 73.4872 190.147 72.7246L190.346 72.709H190.347ZM207.559 108.854C207.358 109.074 207.151 109.289 206.938 109.5C207.044 109.395 207.148 109.29 207.251 109.183L207.559 108.854ZM205.788 91.3955C205.653 91.4465 205.531 91.5045 205.409 91.5596C205.531 91.5046 205.653 91.4464 205.788 91.3955ZM206.128 91.3008C206.105 91.3049 206.083 91.3097 206.062 91.3145C206.083 91.3097 206.105 91.3049 206.128 91.3008Z" fill="#E96E84"/>
<path d="M190.715 76.6084C192.567 79.5717 194.537 83.6468 196.236 86.212C199.245 86.1343 202.753 85.8524 205.662 85.8996C203.032 89.4885 200.852 90.3463 198.361 93.1331C198.776 96.4098 199.439 99.8666 199.974 103.155C187.238 94.3246 193.207 96.9047 181.657 103.638C182.214 100.346 182.898 96.8404 183.391 93.5686C181.621 91.9767 179.948 90.7422 178.05 89.3133C177.204 88.7314 176.55 87.9909 175.831 87.2539L179.865 86.828C182.093 86.63 184.357 86.4766 186.555 86.1002C187.955 83.7669 189.495 79.2649 190.715 76.6084Z" fill="#016999"/>
<path d="M175.831 87.254L179.865 86.8281C179.266 87.6605 178.661 88.4889 178.05 89.3134C177.204 88.7315 176.55 87.991 175.831 87.254Z" fill="#2260A5"/>
<path d="M150.535 79.2408C151.442 81.2538 153.607 85.9378 154.873 87.6154C158.069 87.9662 161.272 88.115 164.478 88.4391C162.694 90.0376 159.269 92.971 157.894 94.6975C157.992 98.0055 158.503 101.231 158.568 104.463C156.242 102.77 151.952 99.5601 149.417 98.424C145.982 100.048 140.34 105.354 138.61 105.948C138.84 104.321 141.348 97.3674 142.036 95.157C140.691 93.8964 139.34 92.9905 137.818 91.9636L135.818 90.6387L134.506 89.4718L134.777 88.9974C135.543 87.8364 136.207 86.9586 137.315 86.1213C139.534 84.2826 142.553 83.5918 145.29 82.7159L148.124 81.5327C149.08 80.7452 149.673 80.1275 150.535 79.2408Z" fill="#016999"/>
<path d="M134.777 88.9973C136.464 88.8115 137.63 88.7265 139.323 88.6957C138.59 89.2151 138.14 89.4145 137.324 89.814L137.818 91.9636L135.818 90.6386L134.506 89.4718L134.777 88.9973Z" fill="#016999"/>
<path d="M135.45 104.396C133.063 100.972 132.358 96.3012 133.231 92.2618C133.807 93.006 137.54 95.2625 138.475 95.8612C137.357 98.5057 136.322 101.64 135.45 104.396Z" fill="#F8B6A7"/>
<path d="M167.73 106.743C170.115 106.51 172.866 106.513 175.223 106.872C179.758 107.562 179.36 111.699 176.91 114.542C175.689 115.96 174.866 116.443 173.283 117.346C172.811 117.517 172.474 117.618 171.977 117.72C169.952 118.148 167.842 117.722 166.141 116.542C163.865 114.969 160.575 109.653 164.124 107.432C164.772 107.025 166.874 106.848 167.73 106.743Z" fill="#4F1314"/>
<path d="M163.353 109.066C163.498 108.58 163.561 108.063 164.097 107.832C165.99 107.018 168.359 106.915 170.417 106.987C173.358 107.09 179.397 106.391 178.022 111.105L177.928 111.443C177.675 112.318 177.465 112.898 176.777 113.534C176.469 113.928 176.151 114.314 175.823 114.693C174.467 116.237 172.584 117.295 170.508 117.368C168.758 117.444 167.051 116.812 165.772 115.613C163.698 113.668 163.417 111.674 163.353 109.066Z" fill="#F77E78"/>
<path d="M163.353 109.066C163.498 108.58 163.561 108.063 164.097 107.832C165.99 107.018 168.359 106.915 170.417 106.987C173.358 107.09 179.397 106.391 178.022 111.105L177.928 111.443C177.675 112.318 177.465 112.898 176.777 113.534C174.538 109.991 167.261 108.572 163.353 109.066Z" fill="#D01B28"/>
<path d="M115.233 105.111C116.698 105.126 117.528 105.364 118.031 106.928C118.623 108.768 118.493 111.695 117.64 113.43C116.761 115.218 115.631 115.853 113.812 116.415C112.658 116.161 112.296 116.095 111.2 115.596C108.233 113.306 108.702 110.259 109.357 106.994L114.145 108.749C114.173 107.109 113.865 106.133 115.233 105.111Z" fill="black"/>
<path d="M127.59 141.983C127.821 139.54 128.602 138.85 130.578 137.357C134.717 134.229 139.174 131.451 143.581 128.718C144.097 129.883 141.815 142.407 141.368 144.694C144.302 145.563 147.394 146.286 150.239 147.302C148.428 150.455 146.511 153.546 144.489 156.57C143.939 157.395 141.103 161.927 140.624 162.415C140.769 166.256 141.013 175.741 140.211 179.263C140.551 179.848 138.892 188.5 138.495 189.028C138.729 189.971 138.45 190.829 138.543 191.213C139.216 194.001 139.053 198.121 137.674 200.667C136.699 202.468 135.207 203.569 134.849 206.033C134.76 205.48 134.885 205.618 134.596 205.279C132.484 205.874 130.94 207.892 128.188 207.703C126.55 207.593 125.422 206.744 124.37 205.533C122.915 203.858 120.432 199.509 120.601 197.3C119.735 197.761 118.964 198.08 118.067 198.464C115.863 194.369 113.778 190.213 111.816 185.996C109.946 185.187 105.774 184.016 103.624 183.317C104.02 181.876 104.29 181.236 104.888 179.86C104.178 179.041 101.783 176.365 101.938 175.302C102.592 170.814 104.729 166.774 104.956 162.14C105.006 161.128 105.44 159.606 105.725 158.624C108.481 155.631 110.122 158.291 111.648 153.68C112.731 152.643 115.724 151.04 117.095 150.011C120.194 147.686 124.838 144.567 127.59 141.983Z" fill="#252525"/>
<path d="M131.838 169.772L140.176 179.681C141.648 177.212 141.331 166.704 140.988 161.759L131.838 169.772Z" fill="#D9D9D9"/>
<path d="M138.494 189.028C138.729 189.971 138.449 190.829 138.542 191.213C139.215 194.001 139.052 198.121 137.673 200.667C136.698 202.468 135.207 203.569 134.848 206.033C134.759 205.48 134.884 205.618 134.595 205.279C132.483 205.874 130.939 207.892 128.187 207.703C126.549 207.593 125.421 206.744 124.37 205.533C122.915 203.858 120.431 199.509 120.6 197.3C126.354 194.107 132.335 191.343 138.494 189.028Z" fill="#FAB6A8"/>
<path d="M146.413 126.004C146.932 125.836 153.999 127.318 155.354 127.461L155.187 129.701C155.28 132.46 158.018 141.46 159.261 143.99L158.894 144.469L158.742 144.438C157.397 143.864 156.863 143.173 155.663 142.492L155.429 142.699C159.006 154.548 162.804 162.988 165.159 175.31C165.434 176.794 166.174 180.381 166.186 181.744L165.811 181.868C165.566 182.608 166.298 190.788 166.204 192.719C165.996 196.999 166.212 202.744 165.556 206.959C162.419 207.856 138.081 207.935 135.252 206.982L134.848 206.033C135.206 203.569 136.698 202.468 137.673 200.667C139.052 198.121 139.215 194.001 138.542 191.213C138.449 190.829 138.729 189.971 138.494 189.028C138.891 188.5 140.551 179.848 140.211 179.263C141.012 175.741 140.768 166.256 140.623 162.415C141.102 161.927 143.938 157.395 144.489 156.57C146.51 153.546 148.428 150.455 150.238 147.302C147.393 146.286 144.301 145.563 141.367 144.694C141.814 142.407 144.096 129.883 143.58 128.718C143.623 128.662 145.962 126.482 146.413 126.004Z" fill="#2F2F31"/>
<path d="M154.276 127.046C154.687 134.119 156.207 137.899 158.743 144.438C157.397 143.864 156.863 143.173 155.663 142.492C153.986 140.061 152.413 134.963 151.932 132.045C153.771 129.554 153.347 129.703 154.276 127.046Z" fill="#FAB6A8"/>
<path d="M192.944 257.367C195.037 257.168 197.206 257.162 199.468 256.926C207.382 256.093 213.826 254.628 221.378 252.38C222.867 254.599 224.499 267.541 225.496 271.148C223.737 273.325 218.532 277.325 215.737 276.872C215.102 276.207 215.091 273.616 214.452 273.227C209.725 270.331 198.331 271.64 193.71 273.4C193.588 270.441 193.433 267.484 193.242 264.529C193.12 262.729 192.763 259.005 192.944 257.367Z" fill="#D01B28"/>
<path d="M178.247 141.709C182.503 150.042 187.455 162.606 190.704 171.521C184.961 171.176 170.92 173.854 165.159 175.311C162.804 162.989 159.005 154.549 155.429 142.699L155.662 142.492C155.812 142.577 155.952 142.663 156.084 142.748C157.009 143.344 157.565 143.935 158.742 144.438L158.894 144.469L158.447 144.957C159.553 145.884 159.877 146.579 160.553 147.817C162.615 151.601 165.141 155.174 168.562 157.848C168.142 160.072 168.416 164.453 171.303 164.89C171.929 164.988 172.57 164.819 173.064 164.421C173.917 163.742 174.138 163.053 174.032 161.99C173.948 161.5 173.942 161.677 174.054 161.181C176.275 159.98 177.096 158.002 175.596 155.824C175.014 154.718 174.586 155.1 174.215 154.206C174.303 152.574 174.265 146.321 174.822 145.53L174.512 145.262C175.42 144.915 176.342 143.472 177.185 142.462C177.314 142.307 177.442 142.161 177.567 142.032C177.63 141.968 177.693 141.907 177.755 141.851L178.247 141.709Z" fill="white"/>
<path d="M190.704 171.52C191.798 174.869 192.935 178.202 194.112 181.521C185.028 183.252 175.836 184.364 166.603 184.854C166.481 183.874 166.369 182.697 166.186 181.744C166.175 180.381 165.434 176.795 165.159 175.31C170.92 173.853 184.961 171.176 190.704 171.52Z" fill="url(#paint0_linear_276_4306)"/>
<path d="M155.355 127.461C161.523 128.605 164.164 128.034 169.88 128.115C170.18 130.429 170.73 133.623 170.874 135.852C170.459 135.923 170.233 137.304 167.356 137.322C164.714 137.338 162.821 137.674 160.14 136.285C159.545 135.977 158.258 135.434 157.624 135.353C157.009 134.043 156.145 130.368 155.65 129.723L155.188 129.701L155.355 127.461Z" fill="#F77E78"/>
<path d="M157.623 135.353C158.257 135.435 159.544 135.977 160.139 136.285C162.82 137.674 164.713 137.338 167.355 137.322C170.233 137.305 170.458 135.923 170.873 135.852C171.126 137.98 171.694 142.626 171.723 144.647C171.729 145.3 171.833 146.185 171.501 146.686C169.455 147.955 164.108 146.979 161.883 146.203C160.235 144.152 158.525 138.152 157.623 135.353Z" fill="#FAB6A8"/>
<path d="M210.124 191.908C211.984 190.79 213.73 189.636 215.539 188.443C217.002 190.735 218.399 195.418 217.766 198.157C217.203 200.592 216.118 202.194 214.529 204.016C212.846 200.06 211.768 195.952 210.124 191.908Z" fill="#FAB6A8"/>
<path d="M171.723 144.647C172.019 145.916 171.988 149.465 171.736 150.78C171.758 154.826 170.711 152.251 168.934 155.694C165.968 153.1 163.612 150.322 161.987 146.676L161.883 146.203C164.108 146.979 169.454 147.955 171.501 146.686C171.833 146.186 171.729 145.3 171.723 144.647Z" fill="white"/>
<path d="M172.231 132.131C174.467 134.777 176.776 138.549 178.247 141.709L177.754 141.851C176.768 142.748 175.629 144.836 174.512 145.262C173.995 141.214 173.579 135.888 172.231 132.131Z" fill="#FAB6A8"/>
<path d="M172.668 154.387L173.3 154.562C173.884 154.95 174.94 155.745 175.596 155.824C177.097 158.001 176.276 159.98 174.055 161.181C173.943 161.677 173.948 161.5 174.033 161.99H173.764C173.448 160.368 173.255 160.435 171.912 159.565C171.796 158.852 171.943 159.151 171.462 158.628C172.31 157.866 172.02 156.568 172.318 155.375L172.356 155.47L172.491 155.421L172.668 154.387Z" fill="#3E4253"/>
<path d="M168.936 157.874C169.916 158.458 170.908 159.021 171.911 159.565C173.255 160.435 173.447 160.368 173.763 161.99C173.547 163.87 172.088 165.41 170.375 163.817C168.875 162.419 168.904 159.797 168.936 157.874Z" fill="#868C9B"/>
<path d="M155.188 129.701L155.65 129.723C155.736 131.788 156.72 134.442 157.306 136.429C159.378 143.47 161.815 150.091 167.433 155.147C167.833 155.507 168.731 156.283 169.082 156.649C169.304 157.21 169.273 156.993 169.275 157.586C164.96 155.131 161.587 148.193 159.262 143.99C158.019 141.46 155.281 132.46 155.188 129.701Z" fill="#FCF9FA"/>
<path d="M169.5 156.133C169.832 155.119 170.064 154.724 171.116 154.46C171.969 154.747 171.676 154.607 172.318 155.375C172.02 156.568 172.311 157.866 171.462 158.628C170.396 157.846 170.109 157.289 169.5 156.133Z" fill="white"/>
<path d="M173.276 146.364C174.011 147.573 173.64 153.035 173.3 154.562L172.668 154.387L172.251 154.04C172.192 152.807 172.552 147.25 173.276 146.364ZM170.869 130.419C171.001 130.549 171.491 131.143 171.541 131.25C172.674 133.703 173.779 144.067 173.4 146.195L173.002 146.186C172.603 145.77 172.398 142.756 172.354 142.006C172.125 138.089 171.356 134.278 170.869 130.419Z" fill="url(#paint1_linear_276_4306)"/>
<path d="M137.527 283.627C150.577 282.29 165.801 282.367 178.917 282.613C181.755 282.666 188.964 282.887 191.592 283.271C190.207 286.255 188.19 290.401 189.512 293.721C189.973 294.876 190.723 295.437 191.849 295.902C196.154 297.674 213.505 297.583 217.818 295.628C220.75 294.297 225.325 290.927 227.075 288.244C227.189 287.06 227.259 286.297 227.242 285.104C233.843 285.927 257.536 287.604 257.461 296.916C257.41 303.139 234.892 307.169 229.707 308.301C223.593 309.635 223.648 309.523 218.013 312.888C207.797 318.991 194.371 321.422 182.69 319.178C174.6 317.52 167.49 312.98 160.001 309.71C158.063 308.966 154.708 306.802 152.727 306.495C145.545 305.385 138.067 306.621 130.833 305.985C119.53 304.989 107.337 302.566 96.2947 299.983C84.806 297.296 81.3537 292.354 95.4372 289.748C97.0077 289.419 98.9567 288.96 100.631 288.673L101.291 288.596C103.315 290.021 104.848 292.807 106.724 294.526C114.755 301.887 122.683 303.595 133.235 302.137C138.931 301.349 141.738 298.03 140.981 291.937C140.668 289.419 138.52 286.131 137.527 283.627Z" fill="#E96E84"/>
<path d="M136.63 213.757C144.686 217.097 159.834 221.492 168.527 222.486C168.152 223.557 168.12 224.482 167.885 225.577C167.472 227.488 166.926 229.39 166.209 231.211C162.228 240.487 155.931 249.092 150.335 257.457C148.762 259.81 146.876 262.141 145.394 264.462C142.188 269.474 138.916 274.372 135.766 279.436C133.742 275.282 131.262 272.51 126.552 271.679C124.615 270.996 121.101 271.242 119.396 270.98C115.071 270.315 115.895 274.227 114.396 274.666C111.097 275.636 106.921 272.132 105.822 269.104C105.505 268.232 104.212 265.251 104.549 264.326C104.802 264.312 105.132 264.308 105.304 264.06C108.947 258.786 112.516 253.335 116.725 248.494C117.159 247.994 117.358 247.968 117.949 247.964C119.308 247.08 124.388 238.379 125.52 236.562C128.582 231.648 131.392 225.992 133.912 220.765C134.942 218.629 135.461 215.975 136.63 213.757Z" fill="#FAB6A8"/>
<path d="M135.766 279.436C133.742 275.282 131.262 272.51 126.552 271.679C124.615 270.996 121.101 271.242 119.396 270.98C115.071 270.315 115.895 274.227 114.396 274.666C111.097 275.636 106.921 272.132 105.822 269.104C105.505 268.232 104.212 265.251 104.549 264.326C104.802 264.312 105.132 264.308 105.304 264.06C108.947 258.786 112.516 253.335 116.725 248.494C117.159 247.994 117.358 247.968 117.949 247.964C121.552 254.991 134.847 261.294 142.308 263.749C143.212 264.047 144.447 264.363 145.394 264.462C142.188 269.474 138.916 274.372 135.766 279.436Z" fill="#D01B28"/>
<path d="M263.188 102.226C268.185 102.132 273.182 102.106 278.178 102.149C280.229 102.159 286.757 101.744 287.895 103.302C287.781 103.877 287.559 104.28 287.03 104.585C283.208 106.791 279.115 107.983 275.491 110.604C274.904 113.121 274.329 117.395 273.889 120.061L270.947 137.598C270.772 138.585 270.611 139.65 270.406 140.628C270.055 142.313 269.609 147.126 267.576 147.274C265.981 145.622 266.27 138.27 266.227 135.802C265.995 127.322 266.115 118.836 266.584 110.366C264.386 109.726 254.269 106.067 255.045 103.34C256.44 102.065 261.183 102.278 263.188 102.226Z" fill="black"/>
<path d="M53.5381 151.404C55.1001 154.989 50.7076 181.399 50.5186 187.128C50.5054 187.522 50.3421 187.748 50.0146 187.941C48.7993 186.924 44.9258 178.198 44.1514 176.383C42.6104 176.847 41.0487 177.401 39.5215 177.923C37.4946 178.634 32.5078 180.936 30.6855 180.702C30.2607 180.24 30.3753 180.513 30.3955 179.828C31.5146 177.859 35.889 172.348 37.4082 170.359C40.5484 166.213 43.7438 162.108 46.9922 158.047C48.3088 156.391 51.5017 152.292 53.0537 151.058L53.5381 151.404ZM47.917 165.678C46.7918 166.898 45.1115 169.092 44.1953 170.489C44.4624 170.721 44.3828 170.678 44.4893 170.721L47.7354 170.847C47.8207 170.047 48.3867 166.141 47.917 165.678Z" fill="black"/>
<path d="M61.1016 153.233C64.1896 154.11 76.2436 166.329 76.7275 169.286C75.9664 170.985 62.3467 175.569 59.5518 176.772L58.8506 178.111C58.0575 179.698 54.1212 187.055 52.71 187.606L52.4551 187.351C52.2326 185.467 54.5061 176.652 55.0527 174.316C56.0145 170.186 57.0139 166.063 58.0508 161.948C58.5923 159.79 59.5781 154.562 61.1016 153.233ZM64.458 164.577C63.9574 166.231 63.5148 167.693 62.8945 169.313L66.4609 168.298L68.6182 167.51C67.6854 166.567 65.6864 165.132 64.458 164.577Z" fill="black"/>
<path d="M73.3262 158.25C73.9311 158.301 74.5333 158.381 75.1304 158.492C77.8845 159.002 95.8421 163.441 97.0956 165.284L96.974 165.752C96.3984 166.347 88.2486 167.619 86.7354 167.996C84.7001 171.402 81.5098 178.994 79.5207 182.982C78.2753 185.803 76.8942 188.638 75.4451 191.363C74.9322 192.327 74.5718 192.883 73.4142 192.833L73.0717 192.442C72.2809 189.016 79.0755 170.684 80.122 166.152L80.1881 165.859C78.3437 164.691 72.3173 160.801 73.3262 158.25Z" fill="black"/>
<path d="M82.2002 207.136C82.2788 207.185 82.3642 207.226 82.4365 207.285C83.3337 208.013 86.9753 229.88 87.3428 232.441L87.0654 232.782C85.5838 232.532 82.9025 227.467 81.1143 226.655C80.45 226.354 80.3937 226.553 79.6592 226.894C78.1059 227.915 74.0414 231.144 72.5361 231.514L72.2998 231.225C72.3491 229.277 80.7902 209.504 82.2002 207.136ZM81.2227 218.586C80.7574 219.578 80.0558 220.893 79.8564 221.931L79.9941 222.147L80.4365 222.125C81.4253 221.853 81.4093 222.035 81.9258 221.392C82.1404 220.466 81.9373 219.236 81.2227 218.586Z" fill="black"/>
<path d="M87.4932 207.124C91.8662 207.486 98.514 212.222 101.827 215.079C100.161 217.579 94.6744 220.82 91.9482 222.779C90.5637 224.475 90.1607 231.084 88.6426 231.856C87.7658 230.468 87.4537 209.908 87.4932 207.124ZM92.625 214.085C92.4777 215.394 92.3582 216.398 92.0947 217.686C92.7275 217.359 93.4265 217.018 94.041 216.67L96.0254 215.414C94.9212 214.991 93.7027 214.55 92.625 214.085Z" fill="black"/>
<path d="M97.6148 207.931C99.8457 207.805 113.62 207.469 114.703 208.26L114.691 208.662C113.802 209.774 109.81 211.231 108.138 212.134C107.363 214.891 106.517 220.897 105.978 223.948C105.755 225.514 105.229 230.833 103.796 231.487C103.746 231.451 103.691 231.422 103.647 231.378C102.218 229.979 103.025 215.054 103.187 212.304C101.591 211.621 97.2916 210.099 97.2285 208.236L97.6148 207.931Z" fill="black"/>
<path d="M276.69 138.712C278.173 138.563 279.509 139.612 279.719 141.091C279.929 142.569 278.939 143.951 277.474 144.223C276.47 144.409 275.445 144.029 274.805 143.233C274.165 142.437 274.009 141.353 274.404 140.409C274.797 139.465 275.675 138.813 276.69 138.712Z" fill="black"/>
<path d="M80.9688 188.817C82.1119 188.609 83.2139 189.347 83.4555 190.487C83.6971 191.627 82.9908 192.751 81.8615 193.026C81.1018 193.211 80.302 192.967 79.7735 192.39C79.2447 191.814 79.0709 190.993 79.3196 190.25C79.568 189.506 80.1999 188.959 80.9688 188.817Z" fill="black"/>
<path d="M108.217 227.421C108.757 227.171 109.39 227.258 109.846 227.638C110.301 228.02 110.497 228.63 110.349 229.207C110.202 229.782 109.736 230.223 109.153 230.335C108.389 230.484 107.633 230.038 107.395 229.295C107.156 228.551 107.509 227.746 108.217 227.421Z" fill="black"/>
<path d="M170.157 128.442C194.1 125.526 199.313 112.428 198.926 106.243C197.138 104.923 193.238 102.033 191.947 101.037C190.657 100.041 189.934 100.346 189.734 100.622C187.337 102.974 182.063 107.639 180.145 107.492C177.748 107.307 179.315 99.2393 180.422 96.888C181.307 95.007 179.745 93.9528 178.854 93.6608C177.394 92.6619 174.29 90.535 173.552 90.0186C172.815 89.5023 169.065 90.0493 167.282 90.3874C165.96 91.4171 162.976 93.6977 161.611 94.5828C160.247 95.468 160.397 97.1032 160.643 97.8101L160.92 106.939C160.33 109.041 155.818 106.278 153.636 104.633L148.796 101.494L140.503 108.507C130.254 107.535 125.777 97.4628 124.82 92.5482C124.908 95.3755 123.274 99.69 122.445 101.494C124.301 96.8554 119.979 89.2533 117.586 86.0321C114.759 89.7429 106.358 92.3272 102.511 93.1556C101.274 97.7499 104.094 102.985 105.659 105.028L112.506 108.507L118.194 109.722C129.812 120.722 149.835 129.491 170.157 128.442Z" fill="#F8B6A7"/>
<path d="M112.332 94.0764C117.557 93.6842 121.866 101.854 116.325 104.54C115.72 104.669 114.712 104.75 114.066 104.824C110.226 102.717 107.909 96.6987 112.332 94.0764Z" fill="#F77E78"/>
<path d="M169.382 108.518C170.888 108.365 172.336 108.64 173.793 108.7C176.816 108.828 177.767 109.975 176.823 112.804C176.138 114.851 174.832 116.601 172.864 117.744C171.118 118.758 169.292 118.802 167.414 118.305C164.136 117.439 161.764 113.12 162.811 109.917C163.181 108.782 164.343 108.91 165.164 108.772C166.556 108.535 167.988 108.351 169.382 108.518Z" fill="#E67084"/>
<path d="M226.697 101.104C228.428 101.692 228.723 104.726 229.096 106.431C231.184 116.349 233.051 126.313 234.697 136.315C235.065 138.489 237.114 147.83 236.323 149.069L236.054 149.087C233.929 147.837 231.584 144.27 229.803 142.345C228.196 140.609 226.24 138.605 224.784 136.777L222.276 138.385C219.733 140.11 211.698 146.36 209.561 146.961C208.897 146.784 209.209 146.945 208.694 146.284C209.013 143.3 224.694 103.947 226.697 101.104ZM222.139 129.604L227.369 127.96L225.875 120.152L222.139 129.604Z" fill="black"/>
<path d="M238.51 100.914C242.403 101.285 262.366 112.744 263.366 116.127C263.186 116.93 262.48 117.815 261.863 118.328C256.505 122.772 250.308 126.518 244.929 130.916C243.346 132.589 242.305 144.865 240.16 147.091C239.919 147.343 239.979 147.261 239.587 147.253C239.534 147.188 239.471 147.13 239.424 147.062C237.982 144.959 236.342 106.341 237.008 102.285C237.452 101.528 237.75 101.419 238.51 100.914ZM245.264 121.487L252.979 116.198L246.058 113.597L245.264 121.487Z" fill="black"/>
<defs>
<linearGradient id="paint0_linear_276_4306" x1="179.073" y1="172.359" x2="179.801" y2="183.537" gradientUnits="userSpaceOnUse">
<stop stop-color="#FCAF9F"/>
<stop offset="1" stop-color="#FFCFC3"/>
</linearGradient>
<linearGradient id="paint1_linear_276_4306" x1="171.258" y1="138.475" x2="172.996" y2="138.441" gradientUnits="userSpaceOnUse">
<stop stop-color="#ECD7CE"/>
<stop offset="1" stop-color="#FEFDFF"/>
</linearGradient>
</defs>
</svg>
