<svg width="320" height="320" viewBox="0 0 320 320" fill="none" xmlns="http://www.w3.org/2000/svg">
<g filter="url(#filter0_d_169_4457)">
<path d="M170.746 4.88785C177.612 5.04568 184.204 6.4328 190.473 9.2814C196.418 11.9888 201.808 15.5601 206.824 19.7209C212.877 24.7454 218.193 30.4422 222.612 36.9699C226.103 42.1273 228.74 47.7091 230.722 53.6056C231.344 55.4658 232.007 57.3094 232.662 59.1613C233.4 61.2375 234.387 63.1814 235.838 64.8341C236.858 65.9882 238.126 66.8023 239.734 66.9933C240.696 67.1013 241.658 67.2004 242.62 67.0011C242.686 66.9846 242.794 66.9769 242.819 67.1095C241.269 68.9448 239.345 70.2068 236.99 70.7882C236.808 70.8297 236.609 70.8215 236.418 70.838H233.931C233.16 70.8297 232.438 70.5891 231.667 70.257C231.758 70.7718 231.849 71.2452 231.924 71.7267C232.604 76.2364 232.777 80.7547 231.849 85.256C231.409 87.3737 230.754 89.4251 229.577 91.2687C229.461 91.4513 229.32 91.6261 229.204 91.8087C229.163 91.8668 229.121 91.8837 229.021 91.8175V90.8205C229.005 88.1878 228.889 85.5717 228.491 82.964C228.483 82.8811 228.441 82.8062 228.408 82.7316C228.416 82.7152 228.441 82.6903 228.441 82.6818C228.425 82.6487 228.4 82.6149 228.375 82.59C228.375 82.125 228.251 81.6844 228.102 81.2443C228.15 81.162 228.085 81.1363 228.035 81.1115C228.035 80.8044 227.778 80.5636 227.836 80.2482C227.861 80.0573 227.902 79.8578 227.629 79.7912C227.587 79.9572 227.571 80.1149 227.662 80.2726C227.563 81.8173 227.496 83.3627 227.214 84.8908C226.7 87.6729 225.953 90.3725 224.411 92.7892C224.237 93.0546 224.229 93.2455 224.378 93.5275C226.575 97.8627 226.634 102.29 224.976 106.817C223.773 110.089 221.866 112.829 219.138 114.988C216.675 116.932 213.889 118.244 210.846 118.942C209.967 119.149 209.394 119.515 208.905 120.295C207.91 121.881 206.716 123.335 205.597 124.838C203.789 127.28 201.766 129.547 199.893 131.931C199.727 132.147 199.577 132.379 199.287 132.537C198.69 131.599 198.649 130.552 198.508 129.481C197.853 129.755 197.562 130.394 197.164 130.876C196.816 131.3 196.459 131.682 196.012 132.014C195.299 132.545 194.66 133.177 193.922 133.675C193.441 133.999 192.968 134.347 192.471 134.704C192.736 134.862 193.018 135.004 193.283 135.17C195.107 136.316 196.078 138.01 196.409 140.095C196.509 140.701 196.766 140.941 197.363 141.074C198.657 141.357 199.868 141.922 201.095 142.403C203.018 143.168 204.867 144.098 206.658 145.128C208.831 146.374 210.705 147.985 212.371 149.837C212.371 149.912 212.405 149.953 212.479 149.961L212.504 149.994C212.504 150.086 212.546 150.135 212.637 150.144C213.532 151.331 214.419 152.511 215.091 153.848C216.227 156.107 217.007 158.499 217.596 160.948C217.803 161.804 218.026 162.651 218.25 163.498L218.226 163.557L218.275 163.598C218.342 164.121 218.483 164.628 218.657 165.118C218.632 165.21 218.649 165.284 218.731 165.325C218.806 166.015 218.988 166.671 219.245 167.311L219.221 167.368L219.262 167.418C219.502 168.631 219.951 169.786 220.365 170.948C221.111 173.058 222.073 175.076 223.102 177.069C224.105 179.004 225.067 180.956 225.639 183.082C226.086 184.735 225.68 186.056 224.486 187.227C223.549 188.14 222.488 188.879 221.36 189.519C221.045 189.701 220.879 189.859 220.962 190.282C221.907 194.983 222.28 199.742 222.354 204.534C222.413 208.13 222.272 211.719 221.882 215.298C221.824 215.846 221.724 216.394 221.642 216.934C221.6 217.208 221.526 217.473 221.634 217.747C221.601 217.839 221.634 217.897 221.717 217.939C221.999 219.118 222.43 220.256 222.646 221.451C223.475 226.135 223.491 230.795 222.272 235.412C221.675 237.679 220.588 239.665 218.723 241.152C218.59 241.251 218.466 241.359 218.325 241.45C216.153 242.854 213.964 244.232 211.667 245.437C210.39 246.109 209.038 246.4 207.596 246.284C207.422 246.176 207.23 246.142 207.031 246.167C206.841 246.101 206.642 246.076 206.451 246.151C206.294 246.126 206.144 246.151 206.028 246.276C205.655 246.242 205.348 246.425 205.017 246.508C205.299 248.136 205.348 249.73 205.456 251.317C205.896 257.994 206.044 264.679 206.003 271.373C206.003 271.813 206.012 272.237 206.318 272.619C208.109 274.845 208.366 277.37 207.761 280.069C207.653 280.551 207.578 281.041 207.487 281.53L207.438 281.572L207.463 281.622C207.363 281.988 207.255 282.361 207.164 282.727C207.056 283.183 207.015 283.615 207.247 284.08C207.504 284.578 207.479 285.152 207.28 285.684C207.206 285.891 207.131 286.09 207.131 286.306C206.957 286.48 206.99 286.655 207.147 286.821C207.148 286.946 207.181 287.062 207.272 287.153C207.231 287.22 207.264 287.261 207.33 287.286C207.446 287.735 207.57 288.191 207.687 288.64C207.662 288.756 207.72 288.79 207.827 288.781L207.853 288.789C207.919 288.98 207.77 289.297 208.143 289.321C208.143 289.429 208.143 289.537 208.233 289.628C208.267 289.67 208.3 289.719 208.342 289.761C209.022 291.414 209.71 293.058 210.373 294.711C210.97 296.198 211.476 297.709 211.717 299.295C211.833 300.059 211.891 300.824 211.974 301.588C211.907 301.696 211.907 301.795 211.974 301.895C211.882 302.858 211.882 303.83 211.592 304.76C210.945 306.853 209.527 308.249 207.62 309.195C206.028 309.984 204.32 310.432 202.57 310.69C199.055 311.221 195.531 311.188 192.023 310.573C191.858 310.548 191.691 310.549 191.525 310.532C191.36 310.408 191.169 310.366 190.97 310.391C189.502 310.017 188.035 309.643 186.634 309.054C184.611 308.198 182.753 307.094 181.244 305.449C179.859 303.93 179.079 302.136 178.822 300.11C178.582 298.208 178.607 296.305 178.772 294.403C178.938 292.535 178.922 290.65 179.212 288.789C179.245 288.59 179.246 288.407 179.063 288.266C178.035 287.493 177.778 286.356 177.703 285.185C177.645 284.238 177.33 283.415 176.898 282.602C176.559 281.971 176.236 281.331 175.904 280.692C175.2 279.305 175.059 277.851 175.432 276.34C175.597 275.667 175.755 274.995 175.938 274.33C176.087 273.782 176.062 273.25 175.904 272.702C174.669 268.517 173.45 264.331 172.206 260.153C171.12 256.508 170.008 252.862 168.905 249.216C168.822 248.95 168.74 248.693 168.648 248.427C168.615 248.253 168.665 248.036 168.408 247.953C168.416 248.119 168.424 248.269 168.433 248.427C167.943 252.87 167.437 257.313 166.965 261.756C166.6 265.161 166.252 268.558 165.729 271.946C165.555 273.059 165.481 274.139 165.986 275.186C165.962 275.269 165.987 275.335 166.062 275.385C166.028 275.842 166.302 276.224 166.394 276.655C166.692 278.009 166.642 279.346 166.385 280.692C166.161 281.854 165.87 283.009 165.68 284.189C165.555 284.986 165.199 285.725 164.627 286.315C164.345 286.605 164.303 286.887 164.378 287.277C164.942 290.134 165.174 293.026 165.157 295.941C165.141 298.415 163.98 300.134 161.808 301.222C160.746 301.753 159.619 302.136 158.491 302.485C154.254 303.78 150 305.05 145.696 306.13C141.41 307.21 137.048 307.601 132.646 307.385C130.49 307.277 128.383 306.894 126.285 306.355C125.241 306.081 124.337 305.591 123.441 305.051C121.568 303.922 120.681 302.194 120.498 300.043C120.208 296.497 121.493 293.54 123.864 290.998C125.183 289.578 126.717 288.441 128.358 287.386C129.328 286.763 130.298 286.098 131.252 285.417C132.288 284.678 133.4 284.063 134.527 283.474C134.859 283.299 135.066 283.1 135.133 282.677C135.224 282.062 135.473 281.481 135.805 280.933C136.169 280.352 136.452 279.712 136.767 279.106C137.04 278.591 137.073 278.067 136.883 277.511C136.676 276.913 136.518 276.299 136.377 275.676C136.112 274.488 136.277 273.367 136.783 272.287C137.098 271.606 137.496 270.975 137.894 270.344C138.134 269.962 138.25 269.571 138.176 269.09C137.496 264.746 136.974 260.386 136.394 256.026C135.821 251.782 135.298 247.521 134.817 243.269C134.079 236.766 133.864 230.246 134.138 223.71C134.279 220.255 134.618 216.809 135.273 213.412C135.423 212.632 135.414 211.909 135.273 211.137C134.975 209.418 135.315 207.731 135.68 206.054C135.804 205.497 135.978 204.957 136.219 204.426C136.326 204.177 136.343 203.969 136.028 203.753C135.581 203.446 135.232 202.997 134.851 202.599C133.284 200.921 132.969 198.961 133.665 196.819C134.08 195.556 134.586 194.336 135.166 193.123C134.378 192.691 133.698 192.724 132.936 193.197C131.476 194.103 129.892 194.759 128.209 195.133C125.863 195.656 123.616 195.282 121.41 194.394C118.74 193.314 116.384 191.76 114.262 189.825C111.119 186.96 108.383 183.754 106.152 180.125C105.721 179.42 105.349 178.672 104.992 177.925C104.843 177.618 104.685 177.451 104.337 177.402C100.034 176.77 96.3435 174.827 93.0518 172.053C92.7948 171.837 92.529 171.638 92.3135 171.389C91.3849 170.301 90.1742 169.702 88.8477 169.229C87.3635 168.705 85.9286 168.058 84.5771 167.244C83.6403 166.688 82.8113 166.015 82.1729 165.118C81.3934 164.022 81.1692 162.801 81.4346 161.488C81.5258 161.048 81.7417 160.658 82.04 160.326C82.3302 159.994 82.645 159.678 82.9766 159.329C81.932 158.241 81.3191 156.963 81.3936 155.402C81.4682 153.824 82.1315 152.652 83.6074 151.946C83.5991 151.706 83.4325 151.548 83.3496 151.357C82.9185 150.426 82.7533 149.463 83.0518 148.458C83.4498 147.08 84.544 146.157 85.9619 145.983C87.1061 145.841 88.2176 146.033 89.3037 146.39C89.4611 146.44 89.6189 146.498 89.7764 146.548C89.793 146.555 89.8187 146.522 89.8926 146.489C89.909 146.249 89.7021 146.074 89.6191 145.859C89.1216 144.58 88.9221 143.292 89.5439 142.005C90.199 140.651 91.4928 140.012 92.9688 140.277C93.8143 140.435 94.6025 140.768 95.3486 141.199C97.5375 142.453 99.5111 144.015 101.484 145.568C102.852 146.639 104.196 147.744 105.556 148.832C105.854 149.073 106.153 149.297 106.542 149.596C106.418 148.45 106.029 147.486 105.854 146.482C105.614 145.053 105.498 143.624 105.788 142.195C106.02 141.008 106.493 139.928 107.396 139.081C108.831 137.736 111.036 137.836 112.354 139.297C112.935 139.945 113.308 140.718 113.615 141.515C114.229 143.084 114.635 144.729 115.149 146.332C115.887 148.599 116.948 150.725 117.927 152.893C119.436 156.223 119.826 159.686 119.088 163.266C118.939 164.005 119.08 164.495 119.693 164.96C120.829 165.832 121.915 166.779 123.01 167.709C123.225 167.892 123.383 167.983 123.615 167.709C125.373 165.724 127.529 164.221 129.71 162.759C130.779 162.036 131.575 161.164 132.131 160.01C133.341 157.519 134.751 155.152 136.476 152.968C137.985 151.05 139.776 149.454 141.932 148.333C143.54 147.503 144.809 146.365 145.945 144.97C148.449 141.889 151.435 139.381 155.033 137.637C155.074 137.62 155.092 137.553 155.149 137.453C153.193 137.105 151.277 136.648 149.403 136.075C145.382 134.855 141.476 133.359 137.869 131.158C135.141 129.489 132.629 127.571 130.722 124.946C129.951 123.892 129.303 122.77 128.889 121.525C128.764 121.143 128.574 120.935 128.168 120.844C125.1 120.188 122.794 118.335 120.879 115.968C118.756 113.344 117.388 110.362 116.824 107.007C116.385 104.432 116.543 101.941 117.662 99.549C117.728 99.408 117.844 99.2661 117.753 99.0919C117.264 98.1702 116.857 97.2153 116.525 96.2023C116.011 97.7553 115.854 99.35 115.473 100.961C115.149 100.77 114.909 100.538 114.76 100.264C113.773 98.4284 113.019 96.5256 112.662 94.4328C112.413 92.9464 112.33 91.5016 112.487 89.9904C111.982 89.7497 111.592 90.2641 111.119 90.2394C110.871 90.1897 110.63 90.2308 110.423 90.38C110.324 90.3883 110.232 90.3971 110.133 90.4054C109.229 90.4054 108.317 90.4049 107.413 90.4132C107.322 90.405 107.222 90.3971 107.123 90.3888C106.85 90.2394 106.559 90.1897 106.261 90.2394C104.122 89.8242 102.197 88.9764 100.613 87.4318C100.663 87.241 100.813 87.2243 100.979 87.216C101.293 87.216 101.608 87.241 101.898 87.0753C103.523 86.8676 104.627 85.8376 105.556 84.6252C106.484 83.4126 106.949 81.9755 107.264 80.4972C108.002 77.034 108.301 73.5127 108.624 69.9914C108.757 68.5298 108.93 67.0764 109.212 65.6398C109.228 65.6316 109.261 65.615 109.262 65.6066C109.262 65.5734 109.246 65.5397 109.237 65.4982C109.387 64.1362 109.81 62.8236 110.042 61.4201C109.594 61.4948 109.552 61.8355 109.437 62.0763C108.831 63.3221 108.358 64.6181 107.943 65.9386C106.791 69.5678 106.136 73.2884 105.796 77.0753C105.738 77.7065 105.68 78.3295 105.63 78.9523C105.315 78.977 105.29 78.7365 105.207 78.5871C104.046 76.4113 103.433 74.0774 103.135 71.6359C102.596 67.2675 103.433 63.1067 104.893 59.0207C105.771 56.5625 106.807 54.1702 107.877 51.7951C108.855 49.6358 109.892 47.5012 110.995 45.4084C112.969 41.6628 115.141 38.0248 117.629 34.5949C119.677 31.7796 121.974 29.18 124.553 26.8546C125.589 25.9164 126.766 25.1601 127.977 24.4543C129.461 23.5906 131.053 23.0174 132.703 22.5773C133.391 22.3947 134.113 22.2702 134.834 22.2951C135.265 22.3116 135.465 22.1287 135.605 21.7384C136.144 20.2519 136.85 18.8484 137.729 17.5363C140.117 13.9736 143.317 11.3824 147.156 9.54703C150.406 7.99415 153.847 6.99709 157.354 6.24136C161.766 5.28634 166.227 4.78821 170.746 4.88785ZM180.846 297.377C180.73 298.274 180.829 299.146 180.97 300.01C181.301 301.937 182.189 303.531 183.748 304.752C185.05 305.765 186.468 306.521 188.01 307.077C192.247 308.58 196.6 308.996 201.053 308.523C203.225 308.29 205.348 307.833 207.305 306.778C209.295 305.707 210.149 303.988 209.834 301.695C209.279 301.936 208.74 302.202 208.185 302.418C205.714 303.365 203.126 303.739 200.506 303.93C197.969 304.104 195.431 304.071 192.902 303.772C190.597 303.498 188.333 303.041 186.178 302.152C184.801 301.588 183.441 300.965 182.421 299.811C181.791 299.072 181.327 298.241 180.846 297.377ZM163.151 294.064C163.002 293.989 162.91 294.071 162.827 294.121C161.791 294.769 160.671 295.226 159.527 295.624C158.748 295.89 157.977 296.156 157.197 296.43C155.531 296.903 153.864 297.385 152.197 297.859C146.609 299.436 140.953 300.6 135.124 300.683C132.413 300.724 129.718 300.591 127.057 300.084C125.573 299.802 124.138 299.345 122.803 298.498C122.72 299.237 122.745 299.902 122.836 300.558C122.977 301.637 123.541 302.452 124.47 303.025C125.083 303.406 125.738 303.689 126.418 303.913C128.366 304.544 130.381 304.818 132.421 304.992C135.688 305.266 138.93 305.042 142.147 304.511C144.511 304.121 146.841 303.573 149.146 302.908C151.625 302.203 154.138 301.571 156.592 300.74C157.429 300.483 158.275 300.234 159.104 299.951C159.867 299.702 160.605 299.404 161.302 299.005C162.247 298.465 162.852 297.668 163.01 296.588C163.134 295.749 163.193 294.902 163.151 294.064ZM203.383 293.282C199.66 292.053 195.912 292.053 192.131 293C188.649 293.88 186.211 296.065 184.503 299.146C184.155 299.777 184.179 299.794 184.784 300.159C185.995 300.898 187.305 301.388 188.665 301.762C191.352 302.493 194.08 302.808 197.007 302.883C198.259 302.983 199.669 302.867 201.062 302.742C202.985 302.568 204.901 302.31 206.75 301.745C207.62 301.48 208.483 301.198 209.271 300.716C209.544 300.55 209.759 300.383 209.718 300.001C209.544 298.257 208.972 296.713 207.562 295.583C206.302 294.57 204.925 293.789 203.383 293.282ZM134.577 288.964C133.466 288.673 132.355 288.706 131.235 288.972C130.514 289.055 129.834 289.279 129.204 289.645C127.272 290.774 125.597 292.187 124.304 294.03C123.856 294.662 123.516 295.359 123.292 296.107C123.043 296.953 123.11 297.111 123.855 297.617C124.32 297.924 124.834 298.116 125.356 298.29C127.015 298.847 128.74 299.096 130.473 299.245C134.759 299.602 139.022 299.42 143.259 298.723C144.121 298.582 144.992 298.49 145.854 298.199C145.266 295.65 144.005 293.565 141.998 291.945C139.834 290.193 137.305 289.338 134.577 288.964ZM187.147 288.092C187.123 287.693 186.981 287.585 186.642 287.718C185.133 288.316 183.541 288.565 181.94 288.765C181.559 288.815 181.369 288.89 181.311 289.321C181.12 290.8 180.987 292.286 180.979 293.773C180.979 294.105 180.97 294.437 181.069 294.761C181.567 296.314 182.405 297.685 183.342 299.022C183.433 298.939 183.491 298.914 183.516 298.872C184.453 296.995 185.705 295.367 187.347 294.064C187.628 293.84 187.678 293.606 187.596 293.275C187.496 292.843 187.455 292.402 187.396 291.97C187.222 290.683 187.23 289.379 187.147 288.092ZM149.146 286.523C148.906 286.448 148.756 286.53 148.615 286.763C148.101 287.593 147.38 288.241 146.642 288.872C145.589 289.769 144.535 290.658 143.466 291.555C145.149 293.423 146.501 295.459 146.891 297.984C147.214 297.984 147.479 297.925 147.753 297.859C149.378 297.435 151.012 297.053 152.629 296.579C154.187 296.131 155.78 295.807 157.28 295.168C157.479 295.185 157.613 295.068 157.762 294.96C158.226 294.852 158.732 294.836 159.097 294.462C159.146 294.454 159.204 294.445 159.254 294.437C159.42 294.511 159.544 294.462 159.627 294.304L159.693 294.32L159.751 294.287C160.837 293.98 161.883 293.573 162.762 292.834C163.175 292.693 163.027 292.344 163.019 292.062C162.952 290.567 162.703 289.097 162.513 287.618C162.488 287.427 162.421 287.244 162.28 287.078C159.735 287.759 157.131 287.826 154.52 287.652C153.616 287.593 152.72 287.452 151.816 287.353C150.954 286.987 150.033 286.797 149.146 286.523ZM204.063 287.41C204.229 288.116 204.353 288.765 204.527 289.404C205.116 291.497 206.062 293.349 208.159 294.437C208.051 294.13 207.96 293.847 207.844 293.573C207.089 291.796 206.326 290.026 205.563 288.249C205.182 287.361 205.182 287.361 204.063 287.41ZM202.463 290.027C198.052 288.091 193.682 288.225 189.37 290.343C189.072 290.484 188.715 290.617 188.574 290.982C188.558 290.998 188.516 291.007 188.516 291.024C188.516 291.065 188.533 291.098 188.541 291.14V293.142C193.839 290.792 199.129 290.617 204.511 292.452C204.055 291.041 203.69 290.566 202.463 290.027ZM137.23 285.16C136.783 284.978 136.335 284.853 135.879 285.135C135.398 285.11 134.992 285.368 134.577 285.542C133.441 286.016 132.504 286.797 131.435 287.577C132.098 287.577 132.621 287.552 133.135 287.585C135.755 287.735 138.251 288.374 140.589 289.578C141.202 289.894 141.791 290.252 142.338 290.675C142.603 290.882 142.811 290.891 143.052 290.642C143.516 290.177 144.005 289.728 144.478 289.279C144.245 288.864 143.947 288.573 143.657 288.291C143.284 287.926 142.877 287.594 142.454 287.286C140.887 286.149 139.113 285.517 137.23 285.16ZM200.655 286.647C198.649 286.422 196.633 286.431 194.618 286.497C192.595 286.564 190.622 286.913 188.657 287.386C188.384 287.452 188.209 287.552 188.242 287.884C188.284 288.507 188.317 289.138 188.358 289.853C193.4 286.93 198.391 287.021 203.466 289.462C203.458 288.715 203.184 288.066 203.076 287.394C203.035 287.145 202.835 287.053 202.604 286.995C201.957 286.838 201.31 286.721 200.655 286.647ZM140.042 283.997C139.321 283.798 138.59 283.79 137.869 283.997C137.629 284.08 137.297 283.915 137.14 284.272C140.332 284.895 143.118 286.256 145.29 288.789C146.152 288.15 146.949 287.436 147.62 286.589C147.894 286.249 147.861 286.165 147.446 286.007C147.007 285.841 146.567 285.683 146.128 285.533C144.138 284.869 142.14 284.255 140.042 283.997ZM176.932 218.063C174.809 218.129 172.686 218.32 170.563 218.271C169.817 218.254 169.071 218.287 168.325 218.254C167.936 218.237 167.645 218.329 167.388 218.636C166.998 219.093 166.476 219.317 165.896 219.467C165.382 219.6 164.859 219.591 164.337 219.616C163.698 219.65 163.69 219.649 163.682 220.28C163.673 221.858 163.681 223.437 163.689 225.015C163.698 227.473 163.806 229.932 164.005 232.39C164.03 232.689 164.096 233.012 163.872 233.286C163.665 232.373 163.491 231.459 163.416 230.537C163.176 227.647 163.051 224.74 163.076 221.842C163.076 221.319 163.093 220.787 163.085 220.264C163.077 219.633 163.067 219.599 162.438 219.608C161.003 219.632 159.577 219.467 158.143 219.392C157.421 219.359 157.413 219.334 157.413 220.024C157.421 221.792 157.388 223.57 157.463 225.33C157.538 227.207 157.704 229.075 158.218 230.902C158.408 231.592 158.731 232.182 159.204 232.705C160.39 234.001 161.973 234.707 163.499 235.421C164.486 235.886 165.589 236.168 166.65 236.509C167.206 236.692 167.504 237.016 167.72 237.547C168.615 239.748 169.394 241.998 170.157 244.24C171.956 249.547 173.698 254.879 175.356 260.244C176.492 263.915 177.563 267.603 178.591 271.299C179.121 273.192 179.337 275.078 178.848 277.021C178.649 277.818 178.814 278.599 179.304 279.305C179.834 280.077 180.324 280.883 180.788 281.696C181.551 283.05 181.766 284.562 181.924 286.073C181.99 286.688 181.999 286.705 182.546 286.613C183.491 286.456 184.436 286.298 185.373 286.115C188.126 285.567 190.87 284.944 193.689 284.786C195.621 284.678 197.546 284.662 199.478 284.786C200.597 284.853 201.725 284.787 202.91 285.044C202.811 282.968 202.72 281.066 202.637 279.155C202.587 278.009 202.446 276.904 201.617 275.999C201.269 275.617 201.037 275.128 201.012 274.571C200.962 273.467 200.887 272.362 200.846 271.257C200.796 269.679 200.788 268.109 200.729 266.531C200.63 263.683 200.539 260.843 200.382 257.994C200.241 255.345 200.042 252.696 199.893 250.055C199.702 246.741 199.295 243.452 199.071 240.147C199.046 239.74 198.872 239.598 198.508 239.474C197.571 239.142 196.924 238.477 196.634 237.514C196.402 236.741 196.269 235.952 196.468 235.147C197.015 232.954 197.106 230.72 197.048 228.478C197.031 227.705 197.048 226.925 197.073 226.152C197.09 225.546 197.097 225.504 196.525 225.604C195.373 225.795 194.212 225.795 193.06 225.745C190.191 225.629 187.612 224.699 185.34 222.93C183.997 221.884 182.993 220.538 182.023 219.168C181.766 218.803 181.559 218.636 181.169 218.894C180.895 219.068 180.605 219.077 180.307 219.085C179.842 219.102 179.369 219.126 178.905 219.176C178.449 219.217 178.043 219.118 177.919 218.645C177.77 218.072 177.412 218.054 176.932 218.063ZM143.599 216.543C143.342 216.427 143.184 216.386 143.002 216.701C142.115 218.221 140.912 219.475 139.61 220.646C138.889 221.293 138.176 221.942 137.446 222.581C137.181 222.814 137.031 223.063 137.031 223.437C137.015 224.873 136.974 226.311 136.924 227.747C136.882 229.076 137.048 230.396 137.031 231.725C137.015 233.17 137.198 234.599 137.272 236.027C137.314 236.8 137.347 237.572 137.43 238.344C137.629 240.188 137.828 242.023 138.035 243.859C138.267 245.893 138.491 247.92 138.748 249.946C139.096 252.712 139.486 255.478 139.851 258.243C140.29 261.582 140.721 264.929 141.152 268.268C141.318 269.571 141.194 270.759 140.249 271.83C139.727 272.42 139.179 273.068 139.179 273.989C139.179 275.069 139.287 276.116 139.734 277.112C139.917 277.511 139.95 277.926 139.784 278.317C139.453 279.097 139.121 279.878 138.657 280.592C138.392 280.974 138.059 281.331 137.96 281.788C138.093 281.929 138.242 281.971 138.416 281.971C139.212 281.963 139.983 282.104 140.763 282.312C142.462 282.76 144.179 283.126 145.846 283.724C148.565 284.695 151.285 285.725 154.221 285.941C156.028 286.073 157.803 285.916 159.569 285.592C159.826 285.542 160.141 285.475 160.216 285.152C160.614 283.574 161.136 282.029 161.269 280.385C161.401 278.716 161.012 277.145 160.448 275.601C160.208 274.945 160.091 274.272 160.091 273.574C160.091 272.935 160.191 272.304 160.249 271.673C160.423 269.663 160.622 267.653 160.805 265.652C161.012 263.476 161.211 261.308 161.418 259.132C161.551 257.728 161.667 256.325 161.8 254.921C161.941 253.493 162.106 252.064 162.23 250.636C162.38 248.933 162.455 247.214 162.629 245.512C162.878 243.062 162.944 240.603 163.085 238.153C163.118 237.605 162.976 237.331 162.454 237.09C160.829 236.326 159.229 235.52 157.646 234.673C156.501 234.067 155.398 233.386 154.278 232.722C154.121 232.631 153.889 232.555 153.872 232.174C156.509 233.212 159.055 234.208 161.608 235.213C160.987 234.599 160.233 234.208 159.569 233.685C158.475 232.813 157.712 231.75 157.396 230.355C156.94 228.345 156.8 226.31 156.767 224.267C156.742 222.772 156.75 221.277 156.758 219.782C156.758 219.367 156.675 219.126 156.211 219.027C155.498 218.877 154.851 218.519 154.378 217.963C154.096 217.631 153.756 217.532 153.375 217.474C151.609 217.191 149.834 216.917 148.068 216.643C147.878 216.61 147.67 216.552 147.529 216.735C146.932 217.482 146.169 217.29 145.398 217.141C144.768 217.016 144.179 216.801 143.599 216.543ZM163.748 237.73C163.773 240.146 163.549 242.513 163.392 244.88C163.276 246.674 163.11 248.46 162.952 250.245C162.778 252.255 162.587 254.265 162.413 256.267C162.28 257.753 162.164 259.24 162.023 260.727C161.824 262.786 161.609 264.846 161.41 266.905C161.253 268.475 161.078 270.037 160.962 271.607C160.862 273.01 160.73 274.413 161.285 275.783C161.517 276.365 161.659 276.988 161.8 277.611C162.015 278.607 162.114 279.612 161.981 280.651C161.791 282.162 161.418 283.632 161.02 285.094C160.97 285.144 160.929 285.201 161.012 285.251C161.02 285.276 161.07 285.226 161.111 285.201C161.584 285.135 161.982 284.87 162.413 284.679C162.91 284.455 163.175 284.097 163.25 283.54C163.366 282.718 163.54 281.913 163.706 281.099C164.054 279.421 164.104 277.751 163.532 276.115C163.267 275.36 163.142 274.571 162.993 273.799C162.869 273.143 162.86 272.47 162.977 271.814C163.433 269.231 163.706 266.623 164.038 264.024C164.419 261.042 164.701 258.044 165.107 255.063C165.646 251.126 165.97 247.164 166.509 243.219C166.575 242.754 166.683 242.281 166.65 241.824C166.576 240.803 166.302 239.814 166.012 238.834C165.954 238.643 165.837 238.477 165.646 238.402C165.041 238.17 164.477 237.804 163.748 237.73ZM201.476 238.984C200.92 239.382 200.306 239.665 199.444 239.706C199.768 240.146 199.81 240.528 199.843 240.91C200.017 243.028 200.174 245.154 200.39 247.264C200.746 250.835 200.92 254.423 201.136 258.011C201.31 261.017 201.385 264.032 201.468 267.038C201.534 269.189 201.534 271.349 201.658 273.5C201.708 274.33 201.866 275.069 202.413 275.717C202.844 276.223 203.101 276.838 203.209 277.511C203.441 279.014 203.458 280.534 203.516 282.054C203.549 282.909 203.607 283.765 203.648 284.62C203.665 284.894 203.798 285.027 204.063 285.011C204.336 285.002 204.336 284.794 204.345 284.595C204.361 284.13 204.37 283.656 204.411 283.192C204.502 282.004 204.776 280.85 205.066 279.695C205.589 277.636 205.498 275.701 204.08 273.982C203.599 273.4 203.483 272.702 203.475 271.963C203.45 270.111 203.45 268.259 203.408 266.407C203.317 262.454 203.234 258.509 203.019 254.556C202.886 252.156 202.778 249.756 202.646 247.356C202.604 246.583 202.454 245.869 201.924 245.221C201.418 244.598 201.227 243.792 201.186 242.97C201.119 241.774 201.285 240.603 201.575 239.441C201.608 239.299 201.757 239.133 201.476 238.984ZM218.549 190.432C215.804 191.769 212.976 192.749 210.074 193.529C207.172 194.302 204.221 194.784 201.194 195.033C201.543 197.168 201.874 199.236 202.206 201.304C202.496 203.554 202.795 205.797 203.068 208.047C203.392 210.738 203.689 213.429 203.673 216.145C203.665 216.834 203.533 217.457 203.185 218.038C202.613 218.985 202.073 219.948 201.484 220.878C199.776 223.569 198.69 226.418 198.798 229.691C198.864 231.542 198.541 233.378 198.002 235.163C197.869 235.587 197.777 236.027 197.777 236.467C197.777 237.621 198.648 238.294 199.768 238.045C200.563 237.871 201.161 237.397 201.65 236.775C202.529 235.645 203.043 234.349 203.333 232.945C203.598 231.652 203.706 230.325 204.201 229.081C204.66 228.854 204.676 229.136 204.701 229.491C204.925 232.763 204.776 236.011 203.922 239.192C203.623 240.313 203.234 241.409 202.952 242.53C202.687 243.585 203.409 244.457 204.486 244.498C205.224 244.523 205.822 244.191 206.344 243.718C206.858 243.253 207.289 242.712 207.646 242.114C208.4 240.861 209.046 239.548 209.461 238.137C209.808 236.944 210.147 235.758 210.486 234.565C210.848 234.533 211.078 234.642 211.062 235.064C211.053 235.23 211.061 235.396 211.045 235.562C210.713 238.161 210.066 240.661 208.748 242.953C208.466 243.443 208.15 243.926 207.827 244.457C208.648 244.615 209.312 244.399 209.959 244.067C211.153 243.46 212.015 242.513 212.695 241.367C213.931 239.3 214.527 236.999 215.107 234.698C215.207 234.607 215.299 234.524 215.448 234.524C215.771 235.072 215.622 235.653 215.547 236.218C215.315 238.003 214.743 239.698 213.98 241.325C213.889 241.516 213.69 241.708 213.789 241.99C215.157 241.168 216.177 239.847 216.476 238.543L216.468 238.552C216.683 238.311 216.824 238.045 216.824 237.704L216.783 237.721C216.949 237.455 217.089 237.181 217.064 236.85C217.081 236.8 217.09 236.758 217.09 236.708C217.28 236.65 217.28 236.475 217.33 236.318C217.753 235.138 217.935 233.884 218.433 232.722H218.425C218.698 232.672 218.864 232.796 218.872 233.062C218.88 233.336 218.873 233.619 218.831 233.893C218.615 235.628 218.151 237.298 217.479 238.917C217.405 239.1 217.197 239.266 217.354 239.557C218.358 238.784 219.03 237.796 219.527 236.675C220.365 234.781 220.755 232.771 220.862 230.72C221.086 226.601 220.704 222.548 219.328 218.628C219.162 218.146 219.113 217.673 219.154 217.166C219.353 214.633 219.585 212.1 219.685 209.559C219.817 206.187 219.784 202.815 219.544 199.444C219.378 197.185 219.245 194.917 218.839 192.683C218.748 191.952 218.773 191.204 218.549 190.432ZM210.486 234.565C210.485 234.565 210.483 234.565 210.481 234.566L210.489 234.557C210.489 234.559 210.487 234.562 210.486 234.565ZM204.201 229.081C204.199 229.082 204.197 229.083 204.195 229.084L204.204 229.075C204.203 229.077 204.202 229.079 204.201 229.081ZM183.632 217.889C183.449 217.615 183.225 217.607 183.026 217.839C182.794 218.08 182.587 218.337 182.28 218.495C182.753 219.126 183.159 219.716 183.615 220.264C185.207 222.199 187.098 223.694 189.544 224.433C191.832 225.122 194.154 225.156 196.501 224.89C196.981 224.832 197.048 224.707 197.007 224.151C196.974 223.653 196.667 223.777 196.36 223.819C194.826 224.034 193.292 224.076 191.758 223.835C188.566 223.328 186.186 221.584 184.37 218.985C184.113 218.619 183.872 218.254 183.632 217.889ZM194.9 215.68C194.809 215.29 194.643 215.273 194.32 215.364C193.184 215.697 192.048 216.012 190.896 216.253C188.748 216.71 186.575 217.067 184.262 217.474C185.282 219.442 186.617 220.979 188.466 222.033C190.82 223.379 193.358 223.628 195.986 223.254C196.608 223.163 196.65 223.146 196.509 222.531C195.978 220.248 195.423 217.972 194.9 215.68ZM197.695 214.542C197.637 214.31 197.529 214.209 197.28 214.309C196.659 214.558 196.028 214.799 195.456 215.031C196.335 217.805 196.841 220.613 197.554 223.361C197.62 223.361 197.687 223.354 197.753 223.354C198.143 222.565 198.524 221.775 198.914 220.986C199.055 220.696 199.005 220.397 198.947 220.098C198.682 218.802 198.417 217.506 198.135 216.219C198.01 215.654 197.836 215.098 197.695 214.542ZM137.687 217.581C137.57 218.702 137.305 219.816 137.371 221.078C139.278 219.359 141.136 217.797 142.687 215.787C141.012 215.422 139.552 214.816 138.043 214.152C137.919 215.339 137.811 216.46 137.687 217.581ZM159.81 207.864C158.848 207.815 157.886 207.773 156.924 207.981C156.675 208.03 156.443 208.097 156.302 208.272C155.846 208.828 155.432 209.41 155.315 210.149C154.992 212.15 154.926 214.159 154.992 216.186C155.017 216.916 155.423 217.423 156.086 217.714C156.567 217.93 157.09 218.021 157.604 218.079C159.693 218.287 161.783 218.371 163.881 218.412C164.295 218.421 164.702 218.387 165.116 218.313C166.045 218.138 166.584 217.598 166.758 216.685C166.808 216.419 166.858 216.136 166.866 215.862C166.883 214.99 166.874 214.135 166.874 213.279H166.882C166.882 212.399 166.915 211.51 166.874 210.63C166.799 208.911 166.128 208.247 164.437 208.139C162.894 208.039 161.352 207.939 159.81 207.864ZM181.294 208.163C180.979 207.889 180.465 208.155 180.025 208.147C179.719 208.147 179.42 208.138 179.113 208.147C178.467 208.18 178.466 208.18 178.466 208.803C178.466 208.944 178.466 209.077 178.482 209.218C178.698 211.086 178.765 212.955 178.814 214.832C178.831 215.688 178.881 216.544 178.931 217.391C178.964 217.914 179.022 217.964 179.536 217.889C180.05 217.814 180.564 217.722 181.078 217.614C181.932 217.44 181.948 217.432 181.915 216.535C181.874 215.157 181.816 213.777 181.741 212.399C181.691 211.41 181.659 210.414 181.534 209.426C181.484 209.003 181.625 208.446 181.294 208.163ZM199.52 204.916C199.312 205.099 199.246 205.273 199.354 205.564C199.909 207.067 199.983 208.637 200.033 210.215C200.058 210.888 199.983 211.543 199.718 212.166C199.61 212.415 199.619 212.632 199.727 212.881C200.323 214.259 200.688 215.696 201.012 217.157C201.045 217.323 201.012 217.548 201.261 217.614C201.849 216.751 201.816 215.787 201.758 214.816C201.534 211.186 201.095 207.599 200.622 203.878C200.199 204.277 199.868 204.601 199.52 204.916ZM176.471 209.826C175.229 209.844 173.987 210.09 172.736 210.002C171.197 209.897 169.667 210.231 168.128 210.16C167.647 210.134 167.542 210.389 167.551 210.811C167.568 211.628 167.56 212.454 167.56 213.271C167.56 214.088 167.559 214.905 167.542 215.722C167.551 216.468 167.551 216.469 168.25 216.495C170.961 216.609 173.654 216.328 176.356 216.311C176.557 216.311 176.75 216.205 176.951 216.196C177.415 216.179 177.528 215.924 177.511 215.502C177.441 213.868 177.633 212.225 177.354 210.6C177.222 209.835 177.266 209.818 176.471 209.826ZM145.273 206.943C144.635 206.835 144.594 206.852 144.503 207.499C144.238 209.526 144.013 211.552 143.988 213.604V215.348C143.988 215.622 144.088 215.837 144.37 215.903C144.926 216.045 145.473 216.236 146.062 216.277C146.36 216.294 146.542 216.219 146.518 215.87C146.501 215.596 146.509 215.314 146.518 215.04C146.592 212.582 146.642 210.132 147.064 207.698C147.122 207.35 147.023 207.241 146.741 207.192C146.252 207.1 145.762 207.026 145.273 206.943ZM148.876 208.565C148.553 208.538 148.394 208.688 148.386 209.022C148.342 210.33 148.132 211.631 148.202 212.948C148.228 213.326 148.203 213.704 148.115 214.082C147.94 214.829 148.133 215.101 148.902 215.224C150.669 215.505 152.417 215.901 154.21 216.015C154.402 215.743 154.324 215.443 154.315 215.162C154.307 213.493 154.403 211.841 154.656 210.198C154.761 209.531 154.577 209.347 153.852 209.268C152.33 209.092 150.8 208.951 149.305 208.609C149.165 208.573 149.025 208.573 148.876 208.565ZM198.307 206.154C198.088 205.988 198.001 206.04 197.931 206.067C196.26 206.91 194.476 207.41 192.666 207.815C189.71 208.482 186.728 209.062 183.693 209.281C183.222 209.317 183.081 209.51 183.125 209.932C183.177 210.415 183.292 210.916 183.274 211.4C183.213 212.629 183.527 213.833 183.475 215.063C183.457 215.554 183.598 215.678 184.044 215.546C184.665 215.37 185.303 215.388 185.933 215.291C187.961 214.975 189.99 214.685 191.983 214.185C193.811 213.728 195.64 213.279 197.345 212.444C197.721 212.26 198.201 212.146 198.298 211.637C198.604 210.02 198.499 208.385 198.411 206.76C198.402 206.532 198.394 206.234 198.307 206.154ZM136.71 205.602C136.387 205.576 136.229 205.725 136.221 206.059C136.177 207.368 135.967 208.668 136.037 209.986C136.063 210.363 136.037 210.742 135.949 211.119C135.775 211.866 135.967 212.138 136.736 212.261C138.503 212.542 141.252 213.938 143.045 214.052C143.237 213.78 143.158 213.48 143.149 213.199C143.141 211.53 143.238 209.878 143.491 208.236C143.596 207.568 143.412 207.384 142.687 207.305C141.165 207.129 138.634 205.988 137.139 205.646C136.999 205.611 136.859 205.61 136.71 205.602ZM176.717 208.139C176.443 208.147 176.161 208.138 175.888 208.163C173.691 208.363 171.484 208.255 169.287 208.305C168.798 208.313 168.308 208.305 167.803 208.305C167.985 208.977 167.985 208.986 168.449 208.986C171.177 208.969 173.898 208.977 176.617 208.786H176.7C176.932 208.778 177.156 208.761 177.123 208.429C177.098 208.164 176.924 208.139 176.717 208.139ZM194.544 206.021C190.489 206.685 186.426 207.325 182.347 207.815C182.471 208.678 182.471 208.687 183.168 208.604C183.441 208.57 183.707 208.504 183.98 208.471C186.526 208.197 189.038 207.74 191.525 207.125C192.57 206.876 193.582 206.56 194.544 206.021ZM144.776 206.278C144.984 206.569 145.216 206.552 145.423 206.611C146.451 206.876 147.504 207.018 148.549 207.234C150.439 207.624 152.363 207.79 154.271 208.089C154.561 208.13 154.826 208.088 155.033 207.706C151.584 207.308 148.217 206.835 144.776 206.278ZM190.497 136.1C188.151 135.203 185.812 135.668 183.482 136.199C183.217 136.257 183.226 136.432 183.226 136.631C183.25 137.985 183.267 139.331 183.309 140.685C183.317 141.009 183.342 141.349 183.665 141.557C183.765 142.054 184.005 141.889 184.188 141.64C184.594 141.1 184.967 140.535 185.349 139.979C185.523 139.721 185.688 139.464 186.053 139.713C186.078 140.386 185.887 141.017 185.663 141.64C185.099 143.176 184.295 144.571 183.425 145.942C183.284 146.166 183.06 146.365 183.102 146.672C182.977 146.697 182.853 146.681 182.762 146.838C182.579 147.145 182.371 147.428 182.147 147.71C180.34 150.011 178.54 152.312 176.725 154.596C175.647 155.949 174.519 157.27 173.433 158.623C172.28 160.052 171.128 161.481 170.017 162.943C168.458 164.994 166.957 167.078 165.406 169.129C163.764 171.313 162.429 173.656 161.509 176.238C160.771 178.315 160.448 180.466 160.1 182.617C159.221 188.123 158.4 193.646 157.62 199.169C157.255 201.769 157.886 204.036 159.511 206.063C159.685 206.278 159.843 206.461 160.166 206.478C162.703 206.577 165.232 206.735 167.77 206.81C173.234 206.967 178.69 206.726 184.138 206.253C185.895 206.104 187.654 205.946 189.387 205.597C189.677 205.638 189.951 205.58 190.216 205.464C192.454 205.19 194.677 204.783 196.833 204.111C197.645 203.853 198.392 203.437 199.03 202.831C199.677 202.217 199.991 201.511 199.867 200.614C199.635 198.895 199.42 197.167 199.221 195.44C199.179 195.116 199.062 195.033 198.756 195.033C197.844 195.042 196.948 194.9 196.069 194.651C195.373 194.46 194.792 194.119 194.651 193.322C194.676 193.231 194.659 193.148 194.585 193.081C194.585 192.998 194.602 192.915 194.594 192.832C194.229 187.226 194.395 181.629 194.826 176.031C195.174 171.455 196.542 167.228 198.905 163.308C199.146 162.909 199.378 162.51 199.527 162.07C199.701 162.046 199.826 162.104 199.876 162.286C199.735 162.643 199.594 163.001 199.453 163.358C198.184 166.547 197.23 169.819 196.741 173.216C196.327 176.089 196.169 178.98 196.086 181.878C196.02 184.162 195.986 186.454 196.086 188.746C196.094 188.829 196.094 188.912 196.103 188.995C196.136 190.075 196.169 191.146 196.211 192.226C196.236 192.84 196.294 192.924 196.932 192.99C197.669 193.073 198.416 193.131 199.162 193.14C204.378 193.19 209.403 192.16 214.254 190.291C217.04 189.22 219.751 187.999 222.131 186.163C223.864 184.818 223.748 184.776 223.109 182.907C222.529 181.205 221.617 179.652 220.729 178.099C219.428 175.815 218.392 173.406 217.546 170.923C217.098 169.619 216.692 168.307 216.261 166.995C216.286 166.887 216.261 166.779 216.194 166.688C215.564 164.113 214.975 161.53 214.262 158.972C212.902 154.13 210.165 150.327 205.846 147.702C204.785 147.055 203.673 146.498 202.579 145.908C201.501 145.335 200.282 145.086 199.237 144.43C199.146 144.372 199.03 144.322 198.922 144.33C198.466 144.363 198.077 144.122 197.729 143.906C197.372 143.682 196.998 143.583 196.551 143.434C196.741 144.962 196.882 146.448 196.932 147.935C196.973 149.18 197.015 150.418 197.064 151.664V151.98C197.056 152.279 197.04 152.586 197.031 152.885C196.998 154.488 197.023 156.09 196.882 157.685C196.832 158.208 196.724 158.715 196.492 159.189C196.227 159.744 196.044 159.819 195.456 159.587C194.934 159.388 194.511 159.022 194.071 158.698C193.118 158.001 192.239 157.195 191.202 156.606C190.05 155.667 188.773 154.911 187.43 154.272C185.299 153.267 183.118 153.325 180.912 153.956C180.274 154.139 180.274 154.172 180.282 154.819C180.291 155.65 180.382 156.472 180.522 157.286C180.589 158.308 180.663 159.321 180.729 160.343C180.796 161.381 180.439 162.22 179.635 162.893C178.532 163.814 177.371 164.661 176.169 165.442C173.715 167.028 171.194 168.506 168.689 170.018C167.67 170.632 166.633 171.198 165.539 171.654C165.299 171.754 165.058 171.928 164.693 171.837C164.901 171.596 164.926 171.297 165.183 171.098C166.385 170.159 167.612 169.253 168.897 168.423C170.058 167.667 171.194 166.879 172.338 166.107C172.462 166.082 172.629 166.114 172.679 165.932V165.965C172.769 165.94 172.835 165.89 172.86 165.791C173.3 165.808 173.582 165.484 173.905 165.284C175.53 164.296 177.131 163.266 178.632 162.087C179.419 161.473 179.685 160.757 179.577 159.777C179.403 158.208 179.295 156.638 179.195 155.069C179.104 153.649 179.494 153.109 180.829 152.669C180.937 152.636 181.037 152.602 181.145 152.577C183.574 152.013 185.954 152.046 188.275 153.075C190.522 154.072 192.488 155.476 194.354 157.054C194.66 157.32 194.959 157.61 195.332 157.793C195.572 157.469 195.498 157.129 195.506 156.805C195.597 152.96 195.497 149.114 195.141 145.285C194.975 143.442 194.784 141.598 194.328 139.796C194.245 139.464 194.253 139.065 193.889 138.858C193.806 138.409 193.524 138.085 193.217 137.77C192.437 136.997 191.5 136.482 190.497 136.1ZM140.713 205.564C141.774 206.004 142.753 206.37 143.789 206.511C143.349 206.112 141.393 205.547 140.713 205.564ZM153.226 154.753C151.974 154.379 150.133 154.496 149.138 154.978C148.972 154.986 148.806 154.936 148.648 155.027C147.596 155.268 146.625 155.7 145.663 156.182C145.547 156.149 145.506 156.216 145.473 156.307C145.382 156.315 145.34 156.373 145.332 156.464C145.2 156.481 145.034 156.448 144.926 156.514C143.682 157.253 142.388 157.918 141.211 158.765C141.037 158.889 140.804 159.006 140.986 159.279C141.359 159.844 141.227 160.459 141.136 161.049C140.812 163.225 140.422 165.401 140.091 167.576C139.867 169.046 139.561 170.5 139.503 171.994V172.003C139.403 172.111 139.387 172.244 139.37 172.385C138.765 177.434 138.367 182.509 138.019 187.583C137.878 189.618 137.811 191.67 137.197 193.638C136.75 195.091 136.261 196.528 135.755 197.965C135.282 199.327 135.655 200.448 136.642 201.437C137.554 202.35 138.641 202.94 139.859 203.347C142.72 204.302 145.664 204.875 148.632 205.373C151.658 205.88 154.693 206.212 157.753 206.444C157.894 206.453 158.069 206.527 158.185 206.369C158.168 206.179 158.027 206.071 157.936 205.946C156.551 204.153 156.012 202.126 156.211 199.875C156.31 198.746 156.451 197.624 156.608 196.503C157.272 191.852 157.902 187.193 158.756 182.575C159.228 180.026 159.685 177.459 160.605 175.018C160.912 174.187 161.277 173.382 161.634 172.576C161.758 172.286 161.774 172.077 161.492 171.861C161.078 171.538 160.713 171.155 160.307 170.823C157.761 168.731 155.381 166.463 153.325 163.889C152.496 162.851 151.716 161.787 151.252 160.517C150.929 159.628 150.953 158.789 151.426 157.967C151.633 157.61 151.816 157.237 152.007 156.871V156.862C152.521 156.223 152.911 155.509 153.226 154.753ZM161.203 192.858C162.422 192.8 163.4 193.804 163.392 195.033C163.383 196.453 162.413 197.482 161.194 197.516C160.009 197.549 159.113 196.561 159.113 195.307C159.196 193.945 159.877 192.916 161.203 192.858ZM161.252 193.979C160.614 193.996 160.067 194.634 160.075 195.34C160.083 195.988 160.572 196.486 161.161 196.444C161.791 196.403 162.38 195.73 162.363 195.074C162.347 194.468 161.84 193.962 161.252 193.979ZM110.921 140.901C110.39 140.087 109.536 139.97 108.798 140.61C108.35 141 108.06 141.49 107.886 142.063C107.562 143.142 107.562 144.239 107.653 145.352C107.827 147.353 108.483 149.239 109.063 151.141C109.196 151.572 109.278 151.995 109.195 152.443C109.109 152.472 109.078 152.541 109.055 152.627C108.367 152.768 107.844 152.395 107.313 152.063C106.294 151.423 105.29 150.767 104.278 150.119H104.271C101.957 148.342 99.6683 146.531 97.2969 144.837C96.244 144.081 95.1577 143.384 93.9971 142.794C93.6074 142.595 93.2006 142.421 92.7529 142.362C91.6335 142.221 90.8297 143.002 90.9209 144.131C90.9872 144.928 91.3102 145.618 91.791 146.24C92.4862 147.144 93.3554 147.857 94.2656 148.528C94.563 148.843 94.8776 149.148 95.2656 149.355L95.2695 149.35C96.3876 150.312 97.506 151.266 98.624 152.229C98.6406 152.262 98.6652 152.279 98.6982 152.295C99.2619 152.959 99.2622 152.96 98.8643 153.74C98.8312 153.807 98.8056 153.89 98.7725 153.956C98.5904 154.072 98.5154 154.264 98.4326 154.446L98.4414 154.438C98.2429 154.694 97.978 154.91 97.9189 155.257C97.7265 155.414 97.6851 155.628 97.5869 155.8L97.5957 155.791C97.4056 156.056 97.1321 156.272 97.0811 156.618C96.9284 156.702 96.8236 156.832 96.7666 156.995C96.6506 156.987 96.5835 156.912 96.542 156.813C96.6 156.68 96.6588 156.547 96.7168 156.406C97.0899 155.725 97.5121 155.069 97.8105 154.355C98.0592 154.089 98.2175 153.773 98.3584 153.416C95.8295 151.581 93.2088 149.911 90.373 148.608C89.9006 148.392 89.4031 148.217 88.8975 148.084C88.0684 147.86 87.2304 147.71 86.3682 147.826C85.1576 147.984 84.5023 148.957 84.7842 150.152C84.9749 150.941 85.4315 151.539 86.0781 152.004C86.7082 152.452 87.3964 152.793 88.0762 153.175C90.7128 154.661 93.3748 156.115 95.7627 158C95.8207 158.1 95.8707 158.2 95.9287 158.3C95.1257 159.975 94.5454 161.749 93.8008 163.449C93.6404 163.478 93.495 163.439 93.3418 163.374C91.6918 162.751 90.0328 162.153 88.3828 161.538C87.3963 161.173 86.401 160.858 85.3564 160.725C84.0879 160.567 83.0931 161.722 83.4248 162.943C83.5575 163.432 83.8391 163.839 84.1953 164.204C84.6596 164.686 85.2326 165.026 85.8047 165.359C87.264 166.197 88.8148 166.862 90.3818 167.46C91.4843 167.884 92.4459 168.474 93.2832 169.304C95.2151 171.23 97.4545 172.742 99.9502 173.838C101.799 174.652 103.673 175.383 105.729 175.392C106.069 175.392 106.195 175.566 106.344 175.823C106.916 176.828 107.421 177.875 108.109 178.805L108.126 178.847C108.224 179.059 108.331 179.27 108.516 179.411C108.532 179.461 108.549 179.519 108.574 179.561C111.004 183.007 113.765 186.146 117.031 188.82C119.071 190.49 121.31 191.835 123.872 192.558C125.215 192.94 126.576 193.09 127.936 192.633C128.176 192.666 128.375 192.525 128.599 192.467C130.978 191.819 132.927 190.49 134.561 188.654C134.834 188.347 134.9 188.015 134.834 187.592C134.56 185.715 133.963 183.945 133.143 182.251C132.33 180.582 131.418 178.979 130.083 177.658C129.768 177.351 129.494 176.986 128.972 177.044C128.905 176.936 128.839 176.828 128.772 176.72C128.681 176.33 128.375 176.072 128.143 175.781C126.617 173.93 124.917 172.236 123.109 170.666C121.617 169.371 120.149 168.041 118.532 166.887C118.284 166.513 117.918 166.256 117.57 165.99C116.882 165.476 116.783 164.861 116.924 164.03C117.546 160.493 117.355 157.037 115.763 153.74C115.273 152.719 114.842 151.672 114.378 150.642C113.184 147.993 112.413 145.194 111.559 142.42C111.393 141.889 111.219 141.365 110.921 140.901ZM135.771 190.225C135.622 190.407 135.473 190.606 135.315 190.78C135.216 190.897 135.15 191.014 135.266 191.13C135.332 191.196 135.464 191.23 135.563 191.23C135.754 191.238 135.755 191.071 135.771 190.939C135.805 190.731 135.829 190.515 135.862 190.299C135.829 190.274 135.804 190.249 135.771 190.225ZM142.404 150.75C142.139 150.734 142.015 150.908 141.874 151.016C138.881 153.233 136.667 156.099 135.033 159.438C134.61 160.301 134.204 161.182 133.765 162.045C133.358 162.834 132.869 163.574 132.14 164.097C131.335 164.678 130.522 165.243 129.701 165.799C128.242 166.795 126.808 167.826 125.481 168.996C125.034 169.395 125.041 169.387 125.456 169.777C127.844 172.003 130.108 174.345 131.974 177.044C133.789 179.668 135.29 182.459 136.119 185.573C136.161 185.731 136.145 185.939 136.36 186.064C136.393 185.898 136.426 185.765 136.435 185.632C136.6 183.149 136.932 180.682 137.147 178.207C137.255 177.227 137.471 176.238 137.33 175.234L137.388 175.193L137.38 175.117C137.521 174.86 137.496 174.578 137.513 174.304C137.679 171.679 138.044 169.08 138.541 166.505C138.947 164.445 139.328 162.377 139.627 160.301C139.693 159.836 139.8 159.379 139.312 159.03C139.08 158.864 139.039 158.565 139.097 158.275C139.196 157.785 139.279 157.303 139.444 156.829C139.95 155.401 140.548 154.006 141.311 152.686C141.675 152.055 142.031 151.414 142.404 150.75ZM162.016 178.481C162.463 177.385 163.326 176.87 164.337 177.069C165.224 177.244 165.879 178.166 165.871 179.245C165.871 180.233 165.241 181.081 164.37 181.404C163.259 181.811 161.535 180.873 161.809 179.104C161.842 178.888 161.933 178.68 162.016 178.481ZM163.864 177.942C163.176 177.95 162.555 178.589 162.571 179.278C162.58 179.968 163.102 180.483 163.773 180.466C164.403 180.449 165.083 179.718 165.059 179.096C165.017 178.49 164.453 177.933 163.864 177.942ZM158.508 138.284C158.226 138.251 157.952 138.334 157.703 138.45C157.206 138.683 156.691 138.882 156.269 139.239C155.945 139.331 155.664 139.489 155.432 139.73C155.225 139.771 155.05 139.871 154.926 140.053C154.719 140.103 154.544 140.203 154.428 140.386C154.154 140.477 153.93 140.643 153.756 140.875C153.482 140.975 153.259 141.141 153.102 141.382C153.002 141.382 152.936 141.432 152.919 141.531C152.662 141.515 152.546 141.698 152.446 141.889C152.347 141.897 152.281 141.939 152.272 142.038C151.999 142.138 151.791 142.321 151.617 142.553C151.526 142.569 151.468 142.62 151.451 142.711C151.368 142.719 151.311 142.761 151.294 142.861C151.195 142.869 151.136 142.918 151.119 143.018C151.02 143.026 150.962 143.085 150.945 143.176C150.605 143.384 150.274 143.608 150.133 144.015C149.917 143.99 149.784 144.115 149.644 144.256C148.582 145.302 147.579 146.407 146.7 147.603C144.602 150.443 142.703 153.424 141.186 156.63C141.111 156.788 140.904 156.929 141.095 157.17C141.385 156.971 141.684 156.763 141.974 156.564C143.333 155.617 144.76 154.811 146.311 154.222C148.01 153.583 149.751 153.242 151.575 153.333C152.272 153.366 152.952 153.458 153.574 153.79C154.345 154.197 154.552 154.712 154.212 155.501C153.971 156.057 153.657 156.581 153.375 157.12C153.018 157.834 152.471 158.433 152.189 159.189L152.156 159.196L152.173 159.23C152.065 159.703 152.288 160.094 152.504 160.476C152.952 161.265 153.491 161.987 154.055 162.693C154.9 163.747 155.813 164.736 156.7 165.749C158.218 167.476 159.917 168.997 161.725 170.408C161.841 170.5 161.974 170.682 162.147 170.517C162.28 170.384 162.421 170.217 162.371 170.01C162.33 169.852 162.247 169.702 162.181 169.553C161.219 167.277 160.141 165.051 159.271 162.742C157.413 157.818 156.675 152.719 156.882 147.47C156.915 146.698 157.024 145.934 157.289 145.211C157.538 144.796 157.786 144.388 158.026 143.973C158.383 143.616 158.74 143.259 159.104 142.91C160.058 142.304 161.087 141.897 162.272 141.83C162.115 140.875 162.139 139.97 161.915 139.081C161.832 138.75 161.7 138.699 161.451 138.666C160.473 138.542 159.486 138.409 158.508 138.284ZM175.696 153.707C175.431 153.757 175.299 153.889 175.166 154.014C173.068 155.426 170.746 156.281 168.242 156.58C164.851 156.987 161.7 156.381 158.98 154.147C158.881 154.064 158.797 153.931 158.549 153.981C159.245 159.346 161.261 164.263 163.541 169.254C164.271 168.05 165.075 167.036 165.821 165.982C167.679 163.374 169.636 160.849 171.617 158.333C172.737 156.905 174.038 155.609 175.249 154.255C175.431 154.122 175.597 153.973 175.696 153.707ZM108.026 154.67C108.076 155.044 107.902 155.368 107.811 155.708C107.073 158.524 106.898 161.356 107.661 164.196C107.727 164.454 107.761 164.728 107.853 164.986C107.918 165.184 107.678 165.085 107.562 165.076C105.655 161.754 105.795 158.432 107.595 155.118C107.694 154.936 107.753 154.687 108.026 154.67ZM93.7979 163.457C93.7989 163.455 93.7997 163.452 93.8008 163.449C93.8051 163.449 93.8101 163.449 93.8145 163.448L93.7979 163.457ZM85.498 153.632C84.4699 153.491 83.6403 153.998 83.3418 154.994C82.9605 156.273 83.3502 157.328 84.3037 158.208C84.8177 158.681 85.4231 159.005 86.0283 159.329C88.4494 160.633 90.9784 161.73 93.416 163.166C93.7643 161.721 94.2369 160.4 94.7842 159.105C95.0493 158.491 95.0413 158.457 94.4863 158.125C92.0071 156.63 89.5024 155.194 86.8242 154.072C86.3933 153.89 85.9704 153.699 85.498 153.632ZM97.0811 156.622C97.0812 156.621 97.0809 156.619 97.0811 156.618C97.0838 156.617 97.087 156.615 97.0898 156.613L97.0811 156.622ZM181.94 136.382C175.887 138.325 169.792 139.372 163.466 138.782C163.59 140.202 163.715 141.523 163.831 142.835C163.873 143.3 163.905 143.774 163.922 144.239C163.93 144.422 163.996 144.663 163.748 144.737C163.533 144.804 163.391 144.621 163.267 144.472C163.109 144.281 162.951 144.081 162.827 143.873C162.355 143.085 162.363 143.085 161.534 143.434C160.946 143.683 160.415 144.023 159.909 144.413C159.121 145.036 158.574 145.8 158.466 146.83C158.176 148.059 158.217 149.297 158.3 150.542C158.366 151.464 158.789 152.229 159.494 152.835C160.083 153.342 160.705 153.798 161.385 154.163C163.789 155.434 166.344 155.567 168.947 155.052C170.771 154.695 172.455 153.931 174.055 152.985C176.642 151.423 178.914 149.53 180.672 147.055C181.401 146.291 181.973 145.418 182.487 144.505C182.661 144.198 182.711 143.907 182.554 143.567C182.114 142.62 182.006 141.607 181.965 140.585C181.907 139.215 181.882 137.835 181.94 136.382ZM97.9189 155.26V155.257C97.9214 155.255 97.9243 155.253 97.9268 155.251L97.9189 155.26ZM109.195 152.444V152.443C109.201 152.441 109.206 152.437 109.212 152.436L109.195 152.444ZM95.2695 149.35C95.2684 149.349 95.2668 149.348 95.2656 149.347L95.2988 149.321L95.2695 149.35ZM94.2705 148.532C94.2689 148.531 94.2672 148.53 94.2656 148.528C94.2645 148.527 94.2629 148.526 94.2617 148.525L94.3037 148.499L94.2705 148.532ZM149.893 47.4181C149.752 47.4347 149.643 47.4265 149.544 47.4513C148.118 47.8499 146.683 48.2485 145.257 48.6554C142.877 49.3198 140.514 50.0593 138.242 51.0392C137.952 51.1056 137.662 51.1721 137.43 51.3712H137.404C137.048 51.4958 136.7 51.6452 136.335 51.7531C135.763 51.9275 135.489 52.2764 135.522 52.8908C135.539 53.1565 135.473 53.4312 135.448 53.7052C135.117 55.4908 134.933 57.2932 134.701 59.0871C134.552 60.2329 134.287 61.3538 134.229 62.508C133.955 63.8866 133.706 65.2739 133.416 66.6525C133.018 68.546 132.62 70.448 131.907 72.2668C131.824 72.4827 131.633 72.6909 131.741 72.965C131.692 73.1226 131.716 73.2805 131.658 73.4464C131.376 74.2519 131.02 75.0331 130.755 75.8468C130.133 77.7319 129.27 79.5091 128.499 81.3195C128.126 82.1914 127.562 82.9559 127.106 83.7863C126.377 85.1316 125.489 86.3522 124.444 87.465C123.972 87.9716 123.706 88.3791 123.872 89.2013C124.511 92.3738 125.191 95.5299 126.028 98.6525C126.982 102.199 127.961 105.745 128.641 109.358C129.146 112.023 129.47 114.715 129.876 117.389C130.299 120.129 131.426 122.505 133.275 124.548C135.481 126.981 138.143 128.8 141.069 130.22C147.52 133.351 154.304 135.402 161.394 136.441C165.805 137.08 170.2 136.897 174.586 136.15C177.994 135.568 181.244 134.489 184.444 133.21C187.313 132.064 190.1 130.727 192.745 129.115C194.942 127.778 197.065 126.333 198.914 124.523C200.174 123.285 201.393 122.006 202.338 120.494L202.33 120.503C203.416 119.166 204.237 117.655 205.041 116.135C205.113 115.998 205.116 115.83 205.146 115.676C205.372 115.637 205.557 115.634 205.622 115.944C205.771 116.624 206.302 116.916 206.907 117.107C207.794 117.389 208.732 117.422 209.61 117.256C212.546 116.708 215.249 115.569 217.57 113.643C222.321 109.69 224.594 104.657 223.98 98.4367C223.84 97.0083 223.491 95.6126 222.687 94.3752H222.695C222.38 93.4949 221.8 92.7968 221.145 92.174C220.034 91.1276 218.706 90.4969 217.164 90.4054C216.899 90.3888 216.592 90.3223 216.509 90.7121H216.518C216.412 90.7284 216.362 90.7932 216.353 90.8976C216.258 90.9163 216.211 90.9812 216.194 91.0783C215.97 91.2527 215.779 91.46 215.68 91.7257H215.688C215.589 91.7423 215.539 91.8088 215.522 91.9084C215.431 91.9249 215.381 91.9831 215.373 92.0744L215.365 92.091C215.133 92.2487 214.959 92.465 214.843 92.7306H214.859C214.754 92.7469 214.704 92.8111 214.694 92.9074C214.6 92.9256 214.552 92.9823 214.536 93.0793C214.445 93.0958 214.395 93.1541 214.387 93.2453L214.37 93.2619C214.287 93.2785 214.237 93.3285 214.229 93.4113L214.204 93.4367C214.121 93.4533 214.08 93.4952 214.071 93.5783L214.047 93.6027C213.765 93.8186 213.524 94.0679 213.35 94.3752H213.358C213.253 94.3914 213.203 94.4556 213.193 94.5519C213.091 94.57 213.043 94.6272 213.035 94.7326V94.7238C212.247 95.3715 211.567 96.1277 210.879 96.8752H210.888C210.78 96.8835 210.722 96.9332 210.705 97.0412V97.0324C209.752 97.6718 209.03 98.5613 208.226 99.3586C207.795 99.5993 207.513 99.9977 207.156 100.321C206.999 100.463 206.857 100.654 206.608 100.48L206.634 100.43L206.601 100.388C206.642 100.114 206.708 99.8483 206.725 99.5744C206.907 97.0413 206.957 94.5078 206.857 91.9748C206.758 89.4419 206.518 86.9173 206.551 84.3761C206.559 84.0524 206.484 83.8611 206.145 83.7863C204.917 83.5122 203.681 83.221 202.454 82.9386V82.9474C201.36 82.5156 200.265 82.1087 199.121 81.8097C199.03 81.8014 198.93 81.7926 198.839 81.7843C198.798 81.6848 198.764 81.5612 198.607 81.6105L198.558 81.6183C198.467 81.4193 198.309 81.4358 198.135 81.4855C198.102 81.4524 198.059 81.4441 198.01 81.4523C197.977 81.3528 197.919 81.2948 197.803 81.3195C197.761 81.2946 197.72 81.2863 197.67 81.2863C197.629 81.2033 197.612 81.0791 197.463 81.1369C197.422 81.1203 197.38 81.1203 197.33 81.1203C197.289 81.0373 197.272 80.9213 197.131 80.9709C197.09 80.9543 197.048 80.946 196.998 80.9543C196.907 80.7219 196.708 80.6472 196.484 80.6222H196.476C196.401 80.4978 196.277 80.4724 196.145 80.464L196.128 80.4562C195.83 80.232 195.497 80.0817 195.141 79.9738L195.116 79.966C195.033 79.8665 194.942 79.8085 194.81 79.8166L194.784 79.8078C194.494 79.5837 194.171 79.4172 193.814 79.3009H193.806C193.731 79.1685 193.615 79.135 193.482 79.1349C193.408 79.0108 193.292 78.9613 193.151 78.9611H193.159C193.093 78.8117 192.968 78.7785 192.827 78.7785L192.836 78.7863C192.496 78.4791 192.098 78.2795 191.675 78.13L191.667 78.1388C191.443 77.8898 191.152 77.7482 190.846 77.632C190.73 77.4411 190.547 77.3581 190.34 77.3166H190.332C190.307 77.2336 190.248 77.1922 190.157 77.2003C190.141 77.1506 190.108 77.1341 190.05 77.1505C189.751 76.8516 189.403 76.6267 189.005 76.4855C188.881 76.3114 188.723 76.1868 188.508 76.1535C188.392 75.9709 188.217 75.8713 188.01 75.8214V75.8302C187.993 75.7307 187.927 75.6882 187.836 75.6798L187.819 75.6632C187.753 75.5391 187.645 75.4811 187.513 75.4396C185.373 73.8119 183.308 72.0929 181.459 70.133C181.227 69.8922 180.97 69.8083 180.646 69.8166C179.876 69.8249 179.113 69.842 178.375 70.1076C178.11 70.0661 178.101 70.2486 178.159 70.4064C178.333 70.8797 178.532 71.3452 178.723 71.8185L178.739 71.8595L178.789 71.8517C178.822 71.9431 178.74 72.0846 178.897 72.1261L178.931 72.1671C178.914 72.4744 179.005 72.749 179.154 73.0148C179.42 73.4797 179.661 73.961 179.926 74.4259C180.365 75.2066 180.763 76.0047 181.335 76.7023L181.327 76.6935C181.443 76.8844 181.551 77.0671 181.667 77.258C182.372 78.3791 183.284 79.3595 184.038 80.4474C184.229 80.7214 184.519 80.9795 184.478 81.4279C182.852 81.5275 181.26 81.5524 179.668 81.3947C179.254 81.3532 178.872 81.3864 178.466 81.5607C176.667 82.3413 175.108 83.4874 173.599 84.7082C173.342 84.9157 173.076 85.1315 172.811 85.339C172.769 85.2811 172.728 85.2231 172.687 85.1652C174.196 83.3797 176.004 82.0001 178.408 81.1779C177.272 80.9537 176.343 80.5965 175.406 80.3058V80.3146C175.34 80.1735 175.207 80.1569 175.066 80.1486C174.992 80.0324 174.867 79.9905 174.734 79.9904L174.718 79.9826C173.482 79.3183 172.247 78.645 171.128 77.7814C170.63 77.3911 170.124 77.0169 169.618 76.6349V76.6515C169.601 76.5442 169.527 76.4943 169.437 76.4611C169.345 76.3615 169.27 76.2448 169.171 76.1535C167.305 74.4261 165.722 72.4743 164.387 70.3068C164.038 69.7421 163.797 69.1029 163.3 68.5548C163.184 69.3354 163.4 69.9916 163.541 70.631C163.856 72.0345 164.254 73.4302 164.677 74.8087C165.556 77.6821 166.6 80.4892 168.043 83.13C168.549 84.0519 168.931 85.0403 169.503 85.9289C169.66 86.1778 169.85 86.4271 169.751 86.7589C168.673 86.6095 167.62 86.3938 166.625 85.9455C166.012 85.6715 165.398 85.406 164.784 85.132C164.361 84.8331 163.947 84.5086 163.458 84.3009C163.351 84.1034 163.187 84.004 162.966 83.9699C162.94 83.8829 162.891 83.8269 162.794 83.8107C162.686 83.6119 162.521 83.5042 162.306 83.4709C162.016 83.1388 161.758 82.7811 161.311 82.6398V82.6486C161.286 82.5591 161.237 82.5015 161.142 82.4757C161.116 82.3883 161.067 82.3328 160.97 82.3166C160.945 82.2254 160.896 82.1663 160.805 82.1496C160.78 82.0585 160.73 82.0085 160.639 81.9836C160.622 81.8925 160.564 81.8342 160.473 81.8175C160.456 81.7264 160.398 81.6682 160.307 81.6515C160.29 81.5604 160.232 81.5022 160.141 81.4855C160.124 81.3945 160.066 81.3363 159.976 81.3195C159.959 81.23 159.903 81.1724 159.814 81.1466C159.797 81.0613 159.743 81.0057 159.649 80.9806C159.632 80.8875 159.577 80.8323 159.484 80.8146C159.442 80.6022 159.334 80.4459 159.146 80.339L159.13 80.3224C159.121 80.2316 159.063 80.1819 158.98 80.1652L158.972 80.1564C158.955 80.0654 158.897 80.0071 158.814 79.9904C158.798 79.891 158.731 79.841 158.648 79.8078C158.648 79.7499 158.632 79.6998 158.591 79.6584C158.599 79.5755 158.549 79.5344 158.482 79.5177L158.458 79.4923C158.45 79.4011 158.391 79.3508 158.316 79.3341L158.309 79.3263C158.292 79.2372 158.244 79.1794 158.157 79.1535C158.133 79.0313 158.107 78.9098 157.977 78.8527L157.96 78.8283C158.067 78.6791 158.009 78.6374 157.927 78.6125C157.918 78.513 157.853 78.4621 157.762 78.4289C157.762 78.3712 157.745 78.3295 157.712 78.2882C157.728 78.1887 157.67 78.1471 157.587 78.1222V78.1134C157.545 77.906 157.454 77.7233 157.264 77.6154C157.247 77.491 157.23 77.3582 157.09 77.3L157.081 77.2912C157.073 77.1941 157.017 77.1447 156.93 77.1193C156.887 76.8647 156.773 76.6501 156.592 76.4689L156.584 76.4611C156.551 76.2453 156.459 76.0705 156.261 75.9543C155.946 75.1404 155.539 74.3682 155.091 73.6291C155.099 73.571 155.083 73.5206 155.05 73.4709C155.083 73.3635 155.008 73.3219 154.926 73.297C154.702 72.7489 154.478 72.1918 154.254 71.6437C152.413 66.4532 151.26 61.0966 150.572 55.632C150.614 55.5407 150.605 55.4489 150.539 55.3742C150.506 55.0752 150.465 54.7678 150.432 54.4689C150.473 54.2697 150.465 54.0699 150.382 53.8791C150.34 53.522 150.307 53.1648 150.266 52.8078C150.299 52.5505 150.298 52.3009 150.207 52.0519C150.099 50.5156 150 48.9793 149.893 47.4181ZM123.657 97.0246C123.384 96.4684 123.259 96.3603 122.712 96.5675C121.443 97.0409 120.472 97.88 119.718 98.9845C118.864 100.23 118.582 101.659 118.516 103.129C118.284 108.428 120.207 112.854 124.021 116.484C125.215 117.621 126.625 118.419 128.242 118.884C128.292 118.361 128.085 117.887 128.052 117.397L128.043 117.363C127.927 116.849 127.961 116.301 127.778 115.794C127.77 115.686 127.753 115.578 127.745 115.47C127.745 115.304 127.753 115.137 127.736 114.98C127.214 110.728 126.575 106.492 125.373 102.364C125.373 102.182 125.339 102.033 125.124 102.008C125.132 101.842 125.191 101.659 125.133 101.518C124.586 100.04 124.37 98.4529 123.657 97.0246ZM205.146 115.676C205.142 115.677 205.137 115.677 205.133 115.678L205.149 115.661C205.148 115.666 205.147 115.671 205.146 115.676ZM213.192 94.5578C213.193 94.5558 213.193 94.5539 213.193 94.5519C213.196 94.5514 213.199 94.5503 213.201 94.55L213.192 94.5578ZM214.693 92.9132C214.694 92.9113 214.694 92.9093 214.694 92.9074C214.697 92.9069 214.699 92.9058 214.701 92.9054L214.693 92.9132ZM216.352 90.9035C216.352 90.9015 216.352 90.8996 216.353 90.8976C216.355 90.8971 216.358 90.8961 216.36 90.8957L216.352 90.9035ZM162.966 83.9699C162.967 83.9722 162.968 83.9744 162.969 83.9767L162.96 83.9689C162.962 83.9692 162.964 83.9696 162.966 83.9699ZM161.142 82.4757C161.142 82.4779 161.144 82.4804 161.145 82.4826L161.136 82.4738C161.138 82.4743 161.14 82.4753 161.142 82.4757ZM159.814 81.1466C159.815 81.149 159.817 81.1511 159.817 81.1535L159.81 81.1447C159.811 81.1452 159.813 81.1462 159.814 81.1466ZM159.649 80.9806C159.65 80.9829 159.651 80.9852 159.651 80.9875L159.644 80.9787C159.645 80.9792 159.648 80.9801 159.649 80.9806ZM159.484 80.8146C159.485 80.8168 159.486 80.8193 159.486 80.8214L159.478 80.8127C159.48 80.8131 159.482 80.8142 159.484 80.8146ZM158.157 79.1535C158.158 79.1557 158.159 79.1581 158.159 79.1603L158.151 79.1515C158.153 79.1521 158.155 79.1529 158.157 79.1535ZM156.93 77.1193C156.93 77.1213 156.931 77.1232 156.932 77.1252L156.924 77.1173C156.926 77.1179 156.928 77.1188 156.93 77.1193ZM175.796 62.1017C175.904 62.9819 176.119 63.804 176.352 64.6261C176.617 65.5811 176.625 65.5809 177.62 65.1906C177.007 64.161 176.401 63.1313 175.796 62.1017Z" fill="#171614"/>
</g>
<defs>
<filter id="filter0_d_169_4457" x="-2" y="0" width="324" height="324" filterUnits="userSpaceOnUse" color-interpolation-filters="sRGB">
<feFlood flood-opacity="0" result="BackgroundImageFix"/>
<feColorMatrix in="SourceAlpha" type="matrix" values="0 0 0 0 0 0 0 0 0 0 0 0 0 0 0 0 0 0 127 0" result="hardAlpha"/>
<feOffset dy="2"/>
<feGaussianBlur stdDeviation="1"/>
<feComposite in2="hardAlpha" operator="out"/>
<feColorMatrix type="matrix" values="0 0 0 0 0 0 0 0 0 0 0 0 0 0 0 0 0 0 0.04 0"/>
<feBlend mode="normal" in2="BackgroundImageFix" result="effect1_dropShadow_169_4457"/>
<feBlend mode="normal" in="SourceGraphic" in2="effect1_dropShadow_169_4457" result="shape"/>
</filter>
</defs>
</svg>
