<svg width="24" height="24" viewBox="0 0 24 24" fill="none" xmlns="http://www.w3.org/2000/svg">
<path d="M9.56994 5.17976C9.75994 5.17976 9.94994 5.24976 10.0999 5.39976C10.3899 5.68976 10.3899 6.16976 10.0999 6.45976L4.55994 11.9998L10.0999 17.5398C10.3899 17.8298 10.3899 18.3098 10.0999 18.5998C9.80994 18.8898 9.32994 18.8898 9.03994 18.5998L2.96994 12.5298C2.67994 12.2398 2.67994 11.7598 2.96994 11.4698L9.03994 5.39976C9.18994 5.24976 9.37994 5.17976 9.56994 5.17976Z" fill="white"/>
<path d="M3.66988 11.2498H20.4999C20.9099 11.2498 21.2499 11.5898 21.2499 11.9998C21.2499 12.4098 20.9099 12.7498 20.4999 12.7498L3.66988 12.7498C3.25988 12.7498 2.91988 12.4098 2.91988 11.9998C2.91988 11.5898 3.25988 11.2498 3.66988 11.2498Z" fill="white"/>
</svg>
