<svg width="142" height="142" viewBox="0 0 142 142" fill="none" xmlns="http://www.w3.org/2000/svg">
<g opacity="0.5">
<path d="M43.9037 22.1023C43.9037 27.4756 41.0211 31.8307 37.4626 31.8307C33.9041 31.8307 31.0215 27.4742 31.0215 22.1023C31.0215 16.7304 33.9055 12.371 37.4626 12.371C41.0197 12.371 43.9037 16.7276 43.9037 22.1023Z" fill="#B1BEC6"/>
</g>
<path d="M37.4624 32.1147C33.7548 32.1147 30.7373 27.6233 30.7373 22.1023C30.7373 16.5814 33.7534 12.0871 37.4624 12.0871C41.1715 12.0871 44.1875 16.5799 44.1875 22.1023C44.1875 27.6247 41.1715 32.1147 37.4624 32.1147ZM37.4624 12.6551C34.0672 12.6551 31.3053 16.8923 31.3053 22.1023C31.3053 27.3123 34.0672 31.5467 37.4624 31.5467C40.8576 31.5467 43.6195 27.3095 43.6195 22.1023C43.6195 16.8952 40.8576 12.6551 37.4624 12.6551Z" fill="#B1BEC6"/>
<g opacity="0.25">
<path d="M120.507 22.1023C120.507 27.4756 117.624 31.8307 114.066 31.8307H37.4624C41.0209 31.8307 43.9035 27.4742 43.9035 22.1023C43.9035 16.7304 41.0209 12.371 37.4624 12.371H114.066C117.624 12.371 120.507 16.7276 120.507 22.1023Z" fill="#B1BEC6"/>
</g>
<path d="M114.066 32.1147H37.4624V31.5467C40.8576 31.5467 43.6195 27.3095 43.6195 22.1023C43.6195 16.8952 40.8576 12.6551 37.4624 12.6551V12.0871H114.066C117.773 12.0871 120.791 16.5799 120.791 22.1023C120.791 27.6247 117.775 32.1147 114.066 32.1147ZM39.6961 31.5467H114.066C117.461 31.5467 120.223 27.3095 120.223 22.1023C120.223 16.8952 117.461 12.6551 114.066 12.6551H39.6961C42.3089 14.0296 44.1861 17.7458 44.1861 22.1023C44.1861 26.4589 42.3089 30.1736 39.6961 31.5467Z" fill="#B1BEC6"/>
<g opacity="0.5">
<path d="M114.98 31.8307V98.3662L96.7105 110.642C94.998 111.792 92.7586 111.792 91.0447 110.642L69.3599 96.0729C65.9831 93.8052 61.4462 96.2249 61.4462 100.292V118.712C61.4462 124.389 58.2285 125.742 53.1406 128.266L51.2236 129.216C43.3511 127.479 37.4624 120.459 37.4624 112.065V102.29C37.7776 102.29 38.0943 102.284 38.4024 102.27C38.4933 102.267 38.5842 102.261 38.6765 102.256C38.7674 102.25 38.8597 102.244 38.9506 102.239C39.0429 102.233 39.1352 102.224 39.2275 102.217C39.6307 102.185 40.0326 102.142 40.4302 102.088C41.2112 101.982 41.978 101.835 42.732 101.648C43.0146 101.577 43.2943 101.502 43.5727 101.421C45.6601 100.814 47.6126 99.9013 49.3918 98.7312C49.575 98.6119 49.7553 98.4884 49.9343 98.362C50.1359 98.2242 50.3347 98.0794 50.5307 97.9331C50.6556 97.8394 50.7777 97.7457 50.8999 97.6506C51.1413 97.4603 51.3812 97.2643 51.6141 97.0641C51.8498 96.8639 52.0799 96.658 52.3057 96.4478C52.3937 96.3669 52.4803 96.2831 52.5669 96.2007C52.655 96.117 52.7402 96.0318 52.824 95.948C53.3352 95.441 53.8194 94.9085 54.2752 94.3505C54.3803 94.2255 54.4825 94.0977 54.5833 93.9685C55.8116 92.4079 56.8312 90.6755 57.598 88.8139C57.7343 88.4859 57.8621 88.1536 57.98 87.8171C58.0595 87.5927 58.1362 87.3669 58.2086 87.1397C58.2455 87.0261 58.281 86.9111 58.3151 86.7975C58.4528 86.3388 58.5764 85.8745 58.6843 85.4031C58.8192 84.8152 58.93 84.2174 59.0166 83.6124C59.1614 82.6028 59.2367 81.5705 59.2367 80.5239C59.2367 79.4774 59.1614 78.4493 59.0166 77.444C58.8121 75.9856 58.4599 74.5756 57.9814 73.2294C57.8919 72.9809 57.7996 72.7338 57.7017 72.4896C57.6789 72.4285 57.6534 72.366 57.6278 72.305C57.5824 72.1914 57.5355 72.0792 57.4858 71.967C57.4276 71.8293 57.3665 71.6901 57.3041 71.5538C57.1677 71.2528 57.0243 70.9546 56.8738 70.662C56.8198 70.5555 56.7645 70.4519 56.7091 70.3454C56.6523 70.2375 56.5955 70.1324 56.5358 70.0259C56.5089 69.9705 56.4776 69.9165 56.4464 69.864C56.2078 69.4394 55.9551 69.0234 55.6881 68.6187C55.6242 68.5164 55.5546 68.4142 55.485 68.3148C55.3217 68.072 55.1513 67.8334 54.9781 67.5991C54.9667 67.5821 54.9554 67.5664 54.9426 67.5508C54.8531 67.4315 54.7651 67.3123 54.6714 67.1944C54.6629 67.1788 54.6501 67.1617 54.6345 67.1461C54.5393 67.0212 54.4413 66.8976 54.3391 66.7755C54.332 66.7627 54.3221 66.7528 54.3121 66.7414C54.244 66.6576 54.1758 66.5739 54.1048 66.4929C54.0508 66.429 53.9969 66.3637 53.9415 66.3012C53.8435 66.1862 53.7413 66.0726 53.6405 65.9604C53.5254 65.8326 53.4104 65.7077 53.2897 65.5827C53.284 65.5756 53.2755 65.5657 53.267 65.5586C53.1534 65.4379 53.0384 65.3172 52.9177 65.1993C52.797 65.0743 52.672 64.9522 52.5442 64.8301C52.4335 64.7236 52.3227 64.6185 52.2091 64.5149C52.1835 64.4907 52.1566 64.4652 52.131 64.4424C52.016 64.3374 51.901 64.2337 51.7817 64.1329C51.6297 63.9994 51.4764 63.8673 51.3188 63.7395C51.2137 63.6515 51.11 63.5677 51.0035 63.4839C50.9623 63.4484 50.9197 63.4158 50.8771 63.3845C50.7848 63.3107 50.6911 63.2383 50.5974 63.1701C50.5534 63.1346 50.5079 63.1005 50.4639 63.0707C50.383 63.0082 50.2992 62.9458 50.2168 62.889C50.1671 62.8506 50.1189 62.8151 50.0692 62.781C49.9428 62.6902 49.8178 62.6007 49.69 62.5155C49.5438 62.4161 49.3975 62.3195 49.2512 62.223C46.1045 60.1895 42.3884 58.947 38.4024 58.7809C38.0943 58.7653 37.7776 58.7596 37.4638 58.7596H37.4624V31.835H114.98V31.8307Z" fill="#B1BEC6"/>
</g>
<path d="M51.2591 129.515L51.1612 129.494C47.2562 128.632 43.7076 126.438 41.1686 123.317C38.5942 120.15 37.177 116.155 37.177 112.066V102.007H37.461C37.7819 102.007 38.0943 102 38.3883 101.987C38.4479 101.986 38.5047 101.982 38.5615 101.979L38.9293 101.957C39.0202 101.952 39.111 101.943 39.2019 101.936C39.6009 101.905 40 101.862 40.3905 101.808C41.1544 101.705 41.9184 101.558 42.6625 101.374C42.9521 101.301 43.2234 101.228 43.4917 101.149C45.5223 100.559 47.4535 99.6656 49.2342 98.4955C49.4217 98.3734 49.6006 98.2512 49.7681 98.132C49.957 98.0027 50.1487 97.865 50.3574 97.7074C50.4796 97.6151 50.6003 97.5228 50.721 97.4291C50.9851 97.2203 51.2165 97.0315 51.4253 96.8511C51.6496 96.6594 51.8797 96.4549 52.1083 96.2419C52.1949 96.161 52.2815 96.0801 52.3653 95.9977C52.4505 95.9153 52.5357 95.833 52.6167 95.7492C53.1193 95.2508 53.6007 94.7211 54.0509 94.1716C54.1559 94.0466 54.2568 93.9202 54.3562 93.7939C55.5788 92.2418 56.5799 90.5293 57.3325 88.706C57.4674 88.3808 57.5938 88.0514 57.7102 87.7234C57.7954 87.4848 57.8692 87.2661 57.936 87.0545C57.9729 86.9409 58.007 86.8288 58.0411 86.7166C58.1774 86.2622 58.3009 85.7993 58.4046 85.3392C58.5366 84.7612 58.6474 84.1663 58.7326 83.5713C58.876 82.5659 58.9499 81.5393 58.9499 80.5225C58.9499 79.5058 58.8774 78.4834 58.7326 77.4837C58.5352 76.0737 58.1916 74.6736 57.7102 73.3231C57.6122 73.0477 57.5213 72.8091 57.4347 72.5933C57.4106 72.5294 57.3879 72.4711 57.3637 72.4143C57.3169 72.2993 57.2714 72.1886 57.2231 72.0792C57.1635 71.9401 57.1039 71.8037 57.0428 71.6688C56.9022 71.3607 56.7602 71.0639 56.6196 70.7898C56.5785 70.7089 56.5373 70.6308 56.4961 70.5513L56.4563 70.476C56.401 70.3724 56.3456 70.2687 56.2874 70.1651L56.2803 70.1523C56.2561 70.1026 56.2277 70.0543 56.2007 70.0074C55.9636 69.5843 55.7108 69.1711 55.4496 68.7735C55.3842 68.6684 55.3175 68.5704 55.2508 68.4753C55.1059 68.258 54.9426 68.028 54.7495 67.7667L54.7381 67.7496C54.7325 67.7411 54.7268 67.7354 54.7211 67.7283C54.6274 67.602 54.5393 67.4869 54.4485 67.3705L54.4087 67.3194C54.3065 67.1859 54.2127 67.068 54.1219 66.9587L54.0906 66.9204C54.0253 66.8394 53.9586 66.7585 53.8904 66.6804C53.8322 66.6108 53.7811 66.5497 53.7285 66.4901C53.6291 66.3736 53.5297 66.2629 53.4303 66.1521C53.3167 66.0272 53.2045 65.9036 53.0867 65.7815L53.0611 65.7545C52.9347 65.6196 52.8254 65.5075 52.7203 65.4038C52.5968 65.2774 52.4747 65.1567 52.3511 65.0389C52.2389 64.9324 52.1324 64.8287 52.0217 64.7293C51.9933 64.7023 51.9706 64.681 51.9464 64.6597C51.83 64.5546 51.7164 64.451 51.5999 64.3516C51.4224 64.1954 51.279 64.0733 51.1427 63.9625C51.0376 63.8745 50.9354 63.7921 50.8317 63.7112C50.7934 63.6785 50.7636 63.6558 50.7337 63.6331L50.7053 63.6118C50.613 63.5379 50.5222 63.4683 50.4313 63.4016C50.3844 63.3647 50.3447 63.3349 50.3049 63.3065L50.2921 63.2979C50.2154 63.2383 50.1359 63.1801 50.0578 63.1261L50.0436 63.1162C49.9996 63.0821 49.9542 63.0494 49.9101 63.0196C49.7809 62.9273 49.6574 62.8393 49.5324 62.7555C49.3876 62.6561 49.2427 62.561 49.0979 62.4672C45.9043 60.404 42.201 59.2282 38.3911 59.0706C38.1071 59.0564 37.7961 59.0493 37.4638 59.0493H37.1798V58.7653L37.1784 31.5567H115.264V98.5267L96.8695 110.886C95.0534 112.106 92.7047 112.106 90.8871 110.886L69.2023 96.3172C67.7056 95.3118 65.8624 95.2181 64.272 96.0659C62.6816 96.9136 61.7316 98.4969 61.7316 100.3V118.721C61.7316 124.347 58.6048 125.892 53.8705 128.232L51.262 129.522L51.2591 129.515ZM37.745 102.572V112.065C37.745 120.078 43.3923 127.15 51.1867 128.918L53.6163 127.715C58.3208 125.39 61.1608 123.986 61.1608 118.713V100.293C61.1608 98.2754 62.223 96.5061 64.0022 95.5575C65.7815 94.6089 67.8419 94.714 69.5161 95.8387L91.2009 110.408C92.8268 111.498 94.927 111.498 96.55 110.408L114.693 98.2157V32.1147H37.7464V58.4742C37.9836 58.477 38.2079 58.4841 38.4167 58.4941C42.3259 58.6574 46.1273 59.863 49.406 61.9816C49.5551 62.0782 49.7042 62.1761 49.8519 62.277C49.9797 62.3636 50.1089 62.4545 50.2367 62.5468C50.2836 62.578 50.3347 62.6149 50.3858 62.6561C50.4682 62.7129 50.552 62.774 50.6329 62.8379C50.6798 62.8705 50.7281 62.9074 50.7749 62.9444C50.8644 63.0097 50.9609 63.0835 51.0561 63.1602L51.0788 63.1772C51.1157 63.2056 51.1526 63.234 51.1881 63.2653C51.2875 63.342 51.394 63.4286 51.5005 63.518C51.6383 63.6302 51.7874 63.758 51.9677 63.9156C52.0856 64.0164 52.202 64.123 52.3199 64.2295C52.3454 64.2522 52.3738 64.2792 52.4022 64.3061C52.5116 64.4055 52.6238 64.512 52.7345 64.6185C52.8666 64.7435 52.9944 64.8699 53.1179 64.9977C53.223 65.1013 53.3338 65.2149 53.463 65.3527C53.4772 65.3669 53.49 65.3797 53.4999 65.391C53.6192 65.5146 53.7342 65.6395 53.8478 65.7673C53.9515 65.8809 54.0537 65.9974 54.1545 66.1138C54.2071 66.1734 54.261 66.2388 54.315 66.3041C54.386 66.385 54.4541 66.4688 54.5223 66.5526C54.5379 66.5696 54.5521 66.5852 54.5635 66.6037C54.6544 66.713 54.7481 66.8295 54.8475 66.9601C54.8674 66.9814 54.8844 67.0041 54.9 67.0283C54.9923 67.1447 55.0804 67.2612 55.167 67.379C55.1783 67.3932 55.194 67.4131 55.2082 67.4344C55.4041 67.6999 55.5717 67.9356 55.7179 68.1543C55.7875 68.2537 55.8585 68.3588 55.9253 68.4653C56.1908 68.8672 56.4492 69.2932 56.6906 69.722C56.7205 69.7731 56.7531 69.8299 56.7829 69.8882C56.8426 69.9947 56.8994 70.1012 56.9576 70.2091L56.9974 70.2858C57.04 70.3667 57.0826 70.4476 57.1237 70.53C57.2686 70.8112 57.4148 71.1165 57.5597 71.4331C57.6222 71.5723 57.6846 71.7129 57.7443 71.8534C57.7926 71.9642 57.8394 72.0792 57.8877 72.1957C57.9133 72.2567 57.9402 72.322 57.9644 72.3873C58.051 72.6032 58.1447 72.8489 58.2455 73.1314C58.7383 74.5188 59.0919 75.9558 59.2949 77.4028C59.4426 78.4295 59.5179 79.4788 59.5179 80.5225C59.5179 81.5662 59.4426 82.6199 59.2949 83.6522C59.2083 84.2628 59.0947 84.8734 58.9584 85.467C58.8505 85.9384 58.7255 86.4141 58.5849 86.8799C58.5508 86.9949 58.5153 87.1128 58.477 87.2278C58.4088 87.4436 58.3322 87.6694 58.2455 87.9122C58.1277 88.2488 57.997 88.5896 57.8579 88.9233C57.0854 90.7948 56.0587 92.5514 54.8035 94.1446C54.6998 94.2752 54.5961 94.4073 54.4896 94.5337C54.0296 95.096 53.534 95.6399 53.0199 96.1496C52.9376 96.2334 52.8495 96.32 52.7615 96.4052C52.6735 96.489 52.5854 96.5742 52.496 96.6566C52.2617 96.8753 52.0259 97.0854 51.7959 97.2814C51.5829 97.466 51.3458 97.6605 51.0731 97.8749C50.9496 97.9715 50.8246 98.0666 50.6997 98.1618C50.4824 98.3237 50.285 98.4657 50.0933 98.5977C49.9243 98.717 49.7383 98.8434 49.5466 98.9697C47.7191 100.171 45.7368 101.088 43.6522 101.695C43.3781 101.776 43.0998 101.851 42.8016 101.925C42.0377 102.115 41.2524 102.266 40.4686 102.372C40.0667 102.426 39.6577 102.47 39.2502 102.503C39.1579 102.51 39.0642 102.518 38.9705 102.524C38.9236 102.527 38.8739 102.53 38.8256 102.533L38.597 102.545C38.5359 102.548 38.4749 102.552 38.4152 102.554C38.2022 102.564 37.9793 102.569 37.7493 102.572H37.745Z" fill="#B1BEC6"/>
<g opacity="0.25">
<path d="M126.308 100.292V118.597C126.308 124.689 121.367 129.629 115.276 129.629H55.025C53.7186 129.629 52.4463 129.486 51.2236 129.216L53.1392 128.266C58.2271 125.744 61.4448 124.389 61.4448 118.712V100.292C61.4448 96.2249 65.9831 93.8066 69.3599 96.0729L91.0433 110.642C92.7572 111.792 94.9966 111.792 96.7091 110.642L114.979 98.3677L118.392 96.0744C121.768 93.808 126.308 96.2263 126.308 100.293V100.292Z" fill="#B1BEC6"/>
</g>
<path d="M115.277 129.913H55.0265C53.7258 129.913 52.4265 129.771 51.1641 129.493L50.3774 129.319L53.6122 127.716C58.3209 125.39 61.1623 123.987 61.1623 118.712V100.292C61.1623 98.2754 62.2245 96.506 64.0038 95.5575C65.783 94.6089 67.8449 94.714 69.519 95.8372L91.2024 110.406C92.8283 111.497 94.9271 111.497 96.5516 110.406L118.235 95.8372C119.909 94.7126 121.971 94.6075 123.75 95.5575C125.53 96.506 126.592 98.2754 126.592 100.292V118.598C126.592 124.838 121.515 129.914 115.276 129.914L115.277 129.913ZM52.1013 129.098C53.0641 129.263 54.0453 129.345 55.0265 129.345H115.277C121.203 129.345 126.025 124.524 126.025 118.597V100.29C126.025 98.4869 125.075 96.9051 123.485 96.0573C121.894 95.2096 120.05 95.3033 118.553 96.3072L96.8697 110.876C95.0535 112.096 92.7048 112.096 90.8872 110.876L69.2038 96.3072C67.7071 95.3019 65.8625 95.2082 64.2721 96.0573C62.6817 96.9051 61.7318 98.4884 61.7318 100.29V118.711C61.7318 124.338 58.6021 125.884 53.865 128.225L52.1042 129.096L52.1013 129.098Z" fill="#B1BEC6"/>
<path d="M114.98 72.3575C114.868 72.3575 114.763 72.2922 114.717 72.1814C112.698 67.3094 105.717 67.2128 102.809 67.3974C102.444 67.4202 102.094 67.2611 101.869 66.9714C101.645 66.6818 101.581 66.2998 101.696 65.9519C102.584 63.2752 104.491 56.675 103.024 53.1804C101.548 49.6673 96.1808 47.8682 93.9414 47.2576C93.6489 47.1781 93.4004 46.9778 93.2584 46.7095C93.1164 46.4397 93.0937 46.1187 93.1945 45.8305C93.7199 44.3366 94.5534 41.4555 94.2325 38.9449C93.7952 35.5355 89.538 32.0849 89.494 32.0508C89.3719 31.9528 89.352 31.7739 89.45 31.6518C89.5479 31.5297 89.7269 31.5098 89.849 31.6078C90.0322 31.754 94.3291 35.2387 94.7948 38.8739C95.1314 41.5009 94.2723 44.4786 93.7298 46.0193C93.6801 46.1613 93.6901 46.3133 93.7597 46.4453C93.8292 46.5774 93.9457 46.6711 94.0891 46.7095C96.408 47.3414 101.973 49.2172 103.545 52.9603C105.087 56.6324 103.142 63.3945 102.233 66.1308C102.176 66.3026 102.206 66.4815 102.317 66.625C102.426 66.767 102.591 66.8408 102.771 66.8309C105.801 66.6392 113.08 66.7528 115.24 71.9642C115.3 72.109 115.231 72.2751 115.087 72.3348C115.051 72.349 115.014 72.3561 114.979 72.3561L114.98 72.3575ZM114.98 56.7048C114.894 56.7048 114.808 56.6651 114.753 56.5912C113.908 55.4666 112.428 54.7495 111.62 54.4215C111.131 54.2227 110.849 53.7044 110.953 53.1875C111.324 51.3301 112.012 46.6938 110.408 43.7672C108.944 41.0962 106.241 39.9957 104.762 39.5768C104.204 39.4192 103.864 38.8512 103.991 38.2832C104.205 37.3147 104.529 35.5355 104.289 34.4975C103.95 33.0263 102.866 32.0522 102.855 32.0423C102.737 31.9386 102.727 31.7583 102.831 31.6418C102.934 31.5254 103.113 31.5126 103.231 31.6163C103.281 31.6603 104.461 32.7154 104.843 34.3697C105.094 35.4588 104.82 37.1656 104.545 38.4067C104.483 38.6808 104.647 38.9548 104.915 39.0301C106.48 39.4731 109.34 40.6418 110.905 43.4946C112.6 46.5859 111.892 51.3813 111.51 53.2997C111.46 53.5482 111.596 53.7995 111.833 53.8961C112.695 54.2454 114.28 55.0165 115.207 56.2504C115.301 56.3754 115.275 56.5543 115.151 56.648C115.099 56.6864 115.04 56.7048 114.98 56.7048Z" fill="#B1BEC6"/>
<path d="M93.5526 46.931C93.4632 46.931 93.3737 46.8884 93.3183 46.8089C93.2288 46.6797 93.2615 46.5036 93.3907 46.4141L114.819 31.5978C114.948 31.5084 115.124 31.541 115.213 31.6703C115.303 31.7995 115.27 31.9756 115.141 32.065L93.7131 46.8813C93.6634 46.9154 93.608 46.931 93.5512 46.931H93.5526ZM102.327 67.2881C102.273 67.2881 102.219 67.2725 102.172 67.2412C102.041 67.1546 102.004 66.98 102.09 66.8479L114.743 47.526C114.83 47.3953 115.005 47.3584 115.137 47.4436C115.267 47.5302 115.304 47.7049 115.219 47.837L102.565 67.1589C102.511 67.2427 102.421 67.2867 102.328 67.2867L102.327 67.2881Z" fill="#B1BEC6"/>
<path d="M40.2755 121.884C40.1576 121.884 40.0483 121.81 40.0071 121.694C39.956 121.546 40.0341 121.384 40.1818 121.332C45.9683 119.318 46.1685 112.982 46.0918 111.089C46.0833 110.862 46.1898 110.652 46.3787 110.527C46.5675 110.402 46.8032 110.385 47.0091 110.482C48.05 110.972 50.251 111.656 53.3068 110.749C57.4902 109.505 61.1523 102.182 61.1893 102.108C61.2588 101.967 61.4292 101.911 61.5698 101.979C61.7104 102.048 61.7686 102.219 61.699 102.359C61.5457 102.67 57.8906 109.978 53.4687 111.292C50.2311 112.255 47.8796 111.52 46.7663 110.996C46.7337 110.98 46.7067 110.99 46.6911 111.001C46.6754 111.013 46.6556 111.033 46.657 111.068C46.7379 113.06 46.5221 119.729 40.3664 121.87C40.3351 121.881 40.3039 121.886 40.2727 121.886L40.2755 121.884ZM46.0734 127.462C45.9456 127.462 45.8305 127.377 45.7979 127.248C45.7595 127.096 45.8518 126.941 46.0038 126.903C51.0178 125.642 51.076 120.592 50.9752 119.076C50.9638 118.898 51.0419 118.732 51.1854 118.63C51.3288 118.527 51.512 118.508 51.6738 118.576C52.452 118.904 54.5025 119.59 56.7532 118.88C59.5648 117.992 61.1623 113.786 61.1779 113.743C61.2333 113.597 61.3966 113.522 61.5428 113.576C61.6905 113.631 61.7644 113.795 61.7104 113.941C61.6422 114.124 60.0021 118.448 56.925 119.421C54.5806 120.16 52.4463 119.502 51.5489 119.137C51.6469 120.876 51.4765 126.11 46.1429 127.452C46.1202 127.458 46.0961 127.461 46.0734 127.461V127.462Z" fill="#B1BEC6"/>
<path d="M55.796 127.218C55.6966 127.218 55.6 127.165 55.5489 127.073L46.3785 110.859C46.3019 110.723 46.3487 110.55 46.4865 110.472C46.6228 110.395 46.796 110.442 46.8741 110.58L56.0445 126.793C56.1212 126.93 56.0743 127.103 55.9366 127.181C55.8925 127.206 55.8443 127.218 55.7974 127.218H55.796ZM60.4649 123.361C60.3201 123.361 60.1966 123.252 60.1824 123.105L58.538 106.48C58.5224 106.324 58.636 106.185 58.7922 106.169C58.9484 106.154 59.0875 106.267 59.1032 106.423L60.7475 123.049C60.7631 123.205 60.6495 123.344 60.4933 123.36C60.4834 123.36 60.4749 123.36 60.4649 123.36V123.361Z" fill="#B1BEC6"/>
<g opacity="0.75">
<path d="M80.7682 64.2465C79.7869 64.0349 78.6779 63.9085 77.4269 63.9085C76.1759 63.9085 75.0683 64.0321 74.0771 64.2465C68.1458 65.5145 66.544 69.9535 66.4673 70.1721C66.2018 70.9418 66.6093 71.7739 67.3761 72.0451C68.1401 72.3178 68.9878 71.9145 69.2676 71.1534C69.3329 70.9801 70.919 66.8777 77.4283 66.8777C83.9376 66.8777 85.146 70.8963 85.19 71.0525C85.3732 71.71 85.9682 72.1403 86.62 72.1403C86.752 72.1403 86.8841 72.1246 87.0147 72.0849C87.8057 71.869 88.2672 71.0525 88.0528 70.2616C87.9874 70.0387 86.6711 65.5287 80.7682 64.2465ZM86.6228 49.1505C84.267 49.1505 82.3586 51.0561 82.3586 53.4105C82.3586 55.7648 84.2656 57.6705 86.6228 57.6705C88.98 57.6705 90.8814 55.7634 90.8814 53.4105C90.8814 51.0575 88.9743 49.1505 86.6228 49.1505ZM72.1317 53.4105C72.1317 51.0561 70.2247 49.1505 67.8675 49.1505C65.5103 49.1505 63.6089 51.0561 63.6089 53.4105C63.6089 55.7648 65.5159 57.6705 67.8675 57.6705C70.219 57.6705 72.1317 55.7634 72.1317 53.4105Z" fill="#B1BEC6"/>
</g>
<path d="M86.6184 72.4243C85.8289 72.4243 85.1274 71.8918 84.9144 71.1278C84.9031 71.0895 83.7145 67.1603 77.4268 67.1603C71.139 67.1603 69.5955 71.0866 69.5316 71.2542C69.1993 72.1602 68.1883 72.6373 67.2795 72.3121C66.3707 71.9883 65.885 70.9858 66.1974 70.0784C66.2656 69.8811 67.9426 65.2661 74.0174 63.9682C75.0696 63.7396 76.2169 63.6231 77.4268 63.6231C78.6366 63.6231 79.7684 63.7396 80.8277 63.9682C86.7065 65.2462 88.1748 69.6766 88.3239 70.1778C88.5809 71.1292 88.0257 72.1034 87.0885 72.359C86.9436 72.4016 86.7874 72.4243 86.6184 72.4243ZM77.4268 66.5938C84.1391 66.5938 85.4498 70.9304 85.4611 70.9745C85.606 71.4942 86.0817 71.8563 86.6184 71.8563C86.732 71.8563 86.8343 71.8421 86.9323 71.8123C87.5741 71.6376 87.9504 70.9759 87.7772 70.3355C87.6394 69.8711 86.2649 65.7318 80.707 64.5248C79.6874 64.3047 78.5827 64.1925 77.4254 64.1925C76.2681 64.1925 75.1491 64.3047 74.1352 64.5248C68.3686 65.7574 66.7967 70.0827 66.7328 70.2659C66.5212 70.8793 66.8506 71.5581 67.4683 71.7782C68.0846 71.9983 68.7705 71.6745 68.9977 71.0554C69.1723 70.5953 70.8877 66.5923 77.4254 66.5923L77.4268 66.5938ZM86.6227 57.9545C84.115 57.9545 82.0744 55.9154 82.0744 53.4105C82.0744 50.9056 84.115 48.8665 86.6227 48.8665C89.1304 48.8665 91.1653 50.9056 91.1653 53.4105C91.1653 55.9154 89.1276 57.9545 86.6227 57.9545ZM86.6227 49.4345C84.4288 49.4345 82.6424 51.218 82.6424 53.4105C82.6424 55.603 84.4274 57.3865 86.6227 57.3865C88.818 57.3865 90.5973 55.603 90.5973 53.4105C90.5973 51.218 88.8138 49.4345 86.6227 49.4345ZM67.8688 57.9545C65.3639 57.9545 63.3262 55.9154 63.3262 53.4105C63.3262 50.9056 65.3639 48.8665 67.8688 48.8665C70.3736 48.8665 72.417 50.9056 72.417 53.4105C72.417 55.9154 70.3765 57.9545 67.8688 57.9545ZM67.8688 49.4345C65.6777 49.4345 63.8942 51.218 63.8942 53.4105C63.8942 55.603 65.6777 57.3865 67.8688 57.3865C70.0598 57.3865 71.849 55.603 71.849 53.4105C71.849 51.218 70.0641 49.4345 67.8688 49.4345Z" fill="#B1BEC6"/>
<g opacity="0.25">
<path d="M40.3038 77.5888V83.5911C40.2925 85.3363 40.061 86.6172 39.6038 87.4337C39.148 88.2516 38.4422 88.6591 37.4852 88.6591H37.461C36.4855 88.652 35.7698 88.2331 35.3182 87.401C34.8624 86.5618 34.6338 85.2369 34.6338 83.425V77.2239C34.6664 75.6008 34.9036 74.3881 35.3424 73.5887C35.7826 72.7878 36.4855 72.3888 37.4525 72.3888H37.461C38.4451 72.3916 39.1664 72.8204 39.6208 73.681C40.0752 74.5429 40.3024 75.845 40.3024 77.5916L40.3038 77.5888Z" fill="#B1BEC6"/>
</g>
<g opacity="0.25">
<path d="M59.0125 77.4411C58.808 75.9828 58.4558 74.5727 57.9773 73.2266C57.8878 72.9781 57.7955 72.731 57.6976 72.4867C57.6748 72.4257 57.6479 72.3632 57.6237 72.3021C57.5783 72.1885 57.5314 72.0764 57.4817 71.9642C57.4235 71.8264 57.3624 71.6873 57.3 71.551C57.1636 71.2499 57.0202 70.9517 56.8697 70.6592C56.8157 70.5527 56.7618 70.4476 56.705 70.3425C56.6482 70.2346 56.5914 70.1295 56.5317 70.023C56.5048 69.9677 56.4735 69.9137 56.4423 69.8612C56.2023 69.4366 55.9495 69.0219 55.684 68.6158C55.6158 68.515 55.5491 68.4128 55.4809 68.3119C55.4114 68.2111 55.3432 68.1103 55.2722 68.0109C55.1742 67.8717 55.0734 67.7326 54.974 67.5963C54.9626 67.5792 54.9513 67.5636 54.9385 67.548C54.849 67.4287 54.7582 67.3094 54.6673 67.1916C54.6588 67.1759 54.646 67.1589 54.6304 67.1433C54.5338 67.0183 54.4358 66.8962 54.335 66.7727C54.3279 66.7599 54.318 66.7499 54.308 66.7386C54.2399 66.6562 54.1717 66.571 54.1007 66.4901C54.0467 66.4262 53.9928 66.3609 53.9374 66.2984C53.8394 66.1834 53.7372 66.0698 53.6364 65.9576C53.5213 65.8298 53.4049 65.7048 53.2856 65.5799C53.2799 65.5728 53.2714 65.5628 53.2629 65.5557C53.1493 65.435 53.0329 65.3143 52.9136 65.1965C52.79 65.0715 52.6665 64.9494 52.5401 64.8273C52.4294 64.7208 52.3172 64.6171 52.205 64.512C52.1794 64.4879 52.1525 64.4623 52.1269 64.4396C52.0119 64.3345 51.8954 64.2309 51.7776 64.13C51.6256 63.9966 51.4723 63.8645 51.3147 63.7367C51.2096 63.6501 51.1059 63.5649 50.9994 63.4811C50.9582 63.4456 50.9156 63.4129 50.873 63.3817C50.7807 63.3079 50.687 63.2369 50.5933 63.1673C50.5493 63.1318 50.5038 63.0977 50.4598 63.0679C50.3789 63.0054 50.2951 62.9429 50.2127 62.8861C50.163 62.8478 50.1148 62.8123 50.0651 62.7782C49.9387 62.6873 49.8137 62.5979 49.6859 62.5127C49.5397 62.4133 49.3934 62.3167 49.2471 62.2201C46.1004 60.1867 42.3843 58.9442 38.3983 58.7781C38.0902 58.7624 37.7735 58.7568 37.4597 58.7568H37.4583C35.3468 58.7568 33.3005 59.0578 31.3693 59.6201C31.3338 59.6286 31.3012 59.6386 31.2685 59.6499C31.2359 59.6585 31.2046 59.6698 31.172 59.6812C30.6324 59.8431 30.1041 60.0248 29.5844 60.2265C29.4793 60.2662 29.3771 60.3074 29.272 60.35C28.9639 60.4764 28.6571 60.6099 28.3547 60.7476C28.153 60.8399 27.9542 60.935 27.7554 61.0344C27.4587 61.1821 27.1661 61.3369 26.875 61.4988C25.1398 62.4644 23.5494 63.6629 22.1493 65.0502C21.6636 65.5316 21.2007 66.0328 20.7634 66.5582C20.5646 66.7968 20.37 67.0354 20.1826 67.2839C19.3902 68.3162 18.6859 69.421 18.0852 70.5868C17.9532 70.8466 17.824 71.1079 17.7018 71.372C17.5172 71.7696 17.3454 72.1743 17.1835 72.5819C17.0756 72.8559 16.9748 73.1314 16.8782 73.4097C16.83 73.5489 16.7831 73.6895 16.7391 73.8286C16.0589 75.9373 15.6897 78.1852 15.6897 80.5211C15.6897 81.1814 15.7195 81.8332 15.7763 82.4779C15.8601 83.4179 16.0035 84.3381 16.2037 85.2383C16.2421 85.4215 16.2833 85.6019 16.3301 85.7822C16.4068 86.0875 16.4877 86.3914 16.5772 86.6924C16.6667 86.9935 16.7618 87.2917 16.8626 87.5884C16.962 87.8852 17.0699 88.1763 17.185 88.466C17.3539 88.8991 17.5385 89.3265 17.7331 89.7468H17.7345C17.8651 90.028 18.0029 90.3049 18.1449 90.5775C18.2159 90.7139 18.2883 90.8488 18.3636 90.9851C18.5127 91.2549 18.666 91.5233 18.8251 91.786C18.9046 91.9166 18.9855 92.0472 19.0679 92.1779C19.1999 92.3838 19.3334 92.5883 19.474 92.7899C19.8531 93.348 20.2593 93.8861 20.6895 94.4059C21.0601 94.8517 21.4464 95.282 21.8511 95.6966C21.9263 95.7733 22.0016 95.85 22.0797 95.9267C22.1578 96.0076 22.2359 96.0843 22.3168 96.1596C22.3907 96.232 22.4645 96.303 22.5384 96.3711C22.5682 96.401 22.598 96.4279 22.6278 96.4535C22.7088 96.5302 22.7897 96.604 22.8721 96.6779C22.9601 96.7574 23.0467 96.8355 23.1362 96.9107C23.2242 96.9888 23.3123 97.0641 23.4017 97.1408C23.4259 97.1621 23.4528 97.1834 23.4784 97.2033C23.5608 97.2743 23.646 97.3424 23.7297 97.412C23.7553 97.4347 23.7823 97.456 23.8078 97.4745C23.9072 97.5554 24.0109 97.6378 24.1117 97.7159C24.2083 97.7926 24.3063 97.8664 24.4057 97.9402C24.4554 97.9786 24.5036 98.0155 24.5533 98.0496C24.6286 98.1064 24.7039 98.1618 24.7805 98.2157C24.8061 98.2356 24.8331 98.2541 24.8572 98.2711C24.9509 98.3393 25.0475 98.406 25.1426 98.4713C25.2406 98.5409 25.3429 98.6076 25.4423 98.6744C25.5686 98.7582 25.6936 98.8405 25.8228 98.9215C25.8455 98.9371 25.8683 98.9513 25.8924 98.9655C25.9904 99.0265 26.0884 99.0862 26.1878 99.1472C26.1991 99.1529 26.2105 99.1614 26.2218 99.1671C26.3511 99.2452 26.4803 99.3205 26.6109 99.3957C26.7245 99.4625 26.8395 99.5264 26.9546 99.5889C26.9886 99.6087 27.0241 99.6286 27.0596 99.6471C27.1292 99.684 27.1974 99.7223 27.267 99.7578C27.3479 99.8019 27.4303 99.8459 27.5126 99.8871C27.5637 99.9126 27.6134 99.9396 27.6646 99.9637C27.7654 100.016 27.869 100.066 27.9713 100.116C28.0025 100.133 28.0323 100.148 28.065 100.161C28.1786 100.217 28.295 100.27 28.4101 100.323C28.4328 100.336 28.4555 100.346 28.4811 100.356C28.6188 100.418 28.758 100.481 28.8971 100.539C29.0363 100.6 29.1783 100.658 29.3217 100.715C29.3416 100.723 29.3629 100.733 29.3842 100.739C29.4765 100.777 29.5702 100.814 29.6639 100.85C29.7363 100.88 29.8088 100.907 29.8812 100.931C29.9792 100.968 30.0771 101.005 30.1765 101.039C30.2149 101.054 30.2532 101.069 30.293 101.08C30.4179 101.122 30.5415 101.166 30.6664 101.206C30.6963 101.218 30.7261 101.228 30.7573 101.237C31.0598 101.334 31.3651 101.426 31.6732 101.512C31.8337 101.556 31.9927 101.598 32.1518 101.638C32.3122 101.678 32.4727 101.716 32.6346 101.753C32.7964 101.79 32.9583 101.824 33.1216 101.858C33.3857 101.912 33.6499 101.96 33.9168 102.006C34.083 102.033 34.2505 102.058 34.4181 102.082C35.4135 102.222 36.4288 102.293 37.464 102.293C37.7792 102.293 38.0959 102.287 38.404 102.273C38.4949 102.27 38.5858 102.264 38.6781 102.258C38.769 102.254 38.8613 102.247 38.9536 102.24C39.0459 102.234 39.1367 102.227 39.229 102.22C39.6323 102.187 40.0342 102.145 40.4318 102.091C41.2128 101.984 41.9796 101.838 42.7336 101.651C43.0162 101.58 43.2959 101.504 43.5742 101.424C45.6616 100.817 47.6141 99.9041 49.3934 98.734C49.5766 98.6147 49.7569 98.4912 49.9358 98.3648C50.1375 98.2271 50.3349 98.0822 50.5322 97.936C50.6572 97.8423 50.7793 97.7485 50.9014 97.6534C51.1443 97.4631 51.3828 97.2672 51.6157 97.0669C51.8514 96.8667 52.0815 96.6608 52.3072 96.4507C52.3953 96.3697 52.4819 96.2859 52.5685 96.2036C52.6551 96.1198 52.7403 96.036 52.8255 95.9508C53.3367 95.4439 53.821 94.9114 54.2768 94.3533C54.3819 94.2284 54.4841 94.1006 54.5849 93.9713C55.8132 92.4108 56.8328 90.6784 57.5996 88.8167C57.7345 88.4887 57.8623 88.1564 57.9816 87.8199C58.0611 87.5955 58.1378 87.3698 58.2102 87.1426C58.2471 87.029 58.2826 86.9139 58.3167 86.8003C58.4544 86.3417 58.578 85.8773 58.6859 85.4059C58.8208 84.818 58.9315 84.2202 59.0182 83.6153C59.163 82.6057 59.2383 81.5733 59.2383 80.5268C59.2383 79.4802 59.163 78.4522 59.0182 77.4468L59.0125 77.4411ZM45.9243 82.742C45.9243 83.6763 45.8647 84.5496 45.7426 85.3619C45.7213 85.5152 45.6971 85.6658 45.6687 85.8149C45.6489 85.9299 45.6276 86.0435 45.6048 86.1557C45.5551 86.3956 45.4998 86.6271 45.4387 86.8543C45.159 87.9008 44.7571 88.8238 44.2331 89.6233C44.1522 89.7468 44.0684 89.8661 43.9832 89.9826C43.8966 90.099 43.8085 90.214 43.7162 90.3248C42.6995 91.5502 41.396 92.3554 39.8056 92.7359C39.6778 92.7672 39.5485 92.7942 39.4179 92.8183C39.3512 92.8325 39.2858 92.8424 39.2191 92.8538C38.955 92.8978 38.6809 92.9305 38.4026 92.9532C38.3288 92.9603 38.2535 92.966 38.1782 92.9717C37.9525 92.9859 37.7224 92.993 37.4881 92.993H37.4626C37.41 92.993 37.3575 92.993 37.3078 92.9901C37.197 92.9887 37.0863 92.9859 36.9769 92.9816C36.8662 92.9759 36.7582 92.9688 36.6517 92.9617C36.5438 92.9546 36.4387 92.9447 36.3337 92.9319C36.2314 92.9205 36.1306 92.9092 36.0298 92.8964C36.0241 92.8964 36.017 92.895 36.0113 92.8936C35.9119 92.8794 35.8125 92.8637 35.7145 92.8481C35.6151 92.8311 35.5143 92.8112 35.4149 92.7913C35.3169 92.7714 35.2204 92.7487 35.1224 92.7246C35.0258 92.7019 34.9293 92.6749 34.8356 92.6493C34.8299 92.6493 34.8228 92.6465 34.8171 92.6451C34.7276 92.6195 34.6424 92.5925 34.5558 92.5655C34.4635 92.5343 34.3712 92.5045 34.2803 92.4718C34.1909 92.4377 34.1028 92.4037 34.0148 92.371H34.0134C33.7564 92.2631 33.5079 92.1452 33.2679 92.0146C33.2622 92.0117 33.2551 92.0089 33.2494 92.0032C33.0861 91.9123 32.9271 91.8158 32.7723 91.7135C32.7056 91.6709 32.6402 91.6255 32.5763 91.5801C32.5195 91.5403 32.4642 91.4991 32.4088 91.4537C32.3548 91.4153 32.3023 91.3756 32.2512 91.3301C32.1972 91.289 32.1447 91.2464 32.0935 91.1995C32.041 91.1555 31.9885 91.11 31.9388 91.0632C31.8876 91.0177 31.8379 90.9695 31.7882 90.9212C31.7442 90.88 31.6988 90.8346 31.6562 90.7905C31.6178 90.7522 31.5795 90.7124 31.5412 90.6727C31.5 90.6287 31.4588 90.5832 31.4162 90.5378C31.3495 90.4625 31.2827 90.3858 31.2174 90.3077H31.216C31.1436 90.2183 31.0726 90.1302 31.0058 90.0379C30.9249 89.9314 30.8454 89.8235 30.7701 89.7128C30.7034 89.6162 30.6409 89.5182 30.5784 89.416C30.5401 89.3535 30.5017 89.2882 30.4634 89.2243C30.3895 89.0951 30.3171 88.9644 30.249 88.8295C29.4183 87.2121 29.0022 85.183 29.0022 82.7406V78.3045C29.0022 77.2026 29.0846 76.1873 29.2507 75.2557C29.2848 75.0697 29.3217 74.888 29.3615 74.709C29.4225 74.4392 29.4907 74.1794 29.5645 73.9252C29.5645 73.9252 29.5645 73.9247 29.5645 73.9238C29.5901 73.84 29.6171 73.7562 29.6426 73.6739C29.6653 73.5972 29.6909 73.5219 29.715 73.4481C29.7406 73.3742 29.7662 73.299 29.7931 73.2251C29.8798 72.9951 29.9706 72.7722 30.0715 72.5549C30.1709 72.3376 30.2774 72.1289 30.391 71.9273C30.5031 71.7242 30.6238 71.5297 30.7502 71.3408C30.8766 71.1534 31.0115 70.9702 31.1507 70.7969C31.162 70.7842 31.1705 70.7714 31.1805 70.7586C31.1918 70.7458 31.2018 70.7345 31.2117 70.7217C31.3452 70.5584 31.4858 70.4022 31.6292 70.2545C31.7726 70.1068 31.9231 69.9677 32.0779 69.8342C32.1546 69.7674 32.2327 69.7035 32.3136 69.6411C32.4727 69.5161 32.6374 69.3982 32.8064 69.2875C32.8902 69.2321 32.9768 69.1796 33.0648 69.1284C33.9026 68.6343 34.8554 68.3119 35.9261 68.1557C36.4118 68.0847 36.9215 68.0492 37.4555 68.0492H37.4668C37.6259 68.0492 37.7849 68.0521 37.9411 68.0606C38.0973 68.0677 38.2535 68.0776 38.4054 68.0876C38.6852 68.1117 38.9564 68.1458 39.2219 68.1927C39.4861 68.2367 39.7445 68.2935 39.9944 68.3616C40.0569 68.3787 40.1194 68.3957 40.1804 68.4142C40.304 68.4497 40.4261 68.4894 40.544 68.5306C40.6036 68.5519 40.6632 68.5732 40.7215 68.5945C40.8393 68.6385 40.9543 68.6854 41.0708 68.7365C41.1276 68.7621 41.1844 68.7876 41.2398 68.8132C41.6345 68.9964 42.0051 69.2122 42.353 69.4636C42.4027 69.5005 42.451 69.536 42.5007 69.5729C42.5973 69.6467 42.6938 69.7234 42.7876 69.8029C42.833 69.8427 42.8813 69.8839 42.9267 69.9236C43.019 70.0046 43.1099 70.0912 43.1965 70.1792C43.3726 70.3539 43.543 70.5399 43.7049 70.7373C44.2942 71.4487 44.7628 72.2794 45.1149 73.2266H45.1164C45.1504 73.3174 45.1831 73.4083 45.2129 73.4978C45.2697 73.6611 45.3237 73.8286 45.372 73.999C45.3876 74.0502 45.4032 74.1013 45.416 74.1524C45.4344 74.2163 45.4515 74.283 45.4685 74.3484C45.4884 74.4236 45.5069 74.5003 45.5253 74.577C45.5424 74.648 45.5594 74.7204 45.575 74.7914C45.5764 74.7985 45.5793 74.8084 45.5793 74.8155C45.5977 74.8951 45.6148 74.9774 45.6304 75.0598C45.6474 75.1365 45.6616 75.2146 45.6744 75.2955C45.69 75.3779 45.7042 75.4631 45.717 75.5483C45.7199 75.5596 45.7213 75.571 45.7227 75.5838C45.7355 75.6562 45.7454 75.7286 45.7554 75.8024C45.7681 75.8805 45.7781 75.9601 45.788 76.041C45.7965 76.1163 45.8065 76.1929 45.8136 76.2682C45.859 76.6757 45.8903 77.0975 45.9073 77.5334C45.9144 77.7052 45.9201 77.8799 45.9215 78.0588C45.9229 78.1454 45.9229 78.2306 45.9229 78.3173V82.7406L45.9243 82.742Z" fill="#B1BEC6"/>
</g>
<path d="M37.4852 88.9417H37.4611C36.3748 88.9346 35.5711 88.4603 35.0684 87.5345C34.5856 86.6441 34.3499 85.2994 34.3499 83.4236V77.2224C34.3839 75.5554 34.6339 74.2887 35.0925 73.4495C35.5853 72.5549 36.3776 72.1019 37.4511 72.1019C38.5559 72.1048 39.3667 72.5904 39.8708 73.5446C40.3451 74.4449 40.5851 75.8053 40.5851 77.5874V83.5897C40.5737 85.4045 40.3337 86.7052 39.8495 87.57C39.3426 88.4802 38.546 88.9417 37.4838 88.9417H37.4852ZM37.4611 72.6699C36.5906 72.6699 35.9814 73.0135 35.5924 73.7221C35.1777 74.479 34.9505 75.6576 34.9193 77.2267V83.4221C34.9193 85.1758 35.138 86.4681 35.5696 87.2618C35.9715 88.0031 36.5906 88.3666 37.4639 88.3723H37.4866C38.3401 88.3723 38.9521 88.0187 39.3568 87.2916C39.787 86.5234 40.01 85.2767 40.0199 83.5869V77.5874C40.0199 75.899 39.8012 74.6281 39.371 73.8102C38.9663 73.0448 38.3429 72.6728 37.4611 72.6699Z" fill="#B1BEC6"/>
<path d="M37.4878 93.2798H37.4623C37.4069 93.2798 37.3501 93.2798 37.2947 93.2784C34.6138 93.2344 32.4937 92.2957 30.9956 90.4909C29.4819 88.6563 28.7151 86.0491 28.7151 82.742V78.3073C28.7151 76.5224 28.9352 74.9334 29.3683 73.5872C29.4208 73.4225 29.4719 73.2734 29.5231 73.13C29.8738 72.1871 30.3438 71.345 30.9232 70.6251C30.9374 70.6066 30.953 70.5868 30.9672 70.5683L30.9842 70.547C31.538 69.8725 32.187 69.3144 32.9154 68.8842C34.1721 68.1429 35.6986 67.7681 37.4523 67.7681C37.769 67.7681 38.0842 67.7808 38.4222 67.8064C40.7311 68.0038 42.5814 68.9282 43.9219 70.5569C44.5254 71.2854 45.0167 72.1516 45.3788 73.13C45.9269 74.5798 46.2052 76.3264 46.2052 78.3201V82.742C46.2052 86.0704 45.4398 88.6833 43.9318 90.5094C42.58 92.1367 40.7269 93.0554 38.4222 93.2414C38.1283 93.2684 37.8116 93.2812 37.485 93.2812L37.4878 93.2798ZM37.4623 68.3346C35.8023 68.3346 34.3738 68.684 33.2051 69.3712C32.5335 69.7674 31.9356 70.2829 31.4273 70.9006L31.4088 70.9233C31.3989 70.9361 31.3889 70.9474 31.379 70.9602L31.3691 70.973C30.8266 71.6461 30.385 72.437 30.0556 73.3231C30.0073 73.4566 29.959 73.5986 29.9079 73.7562C29.4932 75.047 29.2817 76.5763 29.2817 78.303V82.7377C29.2817 85.91 30.0059 88.3964 31.433 90.1245C32.8189 91.7959 34.7969 92.6649 37.3089 92.7061C37.3629 92.7075 37.414 92.7089 37.4609 92.7075H37.4864C37.796 92.7075 38.0956 92.6947 38.3753 92.6692C40.5252 92.4959 42.2463 91.6454 43.4959 90.1402C44.9173 88.4191 45.6386 85.9284 45.6386 82.7349V78.313C45.6386 76.3875 45.3731 74.7076 44.8477 73.3217C44.5069 72.4015 44.0482 71.5921 43.4845 70.9119C42.2434 69.4053 40.5252 68.5491 38.3768 68.3659C38.0558 68.3417 37.7548 68.329 37.4623 68.329V68.3346Z" fill="#B1BEC6"/>
<path d="M37.4623 102.574C36.4228 102.574 35.3848 102.503 34.3766 102.361C34.2048 102.335 34.0358 102.311 33.8683 102.283C33.6027 102.239 33.3315 102.187 33.0631 102.134L33.0447 102.129C32.8856 102.097 32.7266 102.063 32.569 102.027C32.4057 101.99 32.2424 101.95 32.0805 101.911C31.9186 101.869 31.7567 101.828 31.5934 101.783C31.2725 101.695 30.9601 101.601 30.6662 101.506C30.6363 101.497 30.6008 101.485 30.5653 101.472C30.456 101.436 30.3353 101.395 30.2146 101.354L30.1961 101.348C30.1606 101.337 30.1166 101.321 30.0726 101.304C29.9746 101.27 29.8752 101.233 29.7772 101.196C29.7091 101.174 29.631 101.144 29.5543 101.113C29.4677 101.08 29.3754 101.043 29.2845 101.006C29.2575 100.998 29.232 100.986 29.2064 100.975C29.063 100.918 28.921 100.858 28.7804 100.797C28.6455 100.74 28.5078 100.679 28.3686 100.617C28.3388 100.606 28.3104 100.593 28.282 100.577C28.1684 100.526 28.0548 100.474 27.9426 100.42C27.9071 100.404 27.8716 100.387 27.8375 100.368C27.7339 100.319 27.6316 100.268 27.5294 100.217C27.4825 100.194 27.43 100.167 27.3774 100.14C27.2937 100.099 27.2099 100.053 27.1247 100.008C27.0835 99.9865 27.0352 99.9609 26.9855 99.9339L26.9202 99.8984C26.8833 99.8786 26.8435 99.8558 26.8052 99.8345C26.6958 99.7749 26.5794 99.7096 26.463 99.6414C26.3309 99.5647 26.2003 99.4895 26.0696 99.41L26.0426 99.3943C25.9106 99.3134 25.7885 99.2381 25.6678 99.1615C25.5357 99.0791 25.4079 98.9953 25.2801 98.9101C25.1793 98.8434 25.0756 98.7738 24.9748 98.7042C24.8811 98.6403 24.7817 98.5722 24.6865 98.5026C24.6638 98.4869 24.634 98.4657 24.6028 98.4429C24.5332 98.3947 24.4551 98.3364 24.377 98.2782C24.333 98.2484 24.279 98.2086 24.2265 98.166C24.1313 98.095 24.0305 98.0183 23.9311 97.9402C23.8331 97.865 23.7309 97.784 23.6315 97.7031C23.6002 97.6804 23.569 97.6548 23.5378 97.6279C23.4611 97.5654 23.3773 97.4972 23.2949 97.4262C23.2651 97.4035 23.2367 97.3793 23.2097 97.3552L23.1458 97.2998C23.0777 97.2416 23.0095 97.1834 22.9428 97.1223C22.8576 97.0499 22.7667 96.969 22.6758 96.8866C22.5935 96.8142 22.5111 96.7375 22.4287 96.6594C22.4018 96.6353 22.3663 96.604 22.3336 96.5714C22.264 96.5061 22.1888 96.435 22.1149 96.3612C22.0354 96.2874 21.9545 96.2064 21.8721 96.1212C21.7983 96.0488 21.7216 95.9707 21.6449 95.8926C21.2359 95.4737 20.8412 95.0335 20.4677 94.5848C20.0332 94.0594 19.6186 93.5084 19.2366 92.9475C19.0818 92.726 18.937 92.5002 18.8262 92.3298C18.7438 92.2006 18.6657 92.0714 18.5862 91.9436C18.4215 91.6724 18.2639 91.3997 18.1119 91.1214C18.0367 90.9851 17.9628 90.8473 17.8904 90.7082C17.7541 90.4483 17.622 90.1814 17.4957 89.913L17.4729 89.8676C17.2741 89.443 17.0867 89.007 16.9163 88.5682C16.7999 88.2743 16.6891 87.9747 16.5897 87.6793C16.486 87.3783 16.3881 87.073 16.3 86.772C16.2077 86.461 16.1239 86.15 16.0501 85.849C16.0061 85.6771 15.9635 85.4954 15.9223 85.2951C15.7192 84.3878 15.5744 83.4477 15.4906 82.5034V82.4892C15.431 81.8431 15.4026 81.18 15.4026 80.5211C15.4026 78.2008 15.7604 75.9189 16.4676 73.7392C16.5116 73.5986 16.5599 73.4566 16.6082 73.316C16.7132 73.015 16.8141 72.7409 16.9177 72.4754C17.0725 72.0792 17.2443 71.6774 17.4417 71.2499C17.5766 70.9603 17.7044 70.699 17.8308 70.4533C18.4314 69.2861 19.1471 68.16 19.9537 67.1078C20.1624 66.8337 20.3768 66.571 20.5416 66.3737C20.9704 65.8582 21.4433 65.3427 21.9459 64.8457C23.373 63.4328 24.9847 62.2216 26.7342 61.2475C27.0338 61.0799 27.3334 60.9223 27.6259 60.7774C27.8162 60.6823 28.015 60.5857 28.2323 60.4863C28.5262 60.35 28.8386 60.2151 29.161 60.0831L29.2249 60.0575C29.3086 60.0234 29.3938 59.9907 29.4776 59.9581C29.9846 59.7607 30.5256 59.5733 31.0836 59.4043L31.1049 59.3986C31.1277 59.3915 31.1518 59.3858 31.1745 59.3787C31.2171 59.366 31.254 59.3546 31.2938 59.3447C33.279 58.7667 35.355 58.4728 37.4538 58.4728C37.7647 58.4728 38.0842 58.4799 38.4066 58.4941C42.3173 58.6574 46.1186 59.8629 49.3974 61.9816C49.5465 62.0781 49.6956 62.1761 49.8433 62.277C49.9711 62.3636 50.1003 62.4545 50.2281 62.5468C50.2749 62.578 50.3261 62.6149 50.3772 62.6561C50.4595 62.7129 50.5433 62.7739 50.6243 62.8378C50.6711 62.8705 50.7194 62.906 50.7663 62.9443C50.8572 63.0125 50.9523 63.0849 51.0474 63.1602L51.0701 63.1772C51.1071 63.2056 51.144 63.234 51.1795 63.2653C51.2746 63.3391 51.3783 63.4243 51.4819 63.5095C51.631 63.6302 51.7802 63.758 51.9605 63.9156C52.0769 64.0179 52.1962 64.123 52.3126 64.2295C52.3382 64.2522 52.3666 64.2791 52.395 64.3061C52.5072 64.4098 52.6194 64.5149 52.7315 64.6228C52.8593 64.7463 52.9857 64.8713 53.1107 64.9977C53.2271 65.1141 53.3436 65.2334 53.4557 65.3541C53.4714 65.3683 53.4827 65.3825 53.4927 65.3938C53.6105 65.5174 53.7255 65.6424 53.8406 65.7687C53.9442 65.8823 54.0465 65.9988 54.1473 66.1152C54.1998 66.1749 54.2538 66.2402 54.3078 66.3055C54.3787 66.3864 54.4469 66.4702 54.5136 66.5526C54.5307 66.5696 54.5449 66.5881 54.5577 66.6065C54.6528 66.7244 54.7465 66.8408 54.8388 66.9601C54.8587 66.9814 54.8772 67.0056 54.8928 67.0297C54.9837 67.1461 55.0717 67.2626 55.1598 67.379C55.1711 67.3932 55.1867 67.4131 55.2009 67.4344C55.3969 67.6999 55.5644 67.9356 55.7107 68.1543L55.9138 68.4596C56.1836 68.8686 56.442 69.2946 56.6834 69.7234C56.7132 69.7746 56.7459 69.8314 56.7757 69.8896C56.8353 69.9961 56.8921 70.1026 56.9504 70.2105C57.0057 70.3113 57.0597 70.4164 57.1123 70.5229C57.2614 70.8126 57.4076 71.1165 57.5524 71.4345C57.6149 71.5737 57.6774 71.7143 57.737 71.8548C57.7853 71.9656 57.8322 72.0806 57.8805 72.1971L57.906 72.2581C57.9231 72.3007 57.9415 72.3447 57.9571 72.3874C58.0438 72.6032 58.1375 72.8489 58.2383 73.1314C58.731 74.5188 59.0846 75.9558 59.2877 77.4028C59.4354 78.4295 59.5106 79.4788 59.5106 80.5225C59.5106 81.5662 59.4354 82.6199 59.2877 83.6522C59.2011 84.2628 59.0875 84.8734 58.9511 85.467C58.8432 85.9384 58.7183 86.4141 58.5777 86.8799C58.5436 86.9949 58.5081 87.1128 58.4698 87.2278C58.4016 87.4436 58.3249 87.6694 58.2383 87.9122C58.1204 88.2487 57.9898 88.5895 57.8506 88.9232C57.0782 90.7948 56.0515 92.5513 54.7962 94.1446C54.6926 94.2752 54.5889 94.4073 54.4824 94.5337C54.0223 95.096 53.5267 95.6399 53.0127 96.1496C52.9516 96.2121 52.8877 96.2746 52.8224 96.3385L52.7557 96.4038C52.6662 96.4904 52.5782 96.5742 52.4887 96.6566C52.2544 96.8753 52.0187 97.0854 51.7887 97.2814C51.5615 97.4773 51.3172 97.6776 51.0659 97.8749C50.9438 97.9715 50.8188 98.0666 50.6924 98.1604C50.4752 98.3222 50.2778 98.4642 50.0861 98.5963C49.9171 98.7156 49.7311 98.842 49.5394 98.9683C47.7118 100.17 45.7295 101.087 43.645 101.693C43.3709 101.774 43.0926 101.85 42.7944 101.923C42.029 102.112 41.2452 102.261 40.4613 102.371C40.0595 102.425 39.6491 102.469 39.243 102.501C39.1507 102.508 39.057 102.517 38.9632 102.523C38.9164 102.525 38.8667 102.528 38.8184 102.531L38.5898 102.544C38.5287 102.547 38.4676 102.551 38.408 102.552C38.1084 102.565 37.7889 102.572 37.458 102.572L37.4623 102.574ZM17.9728 89.5793L17.9955 89.6262C18.1233 89.9002 18.2596 90.1757 18.4002 90.4441C18.4698 90.579 18.5408 90.7125 18.6146 90.8445C18.7637 91.1186 18.9171 91.3827 19.0704 91.6355C19.1528 91.7704 19.2309 91.8967 19.3104 92.0217C19.4169 92.1878 19.5589 92.4065 19.7094 92.6238C20.0829 93.1733 20.4862 93.7101 20.9093 94.2213C21.2729 94.6586 21.6577 95.0861 22.0553 95.495C22.1291 95.5703 22.203 95.6455 22.2796 95.7208C22.3606 95.8046 22.4358 95.8784 22.5125 95.9494C22.5892 96.0247 22.6616 96.0928 22.734 96.161C22.7653 96.1922 22.7923 96.2164 22.8178 96.2391C22.903 96.3186 22.9811 96.391 23.0621 96.4635C23.1501 96.543 23.2353 96.6197 23.3205 96.6921C23.3915 96.7546 23.4554 96.8099 23.5207 96.8667L23.5875 96.925C23.6088 96.9448 23.6301 96.9619 23.6514 96.9775L23.6627 96.9874C23.7437 97.057 23.8274 97.1252 23.9098 97.1933C23.9354 97.2161 23.9538 97.2317 23.9723 97.2445L23.9879 97.2558C24.0859 97.3353 24.1867 97.4149 24.2861 97.493C24.3841 97.5711 24.4792 97.6421 24.5758 97.7145C24.6255 97.7528 24.6695 97.7869 24.7135 97.8167C24.7959 97.8792 24.8683 97.9317 24.9421 97.9843C24.9734 98.0084 24.9961 98.024 25.0174 98.0382C25.114 98.1078 25.2077 98.1731 25.3014 98.237C25.4022 98.308 25.5002 98.3733 25.5982 98.4387C25.7231 98.5224 25.8467 98.602 25.9745 98.6829C26.0923 98.7568 26.213 98.832 26.3352 98.9073L26.3678 98.9272C26.4956 99.0038 26.622 99.0791 26.7512 99.1529C26.8634 99.2183 26.977 99.2822 27.0892 99.3432C27.1275 99.3659 27.1573 99.383 27.1886 99.3986L27.2596 99.4369C27.3036 99.4611 27.349 99.4852 27.3931 99.5079C27.4783 99.5548 27.5578 99.596 27.6373 99.6357C27.6884 99.6627 27.7381 99.6869 27.7864 99.711C27.8915 99.765 27.9909 99.8147 28.0917 99.8615L28.1059 99.8686C28.1286 99.8814 28.1499 99.8927 28.1741 99.9027L28.1868 99.9084C28.2976 99.9623 28.4126 100.015 28.5248 100.066L28.5418 100.075C28.5532 100.08 28.5646 100.086 28.5773 100.092L28.5958 100.099C28.7307 100.16 28.867 100.221 29.0033 100.278C29.1453 100.34 29.2831 100.397 29.4222 100.452L29.4364 100.458C29.4364 100.458 29.4506 100.465 29.4577 100.466L29.489 100.478C29.5784 100.515 29.6693 100.55 29.7602 100.584C29.834 100.614 29.9008 100.64 29.9675 100.662C30.0712 100.701 30.1677 100.738 30.2629 100.77L30.2771 100.776C30.3083 100.789 30.3396 100.8 30.3708 100.81L30.3992 100.82C30.5156 100.86 30.6321 100.901 30.7485 100.938C30.7826 100.951 30.8082 100.959 30.8337 100.966C31.1262 101.061 31.4301 101.152 31.7439 101.237C31.9016 101.282 32.0592 101.323 32.2168 101.362C32.3744 101.402 32.5335 101.441 32.6939 101.476C32.8473 101.512 33.0035 101.543 33.1583 101.575L33.1753 101.578C33.4366 101.632 33.7007 101.681 33.9591 101.723C34.1224 101.75 34.2886 101.774 34.4533 101.798C35.4345 101.936 36.4456 102.006 37.4594 102.006C37.7804 102.006 38.0928 101.999 38.3867 101.986C38.4463 101.984 38.5031 101.98 38.5599 101.977L38.9277 101.956C39.0186 101.95 39.1095 101.942 39.2004 101.935C39.5994 101.903 39.9984 101.861 40.3889 101.807C41.1514 101.702 41.9168 101.556 42.6609 101.372C42.9506 101.3 43.2218 101.226 43.4888 101.148C45.5194 100.557 47.4506 99.6641 49.2313 98.4941C49.4187 98.3719 49.5976 98.2498 49.7652 98.1305C49.954 98.0013 50.1457 97.8636 50.3545 97.706C50.4766 97.6137 50.5973 97.5214 50.718 97.4276C50.9622 97.2359 51.1994 97.0414 51.4223 96.8497C51.6467 96.658 51.8767 96.4535 52.1053 96.2405C52.1919 96.1596 52.2786 96.0786 52.3624 95.9963L52.4291 95.931C52.4916 95.8699 52.5526 95.8103 52.6137 95.7478C53.1164 95.2494 53.5977 94.7197 54.0479 94.1702C54.153 94.0452 54.2538 93.9188 54.3532 93.7924C55.5758 92.2404 56.5769 90.5279 57.3295 88.7046C57.4644 88.3794 57.5908 88.05 57.7072 87.7219C57.7924 87.4834 57.8663 87.2647 57.933 87.0531C57.9699 86.9395 58.004 86.8273 58.0381 86.7151C58.1744 86.2607 58.298 85.7978 58.4016 85.3377C58.5337 84.7598 58.6444 84.1648 58.7296 83.5699C58.873 82.5645 58.9469 81.5378 58.9469 80.5211C58.9469 79.5044 58.8745 78.482 58.7296 77.4823C58.5322 76.0723 58.1886 74.6721 57.7072 73.3217C57.6093 73.0462 57.5184 72.8077 57.4318 72.5918C57.4147 72.5478 57.3991 72.5095 57.3835 72.4711L57.3579 72.4072C57.3139 72.2979 57.2684 72.1871 57.2202 72.0778C57.1605 71.9386 57.1009 71.8023 57.0398 71.6674C56.8993 71.3593 56.7572 71.0625 56.6167 70.7884C56.5613 70.6777 56.5102 70.5768 56.4562 70.4789C56.3994 70.3709 56.344 70.2673 56.2844 70.1636L56.2773 70.1508C56.2532 70.1011 56.2248 70.0529 56.1978 70.006C55.9606 69.5829 55.7079 69.1696 55.4466 68.772L55.2449 68.4696C55.1029 68.2566 54.9397 68.0265 54.7465 67.7653L54.7352 67.7482C54.7295 67.7397 54.7238 67.734 54.7181 67.7269C54.6244 67.6005 54.535 67.4841 54.4441 67.3677L54.4071 67.3194C54.312 67.1958 54.214 67.0751 54.1161 66.9544L54.0891 66.9203C54.0238 66.8394 53.9556 66.7571 53.8874 66.6775C53.8292 66.608 53.7781 66.5469 53.7256 66.4873C53.6261 66.3708 53.5267 66.2601 53.4273 66.1493C53.3137 66.0243 53.1987 65.8994 53.0823 65.7773L53.0581 65.7517C52.946 65.6324 52.8324 65.5146 52.7159 65.3995C52.5938 65.276 52.4703 65.1539 52.3467 65.0346C52.2374 64.9295 52.1266 64.8273 52.0159 64.7236C51.9903 64.6995 51.9676 64.6782 51.9434 64.6569C51.827 64.5504 51.712 64.4481 51.5956 64.3473C51.4195 64.1925 51.2761 64.0704 51.1397 63.9597C51.0304 63.8688 50.931 63.7878 50.8288 63.7083C50.7904 63.6757 50.7606 63.6529 50.7308 63.6302L50.7024 63.6089C50.6087 63.5351 50.5178 63.4655 50.4255 63.3959C50.38 63.3604 50.3417 63.3306 50.3019 63.3036L50.2891 63.2951C50.2125 63.2354 50.1329 63.1772 50.0548 63.1233L50.0406 63.1133C49.9966 63.0792 49.9512 63.0466 49.9072 63.0168C49.7779 62.9245 49.6544 62.8364 49.5294 62.7527C49.3846 62.6533 49.2398 62.5581 49.0949 62.4644C45.9013 60.4011 42.198 59.2254 38.3881 59.0678C38.0743 59.0536 37.7619 59.0465 37.4609 59.0465C35.4132 59.0465 33.3911 59.3333 31.45 59.8985C31.4117 59.9084 31.3847 59.9169 31.3549 59.9254C31.3279 59.934 31.2966 59.9439 31.2654 59.9524L31.2484 59.9567C30.7088 60.12 30.1819 60.3017 29.6864 60.4948C29.6026 60.5275 29.5202 60.5602 29.4393 60.5928L29.3768 60.6184C29.0658 60.7448 28.7619 60.8768 28.4737 61.0103C28.2607 61.1083 28.069 61.2006 27.883 61.2929C27.5961 61.4349 27.305 61.5883 27.0139 61.7516C25.3085 62.7001 23.7394 63.8801 22.3492 65.2575C21.8593 65.7432 21.3992 66.243 20.9818 66.7457C20.8213 66.9388 20.6111 67.1944 20.4095 67.4614C19.6214 68.488 18.9256 69.5843 18.3391 70.7217C18.2156 70.9603 18.0921 71.2144 17.96 71.4956C17.7669 71.9116 17.5993 72.3022 17.4488 72.6898C17.3466 72.9483 17.2486 73.2152 17.1463 73.5077C17.0995 73.644 17.0526 73.7818 17.0086 73.9195C16.3199 76.0439 15.972 78.2661 15.972 80.5282C15.972 81.1743 16.0004 81.8247 16.0586 82.458V82.4722C16.141 83.3881 16.283 84.2997 16.4804 85.1816C16.5215 85.3775 16.5613 85.5508 16.6039 85.7169C16.6763 86.0108 16.7587 86.3133 16.8481 86.6172C16.9333 86.9097 17.0271 87.2065 17.1293 87.5004C17.2259 87.7887 17.3338 88.0798 17.4474 88.3652C17.6078 88.7784 17.7825 89.1874 17.9685 89.5864L17.9728 89.5793Z" fill="#B1BEC6"/>
<path d="M114.979 91.0689H56.661C56.5048 91.0689 56.377 90.9411 56.377 90.7849C56.377 90.6287 56.5048 90.5009 56.661 90.5009H114.979C115.135 90.5009 115.263 90.6287 115.263 90.7849C115.263 90.9411 115.135 91.0689 114.979 91.0689ZM88.1054 86.7279H72.1333C71.9771 86.7279 71.8493 86.6001 71.8493 86.4439C71.8493 86.2877 71.9771 86.1599 72.1333 86.1599H88.1054C88.2616 86.1599 88.3894 86.2877 88.3894 86.4439C88.3894 86.6001 88.2616 86.7279 88.1054 86.7279ZM125.894 121.884H61.0828C60.9266 121.884 60.7988 121.756 60.7988 121.6C60.7988 121.444 60.9266 121.316 61.0828 121.316H125.894C126.051 121.316 126.178 121.444 126.178 121.6C126.178 121.756 126.051 121.884 125.894 121.884Z" fill="#B1BEC6"/>
<g opacity="0.25">
<path d="M28.863 31.5865H29.1513C32.2767 31.5865 35.1564 32.5904 37.4611 34.2802V31.8321C33.904 31.8321 31.02 27.4756 31.02 22.1037C31.02 16.7319 33.904 12.3725 37.4611 12.3725H114.064C117.623 12.3725 120.506 16.729 120.506 22.1037C120.506 26.2984 118.749 29.8725 116.285 31.2386C118.804 30.6706 121.054 29.4366 122.823 27.7397C125.302 25.3626 126.836 22.0782 126.836 18.4501C126.836 11.1939 120.703 5.31081 113.137 5.31081H28.863C25.0801 5.31081 21.6551 6.78051 19.1758 9.15901C16.6964 11.5361 15.1628 14.822 15.1628 18.4501C15.1628 25.7063 21.2972 31.5879 28.863 31.5879V31.5865Z" fill="#B1BEC6"/>
</g>
<g opacity="0.25">
<path d="M114.98 57.9814V72.0735V84.02C118.026 83.6281 120.756 82.2762 122.825 80.2911C125.304 77.914 126.837 74.6281 126.837 71C126.837 64.343 121.676 58.8434 114.98 57.9814Z" fill="#B1BEC6"/>
</g>
<g opacity="0.25">
<path d="M16.7417 73.8258C16.7857 73.6866 16.834 73.5461 16.8808 73.4069C16.9774 73.1286 17.0796 72.8517 17.1861 72.579C17.3452 72.1687 17.5198 71.7668 17.7044 71.3692C17.828 71.1051 17.9544 70.8424 18.0878 70.5839C18.6885 69.4181 19.3914 68.3134 20.1852 67.281C20.3726 67.0339 20.5672 66.794 20.766 66.5554C21.2019 66.03 21.6662 65.5273 22.1519 65.0474C23.5534 63.66 25.1424 62.4615 26.8776 61.4959C27.1659 61.3341 27.4598 61.1793 27.758 61.0316C27.9568 60.9322 28.1556 60.8371 28.3573 60.7448C28.6597 60.6056 28.965 60.4735 29.2746 60.3472C29.3797 60.306 29.4819 60.2648 29.587 60.2236C29.8185 60.1342 30.0513 60.049 30.2871 59.9666C30.3495 59.9453 30.4134 59.9226 30.4759 59.9013C30.6534 59.8416 30.8323 59.7834 31.0127 59.728C31.0666 59.711 31.1206 59.6925 31.1746 59.6755C31.2072 59.667 31.2413 59.657 31.2725 59.6457C31.3066 59.6343 31.3393 59.6258 31.3734 59.6159C33.3046 59.0535 35.3508 58.7525 37.4623 58.7525V55.1656C35.1577 56.854 32.2779 57.8579 29.1525 57.8579H28.8642C25.0813 57.8579 21.6563 59.3276 19.177 61.7061C16.6977 64.0832 15.1641 67.3676 15.1641 70.9957C15.1641 72.7494 15.5233 74.4222 16.1723 75.9501C16.327 75.2273 16.5173 74.5159 16.7417 73.8215V73.8258Z" fill="#B1BEC6"/>
</g>
<g opacity="0.25">
<path d="M115.277 129.629H55.0263C53.7199 129.629 52.4476 129.486 51.225 129.216L51.7319 128.964L51.2235 129.216C43.3511 127.479 37.4623 120.459 37.4623 112.065V110.415H28.8642C25.0813 110.415 21.6563 111.885 19.177 114.263C16.6977 116.64 15.1641 119.926 15.1641 123.554C15.1641 130.81 21.2985 136.692 28.8642 136.692H113.138C116.921 136.692 120.345 135.222 122.824 132.844C125.304 130.467 126.837 127.182 126.837 123.554C126.837 122.228 126.631 120.947 126.251 119.74C125.68 125.295 120.984 129.63 115.278 129.63L115.277 129.629Z" fill="#B1BEC6"/>
</g>
</svg>
