<svg width="148" height="148" viewBox="0 0 148 148" fill="none" xmlns="http://www.w3.org/2000/svg">
<rect width="148" height="148" rx="74" fill="#262626"/>
<g clip-path="url(#clip0_83_1743)">
<path d="M83.3257 40.5436C80.3668 39.2958 77.2331 38.6577 73.9953 38.6624C70.7623 38.6624 67.6238 39.2958 64.665 40.5436C61.8101 41.7536 59.2483 43.4741 57.0456 45.6767C54.8478 47.8746 53.1178 50.4364 51.9125 53.296C50.66 56.2502 50.0266 59.3886 50.0313 62.6264C50.0313 65.8594 50.6647 68.9979 51.9125 71.9567C53.1225 74.8116 54.843 77.3734 57.0456 79.5761C59.2435 81.7739 61.8054 83.5039 64.665 84.7092C67.0046 85.697 69.4625 86.302 71.9865 86.51L71.9865 96.4359L62.5049 96.4265L62.5049 100.435L71.9865 100.435L71.9912 109.921L75.9994 109.921L75.9994 100.439L85.481 100.439L85.481 96.4312L76.0041 96.4265L76.0041 86.5006C78.5281 86.2926 80.986 85.6876 83.3257 84.6997C86.1805 83.4897 88.7424 81.7692 90.945 79.5666C93.1429 77.3687 94.8728 74.8069 96.0781 71.9473C96.7067 70.4678 97.1747 68.9506 97.4914 67.3861C97.808 65.831 97.9688 64.2334 97.9688 62.6169C97.9688 59.3839 97.3354 56.2454 96.0876 53.2866C94.8775 50.4317 93.157 47.8699 90.9544 45.6673C88.7377 43.4788 86.1758 41.7489 83.3257 40.5436ZM93.9464 62.6217C93.9464 67.9533 91.8761 72.9635 88.1043 76.7353C84.3324 80.5072 79.3269 82.5822 73.9953 82.5822C62.9917 82.5822 54.0395 73.63 54.0395 62.6264C54.0395 57.2947 56.1145 52.2893 59.8863 48.5174C63.6582 44.7456 68.6637 42.6706 73.9953 42.6706C84.9989 42.6706 93.9511 51.6228 93.9464 62.6217Z" fill="#E55733"/>
</g>
<defs>
<clipPath id="clip0_83_1743">
<rect width="75.85" height="75.85" fill="white" transform="translate(36.075 36.075)"/>
</clipPath>
</defs>
</svg>
