<svg width="73" height="3" viewBox="0 0 73 3" fill="none" xmlns="http://www.w3.org/2000/svg">
<path d="M72.5 1.54565C72.4999 1.7293 72.4209 1.93488 72.2227 2.06128C72.0636 2.16251 71.8906 2.16724 71.7891 2.16284L71.4141 2.14722C71.2264 2.13887 71.0451 2.09491 70.8711 2.02222L70.1211 1.70972L69.9336 1.6355L69.7461 1.55737C69.6507 1.51802 69.5583 1.48843 69.4688 1.47144L69.0938 1.40112C68.9128 1.36672 68.739 1.3029 68.5742 1.21362L68.1992 1.0105C68.1899 1.00546 68.1831 1.00379 68.1797 1.00269L67.9961 1.04565L67.8086 1.09253C67.763 1.10393 67.6997 1.13471 67.6172 1.198L67.4297 1.33862L67.2422 1.48315C67.1014 1.59113 66.958 1.68825 66.8125 1.77222L66.625 1.88159L66.4375 1.98706C66.1987 2.12485 65.9205 2.16651 65.6445 2.06909L65.2695 1.93628C65.141 1.89087 65.0113 1.84474 64.8828 1.79565L64.6953 1.72144L64.5078 1.65112C64.3941 1.60768 64.2809 1.56821 64.168 1.53394L63.9805 1.47534L63.9336 1.46362L63.7695 1.67456L63.582 1.91284C63.4831 2.03975 63.2829 2.23239 62.9805 2.22144C62.6879 2.2102 62.5027 2.01471 62.4102 1.8894L62.2227 1.6355L62.1367 1.52222L61.9766 1.6355C61.8341 1.73605 61.6466 1.80493 61.4336 1.77612C61.2303 1.74816 61.071 1.64197 60.9609 1.53394L60.8359 1.41675L60.7969 1.48315L60.6094 1.77612C60.4699 1.99556 60.2104 2.3097 59.8008 2.29956L59.6133 2.29565L59.4258 2.28784C59.046 2.27758 58.7944 2.00135 58.6484 1.78394L58.4375 1.46753L58.3047 1.61206C58.1448 1.78382 57.9544 1.93083 57.7305 2.0105L57.3555 2.14331C57.1715 2.20873 56.9794 2.19831 56.8047 2.12378C56.6436 2.05488 56.5181 1.94256 56.4258 1.83081L56.2383 1.60425L56.0508 1.37378C56.0331 1.35246 56.0189 1.33705 56.0078 1.3269H56.0039L55.8672 1.323L55.6797 1.31909C55.5155 1.31642 55.3521 1.29714 55.1914 1.25659L55.0039 1.20581L54.8164 1.15894C54.7572 1.14393 54.7001 1.14234 54.6445 1.15112L54.2695 1.21362C54.1997 1.22498 54.1194 1.24938 54.0352 1.29175L53.6602 1.47925C53.5787 1.52039 53.489 1.58164 53.3906 1.66675L53.2031 1.83081L53.0156 1.99097C52.8844 2.10459 52.6901 2.2078 52.4531 2.18628C52.2271 2.16528 52.0586 2.03922 51.9492 1.92456L51.7617 1.72925L51.6328 1.60034L51.5898 1.61987L51.4023 1.70972C51.291 1.76312 51.1795 1.82663 51.0664 1.89331L50.6914 2.11206C50.5435 2.19926 50.3627 2.24567 50.168 2.21362C49.9823 2.18281 49.8328 2.08829 49.7227 1.98706L49.3477 1.64331C49.2583 1.56137 49.1871 1.52149 49.1367 1.50269L48.7617 1.36206C48.6471 1.31929 48.5319 1.27898 48.418 1.24487L48.043 1.1355C47.9608 1.11096 47.881 1.09736 47.8047 1.09644L47.6172 1.09253H47.4297C47.3644 1.09193 47.2964 1.10322 47.2227 1.12769L46.8477 1.25269C46.6591 1.31562 46.4603 1.33892 46.2617 1.31909L45.8867 1.28003C45.7361 1.26493 45.586 1.24042 45.4375 1.2019L45.25 1.15112L45.1875 1.1394L45.0195 1.35815L44.832 1.59644C44.7399 1.71347 44.6071 1.84094 44.4258 1.90894C44.2224 1.98521 44.0123 1.96369 43.832 1.86987L43.457 1.67456C43.4492 1.67049 43.4436 1.66743 43.4414 1.66675L43.2617 1.72144L43.0742 1.77222C42.8359 1.84015 42.5957 1.82245 42.3711 1.72925L42.1836 1.65112L42.0938 1.61597L41.9531 1.73706L41.7656 1.90112C41.5674 2.07294 41.3017 2.19864 40.9922 2.15503L40.6172 2.10034C40.2895 2.05388 40.0586 1.82337 39.9062 1.61206L39.7188 1.35425L39.6016 1.19409L39.4297 1.29175C39.2297 1.40283 39.0041 1.46233 38.7656 1.44019L38.5781 1.42065L38.3906 1.40503C38.3872 1.40464 38.3662 1.40061 38.3203 1.42847L37.9453 1.65503C37.7465 1.77555 37.5188 1.84546 37.2734 1.8269L37.0859 1.81519L36.8984 1.79956C36.7054 1.78478 36.5186 1.73141 36.3438 1.64722L35.9688 1.46753C35.8435 1.40722 35.719 1.34503 35.5938 1.28394L35.3906 1.18237L35.2656 1.34253L35.0781 1.5769C34.9833 1.69559 34.8361 1.83331 34.6289 1.8894C34.3956 1.95201 34.1825 1.88529 34.0234 1.77222L33.8359 1.6394L33.8164 1.62769L33.7422 1.70972L33.5547 1.90894C33.4313 2.04148 33.2052 2.20055 32.9062 2.14331C32.6472 2.09327 32.4845 1.90566 32.3984 1.78003L32.2109 1.50659L32.0391 1.2605L32.0156 1.2644L31.8281 1.323C31.6511 1.37506 31.469 1.39569 31.2852 1.3855L31.0977 1.37378L30.9102 1.36597C30.8115 1.36046 30.7122 1.36011 30.6133 1.36987L30.4258 1.3894L30.2539 1.40894C30.2416 1.4169 30.2175 1.43442 30.1836 1.47144L29.9961 1.67847L29.8086 1.88159C29.6253 2.08257 29.3373 2.27623 28.9727 2.20972L28.7852 2.17456L28.5977 2.14331C28.3692 2.10163 28.1692 1.98868 27.9961 1.84644L27.8086 1.69409L27.6602 1.573L27.5586 1.61206L27.3711 1.68628C27.2167 1.74681 27.0583 1.79125 26.8984 1.81909L26.5234 1.88159C26.3057 1.9195 26.0907 1.89595 25.8867 1.81909L25.6992 1.74878L25.5898 1.70581L25.4375 1.83081L25.25 1.98315C25.114 2.09167 24.9219 2.17546 24.6953 2.15112C24.4794 2.12748 24.3171 2.01283 24.207 1.90112L24.0195 1.70972L23.832 1.52222C23.7335 1.42221 23.646 1.35783 23.5742 1.31909L23.3867 1.21753L23.3242 1.18628L23.2148 1.28784L23.0273 1.45972C22.9018 1.57552 22.7102 1.68915 22.4688 1.67456C22.2356 1.66014 22.0643 1.53257 21.9531 1.41675L21.8047 1.2644L21.7812 1.29956L21.5938 1.56519C21.4423 1.77798 21.2083 2.01687 20.8711 2.05737L20.4961 2.10425C20.1652 2.14354 19.8981 1.98211 19.7109 1.79565L19.3359 1.42065C19.3138 1.3986 19.2939 1.39132 19.2852 1.3855H19.1328L18.9453 1.3894C18.8862 1.39053 18.822 1.40377 18.75 1.43237L18.375 1.58081C18.1483 1.67149 17.9048 1.68782 17.668 1.61597L17.4805 1.55737L17.3242 1.5105L17.1406 1.62378L16.9531 1.74097C16.8007 1.83638 16.6095 1.88782 16.4023 1.84644C16.2082 1.80747 16.0585 1.69686 15.9531 1.58862L15.7656 1.39722L15.6055 1.23706L15.5312 1.2605L15.3438 1.323C15.1547 1.38444 14.9562 1.40703 14.7578 1.3855L14.5703 1.36206L14.418 1.34644C14.4117 1.35067 14.402 1.3561 14.3906 1.36597L14.0156 1.69409C13.8502 1.83791 13.6611 1.95411 13.4492 2.0144L13.2617 2.06519L13.0742 2.11987C12.892 2.1717 12.7043 2.18819 12.5156 2.17065L12.3281 2.15503L12.1406 2.1355C12.0621 2.12827 11.9825 2.13245 11.9023 2.14722L11.5273 2.21753C11.2619 2.26621 11.0133 2.20038 10.8008 2.06909L10.6133 1.9519L10.4258 1.83862C10.3285 1.77843 10.2354 1.73224 10.1484 1.7019L9.96094 1.6355L9.77344 1.573C9.69489 1.54561 9.62051 1.5316 9.55078 1.53003L9.17578 1.52222C9.09563 1.52046 9.0135 1.52923 8.92969 1.54956L8.74219 1.59253L8.55469 1.6394C8.4022 1.67636 8.24855 1.70011 8.09375 1.70972L7.71875 1.73315C7.517 1.74564 7.3201 1.7118 7.13281 1.6394L6.94531 1.56519L6.76953 1.50269L6.59375 1.58862L6.40625 1.67847C6.27692 1.74102 6.14514 1.80013 6.01562 1.85815L5.82812 1.94409L5.64062 2.02612C5.32175 2.1686 5.00645 2.09453 4.76172 1.90894L4.38672 1.62769C4.29772 1.56018 4.21929 1.51939 4.15625 1.49878L3.96875 1.43628L3.78125 1.37769C3.70402 1.3525 3.63188 1.33871 3.5625 1.33862H3.1875C3.18726 1.33862 3.18228 1.33883 3.17188 1.34253C3.15994 1.34688 3.13611 1.35921 3.10547 1.38159L2.73047 1.65503C2.59705 1.75241 2.4629 1.84377 2.32812 1.92847L1.95312 2.16284C1.81041 2.25254 1.6337 2.30866 1.4375 2.28394C1.24819 2.26007 1.09431 2.16933 0.980469 2.06909L0.792969 1.90503L0.605469 1.73706C0.585697 1.7204 0.532303 1.68593 0.398438 1.67847L0.0742188 1.66284H0V0.662842H0.128906L0.453125 0.682373C0.747405 0.698652 1.03798 0.78318 1.26953 0.987061L1.45703 1.15503L1.54688 1.23706L1.79688 1.08081C1.9113 1.00887 2.02875 0.930985 2.14453 0.846436L2.51953 0.572998C2.70916 0.434822 2.93399 0.338529 3.1875 0.338623H3.5625C3.74283 0.338754 3.92133 0.368199 4.09375 0.424561L4.46875 0.549561C4.65526 0.610667 4.82761 0.708971 4.98828 0.830811L5.17578 0.971436L5.31641 1.08081L5.42188 1.03003L5.60938 0.947998C5.72964 0.894111 5.8483 0.834374 5.96875 0.776123L6.34375 0.596436C6.52709 0.507763 6.72547 0.474531 6.92188 0.506592L7.11719 0.561279L7.30469 0.635498L7.49219 0.705811C7.55453 0.729937 7.60833 0.739961 7.65625 0.737061L8.03125 0.713623C8.12614 0.707749 8.22309 0.690332 8.32031 0.666748L8.50781 0.623779L8.69531 0.576904C8.86111 0.536746 9.02976 0.518406 9.19922 0.522217L9.57422 0.530029C9.75414 0.534127 9.93042 0.56806 10.1016 0.627686L10.2891 0.694092L10.4766 0.756592C10.6392 0.813314 10.7969 0.892844 10.9492 0.987061L11.1367 1.10425L11.3242 1.21753C11.3344 1.22386 11.3427 1.23102 11.3477 1.23315L11.5352 1.198L11.7227 1.16675C11.8921 1.13558 12.0633 1.12741 12.2344 1.14331L12.4219 1.15894L12.6094 1.17847C12.6703 1.18404 12.7335 1.17805 12.8008 1.15894L13.1758 1.04956C13.2135 1.03873 13.2754 1.00937 13.3594 0.936279L13.5469 0.776123L13.7344 0.612061C13.8809 0.4845 14.0629 0.379581 14.2734 0.350342H14.4922L14.8672 0.389404C14.9182 0.394841 14.9712 0.389214 15.0312 0.369873L15.2188 0.311279L15.4062 0.248779C15.7781 0.127951 16.0952 0.29938 16.2969 0.506592L16.4844 0.701904L16.5781 0.795654L16.7969 0.658936C16.9698 0.550648 17.1677 0.492631 17.375 0.506592L17.582 0.541748L17.957 0.658936C17.9693 0.662668 17.9787 0.663289 18 0.655029L18.1875 0.580811L18.375 0.502686C18.552 0.431886 18.7395 0.392694 18.9297 0.389404L19.1172 0.385498H19.3047L19.5234 0.408936C19.7312 0.458639 19.9037 0.578746 20.0391 0.713623L20.4297 1.10425L20.7031 1.073C20.7173 1.06038 20.7461 1.03649 20.7812 0.987061L20.9688 0.721436L21.1562 0.459717L21.3438 0.252686C21.4271 0.186194 21.5324 0.131491 21.6602 0.108154C21.9508 0.0553985 22.1713 0.203824 22.2969 0.334717L22.4844 0.530029L22.5195 0.569092L22.5352 0.553467L22.7227 0.381592C22.8313 0.28138 22.9762 0.185569 23.1562 0.151123C23.2506 0.133124 23.3425 0.135846 23.4297 0.151123L23.6758 0.237061L24.0508 0.440186C24.2284 0.536249 24.392 0.665889 24.543 0.819092L24.7305 1.0105L24.7852 1.06909L24.8125 1.04956L25 0.901123C25.2307 0.716563 25.538 0.6223 25.8633 0.744873L26.2383 0.885498C26.2843 0.902834 26.3193 0.90284 26.3516 0.897217L26.7266 0.834717C26.8165 0.819062 26.9086 0.790011 27.0039 0.752686L27.1914 0.678467L27.3789 0.608154C27.71 0.478366 28.023 0.578509 28.2539 0.768311L28.4414 0.920654L28.6289 1.0769C28.7056 1.13991 28.7559 1.15503 28.7773 1.15894L28.9648 1.19019L29.0664 1.20972L29.2539 1.00269L29.4414 0.799561C29.6105 0.614099 29.8422 0.442541 30.1367 0.412842L30.3242 0.393311L30.5117 0.377686C30.6622 0.362722 30.8141 0.357589 30.9648 0.365967L31.1523 0.377686L31.3398 0.385498C31.4054 0.389154 31.4745 0.383406 31.5469 0.362061L31.9219 0.252686L32.0859 0.221436C32.4577 0.196451 32.7198 0.474423 32.8516 0.666748L33.0391 0.940186L33.0586 0.971436L33.1953 0.826904C33.2998 0.714755 33.454 0.594941 33.6602 0.557373C33.7713 0.537223 33.8771 0.543522 33.9727 0.569092L34.2266 0.690186L34.4023 0.819092L34.4844 0.717529L34.6719 0.483154C34.7641 0.367563 34.8936 0.242455 35.0703 0.174561C35.2677 0.0990633 35.4748 0.113474 35.6562 0.201904L35.8438 0.291748L36.0312 0.385498L36.7812 0.744873C36.8555 0.780484 36.9204 0.79922 36.9766 0.803467L37.1641 0.815186L37.3516 0.830811C37.3583 0.831193 37.3825 0.832055 37.4297 0.803467L37.6172 0.686279L37.8047 0.572998C38.0053 0.451727 38.2365 0.385916 38.4844 0.408936L38.6719 0.424561L38.8594 0.444092C38.8707 0.445054 38.8968 0.443744 38.9453 0.416748L39.1328 0.311279L39.3203 0.209717L39.4648 0.147217C39.6167 0.100727 39.7814 0.104298 39.9414 0.170654C40.1253 0.24704 40.2557 0.384609 40.3438 0.506592L40.5312 0.768311L40.7188 1.02612C40.7561 1.07787 40.7821 1.10724 40.7969 1.11987L40.9453 1.1394L41.0898 1.15894C41.0946 1.15552 41.1023 1.1533 41.1094 1.14722L41.4844 0.819092L41.668 0.694092C41.7352 0.657403 41.8095 0.626496 41.8906 0.608154C41.9749 0.589182 42.0588 0.584787 42.1406 0.592529L42.3789 0.651123L42.7539 0.807373C42.7793 0.817893 42.7891 0.814617 42.8008 0.811279L42.9883 0.760498L43.1758 0.705811L43.3672 0.670654C43.5596 0.655082 43.7467 0.698573 43.918 0.787842L44.1055 0.885498L44.1094 0.889404L44.2305 0.737061L44.418 0.498779C44.5877 0.28295 44.8975 0.0280082 45.3125 0.135498L45.5 0.182373L45.6875 0.233154C45.7882 0.259319 45.8896 0.277996 45.9883 0.287842L46.1758 0.303467L46.3633 0.322998C46.4139 0.327906 46.467 0.323356 46.5273 0.303467L46.9023 0.178467C47.0774 0.120027 47.2615 0.0902964 47.4453 0.0925293H47.6328L47.8203 0.0964355C47.9932 0.0987025 48.165 0.124554 48.332 0.174561L48.5195 0.233154L48.707 0.287842C48.8426 0.328432 48.9785 0.374231 49.1133 0.424561L49.4883 0.565186C49.6873 0.639658 49.8675 0.762075 50.0273 0.908936L50.2148 1.08081L50.3125 1.17456L50.3711 1.1394L50.5586 1.03003C50.6953 0.949416 50.8342 0.877653 50.9727 0.811279L51.3477 0.631592L51.6094 0.557373C51.6999 0.548693 51.7932 0.554254 51.8867 0.580811C51.9744 0.605747 52.0526 0.644518 52.1211 0.690186L52.3008 0.842529L52.4883 1.03784L52.5352 1.08472L52.5469 1.073L52.7344 0.912842C52.8852 0.782235 53.0469 0.669155 53.2148 0.584717L53.5898 0.397217C53.7546 0.314576 53.9265 0.254634 54.1055 0.225342L54.293 0.194092L54.4805 0.166748C54.6737 0.135329 54.869 0.142401 55.0586 0.190186L55.4336 0.283936C55.5222 0.30637 55.6103 0.317681 55.6953 0.319092L56.0703 0.326904C56.4078 0.332396 56.6589 0.537 56.8242 0.737061L57.0117 0.967529L57.1602 1.15112L57.207 1.1355L57.3945 1.06909C57.4205 1.05985 57.4802 1.02529 57.5703 0.928467L57.7578 0.729248L57.9453 0.526123L58.0586 0.424561C58.1895 0.326416 58.3751 0.248677 58.6016 0.295654C58.8593 0.349372 59.0169 0.540682 59.1016 0.666748L59.2891 0.947998L59.4766 1.22534C59.4961 1.25446 59.5141 1.27653 59.5273 1.29175L59.6367 1.29565L59.7266 1.29956C59.7379 1.285 59.7504 1.26497 59.7656 1.24097L59.9531 0.947998L60.1406 0.651123C60.2221 0.523002 60.3695 0.335485 60.6094 0.264404C60.8305 0.199355 61.0226 0.258019 61.1641 0.350342L61.2891 0.451904L61.4766 0.635498L61.5508 0.713623L61.5859 0.686279L61.7734 0.553467L61.9102 0.479248C62.0546 0.41575 62.2242 0.394582 62.4023 0.451904C62.5051 0.485224 62.5921 0.539892 62.6641 0.600342L62.8398 0.787842L63.0078 1.02222L63.168 0.819092C63.3387 0.60019 63.6575 0.335123 64.082 0.463623L64.2695 0.518311L64.457 0.576904C64.5936 0.618313 64.7315 0.665668 64.8672 0.717529L65.0547 0.787842L65.2422 0.862061C65.3627 0.908093 65.4851 0.952371 65.6055 0.994873L65.793 1.06128L65.9492 1.11597L66.125 1.0144L66.3125 0.905029C66.4168 0.844833 66.5238 0.773858 66.6328 0.690186L67.0078 0.401123C67.1752 0.272829 67.3622 0.174876 67.5664 0.123779L67.9414 0.0300293L68.1328 0.00268555C68.3242 -0.00681853 68.5084 0.0408829 68.6758 0.131592L69.0508 0.334717C69.1354 0.380522 69.2127 0.407642 69.2812 0.420654L69.6562 0.490967C69.8164 0.52142 69.9747 0.567963 70.1289 0.631592L71.2539 1.10034C71.2839 1.11291 71.3161 1.11636 71.3438 1.12378L71.168 0.662842H72V1.12378L72.3672 0.979248L72.4648 1.23706L72.5 1.323V1.54565Z" fill="#7DE3FF"/>
</svg>
