<svg width="148" height="148" viewBox="0 0 148 148" fill="none" xmlns="http://www.w3.org/2000/svg">
<rect width="148" height="148" rx="74" fill="#262626"/>
<path d="M87.8615 38.6215V43.4261H101.171L85.8596 58.7371C83.5453 56.7752 80.9508 55.2056 78.132 54.0605C74.6887 52.6672 71.0611 51.9545 67.3295 51.9545C63.6059 51.9545 59.9703 52.6592 56.527 54.0605C52.9635 55.5019 49.7684 57.624 47.0297 60.3707C44.291 63.1093 42.169 66.3045 40.7275 69.8679C39.3342 73.3113 38.6215 76.9388 38.6215 80.6705C38.6215 84.4021 39.3262 88.0297 40.7275 91.473C42.169 95.0365 44.291 98.2316 47.0377 100.97C49.7764 103.709 52.9715 105.831 56.535 107.28C59.9783 108.674 63.6059 109.386 67.3375 109.386C71.0611 109.386 74.6967 108.682 78.14 107.28C81.7035 105.839 84.8986 103.717 87.6373 100.97C90.376 98.2316 92.4981 95.0365 93.9395 91.473C95.3328 88.0297 96.0455 84.3941 96.0455 80.6705C96.0455 76.9468 95.3408 73.3113 93.9395 69.8679C92.7943 67.0492 91.2248 64.4547 89.2629 62.1404L104.574 46.8215V60.1385H109.379V38.6215H87.8615ZM84.234 97.575C79.7176 102.091 73.7197 104.574 67.3295 104.574C60.9393 104.574 54.9414 102.091 50.433 97.575C41.1119 88.2539 41.1119 73.0871 50.433 63.766C54.9494 59.2496 60.9473 56.7672 67.3375 56.7672C73.7277 56.7672 79.7256 59.2576 84.242 63.766C93.5551 73.0871 93.5551 88.2539 84.234 97.575Z" fill="#0771FF"/>
</svg>
