<svg width="320" height="322" viewBox="0 0 320 322" fill="none" xmlns="http://www.w3.org/2000/svg">
<g >
<path d="M94.6768 86.3982C95.1435 90.4909 96.3015 94.3678 98.462 97.9943C97.978 98.0375 97.6583 97.8389 97.3385 97.6834C94.746 96.371 92.8274 94.3505 91.3065 91.9243C89.3534 88.7986 88.325 85.3448 87.7287 81.7529C86.8213 76.27 86.8213 70.7526 87.4089 65.2438C88.5151 54.8392 91.7558 45.1686 97.399 36.3442C100.674 31.2326 104.606 26.6736 109.152 22.6327C116.463 16.1482 124.759 11.3302 133.903 7.95411C138.224 6.35673 142.7 5.3465 147.237 4.57803C154.92 3.28287 162.663 2.85114 170.441 3.02383C176.075 3.15335 181.589 4.0945 186.99 5.68325C195.753 8.25632 203.73 12.3404 210.773 18.1773C215.059 21.7347 218.663 25.8793 221.705 30.5332C225.577 36.4478 228.065 42.9151 229.509 49.814C230.589 54.986 231.064 60.2099 231.228 65.4769C231.315 68.2917 231.393 71.1152 231.73 73.9128C232.127 77.2025 233.13 80.2418 235.385 82.7631C236.837 84.3864 238.574 85.5607 240.743 86.0183C240.821 86.0356 240.89 86.0701 240.994 86.1133C240.372 86.7695 239.568 87.0112 238.756 87.1926C238.03 87.3566 237.278 87.4084 236.526 87.3307C234.59 87.1321 232.749 86.6313 231.047 85.6643C230.995 85.6038 230.952 85.5348 230.883 85.4916C230.796 85.4398 230.693 85.3448 230.589 85.4225C230.477 85.5175 230.58 85.6211 230.623 85.7161C230.667 85.8197 230.719 85.9147 230.84 85.9406C230.865 85.9837 230.891 86.0269 230.926 86.0701L230.917 86.1305L230.986 86.1392C232.404 88.2201 234.063 90.0679 236.094 91.5875C238.021 93.0295 240.138 93.9793 242.515 94.3419C242.826 94.3851 243.128 94.4628 243.5 94.5405C243.189 95.1018 242.714 95.4299 242.264 95.7666C239.87 97.5712 237.183 98.7541 234.279 99.5053C232.265 100.023 230.217 100.265 228.031 100.239C229.44 106.551 228.264 112.31 224.436 117.465C222.828 119.624 220.832 121.376 218.231 122.395C220.348 118.864 221.515 115.116 221.152 110.963C220.927 111.006 220.919 111.179 220.875 111.291C219.398 115.021 216.952 118.018 213.867 120.522C211.827 122.171 209.58 123.509 207.282 124.761C206.279 125.305 205.735 126.091 205.579 127.187C205.38 128.664 205.873 129.838 207.109 130.684C207.463 130.926 207.852 131.107 208.31 131.358C207.61 131.798 206.901 132.049 206.132 132.118C202.736 132.437 199.841 131.401 197.507 128.88C197.369 128.733 197.231 128.586 197.093 128.439C197.075 128.422 197.041 128.431 196.98 128.431C195.485 131.263 193.428 133.586 190.533 135.174C190.966 135.477 191.415 135.563 191.838 135.727C194.941 136.927 198.13 137.92 201.198 139.207C203.401 140.13 205.545 141.158 207.549 142.47C208.958 143.394 210.125 144.569 211.136 145.916C213.633 149.223 215.846 152.72 218.067 156.208C220.538 160.085 222.993 163.97 225.438 167.864C226.138 168.987 226.795 170.135 227.452 171.275C227.651 171.62 227.815 171.992 227.979 172.354C228.696 173.934 228.584 175.471 227.763 176.991C227.219 177.984 226.544 178.882 225.81 179.719C225.49 180.082 225.456 180.341 225.68 180.764C226.588 182.526 227.461 184.304 228.083 186.195C228.869 188.561 229.327 190.97 229.163 193.474C228.999 195.97 228.204 198.249 226.907 200.364C225.335 202.938 223.356 205.165 221.186 207.238C220.314 208.075 219.424 208.895 218.464 209.629C218.032 209.957 217.877 210.26 218.032 210.838C218.378 212.116 218.456 213.437 218.309 214.767C218.11 216.597 217.332 218.126 216.062 219.403C214.42 221.07 212.545 222.365 210.151 222.702C209.805 222.754 209.745 222.944 209.701 223.211C209.546 224.204 209.347 225.189 209.062 226.156C208.388 228.435 207.23 230.421 205.406 231.993C204.965 232.372 204.516 232.718 203.989 232.968C203.669 233.124 203.522 233.296 203.574 233.694C204.041 237.579 204.248 241.482 204.603 245.376C204.966 249.296 205.372 253.216 205.752 257.136C205.838 258.051 205.925 258.967 205.977 259.882C206.037 260.763 206.262 261.557 206.832 262.265C207.515 263.12 208.085 264.052 208.699 264.959C210.989 268.37 211.3 272.056 210.375 275.951C210.064 277.272 209.572 278.524 208.984 279.741C208.751 280.225 208.794 280.561 209.114 280.976C209.779 281.839 210.133 282.824 210.142 283.937C210.151 284.706 210.021 285.448 209.528 286.053C209.174 286.485 209.286 286.813 209.546 287.201C210.73 288.997 211.905 290.81 213.158 292.563C214.005 293.755 214.895 294.921 215.586 296.224C216.84 298.599 217.479 301.146 217.704 303.805C217.877 305.869 217.877 307.941 217.903 310.014C217.92 311.248 217.444 312.25 216.598 313.096C215.707 313.985 214.645 314.607 213.486 315.065C210.185 316.377 206.737 316.895 203.203 316.999C198.242 317.137 193.48 316.23 188.952 314.167C187.828 313.657 186.748 313.053 185.754 312.31C184.605 311.455 183.896 310.35 183.879 308.891C183.87 308.399 183.646 308.166 183.231 308.01C182.315 307.665 181.408 307.311 180.5 306.957C179.99 306.758 179.506 306.508 179.057 306.197C178.331 305.705 177.985 305.014 177.968 304.151C177.951 302.795 177.951 301.448 177.925 300.093C177.873 297.191 177.752 294.282 177.968 291.38C178.124 289.334 178.4 287.322 179.394 285.492C179.29 285.224 179.031 285.198 178.841 285.094C176.948 284.05 175.488 282.599 174.598 280.596C174.019 279.301 173.785 277.928 173.975 276.555C174.191 274.949 173.751 273.619 172.982 272.238C170.052 266.997 167.295 261.661 164.806 256.195C164.011 254.442 163.242 252.681 162.464 250.919C162.378 250.721 162.283 250.513 162.188 250.315C161.894 250.384 161.972 250.583 161.98 250.721C161.98 255.323 161.764 259.916 161.54 264.519C161.427 266.789 161.289 269.052 161.133 271.323C161.09 271.918 161.194 272.454 161.453 272.989C161.877 273.87 162.387 274.707 162.75 275.614C163.864 278.394 163.527 280.959 161.617 283.29C161.315 283.661 161.211 283.955 161.393 284.438C162.006 286.053 162.032 287.763 162.067 289.455C162.136 292.417 162.05 295.378 161.799 298.331C161.704 299.505 161.756 300.688 161.747 301.871C161.738 302.571 161.661 303.253 161.384 303.892C160.917 304.954 160.053 305.601 159.025 306.05C157.729 306.62 156.363 306.974 154.989 307.259C149.415 308.39 143.927 309.875 138.388 311.153C131.189 312.811 124.025 312.768 116.921 310.575C115.409 310.109 113.957 309.495 112.592 308.684C110.932 307.708 109.982 306.318 109.861 304.367C109.671 301.362 110.034 298.443 111.321 295.706C112.695 292.788 114.942 290.629 117.708 289.006C119.194 288.134 120.776 287.443 122.357 286.744C123.766 286.122 125.027 285.284 126.185 284.283C126.54 283.981 126.825 283.627 127.067 283.229C127.404 282.66 127.732 282.081 128.138 281.563C128.484 281.131 128.415 280.838 128.095 280.449C127.508 279.741 127.05 278.938 126.618 278.126C125.451 275.925 125.269 273.645 126.099 271.297C126.419 270.407 126.773 269.527 127.136 268.654C127.335 268.188 127.395 267.739 127.309 267.23C126.471 262.533 125.684 257.827 125.036 253.104C124.595 249.883 124.206 246.662 123.895 243.425C123.368 237.924 123.135 232.407 123.23 226.881C123.23 226.708 123.213 226.536 123.238 226.363C123.385 225.465 123.152 224.817 122.322 224.282C121.277 223.6 120.827 222.521 120.827 221.243C120.827 218.411 121.043 215.613 121.916 212.902C122.046 212.487 121.813 212.297 121.64 212.073C120.222 210.242 119.764 208.161 119.989 205.899C120.041 205.355 120.119 204.811 120.214 204.276C120.793 200.874 121.666 197.541 122.608 194.225C122.668 194.001 122.746 193.785 122.746 193.552C122.945 193.31 122.953 193.008 123.066 192.697C122.798 192.809 122.651 192.956 122.59 193.181C121.13 194.804 119.453 196.125 117.414 196.954C114.994 197.938 112.652 197.817 110.371 196.514C108.806 195.616 107.45 194.476 106.248 193.137C102.792 189.286 100.415 184.84 98.8941 179.909C98.6175 179.003 98.2892 178.105 98.1855 177.164C98.1509 176.818 98.004 176.689 97.6669 176.594C96.8978 176.378 96.1287 176.119 95.4027 175.774C94.72 175.445 94.0892 175.066 93.5447 174.539C92.1188 173.157 91.8855 171.448 92.2052 169.6C92.3089 169.004 92.4385 168.4 92.7583 167.89C93.0003 167.51 92.9225 167.355 92.5423 167.191C91.5139 166.733 90.5892 166.094 89.699 165.404C88.0484 164.117 86.5966 162.606 85.646 160.75C84.341 158.202 82.6386 156.009 80.6423 153.989C79.6312 152.97 78.6978 151.873 77.946 150.639C77.1855 149.395 76.667 148.066 76.5287 146.606C76.425 145.492 76.5892 144.43 77.2373 143.481C77.6694 142.842 78.283 142.445 79.0349 142.125C77.7472 140.346 77.3151 138.395 77.7213 136.297C78.1361 134.173 79.3028 132.627 81.4373 131.876C81.2991 130.46 81.567 129.13 82.3447 127.921C83.2781 126.479 84.5398 125.581 86.3373 125.659C86.6916 125.676 86.7435 125.521 86.8472 125.245C87.5213 123.406 88.8262 122.231 90.7361 121.8C92.2311 121.463 93.6484 121.791 94.9793 122.516C95.9472 123.043 96.8114 123.699 97.6064 124.459C100.951 127.671 103.466 131.453 105.315 135.684C105.471 136.038 105.505 136.452 105.764 136.789C106.015 136.564 105.911 136.288 105.937 136.046C106.11 134.242 106.629 132.558 107.597 131.021C108.106 130.201 108.772 129.545 109.636 129.087C111.658 128.034 113.974 128.793 114.951 130.857C115.383 131.772 115.582 132.757 115.642 133.775C115.78 135.934 115.608 138.084 115.383 140.234C115.366 140.433 115.34 140.631 115.314 140.83C115.132 142.099 115.383 143.239 116.109 144.344C117.535 146.529 117.906 148.964 117.604 151.528C117.327 153.859 116.74 156.096 115.668 158.246C116.48 158.79 117.345 159.308 117.794 160.249C118.071 160.093 118.122 159.826 118.243 159.601C120.447 155.534 122.746 151.519 125.606 147.858C127.222 145.786 129.046 143.921 131.077 142.246C133.28 140.433 135.787 139.302 138.526 138.619C138.604 138.602 138.699 138.611 138.768 138.447C137.792 137.497 136.876 136.444 136.469 135.01C135.035 135.848 133.488 136.219 131.872 136.305C130.377 136.392 128.951 136.133 127.629 135.407C127.456 135.312 127.283 135.209 127.119 135.088C126.237 134.432 126.237 134.216 127.119 133.586C127.871 133.05 128.631 132.541 129.366 131.98C129.824 131.634 130.23 131.237 130.662 130.866C130.567 130.581 130.342 130.598 130.169 130.529C126.315 129.061 122.78 127.067 119.782 124.209C117.137 121.687 115.297 118.622 113.974 115.229C113.897 115.021 113.879 114.78 113.62 114.538C113.534 115.963 113.62 117.31 113.724 118.657C113.827 120.029 114.13 121.368 114.311 122.844C113.827 122.577 113.568 122.24 113.292 121.92C110.906 119.175 109.446 115.945 108.4 112.509C107.631 109.996 107.242 107.414 107.346 104.643C105.16 106.81 102.576 107.613 99.6805 107.337C98.0472 107.181 96.4571 106.776 95.1953 105.653C95.2385 105.265 95.541 105.308 95.7311 105.239C98.9114 104.064 100.942 101.776 102.195 98.7023C102.325 98.3742 102.351 98.167 102.066 97.882C98.8336 94.7305 96.578 90.9658 95.083 86.735C95.0311 86.5968 94.9706 86.4673 94.9101 86.3378C94.9361 86.0269 94.746 85.7679 94.7114 85.4743C94.7373 85.2412 94.6941 85.034 94.4953 84.8699C94.383 85.0944 94.3657 85.293 94.5645 85.4657C94.5904 85.8111 94.5731 86.1046 94.6768 86.3982ZM189.773 120.064C189.877 120.047 189.937 119.986 189.972 119.883C191.32 118.829 192.487 117.586 193.524 116.161C193.843 116.921 194.483 117.154 195.174 117.292C197.395 117.741 199.59 117.577 201.716 116.843C206.08 115.35 209.753 112.811 212.778 109.34C214.437 107.432 215.673 105.273 216.269 102.786C216.528 101.716 216.762 100.636 216.684 99.4017C216.261 99.7298 215.932 99.9889 215.595 100.248C211.24 102.268 207.307 101.301 203.635 98.521C203.6 98.5901 203.548 98.6332 203.557 98.6764C203.721 101.75 202.606 104.384 200.835 106.819C199.815 108.217 198.588 109.418 197.369 110.635C197.274 110.704 197.17 110.756 197.084 110.834C194.319 113.295 191.095 114.849 187.483 115.643C187.215 115.704 186.956 115.773 186.549 115.66C190.283 111.455 192.728 106.801 192.772 101.094C192.495 101.008 192.219 101.016 191.933 101.025C190.87 100.809 189.782 100.723 188.719 100.464C184.717 99.4967 181.14 97.6835 177.882 95.1967C177.743 95.0154 177.605 94.8427 177.346 94.8513C177.329 94.765 177.32 94.67 177.208 94.7823C177.251 94.8082 177.294 94.8427 177.337 94.8686C177.354 95.0413 177.475 95.1363 177.605 95.214C178.858 96.5955 180.172 97.9252 181.675 99.0477C182.393 99.5744 183.136 100.067 183.862 100.585C184.009 100.688 184.259 100.757 184.13 101.077C182.998 101.155 181.857 101.077 180.716 100.913C177.303 100.429 174.14 99.2722 171.253 97.4072C167.252 94.8341 164.227 91.3457 161.816 87.2789C161.721 87.0199 161.643 86.735 161.306 86.5536C161.393 86.9249 161.436 87.2185 161.609 87.4775C162.101 89.3598 162.706 91.2162 163.389 93.0381C164.106 94.9722 165.005 96.8286 166.111 98.5814C166.993 100.308 168.263 101.776 169.508 103.417C166.466 103.27 163.743 102.467 161.082 101.448C157.003 99.3499 153.442 96.6128 150.599 92.9863C150.504 92.7791 150.374 92.5977 150.089 92.4164C150.184 92.7273 150.227 92.969 150.4 93.1676C151.584 95.6889 152.777 98.2015 154.298 100.55C154.496 100.956 154.704 101.362 154.885 101.776C155.015 102.087 154.903 102.277 154.54 102.242C153.943 102.173 153.356 102.096 152.759 102.018C150.193 101.37 147.92 100.144 145.811 98.5728C142.752 96.2847 140.203 93.513 137.982 90.4219C137.887 90.206 137.817 89.9729 137.455 89.7829C137.601 90.1456 137.705 90.3701 137.8 90.6032C138.371 91.9674 138.906 93.3576 139.537 94.6959C140.306 96.3365 141.041 98.0029 142.078 99.5053C142.208 100.205 142.908 100.628 143.003 101.431C141.741 101.224 140.514 101.155 139.321 100.878C139.192 100.818 139.071 100.757 138.932 100.706C136.02 99.6607 133.419 98.1324 131.301 95.853C131.206 95.7493 131.12 95.5939 130.878 95.5853C131.535 97.0013 132.598 98.0893 133.289 99.419C131.284 98.8318 129.461 97.9684 127.741 96.8632C123.956 94.4283 121.424 90.914 119.272 87.0631C119.6 89.4634 119.963 91.8466 120.629 94.1606C121.069 95.6975 121.484 97.2517 122.253 98.6764C122.271 98.8146 122.262 98.97 122.426 99.0391H122.4C122.988 100.878 124.068 102.467 125.105 104.272C122.106 103.719 119.462 102.64 116.783 101.534C116.887 103.175 117.008 104.721 117.068 106.266C117.198 109.659 117.518 113.036 117.967 116.394C118.166 117.923 118.676 119.347 119.6 120.608C120.179 121.394 120.819 122.136 121.536 122.801C124.483 125.547 127.94 127.446 131.664 128.897C137.567 131.194 143.685 132.541 149.994 133.059C155.611 133.525 161.177 133.387 166.708 132.187C170.787 131.306 174.745 130.097 178.478 128.206C182.315 126.264 185.884 123.906 189.056 120.988C189.28 120.781 189.6 120.642 189.617 120.271C189.712 120.245 189.782 120.185 189.799 120.081L189.773 120.064ZM131.388 42.561L131.397 42.5092C131.509 42.4574 131.63 42.4488 131.742 42.5179C131.699 42.6992 131.656 42.8719 131.621 43.0532C131.604 43.0705 131.578 43.0791 131.578 43.0964C131.578 43.1309 131.587 43.1741 131.595 43.2086C131.561 43.4072 131.535 43.6058 131.492 43.8044C130.887 46.8006 130.541 49.8226 130.403 52.8706C130.117 59.0788 130.705 65.2179 131.924 71.2965C132.676 75.0784 133.695 78.7826 135.216 82.3227C137.472 87.5898 140.592 92.2524 144.757 96.2156C146.459 97.8302 148.378 99.1081 150.487 100.11C151.472 100.576 152.509 100.895 153.65 101.189C148.81 94.411 147.142 88.3496 146.848 85.2239C146.874 85.2326 146.917 85.2326 146.926 85.2498C147.064 85.4657 147.194 85.6902 147.332 85.9147C149.363 89.2735 151.645 92.4337 154.471 95.1795C158.048 98.6505 162.188 101.137 167.079 102.277C167.174 102.294 167.304 102.355 167.347 102.199C167.321 102.139 167.321 102.078 167.287 102.044C164.556 98.6419 162.533 94.86 161.185 90.7154C160.943 89.9815 160.615 89.2648 160.442 88.5136C160.088 86.9508 159.733 85.388 159.431 83.8165C158.671 79.8101 157.953 75.7951 157.521 71.7369C157.029 67.1865 156.847 62.6189 157.011 58.0426C157.098 55.6336 157.193 53.2246 157.763 50.7551C157.867 51.7049 157.685 52.5166 157.651 53.3455C157.478 58.0944 157.608 62.8348 158.195 67.5492C158.541 70.2863 158.895 73.0234 159.379 75.7346C159.345 75.7778 159.345 75.821 159.396 75.8555C159.768 77.8846 160.096 79.931 160.796 81.8824C161.903 84.9908 163.596 87.7884 165.601 90.396C169.378 95.3176 174.235 98.5814 180.31 99.9802C180.509 100.023 180.708 100.11 180.975 99.9802C179.964 99.2808 179.1 98.5296 178.288 97.718C175.946 95.3953 174.019 92.7445 172.532 89.8088C170.761 86.3032 169.542 82.6077 168.885 78.7308C168.41 75.9246 168.133 73.0925 167.961 70.2518C167.935 69.8546 167.909 69.4574 167.883 69.0602C168.194 69.8287 168.22 70.6317 168.367 71.4174C168.332 71.4606 168.332 71.4951 168.375 71.5297C168.427 71.8664 168.479 72.2118 168.54 72.5485C169.084 75.7433 169.68 78.938 170.622 82.0464C171.694 85.6125 173.301 88.9022 175.868 91.6307C180.561 96.6214 186.446 99.2118 193.178 100.023C193.403 100.049 193.662 100.118 193.947 99.963C192.91 99.0563 192.003 98.1411 191.216 97.1136C188.805 93.9706 187.137 90.4305 185.694 86.7695C184.933 84.8354 184.354 82.8494 183.853 80.829C182.885 76.8917 182.133 72.9198 181.321 68.948C179.93 62.1613 178.348 55.4264 176.136 48.8556C174.796 44.8837 173.474 40.9119 171.564 37.1645C171.34 36.7328 171.037 36.3097 170.994 35.7916C171.072 35.8262 171.219 35.8434 171.236 35.8952C171.478 36.5774 171.953 37.1127 172.308 37.7257C173.612 39.9966 174.745 42.3452 175.756 44.7542C178.521 51.3164 180.388 58.1462 181.848 65.097C182.704 69.1638 183.499 73.2479 184.354 77.3148C185.124 80.9758 186.143 84.5591 187.552 88.0215C189.021 91.6307 190.801 95.0672 193.42 97.9943C194.448 99.1427 195.589 100.127 196.972 100.835C197.093 100.895 197.257 100.93 197.188 101.146C196.704 101.146 196.228 101.155 195.745 101.146C195.252 101.129 194.768 101.103 194.284 101.051C193.912 101.008 193.774 101.146 193.783 101.526C193.8 102.415 193.766 103.304 193.61 104.194C193.567 104.228 193.558 104.272 193.593 104.315C193.014 108.14 191.251 111.412 188.814 114.382C189.263 114.27 189.661 114.106 190.049 113.942C194.111 112.258 197.395 109.608 199.979 106.076C201.759 103.65 202.641 100.965 202.425 97.9252C202.364 97.1222 202.209 96.3278 202.07 95.4989C202.373 95.6025 202.494 95.8098 202.649 95.9738C203.574 96.9323 204.585 97.7871 205.726 98.4605C207.93 99.7644 210.28 100.498 212.873 100.032C213.245 99.963 213.642 99.9284 213.996 99.6348C211.447 98.3915 209.684 96.4228 208.319 94.0742C206.711 91.3199 205.916 88.2892 205.493 85.1548C205.527 85.1117 205.527 85.0771 205.484 85.0512C205.424 84.6281 205.372 84.205 205.311 83.782C205.346 83.7388 205.346 83.6956 205.303 83.6611C204.905 80.3195 204.758 76.9607 204.637 73.5933C204.473 68.9393 204.326 64.2767 203.712 59.6573C203.012 54.3989 202.079 49.1837 200.204 44.1843C199.469 42.2329 198.752 40.2643 197.905 38.3647C197.041 36.4219 195.926 34.5914 194.794 32.7782C193.93 31.3967 192.979 30.0842 191.977 28.7977C191.311 27.9515 190.646 27.0794 189.885 26.3369C188.866 25.3439 187.889 24.3078 186.809 23.3666C185.175 21.9592 183.43 20.7245 181.71 19.4379C180.353 18.4277 178.841 17.6333 177.38 16.7699C177.121 16.6145 176.801 16.5281 176.654 16.2173C176.724 16.2087 176.784 16.1828 176.827 16.1914C177.043 16.2605 177.259 16.3382 177.484 16.4072C181.883 17.8837 185.633 20.405 188.987 23.5393C194.483 28.6855 198.406 34.885 200.956 41.9394C202.805 47.051 204.127 52.3007 204.862 57.7059C205.398 61.6087 205.726 65.5287 205.985 69.4574C206.175 72.3845 206.236 75.3202 206.383 78.2473C206.504 80.544 206.633 82.8408 207.014 85.1117C207.091 85.6125 207.273 86.0442 207.575 86.4414C210.583 90.3442 214.204 93.5475 218.568 95.8357C221.869 97.5626 225.404 98.3656 229.137 98.0806C232.404 97.8302 235.515 96.9495 238.505 95.6112C238.721 95.5162 239.006 95.5076 239.119 95.2399C236.336 94.4024 234.054 92.7791 232.093 90.7068C229.128 87.5725 227.253 83.8165 226.026 79.7151C225.836 79.0675 225.594 78.4286 225.525 77.7465C225.706 77.7378 225.767 77.8328 225.836 77.9278C226.501 78.8517 227.227 79.7324 227.988 80.5872C229.751 82.5818 231.807 84.1446 234.357 85.0167C234.607 85.2326 234.91 85.2412 235.273 85.3621C235.109 85.0858 234.953 84.9303 234.728 84.8613C233.916 84.205 233.216 83.428 232.646 82.5818C230.52 79.387 229.595 75.7951 229.353 72.0132C229.154 68.8875 229.016 65.7532 228.817 62.6275C228.636 59.7263 228.351 56.8338 227.849 53.9758C227.028 49.2614 225.81 44.6678 223.926 40.247C223.131 38.3906 222.301 36.5601 221.325 34.8159C219.372 31.3535 217.168 28.0379 214.342 25.1971C213.927 24.774 213.616 24.2646 213.184 23.8415C212.328 22.9953 211.386 22.2614 210.54 21.4152C210.358 21.2339 210.211 21.0008 209.995 20.8713C209.2 20.3877 208.543 19.7402 207.809 19.1789C206.685 18.3155 205.545 17.4693 204.361 16.7008C202.485 15.4661 200.549 14.3091 198.562 13.2729C195.719 11.7878 192.78 10.5099 189.747 9.44787C187.742 8.73985 185.72 8.07499 183.663 7.55692C178.737 6.3222 173.725 5.66598 168.643 5.60554C163.138 5.5451 157.659 5.85594 152.206 6.60713C148.421 7.1252 144.671 7.83323 140.963 8.79165C135.208 10.2854 129.78 12.5908 124.543 15.3884C115.971 19.956 108.642 26.0088 102.671 33.6762C99.0237 38.3561 96.1892 43.5022 94.0546 49.0283C92.0583 54.2348 90.7534 59.6055 90.0793 65.1315C89.4571 70.2 89.2237 75.2684 89.9583 80.3541C90.425 83.5834 91.2027 86.7177 92.5768 89.6879C93.0176 90.8104 93.6225 91.8379 94.3916 92.7877C93.9855 91.7775 93.8558 90.7068 93.4756 89.6966C92.4385 84.585 93.104 79.5165 93.8126 74.4395C94.0114 74.6122 93.9855 74.8626 94.02 75.0698C94.3139 76.9435 94.7892 78.774 95.3163 80.5958C96.1632 83.4884 97.1052 86.3378 98.4188 89.0663C100 92.3387 102.074 95.2399 104.84 97.6144C106.266 98.8405 107.821 99.8507 109.653 100.369C109.662 100.749 109.472 101.077 109.42 101.457C109.1 104.021 109.29 106.56 109.697 109.09C110.094 111.568 110.976 113.908 111.909 116.222C111.918 116.248 112.004 116.248 112.099 116.273C112.039 113.519 112.592 110.877 113.482 108.278C114.19 110.886 115.089 113.39 116.463 115.704C116.619 115.211 116.429 114.754 116.385 114.296C116.083 111.153 115.945 107.993 115.832 104.841C115.789 103.693 115.737 102.545 115.694 101.396C115.685 101.155 115.659 100.956 115.392 100.844C114.147 100.308 113.041 99.5312 111.874 98.8664C111.053 98.2274 110.25 97.5885 109.506 96.8545C106.145 93.513 103.976 89.4807 102.584 84.9994C101.703 82.1673 101.184 79.2575 100.96 76.2959C100.683 72.6349 100.83 68.9998 101.711 65.4251C101.85 64.8639 101.919 64.2594 102.377 63.655C101.824 66.5389 101.616 69.3192 101.59 72.1082C101.573 74.6467 101.781 77.168 102.239 79.6547C102.843 82.8926 103.863 86.0183 105.358 88.9799C107.709 93.6339 111.036 97.2949 115.789 99.6089C117.855 100.611 119.911 101.629 122.072 102.424C122.435 102.553 122.772 102.795 123.282 102.812C122.599 101.906 122.08 101.016 121.631 100.092C121.182 99.1599 120.724 98.2274 120.343 97.2776C118.762 93.3576 117.924 89.2562 117.595 85.0512C117.474 83.5057 117.276 81.9601 116.869 80.475C116.48 79.0503 116.161 77.617 115.893 76.1664C115.642 74.8453 115.383 73.5242 115.219 72.1859C115.02 70.5281 114.743 68.8875 114.614 67.2211C114.648 67.1693 114.648 67.1261 114.605 67.0915C114.164 62.6103 114.164 58.1376 114.813 53.6736C115.504 48.9074 116.619 44.262 118.451 39.798C120.032 35.9643 122.158 32.476 124.967 29.4194C125.537 28.7977 126.142 28.2019 126.851 27.7184C126.687 28.0206 126.488 28.2969 126.289 28.5646C123.1 32.7955 120.585 37.3804 118.857 42.3883C116.869 48.1648 115.789 54.1053 115.651 60.2099C115.556 64.5876 115.91 68.9393 116.679 73.2479C117.336 76.9262 118.088 80.5786 119.479 84.0583C120.931 87.6934 122.876 91.0263 125.632 93.8411C127.032 95.2744 128.692 96.3537 130.394 97.3812C130.446 97.4935 130.541 97.5539 130.653 97.4849C130.671 97.4762 130.627 97.3294 130.584 97.269C130.541 97.1999 130.455 97.1654 130.394 97.1136C129.599 95.8788 129.029 94.5319 128.398 93.2108C126.376 88.9799 124.699 84.6281 123.809 80.0001C123.913 79.931 124.025 79.9483 124.129 79.9828C124.198 80.2332 124.258 80.4836 124.327 80.734C125.459 84.49 126.903 88.0906 129.098 91.3803C132.019 95.7666 136.003 98.6937 141.006 100.291C141.179 100.343 141.343 100.472 141.551 100.334C140.099 98.2447 138.863 96.0774 137.8 93.8152C135.743 89.4375 134.188 84.8785 132.745 80.2677C131.258 75.5101 130.273 70.6403 129.729 65.6928C129.253 61.3669 129.176 57.0238 129.547 52.6893C129.832 49.3305 130.351 46.0148 131.336 42.7855C131.422 42.6992 131.44 42.6387 131.388 42.561ZM117.129 168.711C117.094 168.564 117.146 168.357 116.947 168.313C116.895 168.305 116.792 168.521 116.731 168.641C116.705 168.685 116.714 168.754 116.705 168.806C116.524 168.892 116.48 169.082 116.403 169.246C115.167 170.947 113.793 172.518 112.194 173.908C109.748 176.033 106.957 177.285 103.699 177.44C102.636 177.492 101.59 177.354 100.527 177.293C101.262 180.307 103.362 185.047 105.289 187.957C106.732 190.15 108.392 192.162 110.492 193.785C112.756 195.538 115.141 195.857 117.725 194.484C118.555 194.044 119.315 193.517 120.024 192.904L120.006 192.913C120.058 192.904 120.11 192.878 120.162 192.852C121.501 192.024 122.521 190.858 123.515 189.666C123.636 189.52 123.714 189.312 123.766 189.122C124.431 186.921 124.785 184.65 125.174 182.388C125.226 182.059 125.166 181.8 124.906 181.541C124.189 180.833 123.524 180.091 122.832 179.357C122.72 179.193 122.616 179.02 122.495 178.865C120.343 176.041 118.416 173.062 116.506 170.083C116.645 170.109 116.783 170.135 116.913 170.17C117.414 170.291 117.535 170.187 117.422 169.686C117.353 169.35 117.232 169.03 117.129 168.711ZM203.937 195.883C205.199 194.174 206.78 191.108 206.798 190.305C206.011 190.478 205.242 190.659 204.473 190.832C204.214 190.841 203.963 190.858 203.704 190.858C203.332 190.849 203.159 190.944 203.185 191.402C203.254 192.801 203.263 194.199 203.142 195.59C203.125 195.823 203.099 196.056 203.384 196.16C203.643 196.246 203.799 196.082 203.937 195.883ZM121.795 289.196C122.305 289.438 122.867 289.351 123.394 289.429C123.999 289.567 124.613 289.697 125.218 289.852C127.62 290.5 129.832 291.579 131.958 292.848C132.243 293.021 132.52 293.289 132.9 293.159C133.963 292.796 134.957 292.313 135.83 291.613C135.692 291.268 135.424 291.121 135.208 290.949C133.211 289.325 130.93 288.298 128.458 287.642C125.961 286.994 123.8 287.745 121.795 289.196ZM195.814 118.337C195.312 118.242 194.785 118.233 194.327 118.044C193.8 117.819 193.524 118.052 193.23 118.398C191.933 119.926 190.577 121.394 189.082 122.749C186.964 124.666 184.735 126.419 182.272 127.87C182.125 127.956 181.848 127.982 181.961 128.31C182.738 128.344 183.464 128.621 184.199 128.854C185.642 129.32 186.403 130.33 186.662 131.79C186.748 132.282 186.826 132.774 186.921 133.37C188.641 132.092 189.687 130.382 190.957 128.612C190.888 130.391 190.577 131.893 189.989 133.352C192.91 130.995 195.399 128.336 196.799 124.675C198.354 128.085 201.094 129.735 204.516 130.443C204.603 130.253 204.516 130.166 204.464 130.08C203.116 127.861 203.928 124.58 206.167 123.077C207.601 122.119 209.07 121.221 210.496 120.245C215.224 117.016 218.706 112.759 221.143 107.613C221.221 107.449 221.195 107.19 221.506 107.147C222.872 110.35 222.958 113.649 222.223 117.025C223.511 115.194 224.626 113.269 225.361 111.153C226.596 107.57 226.449 103.918 225.836 100.248C225.775 99.8939 225.62 99.7298 225.222 99.6694C222.88 99.3154 220.633 98.616 218.499 97.5971C218.352 97.528 218.205 97.3985 217.998 97.4849C217.92 97.6921 217.972 97.9166 217.98 98.1411C218.032 99.7298 217.911 101.301 217.496 102.838C216.719 105.731 215.241 108.243 213.219 110.419C209.624 114.288 205.441 117.232 200.161 118.337C199.737 118.328 199.314 118.346 198.916 118.493C198.251 118.493 197.594 118.484 196.928 118.484C196.557 118.328 196.185 118.32 195.814 118.337ZM206.132 211.356C207.817 212.893 208.82 214.844 209.451 216.994C209.779 218.126 209.909 219.283 209.779 220.535C211.283 220.112 212.467 219.334 213.599 218.436C215.898 216.623 216.572 214.24 216.105 211.443C215.777 209.474 214.93 207.73 213.832 206.089C211.628 202.791 208.846 200.131 205.225 198.474C203.393 197.627 201.5 197.127 199.417 197.826C198.519 198.128 197.793 198.543 197.231 199.225C196.151 200.546 195.382 202.057 194.647 203.594C194.612 203.663 194.638 203.758 194.63 203.853C195.952 204.103 197.24 204.414 198.354 205.372C198.182 205.442 198.121 205.485 198.078 205.476C197.628 205.398 197.179 205.303 196.721 205.217C193.714 204.664 190.896 205.079 188.287 206.754C186.308 208.023 184.579 209.569 183.067 211.356C182.159 212.435 181.312 213.558 180.742 214.862C179.869 216.856 180.293 218.618 181.701 220.198C182.324 220.889 182.453 220.88 182.937 220.06C183.663 218.851 184.337 217.616 185.106 216.442C185.564 215.742 186.048 215.06 186.636 214.465C186.93 214.162 187.241 213.869 187.673 213.834C187.751 213.972 187.708 214.05 187.664 214.119C186.429 215.958 185.366 217.901 184.328 219.852C183.827 220.794 183.291 221.709 182.833 222.667C181.926 224.558 182.488 226.363 184.277 227.408C185.798 228.297 187.336 228.254 188.9 227.511C189.92 227.028 190.836 226.38 191.778 225.784C191.951 225.681 192.106 225.456 192.366 225.577C192.366 225.992 192.106 226.251 191.908 226.51C191.536 226.985 191.138 227.442 190.749 227.9C190.283 228.444 190.257 228.461 190.749 228.945C192.288 230.447 194.042 231.336 196.272 230.887C196.73 230.792 197.231 230.594 197.525 231.25C197.594 231.414 197.905 231.483 198.121 231.561C199.279 231.993 200.437 231.915 201.578 231.5C203.557 230.775 205.017 229.445 205.994 227.589C206.996 225.689 207.498 223.626 207.99 221.553C208.682 218.678 208.301 215.967 206.945 213.368C206.625 212.764 206.305 212.151 205.994 211.537C206.028 211.486 206.08 211.425 206.132 211.356ZM91.5311 151.562C91.4102 151.588 91.2805 151.623 91.1595 151.649C90.7707 151.364 90.3645 151.079 89.9842 150.785C87.7114 149.015 85.4558 147.245 83.183 145.475C82.5262 144.966 81.8435 144.482 81.083 144.12C80.0978 143.653 79.1645 144.025 78.7843 145.043C78.6201 145.501 78.5423 145.985 78.6287 146.485C78.8015 147.591 79.2596 148.566 79.8818 149.482C80.746 150.751 81.7917 151.865 82.8892 152.918C84.6521 154.602 86.2163 156.415 87.2188 158.669C87.3484 158.954 87.5299 159.221 87.6941 159.489C89.4744 162.416 91.8682 164.67 94.9879 166.112C96.4743 166.794 98.0385 167.165 99.6805 166.811C101.011 166.526 102.256 166.017 103.44 165.343C104.079 164.972 104.719 164.609 105.479 164.169C105.367 164.376 105.341 164.454 105.298 164.514C105.185 164.644 105.073 164.773 104.943 164.885C103.777 165.948 102.524 166.897 101.081 167.579C99.3953 168.374 97.6669 168.754 95.8176 168.382C95.5669 168.331 95.3163 168.262 95.0657 168.201C94.8237 168.141 94.6855 168.21 94.6422 168.469C94.5558 169.125 94.4348 169.773 94.3916 170.437C94.2793 171.974 94.9534 173.028 96.2756 173.736C97.2608 174.263 98.3151 174.634 99.404 174.901C101.4 175.402 103.422 175.644 105.471 175.204C109.809 174.271 112.937 171.689 115.141 167.933C116.04 166.405 116.558 164.73 116.55 162.925C116.541 162.157 116.342 161.449 115.832 160.853C115.443 160.404 115.21 160.292 114.847 160.845C114.406 161.501 113.767 161.958 113.101 162.364C112.825 162.537 112.548 162.753 112.108 162.675C112.92 161.44 113.879 160.335 113.94 158.79C113.724 158.755 113.551 159.04 113.361 158.833C113.378 158.781 113.378 158.72 113.404 158.669C113.508 158.427 113.611 158.194 113.715 157.961C114.752 155.664 115.478 153.289 115.616 150.751C115.694 149.378 115.53 148.057 114.864 146.822C114.562 146.27 114.268 145.708 113.957 145.156C113.542 144.422 113.292 143.645 113.24 142.79C113.162 141.434 113.274 140.087 113.387 138.74C113.525 137.1 113.577 135.468 113.473 133.827C113.43 133.188 113.318 132.567 113.093 131.971C112.704 130.926 111.684 130.555 110.699 131.082C110.388 131.246 110.137 131.479 109.895 131.729C109.04 132.636 108.59 133.741 108.262 134.915C107.743 136.772 107.51 138.689 107.242 140.597C107.052 141.97 106.585 143.204 105.756 144.31C105.531 144.603 105.315 144.914 105.099 145.216C103.958 146.857 103.051 148.61 102.671 150.595C102.368 152.184 102.273 153.79 102.325 155.405C102.334 155.578 102.481 155.811 102.161 155.923C101.901 155.603 101.815 155.206 101.729 154.826C101.219 152.59 101.573 150.423 102.308 148.299C102.93 146.511 103.915 144.931 105.056 143.446C105.877 142.375 105.946 141.279 105.358 140.061C103.906 137.091 102.411 134.147 100.501 131.436C99.0237 129.337 97.4509 127.326 95.5064 125.633C94.7892 125.012 94.0373 124.442 93.1126 124.131C91.4793 123.595 89.9756 124.114 89.0595 125.538C88.6188 126.22 88.6707 126.713 89.241 127.291C89.725 127.783 90.2262 128.258 90.7102 128.75C93.5274 131.617 96.1027 134.691 98.2978 138.075C98.4793 138.352 98.6953 138.619 98.7472 138.965C98.4015 139.077 98.2805 138.827 98.1336 138.68C97.5892 138.127 97.062 137.557 96.5521 136.97C94.3052 134.389 92.0842 131.781 89.5348 129.476C88.9558 128.949 88.3682 128.457 87.6682 128.094C86.7608 127.628 85.8966 127.723 85.067 128.293C84.2805 128.828 83.8744 129.596 83.6324 130.477C83.3818 131.41 83.4941 132.239 84.341 132.86C84.5225 132.998 84.6867 133.162 84.8595 133.318C87.7978 135.917 90.5114 138.732 92.8102 141.918C93.1213 142.35 93.4324 142.781 93.6052 143.455C92.9657 143.092 92.6027 142.66 92.2225 142.237C89.9756 139.759 87.599 137.428 84.9978 135.321C84.4793 134.907 83.9349 134.544 83.3472 134.225C82.7682 133.905 82.1978 133.94 81.6188 134.233C81.1954 134.449 80.8842 134.777 80.625 135.166C79.2855 137.16 79.5707 140.148 81.2818 141.849C81.7484 142.315 82.2583 142.747 82.7596 143.178C85.8361 145.803 88.8349 148.523 91.5311 151.562ZM141.637 140.217C140.047 140.657 138.604 141.141 137.152 141.555C135.138 142.116 134.153 143.446 133.609 145.372C132.537 149.162 131.768 153.022 131.042 156.89C130.42 160.197 129.901 163.513 129.409 166.837C128.882 170.386 128.294 173.934 127.793 177.492C127.188 181.792 126.393 186.049 125.606 190.314C124.708 195.175 123.74 200.019 122.824 204.872C122.245 207.937 123.774 211.166 126.453 212.746C128.009 213.662 129.711 214.18 131.431 214.646C136.876 216.14 142.415 217.089 148.015 217.806C151.895 218.298 155.801 218.618 159.708 218.747C164.971 218.929 170.233 218.79 175.47 218.082C176.412 217.953 177.346 217.806 178.279 217.616C178.789 217.513 178.936 217.279 178.91 216.796C178.867 215.915 179.126 215.095 179.506 214.309C179.869 213.558 180.301 212.841 180.794 212.168C182.064 210.415 183.516 208.809 185.184 207.436C187.379 205.623 189.764 204.146 192.651 203.715C193.074 203.654 193.29 203.438 193.42 203.033C193.74 202.083 194.103 201.142 194.466 200.2C195.287 198.059 196.756 196.583 198.942 195.849C199.435 195.685 199.936 195.538 200.446 195.503C200.861 195.477 200.982 195.287 200.982 194.908C200.99 193.897 201.016 192.896 201.051 191.885C201.077 191.074 201.085 191.031 200.299 190.91C198.207 190.59 196.98 189.356 196.375 187.387C196.082 186.42 195.874 185.436 195.675 184.451C195.589 184.011 195.433 183.64 195.183 183.277C193.861 181.369 192.962 179.262 192.331 177.026C191.251 173.192 191.216 169.306 191.709 165.395C192.4 159.938 193.973 154.723 196.211 149.715C197.387 147.09 198.882 144.629 200.575 142.298C200.688 142.142 200.878 142.021 200.843 141.806C200.791 141.659 200.67 141.642 200.567 141.598C199.357 141.02 198.069 140.623 196.79 140.234C196.298 140.087 195.883 139.768 195.373 139.681C195.096 139.63 194.863 139.578 194.656 139.88C193.817 141.089 192.685 142.039 191.666 143.092C190.3 144.491 188.84 145.795 187.414 147.133C182.574 151.649 177.605 156.018 172.429 160.145C168.246 163.487 163.864 166.561 159.327 169.401C157.547 170.515 155.784 171.655 153.9 172.587C152.5 173.278 152.051 173.2 150.893 172.13C150.02 171.327 149.259 170.42 148.568 169.47C144.722 164.177 141.974 158.366 140.393 152.011C139.987 150.362 139.684 148.679 139.779 146.978C139.935 144.655 140.471 142.427 141.637 140.217ZM177.363 277.237C177.406 278.066 177.501 278.973 178.046 279.767C178.487 280.415 178.97 281.019 179.593 281.503C181.114 282.677 181.701 282.668 183.188 281.822C184.009 281.356 184.804 280.82 185.608 280.32C188.468 278.541 191.588 277.531 194.949 277.323C197.758 277.151 200.515 277.496 203.211 278.308C203.911 278.515 203.911 278.506 204.188 277.79C204.758 276.296 205.043 274.75 205.112 273.162C205.19 271.305 204.637 269.708 203.159 268.49C203.004 268.361 202.857 268.223 202.71 268.093C202.114 267.549 201.526 266.997 200.93 266.461C200.273 265.883 199.927 265.158 199.824 264.285C199.659 262.913 199.469 261.548 199.322 260.184C198.933 256.583 198.545 252.992 198.216 249.382C197.896 245.894 197.568 242.406 197.369 238.9C197.274 237.268 197.188 235.628 197.093 233.996C197.049 233.305 197.049 233.305 196.341 233.253C196.254 233.245 196.168 233.245 196.082 233.236C193.601 233.072 191.346 232.329 189.496 230.602C189.177 230.3 188.926 230.447 188.641 230.542C186.273 231.362 183.81 231.828 181.347 232.2C178.305 232.657 175.246 232.942 172.178 233.132C167.753 233.391 163.32 233.314 158.895 233.227C158.385 233.219 157.729 232.882 157.4 233.227C157.02 233.616 157.409 234.255 157.495 234.773C157.754 236.301 158.066 237.821 158.783 239.22C159.25 240.135 159.803 240.938 160.857 241.283C161.263 241.413 161.617 241.672 161.79 242.121C162.404 243.735 163.164 245.281 163.873 246.852C165.912 251.386 167.952 255.919 170.13 260.391C172.161 264.553 174.321 268.637 176.585 272.678C177.294 273.947 177.709 275.251 177.406 276.71C177.363 276.849 177.38 276.995 177.363 277.237ZM126.738 227.408C126.738 227.796 126.73 228.055 126.738 228.306C126.782 229.972 126.842 231.639 126.859 233.305C126.894 236.646 127.179 239.971 127.482 243.286C127.776 246.49 128.173 249.685 128.597 252.871C129.21 257.481 129.927 262.075 130.671 266.669C130.869 267.903 130.843 269.052 130.23 270.174C129.971 270.649 129.772 271.167 129.547 271.659C129.297 272.212 129.089 272.773 128.925 273.352C128.743 273.982 128.769 274.604 128.994 275.208C129.348 276.158 129.867 277.013 130.506 277.798C131.103 278.532 131.103 278.541 132.001 278.204C135.199 276.995 138.388 276.978 141.594 278.239C143.495 278.981 145.301 279.948 147.125 280.838C148.801 281.658 150.487 282.452 152.275 283.031C154.661 283.808 156.804 283.359 158.766 281.865C160.235 280.751 160.658 279.275 160.321 277.513C160.114 276.46 159.733 275.467 159.25 274.526C158.584 273.248 158.463 271.927 158.575 270.511C158.766 268.076 158.904 265.632 159.016 263.197C159.198 259.433 159.301 255.668 159.293 251.904C159.284 249.348 159.232 246.783 159.224 244.228C159.224 243.701 159.016 243.373 158.55 243.148C157.979 242.872 157.392 242.63 156.787 242.449C153.978 241.62 151.161 240.817 148.352 239.988C145.535 239.159 142.778 238.175 140.159 236.836C139.987 236.75 139.736 236.716 139.667 236.379C143.366 237.173 146.987 237.933 150.599 238.745C152.975 239.28 155.343 239.893 157.711 240.463C157.919 240.515 158.135 240.644 158.377 240.446C157.91 239.651 157.521 238.822 157.245 237.95C156.804 236.577 156.545 235.17 156.337 233.745C156.242 233.089 156.233 233.072 155.559 233.003C154.306 232.865 153.045 232.761 151.783 232.64C151.454 232.606 151.394 232.761 151.403 233.046C151.437 233.849 151.567 234.643 151.696 235.438C151.835 236.249 151.99 237.061 152.137 237.881C151.817 237.924 151.705 237.743 151.61 237.579C151.264 236.992 151.048 236.344 150.789 235.714C150.452 234.885 150.417 233.996 150.322 233.132C150.271 232.64 150.089 232.433 149.571 232.433C148.292 232.45 147.038 232.174 145.768 232.053C144.593 231.932 143.435 231.613 142.259 231.414C138.742 230.836 135.268 230.05 131.837 229.091C130.169 228.599 128.501 228.064 126.738 227.408ZM196.384 173.658C196.462 176.974 197.015 180.238 197.646 183.475C197.914 184.857 198.268 186.221 198.562 187.594C198.717 188.302 199.141 188.691 199.849 188.786C200.109 188.82 200.359 188.881 200.619 188.889C201.777 188.95 202.917 188.863 204.049 188.648C208.457 187.801 212.614 186.23 216.503 184.002C219.311 182.396 221.904 180.505 224.116 178.113C224.885 177.285 225.542 176.387 226.017 175.359C226.32 174.72 226.346 174.098 225.974 173.468C225.499 172.682 225.075 171.862 224.565 171.094C220.227 164.523 216.062 157.84 211.853 151.191C210.903 149.689 209.986 148.152 208.794 146.814C207.904 145.821 207.817 145.812 206.798 146.684C204.836 148.359 203.22 150.336 201.889 152.547C200.074 155.543 198.907 158.815 197.94 162.157C196.859 165.93 196.263 169.747 196.384 173.658ZM159.189 284.93C158.999 285 158.887 285.025 158.783 285.069C156.432 286.001 154.013 286.156 151.593 285.526C149.709 285.043 148.006 284.076 146.321 283.117C144.325 281.969 142.38 280.734 140.263 279.793C138.172 278.869 136.115 278.783 133.998 279.612C133.004 280 132.287 280.717 131.621 281.546C131.984 281.736 132.33 281.727 132.667 281.779C136.011 282.236 139.088 283.376 141.603 285.682C143.262 287.201 145.008 288.591 146.848 289.878C147.367 290.241 147.877 290.612 148.395 290.983C149.164 291.536 149.899 292.149 150.538 292.848C150.685 293.004 150.858 293.159 150.85 293.392C150.685 293.461 150.59 293.384 150.504 293.323C148.153 291.674 145.751 290.094 143.461 288.35C142.743 287.806 142.743 287.806 141.948 288.315C141.655 288.505 141.352 288.669 141.058 288.85C140.038 289.481 139.045 290.154 138.129 291.026C139.2 291.7 140.211 292.373 141.067 293.289C140.859 293.427 140.764 293.332 140.678 293.271C140.038 292.84 139.39 292.399 138.759 291.95C137.731 291.225 137.731 291.208 136.746 291.933C135.838 292.598 134.853 293.142 133.851 293.634C133.687 293.72 133.453 293.72 133.384 294.005C136.521 296.414 138.552 299.523 139.096 303.555C139.65 303.382 140.116 303.253 140.574 303.097C144.887 301.595 149.259 300.283 153.727 299.29C155.24 298.953 156.735 298.512 158.117 297.787C158.921 297.364 159.327 296.716 159.405 295.801C159.664 292.874 159.595 289.938 159.535 287.011C159.509 286.346 159.466 285.656 159.189 284.93ZM205.112 196.712C210.445 199.182 214.299 202.998 216.943 208.135C219.078 206.245 221.074 204.302 222.846 202.126C223.649 201.142 224.375 200.114 225.041 199.035C226.398 196.816 227.028 194.415 226.83 191.825C226.709 190.202 226.311 188.622 225.844 187.067C225.335 185.384 224.531 183.812 223.788 182.223C223.546 181.705 223.52 181.705 223.088 182.111C222.128 183.018 221.109 183.847 220.028 184.598C217.678 186.23 215.146 187.508 212.501 188.578C211.205 189.105 209.874 189.554 208.552 190.003C208.561 190.348 208.811 190.538 208.967 190.772C209.157 191.057 209.122 191.229 208.863 191.497C207.342 193.017 206.305 194.882 205.112 196.712ZM201.604 309.046C204.672 309.055 207.688 308.71 210.635 307.846C211.931 307.466 213.175 306.948 214.377 306.318C215.293 305.834 215.664 305.17 215.491 304.151C215.362 303.391 215.293 302.614 215.154 301.854C214.843 300.11 214.238 298.478 213.296 296.975C212.977 296.475 212.925 296.44 212.398 296.699C210.807 297.476 209.096 297.865 207.368 298.193C204.352 298.754 201.319 298.875 198.268 298.521C195.58 298.21 192.901 297.83 190.447 296.587C190.067 296.397 189.825 296.466 189.522 296.708C188.632 297.416 187.941 298.288 187.284 299.203C186.567 300.196 186.083 301.284 185.858 302.493C185.599 303.918 185.919 304.721 187.129 305.498C187.612 305.809 188.114 306.093 188.632 306.335C192.746 308.209 197.101 308.995 201.604 309.046ZM182.064 130.097C182.056 131.263 181.658 132.282 180.906 133.111C180.198 133.896 179.472 134.673 178.608 135.312C176.793 136.651 174.814 137.67 172.705 138.447C168.954 139.828 165.1 140.692 161.073 140.588C159.275 140.545 157.322 140.113 155.862 139.25C154.479 138.429 153.572 137.281 153.261 135.675C153.105 134.855 153.079 134.872 152.275 134.907C151.999 134.915 151.783 135.002 151.584 135.192C151.204 135.554 150.884 135.96 150.711 136.452C150.054 138.283 149.795 140.148 150.478 142.021C151.636 145.199 153.822 147.47 156.813 148.989C157.063 149.119 157.357 149.179 157.633 149.24C159.189 149.577 160.736 149.421 162.24 148.972C168.159 147.176 173.854 144.879 179.169 141.676C180.993 140.579 182.574 139.241 183.991 137.687C184.856 136.746 185.512 135.684 185.288 134.311C185.149 133.491 184.985 132.679 184.691 131.893C184.233 130.684 183.335 130.184 182.064 130.097ZM111.745 301.845C111.624 302.752 111.606 303.633 111.667 304.522C111.753 305.731 112.306 306.646 113.3 307.311C113.922 307.734 114.597 308.053 115.288 308.338C118.347 309.582 121.545 310.264 124.82 310.583C129.997 311.084 135.095 310.583 140.134 309.314C143.029 308.58 145.872 307.682 148.758 306.905C151.178 306.258 153.615 305.688 156.026 305.031C156.899 304.79 157.772 304.513 158.575 304.064C159.241 303.693 159.751 303.175 159.829 302.407C159.941 301.258 159.95 300.093 160.01 298.849C158.04 299.868 156 300.239 153.969 300.619C152.682 300.861 151.403 301.12 150.115 301.37C147.488 301.888 144.964 302.769 142.432 303.615C139.209 304.695 135.942 305.593 132.546 305.929C128.622 306.327 124.725 306.171 120.862 305.385C117.725 304.746 114.666 303.849 112.013 301.932C111.961 301.897 111.874 301.888 111.745 301.845ZM153.278 163.219C161.669 156.812 170.415 150.889 178.175 143.627C177.882 143.593 177.735 143.74 177.562 143.835C173.319 146.123 168.894 147.945 164.227 149.153C162.145 149.689 160.027 149.939 157.901 149.672C154.635 149.257 152.198 147.47 150.443 144.767C149.251 142.928 148.732 140.89 149.164 138.671C149.234 138.3 149.277 137.911 149.346 137.48C147.989 138.481 147.652 139.889 147.471 141.374C147.142 144.033 147.393 146.667 147.885 149.274C148.767 154.032 150.461 158.505 152.863 162.71C152.958 162.874 153.01 163.081 153.278 163.219ZM128.683 305.144C130.204 305.144 131.725 305.135 133.246 304.911C134.698 304.695 136.141 304.47 137.558 304.073C138.215 303.892 138.232 303.892 138.163 303.184C138.103 302.467 137.973 301.759 137.74 301.077C136.85 298.495 135.208 296.466 133.134 294.748C132.382 294.126 131.621 293.893 130.601 294.083C127.499 294.679 124.353 294.972 121.182 295.085C119.116 295.154 117.042 295.231 114.977 295.205C114.553 295.197 114.285 295.335 114.078 295.706C113.456 296.794 113.136 297.968 112.842 299.177C112.574 300.3 112.903 301.051 113.845 301.664C115.262 302.571 116.792 303.21 118.39 303.702C121.743 304.721 125.174 305.204 128.683 305.144ZM132.114 144.698C131.846 144.914 131.69 145.043 131.543 145.173C129.279 147.159 127.421 149.49 125.693 151.942C123.273 155.379 121.199 159.031 119.073 162.649C118.295 163.979 118.157 165.473 117.837 166.923C117.811 167.053 117.855 167.208 117.889 167.346C118.373 169.272 118.969 171.137 120.101 172.821C121.769 175.299 123.429 177.777 125.537 180.065C125.719 178.908 125.892 177.846 126.047 176.784C126.6 173.036 127.11 169.272 127.715 165.533C128.268 162.131 128.908 158.746 129.538 155.353C130.1 152.331 130.705 149.318 131.578 146.365C131.734 145.846 131.906 145.337 132.114 144.698ZM184.821 302.976C184.882 302.925 184.908 302.907 184.916 302.89C184.942 302.812 184.959 302.726 184.977 302.64C185.366 300.74 186.187 299.065 187.457 297.589C188.019 296.932 188.606 296.302 189.229 295.706C189.367 295.577 189.617 295.464 189.488 295.231C189.082 294.515 188.848 293.72 188.52 292.926C187.837 293.349 187.509 294.031 186.895 294.471C186.835 294.264 186.887 294.143 186.956 294.014C187.258 293.453 187.569 292.9 188.019 292.451C188.382 292.097 188.433 291.743 188.261 291.294C187.975 290.56 187.993 289.766 187.958 288.997C187.906 287.866 188.347 286.934 189.28 286.243C189.885 285.794 190.516 285.405 191.19 285.077C193.61 283.92 196.185 283.376 198.847 283.204C201.007 283.065 203.151 283.16 205.242 283.851C205.916 284.076 206.53 284.43 207.161 284.749C207.567 284.024 207.307 283.488 206.832 283.005C205.328 281.442 203.557 280.302 201.448 279.724C198.216 278.826 194.984 278.826 191.735 279.646C189.903 280.112 188.131 280.76 186.722 282.038C185.124 283.48 183.568 284.974 182.09 286.545C181.494 287.184 181.183 287.935 181.01 288.755C180.915 289.23 180.846 289.714 180.794 290.206C180.457 293.358 180.44 296.518 180.569 299.678C180.587 300.058 180.69 300.352 181.036 300.533C182.358 301.224 183.62 302.061 184.821 302.976ZM216.347 306.56C216.114 306.473 216.027 306.56 215.941 306.62C214.67 307.475 213.279 308.088 211.81 308.52C206.884 309.962 201.863 310.281 196.79 309.582C192.824 309.038 189.021 308.01 185.625 305.619C185.487 306.672 185.59 307.674 185.711 308.667C185.806 309.444 186.187 310.065 186.74 310.601C188.001 311.827 189.548 312.552 191.147 313.182C194.5 314.503 197.991 315.116 201.587 315.186C204.879 315.246 208.128 314.944 211.309 314.029C212.553 313.675 213.754 313.2 214.843 312.474C215.811 311.818 216.382 310.963 216.356 309.746C216.321 308.684 216.347 307.622 216.347 306.56ZM150.711 228.021C150.711 228.47 150.729 229.109 150.703 229.739C150.685 230.11 150.858 230.257 151.195 230.3C151.368 230.317 151.541 230.335 151.714 230.352C153.796 230.637 155.879 230.827 157.971 230.974C159.664 231.095 161.35 231.241 163.052 231.233C163.406 231.233 163.553 231.138 163.571 230.749C163.717 227.649 163.89 224.55 164.046 221.45C164.08 220.699 164.063 220.681 163.329 220.69C160.736 220.699 158.152 220.552 155.577 220.362C154.289 220.267 153.001 220.172 151.714 220.008C151.143 219.93 151.135 219.965 151.1 220.526C150.971 222.961 150.841 225.404 150.711 228.021ZM195.451 180.721C195.58 180.004 195.382 179.512 195.338 179.003C195.001 175.385 195.07 171.758 195.537 168.158C196.073 164.065 197.084 160.093 198.64 156.268C199.91 153.134 201.578 150.224 203.773 147.634C204.628 146.624 205.545 145.682 206.642 144.828C206.02 144.43 205.467 144.068 204.905 143.731C204.119 143.256 203.28 142.876 202.459 142.462C202.019 142.246 201.803 142.367 201.543 142.721C199.754 145.13 198.277 147.729 197.041 150.457C195.088 154.775 193.722 159.273 192.945 163.944C192.443 166.966 192.227 169.988 192.694 173.036C193.091 175.713 194.051 178.174 195.451 180.721ZM206.167 279.637C206.236 279.594 206.305 279.568 206.331 279.525C206.417 279.378 206.504 279.232 206.582 279.076C207.411 277.263 208.016 275.372 208.232 273.395C208.517 270.77 208.146 268.3 206.314 266.211C205.424 265.201 204.62 264.104 203.764 263.059C203.367 262.576 203.151 262.04 203.09 261.419C202.649 257.421 202.166 253.432 201.751 249.434C201.345 245.497 201.016 241.542 200.645 237.596C200.541 236.508 200.437 235.42 200.351 234.341C200.325 234.065 200.238 233.918 199.936 233.935C199.417 233.97 198.907 233.927 198.398 233.806C198.087 233.737 197.922 233.814 197.948 234.194C198.078 235.938 198.164 237.691 198.294 239.435C198.493 242.095 198.726 244.763 198.942 247.422C199.063 248.821 199.184 250.229 199.322 251.627C199.521 253.656 199.746 255.685 199.953 257.706C200.161 259.735 200.42 261.756 200.558 263.793C200.627 264.89 201.163 265.598 201.975 266.22C202.866 266.902 203.704 267.653 204.482 268.456C205.501 269.509 206.003 270.779 206.201 272.22C206.478 274.284 206.201 276.296 205.665 278.273C205.493 278.886 205.501 279.335 206.167 279.637ZM154.695 134.907C154.756 136.072 155.145 137.031 156.043 137.782C157.167 138.723 158.498 139.068 159.915 139.232C162.171 139.492 164.4 139.276 166.612 138.861C170.164 138.196 173.569 137.083 176.663 135.166C177.795 134.466 178.798 133.611 179.688 132.618C180.621 131.582 180.984 130.365 180.768 128.897C172.498 132.826 163.821 134.751 154.695 134.907ZM175.401 220.181C175.056 220.068 174.745 220.146 174.442 220.189C172.126 220.483 169.801 220.621 167.477 220.673C166.811 220.69 166.154 220.699 165.489 220.681C165.152 220.673 165.014 220.802 164.996 221.122C164.988 221.269 164.953 221.407 164.945 221.553C164.901 224.576 164.608 227.58 164.512 230.602C164.495 231.25 164.495 231.267 165.169 231.276C168.246 231.319 171.322 231.207 174.399 231C175.246 230.939 175.237 230.913 175.254 230.007C175.298 227.416 175.229 224.826 175.393 222.244C175.436 221.553 175.401 220.863 175.401 220.181ZM149.605 230.007C149.761 229.756 149.7 229.489 149.7 229.238C149.743 226.251 149.882 223.263 150.158 220.293C150.201 219.861 150.029 219.835 149.692 219.792C147.704 219.524 145.708 219.257 143.72 218.954C142.475 218.765 141.231 218.523 139.987 218.307C139.442 218.212 139.408 218.238 139.356 218.79C139.321 219.188 139.304 219.593 139.269 219.991C139.036 222.417 138.785 224.852 138.811 227.295C138.82 228.116 138.811 228.116 139.606 228.314C142.311 228.97 145.059 229.419 147.816 229.825C148.413 229.92 149 230.119 149.605 230.007ZM137.809 227.908C137.826 227.675 137.843 227.563 137.843 227.442C137.878 225.75 137.964 224.057 138.103 222.365C138.206 221.079 138.371 219.792 138.535 218.514C138.587 218.091 138.483 217.979 138.077 217.918C135.631 217.53 133.246 216.882 130.861 216.261C130.472 216.157 130.057 215.846 129.711 216.01C129.271 216.226 129.478 216.787 129.426 217.184C129.106 219.602 128.795 222.028 128.769 224.481C128.761 224.886 128.813 225.171 129.262 225.344C132.01 226.423 134.871 227.166 137.809 227.908ZM212.579 295.862C212.035 295.145 211.343 294.731 210.643 294.342C208.232 293.004 205.631 292.391 202.891 292.287C199.201 292.14 195.693 292.814 192.417 294.575C191.795 294.912 191.208 295.283 190.732 295.844C194.638 298.253 206.115 298.936 212.579 295.862ZM208.828 289.23C208.293 288.367 207.852 287.676 207.428 286.977C206.737 285.846 205.726 285.138 204.499 284.697C203.825 284.456 203.125 284.291 202.416 284.197C199.34 283.765 196.341 284.197 193.411 285.103C192.149 285.492 190.94 286.036 189.868 286.839C189.177 287.357 188.762 287.987 188.848 288.885C188.891 289.369 188.883 289.861 188.926 290.344C188.969 290.819 189.038 290.862 189.453 290.629C190.378 290.102 191.32 289.619 192.314 289.23C194.682 288.298 197.136 287.728 199.668 287.529C201.794 287.357 203.911 287.46 205.968 288.134C206.875 288.427 207.774 288.764 208.828 289.23ZM159.051 160.499C158.956 160.56 158.8 160.646 158.662 160.75C156.933 162.027 155.205 163.314 153.468 164.592C153.166 164.816 152.898 165.075 152.69 165.395C151.852 166.699 151.342 168.106 151.195 169.652C151.117 170.472 151.584 170.947 152.12 171.387C152.621 171.802 153.027 171.335 153.459 171.163C153.511 171.145 153.563 171.111 153.615 171.085C156.337 169.522 158.913 167.752 161.479 165.956C161.756 165.766 161.868 165.602 161.678 165.257C160.857 163.772 160.088 162.261 159.405 160.715C159.345 160.594 159.293 160.447 159.051 160.499ZM210.954 293.168C210.298 291.622 209.442 290.292 207.766 289.662C206.659 289.248 205.545 288.876 204.378 288.678C199.668 287.866 195.217 288.764 191.009 290.897C188.969 291.933 189.09 291.916 189.842 294.014C190.162 294.903 190.196 294.886 191.017 294.368C194.025 292.468 197.326 291.493 200.861 291.277C204.361 291.07 207.722 291.674 210.954 293.168ZM185.729 229.402C185.556 229.342 185.487 229.29 185.4 229.281C182.375 228.815 180.146 225.042 181.321 222.322C181.451 222.028 181.338 221.847 181.131 221.657C180.517 221.087 179.999 220.44 179.584 219.706C179.42 219.412 179.264 219.317 178.91 219.412C178.245 219.593 177.579 219.792 176.888 219.827C176.447 219.852 176.326 220.094 176.317 220.509C176.266 223.755 176.283 226.993 176.153 230.24C176.127 230.861 176.179 230.887 176.775 230.818C179.748 230.473 182.704 230.102 185.729 229.402ZM179.653 151.882C179.878 151.709 180.042 151.597 180.198 151.468C181.537 150.293 182.885 149.136 184.216 147.945C185.158 147.107 186.074 146.226 186.999 145.372C187.18 145.199 187.293 145.078 187.068 144.81C186.014 143.558 184.856 142.401 183.715 141.227C183.309 140.813 183.274 140.839 182.799 141.244C180.898 142.911 179.005 144.577 177.104 146.252C176.931 146.408 176.775 146.572 176.611 146.727C176.412 146.909 176.361 147.081 176.559 147.314C177.752 148.687 178.72 150.216 179.653 151.882ZM172.23 157.917C172.377 157.848 172.454 157.822 172.524 157.771C174.675 156.147 176.689 154.351 178.806 152.676C179.04 152.495 179.04 152.34 178.893 152.098C178.461 151.424 178.063 150.725 177.631 150.043C177.069 149.153 176.49 148.281 175.885 147.349C173.638 149.318 171.296 151.019 169.067 152.909C170.208 154.533 171.201 156.199 172.23 157.917ZM129.461 134.345C132.399 134.613 135.026 134.207 137.567 133.007C137.826 133.991 138.198 134.855 138.785 135.606C139.537 136.582 140.436 137.437 141.689 137.618C144.169 137.972 146.503 137.506 148.525 135.943C148.966 135.597 149.432 135.269 149.761 134.743C149.38 134.604 149.043 134.579 148.698 134.561C147.03 134.458 145.388 134.207 143.746 133.931C140.324 133.344 136.927 132.61 133.609 131.565C133.298 131.47 133.099 131.461 132.866 131.738C131.984 132.808 130.887 133.62 129.461 134.345ZM114.761 294.523C118.235 294.765 128.692 293.919 130.515 293.271C130.506 293.099 130.368 293.047 130.247 292.969C129.305 292.356 128.285 291.89 127.231 291.51C125.287 290.802 123.342 290.128 121.242 290.051C120.741 290.033 120.283 290.137 119.834 290.361C118.382 291.078 117.077 292.011 115.919 293.142C115.521 293.53 115.124 293.945 114.761 294.523ZM124.068 213.61C123.887 213.843 123.852 214.041 123.818 214.24C123.472 216.425 123.264 218.626 123.256 220.845C123.256 221.657 123.55 222.21 124.146 222.676C125.079 223.41 126.116 223.962 127.188 224.463C127.352 224.541 127.516 224.731 127.741 224.55C127.81 223.557 127.767 222.546 127.879 221.545C128.078 219.714 128.251 217.892 128.64 216.088C128.709 215.76 128.64 215.578 128.277 215.458C126.842 214.965 125.425 214.404 124.068 213.61ZM187.932 144.534C189.868 142.712 191.838 141.028 193.619 139.086C191.614 138.231 189.712 137.437 187.82 136.616C187.483 136.469 187.275 136.452 187.042 136.806C186.282 137.963 185.296 138.939 184.328 139.915C184.182 140.061 183.931 140.156 183.922 140.441C185.357 141.676 186.627 143.066 187.932 144.534ZM162.508 165.283C164.271 163.996 165.973 162.744 167.693 161.501C167.987 161.285 167.909 161.112 167.762 160.862C166.95 159.472 166.154 158.073 165.342 156.683C165.23 156.493 165.187 156.242 164.884 156.147C163.363 157.279 161.825 158.427 160.287 159.584C159.794 159.955 159.803 159.955 160.105 160.551C160.874 162.079 161.661 163.616 162.508 165.283ZM150.08 159.618C149.173 157.538 148.413 155.5 147.764 153.367C146.166 154.023 144.627 154.662 143.089 155.293C142.709 155.448 142.761 155.69 142.873 155.983C143.366 157.365 143.85 158.746 144.48 160.067C144.8 160.732 145.068 161.423 145.492 162.071C146.917 161.043 148.456 160.352 150.08 159.618ZM141.084 148.178C142.648 147.668 144.083 147.193 145.587 146.926C146.304 146.796 146.338 146.909 146.261 146.062C146.096 144.344 146.079 142.626 146.252 140.908C146.304 140.407 146.554 139.923 146.382 139.327C145.327 139.785 144.256 140.105 143.279 140.649C142.899 140.864 142.579 141.132 142.398 141.555C141.516 143.645 141.179 145.838 141.084 148.178ZM142.432 154.809C144.135 153.946 145.837 153.307 147.6 152.823C147.211 151.165 146.788 149.585 146.554 147.971C146.503 147.608 146.382 147.409 145.932 147.539C144.506 147.962 143.072 148.359 141.637 148.756C141.248 148.869 141.093 149.05 141.171 149.499C141.343 150.604 141.534 151.701 141.819 152.78C141.992 153.445 142.216 154.084 142.432 154.809ZM150.314 160.266C148.767 161.052 147.246 161.82 145.699 162.606C146.857 165.11 148.309 167.32 150.106 169.462C150.21 168.97 150.271 168.616 150.366 168.262C150.72 166.854 151.359 165.568 152.206 164.393C152.353 164.186 152.543 164.022 152.319 163.72C151.532 162.649 150.971 161.458 150.314 160.266ZM126.445 286.407C127.318 286.424 128.104 286.519 128.873 286.726C131.63 287.478 134.11 288.747 136.227 290.672C136.513 290.931 136.703 291.009 137.014 290.75C137.472 290.361 137.973 290.025 138.44 289.645C139.174 289.049 139.183 289.032 138.431 288.393C136.435 286.718 134.145 285.638 131.613 285.077C129.755 284.663 127.94 284.706 126.445 286.407ZM207.921 89.4721C208.345 91.2162 209.027 92.7532 209.926 94.1951C210.963 95.8443 212.216 97.2949 213.91 98.3138C214.506 98.6764 215.111 98.9959 215.82 99.065C216.701 99.1513 216.736 99.1254 216.727 98.2188C216.727 97.9857 216.701 97.7612 216.719 97.528C216.753 96.8632 216.494 96.4055 215.924 96.0343C214.325 95.0154 212.821 93.8411 211.386 92.6064C210.22 91.6221 209.114 90.5686 207.921 89.4721ZM142.087 287.374C142.009 287.262 141.957 287.158 141.879 287.08C141.68 286.873 141.482 286.666 141.266 286.476C139.01 284.533 136.383 283.385 133.479 282.806C132.71 282.651 131.941 282.573 131.163 282.608C130.359 282.651 129.867 283.169 129.262 283.713C132.917 284.084 136.011 285.474 138.846 287.547C139.295 287.875 139.598 288.591 140.168 288.514C140.695 288.445 141.162 287.978 141.655 287.685C141.793 287.598 141.922 287.495 142.087 287.374ZM165.429 155.759C166.561 157.374 167.546 159.066 168.609 160.767C169.533 160.067 170.363 159.411 171.227 158.79C171.608 158.522 171.668 158.297 171.409 157.892C170.527 156.484 169.663 155.059 168.911 153.574C168.73 153.212 168.54 153.307 168.306 153.488C167.364 154.222 166.371 154.895 165.429 155.759ZM104.235 99.16C103.085 101.793 101.625 104.073 98.9546 105.463C103.327 105.808 106.698 103.279 107.718 100.947C106.473 100.559 105.367 99.9025 104.235 99.16ZM179.774 301.353C179.731 302.208 179.705 302.976 179.645 303.736C179.593 304.358 179.843 304.798 180.388 305.057C181.166 305.429 181.952 305.774 182.73 306.137C183.266 306.387 183.793 306.646 184.346 306.922C184.398 306.102 184.432 305.351 184.51 304.617C184.545 304.306 184.398 304.142 184.19 303.969C182.894 302.864 181.356 302.173 179.774 301.353Z" fill="#0A0808"/>
</g>

</svg>
