<svg width="320" height="320" viewBox="0 0 320 320" fill="none" xmlns="http://www.w3.org/2000/svg">
<g filter="url(#filter0_d_169_8041)">
<path d="M94.6769 86.3982C94.5732 86.1133 94.5905 85.8111 94.6078 85.5175L94.6769 85.552L94.7547 85.5348C94.7893 85.8284 94.9794 86.0874 94.9535 86.3982C94.8584 86.3896 94.772 86.3896 94.6769 86.3982Z" fill="#DCC3E9"/>
<path d="M122.625 193.232C122.685 193.008 122.832 192.861 123.1 192.749C122.988 193.06 122.979 193.362 122.781 193.604C122.737 193.483 122.685 193.353 122.625 193.232Z" fill="#DCC3E9"/>
<path d="M230.857 85.9492C230.736 85.9147 230.684 85.8197 230.641 85.7247C230.598 85.6297 230.494 85.5261 230.606 85.4312C230.701 85.3535 230.814 85.4484 230.9 85.5002C230.969 85.5348 231.012 85.6125 231.064 85.6729C230.874 85.6902 230.857 85.8111 230.857 85.9492Z" fill="#5374AB"/>
<path d="M231.004 86.1478L230.935 86.1392C230.935 86.1392 230.935 86.0787 230.943 86.0787L231.012 86.0874L231.004 86.1478Z" fill="#5374AB"/>
<path d="M234.34 85.034C231.799 84.1619 229.734 82.5905 227.971 80.6045C227.21 79.7497 226.493 78.869 225.819 77.9451C225.75 77.8501 225.689 77.7551 225.508 77.7638C225.577 78.4459 225.819 79.0849 226.009 79.7324C227.236 83.8338 229.111 87.5898 232.076 90.7241C234.037 92.7964 236.31 94.4197 239.101 95.2572C238.989 95.5249 238.704 95.5335 238.488 95.6285C235.506 96.9668 232.395 97.8475 229.12 98.0979C225.378 98.3829 221.843 97.5799 218.551 95.853C214.178 93.5648 210.566 90.3615 207.558 86.4587C207.256 86.0615 207.083 85.6212 206.997 85.129C206.625 82.8581 206.487 80.5614 206.366 78.2646C206.219 75.3375 206.158 72.4018 205.968 69.4747C205.718 65.546 205.381 61.626 204.845 57.7232C204.11 52.318 202.779 47.0683 200.939 41.9567C198.389 34.9023 194.474 28.6941 188.969 23.5566C185.616 20.4223 181.857 17.9011 177.467 16.4246C177.251 16.3555 177.035 16.2778 176.81 16.2087C176.758 16.1914 176.698 16.2173 176.637 16.2346C176.784 16.5454 177.104 16.6318 177.363 16.7872C178.824 17.6507 180.336 18.4364 181.693 19.4553C183.413 20.7418 185.158 21.9765 186.792 23.3839C187.881 24.3165 188.857 25.3612 189.868 26.3542C190.629 27.0968 191.294 27.9688 191.96 28.815C192.962 30.0929 193.913 31.414 194.777 32.7955C195.909 34.6001 197.024 36.4306 197.888 38.382C198.735 40.2816 199.461 42.2502 200.187 44.2016C202.062 49.201 202.995 54.4162 203.695 59.6746C204.309 64.294 204.456 68.9566 204.62 73.6106C204.741 76.9694 204.888 80.3369 205.285 83.6784C205.268 83.687 205.242 83.7043 205.242 83.7129C205.26 83.7475 205.277 83.7734 205.294 83.7993C205.355 84.2224 205.406 84.6455 205.467 85.0685L205.424 85.129L205.476 85.1808C205.899 88.3151 206.694 91.3458 208.301 94.1002C209.667 96.4488 211.439 98.4174 213.979 99.6608C213.625 99.9543 213.227 99.9975 212.856 100.058C210.255 100.533 207.913 99.7989 205.709 98.4865C204.568 97.813 203.557 96.9496 202.632 95.9998C202.477 95.8357 202.356 95.6285 202.053 95.5249C202.192 96.3538 202.347 97.1482 202.408 97.9512C202.632 100.99 201.742 103.667 199.962 106.102C197.378 109.642 194.085 112.293 190.032 113.968C189.644 114.132 189.246 114.296 188.797 114.408C191.225 111.43 192.997 108.166 193.576 104.341C193.593 104.332 193.619 104.323 193.619 104.315C193.61 104.28 193.602 104.254 193.584 104.22C193.74 103.339 193.774 102.45 193.757 101.552C193.748 101.172 193.887 101.042 194.258 101.077C194.742 101.129 195.235 101.155 195.719 101.172C196.203 101.189 196.687 101.172 197.162 101.172C197.231 100.956 197.058 100.921 196.946 100.861C195.572 100.162 194.423 99.1686 193.394 98.0202C190.767 95.0845 188.987 91.6566 187.526 88.0474C186.118 84.5764 185.089 80.9931 184.329 77.3407C183.473 73.2739 182.678 69.1898 181.823 65.1229C180.362 58.1722 178.495 51.3423 175.73 44.7801C174.71 42.3711 173.587 40.0139 172.282 37.7517C171.927 37.1386 171.452 36.6033 171.21 35.9212C171.193 35.8607 171.046 35.8435 170.968 35.8176C171.011 36.327 171.314 36.7501 171.539 37.1904C173.448 40.9378 174.779 44.9097 176.11 48.8815C178.323 55.4523 179.904 62.1872 181.295 68.9739C182.108 72.9371 182.86 76.9176 183.827 80.8549C184.329 82.8754 184.908 84.8613 185.668 86.7954C187.111 90.4564 188.779 93.9966 191.19 97.1395C191.977 98.167 192.884 99.0823 193.921 99.9889C193.636 100.144 193.377 100.075 193.152 100.049C186.42 99.2291 180.535 96.6474 175.842 91.6566C173.276 88.9281 171.668 85.6298 170.597 82.0724C169.655 78.964 169.058 75.7692 168.514 72.5745C168.453 72.2377 168.402 71.8923 168.35 71.5556C168.367 71.547 168.393 71.5297 168.393 71.5211C168.376 71.4952 168.358 71.4693 168.341 71.4347C168.194 70.649 168.168 69.846 167.857 69.0775C167.883 69.4747 167.909 69.8719 167.935 70.2691C168.108 73.1098 168.384 75.9419 168.86 78.7481C169.516 82.625 170.735 86.3205 172.507 89.8261C173.993 92.7705 175.92 95.4126 178.262 97.7353C179.074 98.5383 179.939 99.2981 180.95 99.9975C180.682 100.127 180.474 100.041 180.284 99.9975C174.209 98.5987 169.352 95.3349 165.576 90.4133C163.571 87.8057 161.877 85.0081 160.771 81.8997C160.079 79.9483 159.751 77.9019 159.371 75.8728C159.388 75.8642 159.414 75.8469 159.405 75.8383C159.388 75.8124 159.371 75.7779 159.353 75.752C158.869 73.0321 158.515 70.3036 158.169 67.5665C157.582 62.8521 157.452 58.1118 157.625 53.3628C157.651 52.5339 157.841 51.7222 157.737 50.7725C157.158 53.2419 157.063 55.6509 156.986 58.0599C156.83 62.6362 157.011 67.2038 157.495 71.7542C157.928 75.8124 158.645 79.8274 159.405 83.8338C159.708 85.4139 160.062 86.9681 160.416 88.531C160.589 89.2822 160.918 89.9988 161.16 90.7327C162.499 94.8859 164.53 98.6592 167.261 102.061C167.295 102.104 167.304 102.165 167.321 102.217C167.278 102.372 167.148 102.32 167.053 102.294C162.162 101.155 158.023 98.6678 154.445 95.1968C151.619 92.451 149.337 89.2908 147.307 85.932C147.177 85.7075 147.039 85.4916 146.9 85.2671C146.892 85.2499 146.849 85.2499 146.823 85.2412C147.116 88.3583 148.784 94.4197 153.624 101.206C152.492 100.913 151.446 100.593 150.461 100.127C148.352 99.1254 146.434 97.8475 144.731 96.2329C140.566 92.2697 137.446 87.6071 135.191 82.34C133.67 78.7913 132.658 75.0871 131.898 71.3138C130.679 65.2265 130.092 59.0874 130.377 52.8879C130.515 49.8399 130.87 46.8179 131.466 43.8217C131.509 43.6231 131.535 43.4245 131.57 43.2259C131.587 43.2087 131.613 43.2 131.613 43.1828C131.613 43.1482 131.604 43.105 131.595 43.0705C131.639 42.8892 131.682 42.7165 131.716 42.5352C131.837 42.2416 132.01 41.948 131.82 41.5595C131.466 41.8271 131.388 42.1639 131.371 42.5265L131.362 42.5783C131.302 42.6302 131.267 42.6906 131.319 42.7597C130.334 45.989 129.815 49.3046 129.53 52.6634C129.158 57.0065 129.236 61.3497 129.712 65.6669C130.256 70.6145 131.241 75.4843 132.728 80.2419C134.162 84.8527 135.726 89.4117 137.783 93.7893C138.846 96.0516 140.091 98.2188 141.534 100.308C141.326 100.447 141.162 100.317 140.989 100.265C135.986 98.6764 132.002 95.7407 129.081 91.3544C126.894 88.0647 125.442 84.4641 124.31 80.7081C124.233 80.4577 124.181 80.2073 124.112 79.9569C123.982 79.3784 123.956 78.7567 123.481 78.0833C123.498 78.8517 123.558 79.4302 123.792 79.9742C124.673 84.6023 126.35 88.954 128.381 93.1849C129.012 94.506 129.591 95.853 130.377 97.0877C130.377 97.1827 130.377 97.2777 130.377 97.364C128.674 96.3365 127.015 95.2572 125.615 93.8239C122.858 91.0091 120.914 87.6761 119.462 84.041C118.071 80.5613 117.319 76.909 116.662 73.2307C115.893 68.9135 115.539 64.5703 115.634 60.1927C115.772 54.0881 116.852 48.1476 118.84 42.3711C120.568 37.3631 123.083 32.7696 126.272 28.5473C126.471 28.2797 126.678 28.012 126.834 27.7012C126.125 28.1847 125.529 28.7805 124.95 29.4022C122.141 32.4674 120.007 35.9471 118.434 39.7808C116.593 44.2448 115.478 48.8901 114.795 53.6564C114.147 58.1204 114.156 62.593 114.588 67.0743C114.571 67.083 114.545 67.1089 114.545 67.1089C114.562 67.1434 114.579 67.1779 114.597 67.2038C114.726 68.8703 115.003 70.5108 115.202 72.1687C115.366 73.507 115.625 74.8281 115.876 76.1491C116.144 77.5911 116.463 79.0331 116.852 80.4577C117.258 81.9515 117.457 83.4884 117.578 85.034C117.907 89.239 118.745 93.3317 120.326 97.2604C120.715 98.2188 121.165 99.1513 121.614 100.075C122.063 100.999 122.573 101.888 123.265 102.795C122.746 102.778 122.409 102.536 122.055 102.407C119.894 101.612 117.837 100.602 115.772 99.5917C111.019 97.2863 107.692 93.6253 105.341 88.9627C103.846 86.0011 102.826 82.8754 102.221 79.6375C101.763 77.1507 101.556 74.6208 101.573 72.0909C101.599 69.302 101.807 66.5217 102.36 63.6378C101.902 64.2422 101.833 64.8466 101.694 65.4079C100.813 68.9912 100.666 72.6177 100.942 76.2787C101.167 79.2403 101.686 82.1501 102.567 84.9822C103.958 89.4635 106.128 93.5044 109.489 96.8373C110.224 97.5712 111.036 98.2102 111.857 98.8491C111.252 98.7801 110.812 99.065 110.405 99.4622C110.12 99.7385 109.844 100.015 109.628 100.352C107.795 99.8335 106.24 98.8232 104.814 97.5971C102.049 95.2227 99.9745 92.3215 98.393 89.049C97.0795 86.3292 96.1375 83.4712 95.2906 80.5786C94.7634 78.7567 94.2795 76.9349 93.9943 75.0526C93.9597 74.8453 93.9856 74.5949 93.7869 74.4223C93.0869 79.4993 92.4128 84.5764 93.4498 89.6793C93.1474 90.0938 92.8449 89.9038 92.5511 89.6707C91.1684 86.7005 90.3992 83.5575 89.9326 80.3369C89.198 75.2598 89.44 70.1914 90.0535 65.1143C90.7276 59.5796 92.0326 54.2176 94.0375 49.0197C96.1634 43.4936 99.0066 38.3475 102.654 33.6676C108.625 25.9915 115.954 19.9474 124.526 15.3798C129.763 12.5909 135.191 10.2855 140.946 8.78306C144.645 7.82463 148.395 7.11661 152.189 6.59854C157.642 5.84734 163.121 5.5365 168.626 5.59694C173.708 5.65738 178.72 6.30497 183.646 7.54833C185.703 8.0664 187.725 8.73125 189.73 9.43928C192.763 10.5013 195.693 11.7792 198.545 13.2643C200.541 14.3005 202.468 15.4661 204.343 16.6922C205.519 17.4693 206.668 18.3069 207.792 19.1703C208.518 19.7316 209.174 20.3878 209.978 20.8627C210.194 20.9922 210.341 21.2253 210.522 21.4066C211.361 22.2615 212.311 22.9867 213.167 23.8329C213.599 24.256 213.91 24.7655 214.325 25.1885C217.151 28.0293 219.355 31.3449 221.308 34.8073C222.293 36.5515 223.114 38.382 223.909 40.2384C225.801 44.6593 227.011 49.2528 227.832 53.9672C228.334 56.8339 228.619 59.7178 228.8 62.6189C228.999 65.7446 229.137 68.8789 229.336 72.0046C229.578 75.7865 230.503 79.3784 232.629 82.5732C233.199 83.428 233.899 84.2051 234.703 84.8527C234.634 85.034 234.478 85.0081 234.34 85.034Z" fill="#DCC3E9"/>
<path d="M141.638 140.217C140.471 142.436 139.935 144.664 139.797 146.978C139.693 148.687 139.996 150.362 140.411 152.012C141.992 158.366 144.74 164.177 148.586 169.47C149.277 170.42 150.046 171.327 150.911 172.13C152.069 173.192 152.518 173.27 153.918 172.587C155.802 171.664 157.565 170.515 159.345 169.401C163.882 166.561 168.264 163.487 172.446 160.145C177.623 156.018 182.592 151.649 187.432 147.133C188.858 145.795 190.327 144.491 191.683 143.092C192.703 142.047 193.835 141.098 194.674 139.88C194.881 139.578 195.114 139.638 195.391 139.681C195.901 139.768 196.324 140.087 196.808 140.234C198.087 140.623 199.366 141.02 200.585 141.598C200.688 141.65 200.809 141.659 200.861 141.806C200.896 142.021 200.706 142.142 200.593 142.298C198.899 144.629 197.404 147.09 196.229 149.715C193.991 154.723 192.418 159.938 191.727 165.395C191.234 169.306 191.269 173.192 192.349 177.026C192.98 179.253 193.878 181.36 195.201 183.277C195.451 183.64 195.607 184.019 195.693 184.451C195.892 185.436 196.091 186.42 196.393 187.387C196.998 189.356 198.225 190.59 200.317 190.91C201.103 191.031 201.086 191.074 201.069 191.885C201.043 192.896 201.008 193.897 200.999 194.908C200.999 195.296 200.87 195.477 200.464 195.503C199.945 195.538 199.453 195.685 198.96 195.849C196.774 196.583 195.304 198.059 194.483 200.2C194.12 201.142 193.766 202.083 193.438 203.033C193.299 203.43 193.092 203.646 192.669 203.715C189.774 204.146 187.397 205.623 185.202 207.436C183.534 208.818 182.082 210.415 180.812 212.168C180.319 212.841 179.896 213.558 179.524 214.309C179.144 215.095 178.885 215.915 178.928 216.796C178.954 217.279 178.807 217.513 178.297 217.616C177.364 217.806 176.43 217.953 175.488 218.082C170.251 218.782 164.988 218.929 159.725 218.747C155.819 218.618 151.922 218.298 148.033 217.806C142.442 217.098 136.893 216.14 131.449 214.646C129.738 214.171 128.027 213.662 126.471 212.746C123.792 211.166 122.263 207.928 122.842 204.872C123.758 200.019 124.726 195.167 125.624 190.314C126.411 186.049 127.206 181.783 127.811 177.492C128.312 173.934 128.9 170.394 129.427 166.837C129.919 163.513 130.446 160.188 131.06 156.89C131.786 153.022 132.555 149.171 133.627 145.372C134.171 143.446 135.156 142.125 137.17 141.555C138.613 141.141 140.048 140.657 141.638 140.217ZM176.465 191.808C178.487 189.563 180.501 187.439 182.514 185.315C183.499 184.27 184.485 183.225 185.496 182.206C185.781 181.913 185.781 181.74 185.496 181.438C184.632 180.522 183.802 179.564 182.955 178.623C181.166 176.637 179.377 174.66 177.597 172.665C177.139 172.156 177.139 172.138 176.646 172.639C174.322 175.031 172.006 177.423 169.69 179.814C169.197 180.324 168.722 180.868 168.221 181.429C170.96 184.874 173.803 188.224 176.465 191.808Z" fill="#95509E"/>
<path d="M191.934 101.016C192.219 101.008 192.504 100.999 192.772 101.085C192.729 106.793 190.283 111.447 186.55 115.652C186.956 115.764 187.215 115.695 187.483 115.634C191.095 114.849 194.319 113.295 197.084 110.825C197.171 110.747 197.274 110.696 197.369 110.626C197.456 111.378 198.104 111.533 198.64 111.749C200.766 112.612 202.909 112.414 205.026 111.723C207.818 110.825 210.142 109.202 212.173 107.104C213.988 105.23 214.973 102.942 215.665 100.49C215.682 100.421 215.621 100.326 215.604 100.248C215.932 99.9888 216.269 99.7298 216.693 99.4017C216.779 100.636 216.537 101.716 216.278 102.786C215.682 105.265 214.446 107.423 212.787 109.34C209.771 112.82 206.098 115.358 201.725 116.843C199.599 117.569 197.404 117.733 195.183 117.292C194.483 117.154 193.844 116.921 193.532 116.161C192.487 117.586 191.329 118.829 189.981 119.883C189.911 119.943 189.851 120.004 189.782 120.064L189.799 120.047C189.739 120.107 189.678 120.176 189.618 120.237C189.6 120.608 189.272 120.755 189.056 120.953C185.884 123.872 182.324 126.229 178.478 128.172C174.745 130.063 170.787 131.272 166.708 132.152C161.177 133.352 155.603 133.491 149.994 133.024C143.686 132.506 137.567 131.159 131.665 128.862C127.94 127.412 124.483 125.521 121.536 122.767C120.819 122.093 120.179 121.359 119.6 120.573C118.667 119.321 118.166 117.897 117.967 116.36C117.518 112.992 117.207 109.625 117.068 106.232C117.008 104.686 116.887 103.14 116.783 101.5C119.471 102.605 122.107 103.684 125.105 104.237C124.068 102.432 122.988 100.844 122.4 99.0045C122.815 99.134 123.057 99.5312 123.481 99.6694C126.471 100.654 129.53 101.327 132.684 101.405C134.612 101.457 136.539 101.405 138.466 101.405C138.665 101.405 138.872 101.405 139.071 101.379C139.408 101.344 139.373 101.103 139.33 100.861C140.523 101.137 141.741 101.206 143.012 101.414C142.916 100.611 142.216 100.179 142.087 99.488C142.493 99.6003 142.657 100.032 143.037 100.205C144.109 100.68 145.163 101.198 146.295 101.534C148.3 102.13 150.366 102.415 152.457 102.553C152.933 102.588 152.872 102.294 152.786 101.992C153.382 102.07 153.97 102.147 154.566 102.217C154.929 102.26 155.041 102.07 154.912 101.75C154.73 101.336 154.523 100.93 154.324 100.524C155.361 101.034 156.484 101.206 157.599 101.405C158.498 101.56 159.397 101.681 160.304 101.742C160.615 101.759 160.944 101.802 161.108 101.422C163.778 102.45 166.492 103.253 169.534 103.391C168.289 101.759 167.019 100.291 166.137 98.5555C166.431 98.3569 166.621 98.6246 166.837 98.7196C168.462 99.4276 170.095 100.084 171.815 100.541C173.742 101.051 175.67 101.483 177.666 101.612C179.178 101.716 180.682 101.923 182.203 101.932C184.752 101.949 187.31 101.966 189.834 101.56C190.525 101.457 191.294 101.457 191.934 101.016ZM153.961 121.454C156.294 121.29 158.446 120.582 160.434 119.365C160.65 119.235 160.866 119.071 161.039 118.881C161.255 118.648 161.67 118.398 161.384 118.035C161.168 117.767 160.849 118.069 160.624 118.199C158.524 119.408 156.268 120.202 153.909 120.729C153.581 120.798 153.01 120.712 153.079 121.204C153.131 121.635 153.658 121.359 153.961 121.454ZM146.347 104.79C146.252 105.567 146.434 106.309 146.252 107.052C146.071 107.803 145.475 108.356 145.172 109.271C146.373 108.77 146.935 107.976 147.203 106.94C147.436 106.042 147.047 105.351 146.347 104.79ZM150.176 120.953C150.176 120.634 149.891 120.625 149.709 120.522C148.568 119.926 147.384 119.399 146.295 118.708C146.123 118.596 145.898 118.328 145.699 118.587C145.5 118.855 145.777 119.045 145.95 119.226C146.01 119.287 146.079 119.347 146.149 119.399C147.194 120.193 148.37 120.712 149.631 121.04C149.804 121.091 150.02 121.143 150.176 120.953Z" fill="#FBD5BA"/>
<path d="M177.363 277.237C177.371 276.995 177.363 276.849 177.389 276.71C177.691 275.243 177.276 273.947 176.568 272.678C174.312 268.637 172.143 264.553 170.112 260.391C167.934 255.927 165.886 251.394 163.855 246.852C163.147 245.281 162.386 243.735 161.773 242.121C161.6 241.672 161.254 241.413 160.839 241.283C159.785 240.946 159.232 240.143 158.765 239.22C158.048 237.821 157.737 236.301 157.478 234.773C157.391 234.255 157.002 233.607 157.383 233.227C157.711 232.89 158.368 233.219 158.878 233.227C163.311 233.314 167.736 233.4 172.16 233.132C175.228 232.951 178.288 232.666 181.33 232.2C183.801 231.828 186.255 231.362 188.623 230.542C188.909 230.447 189.159 230.3 189.479 230.602C191.328 232.329 193.584 233.072 196.064 233.236C196.15 233.245 196.237 233.245 196.323 233.253C197.032 233.305 197.032 233.305 197.075 233.996C197.17 235.628 197.257 237.268 197.352 238.9C197.55 242.397 197.879 245.894 198.199 249.382C198.527 252.992 198.916 256.583 199.305 260.184C199.452 261.557 199.65 262.921 199.806 264.285C199.91 265.149 200.255 265.874 200.912 266.461C201.517 266.997 202.105 267.549 202.692 268.093C202.839 268.231 202.986 268.361 203.142 268.49C204.611 269.708 205.173 271.305 205.095 273.162C205.026 274.75 204.741 276.296 204.17 277.79C203.894 278.506 203.894 278.515 203.194 278.308C200.497 277.505 197.741 277.151 194.932 277.323C191.57 277.531 188.459 278.541 185.59 280.32C184.786 280.82 184 281.347 183.17 281.822C181.684 282.668 181.096 282.677 179.575 281.503C178.953 281.028 178.469 280.415 178.028 279.767C177.501 278.973 177.415 278.066 177.363 277.237Z" fill="#5374AB"/>
<path d="M126.738 227.408C128.501 228.072 130.169 228.599 131.846 229.074C135.277 230.032 138.751 230.818 142.268 231.397C143.443 231.587 144.593 231.915 145.777 232.036C147.047 232.165 148.3 232.433 149.579 232.416C150.098 232.407 150.279 232.614 150.331 233.115C150.426 233.987 150.461 234.868 150.798 235.697C151.048 236.327 151.264 236.975 151.619 237.562C151.714 237.726 151.826 237.916 152.146 237.864C151.999 237.044 151.835 236.241 151.705 235.42C151.575 234.626 151.437 233.832 151.411 233.029C151.403 232.752 151.463 232.597 151.792 232.623C153.053 232.752 154.306 232.856 155.568 232.985C156.242 233.055 156.251 233.072 156.346 233.728C156.553 235.153 156.813 236.56 157.253 237.933C157.538 238.814 157.919 239.634 158.385 240.428C158.143 240.627 157.927 240.497 157.72 240.446C155.352 239.867 152.984 239.254 150.608 238.727C146.995 237.916 143.366 237.156 139.676 236.362C139.753 236.698 140.004 236.724 140.168 236.819C142.787 238.157 145.543 239.142 148.361 239.971C151.169 240.8 153.987 241.603 156.795 242.432C157.4 242.613 157.988 242.846 158.558 243.131C159.025 243.364 159.232 243.684 159.232 244.21C159.241 246.766 159.301 249.33 159.301 251.886C159.31 255.651 159.206 259.416 159.025 263.18C158.904 265.624 158.774 268.059 158.584 270.494C158.472 271.901 158.601 273.231 159.258 274.509C159.751 275.45 160.131 276.443 160.33 277.496C160.667 279.266 160.243 280.734 158.774 281.848C156.804 283.342 154.661 283.791 152.284 283.014C150.504 282.435 148.81 281.641 147.134 280.82C145.301 279.922 143.504 278.964 141.603 278.221C138.396 276.969 135.216 276.987 132.01 278.187C131.111 278.524 131.111 278.515 130.515 277.781C129.876 276.995 129.357 276.14 129.003 275.191C128.778 274.578 128.752 273.965 128.934 273.334C129.098 272.756 129.314 272.186 129.556 271.642C129.78 271.141 129.979 270.632 130.238 270.157C130.852 269.043 130.869 267.886 130.679 266.651C129.945 262.058 129.219 257.464 128.605 252.853C128.182 249.667 127.784 246.472 127.49 243.269C127.188 239.953 126.903 236.629 126.868 233.288C126.851 231.621 126.79 229.955 126.747 228.288C126.73 228.047 126.738 227.796 126.738 227.408Z" fill="#5374AB"/>
<path d="M91.5317 151.563C88.8354 148.523 85.828 145.803 82.7429 143.178C82.2416 142.747 81.7317 142.315 81.2651 141.849C79.554 140.148 79.2688 137.16 80.6083 135.166C80.8675 134.777 81.1787 134.449 81.6021 134.233C82.1811 133.94 82.7515 133.905 83.3305 134.225C83.9095 134.544 84.4626 134.907 84.9811 135.321C87.5824 137.428 89.9589 139.759 92.2058 142.237C92.586 142.652 92.949 143.092 93.5885 143.455C93.4157 142.781 93.1046 142.35 92.7935 141.918C90.486 138.732 87.7811 135.926 84.8428 133.318C84.67 133.162 84.5145 132.998 84.3243 132.86C83.4774 132.247 83.3651 131.418 83.6157 130.477C83.8577 129.596 84.2638 128.819 85.0503 128.293C85.8799 127.731 86.7441 127.628 87.6515 128.094C88.3515 128.457 88.9391 128.949 89.5182 129.476C92.0589 131.781 94.2885 134.389 96.5354 136.97C97.0453 137.557 97.5811 138.119 98.1169 138.68C98.2552 138.827 98.3848 139.077 98.7305 138.965C98.67 138.619 98.4539 138.352 98.2811 138.075C96.0947 134.691 93.5194 131.626 90.6935 128.75C90.2095 128.258 89.7083 127.783 89.2243 127.291C88.6453 126.704 88.6021 126.212 89.0428 125.538C89.9675 124.114 91.4626 123.595 93.0959 124.131C94.0206 124.433 94.7725 125.003 95.4897 125.633C97.4342 127.326 99.007 129.337 100.485 131.436C102.395 134.147 103.89 137.091 105.342 140.061C105.938 141.279 105.86 142.367 105.039 143.446C103.898 144.94 102.913 146.52 102.291 148.299C101.556 150.423 101.202 152.59 101.712 154.826C101.798 155.215 101.876 155.603 102.144 155.923C102.464 155.802 102.317 155.578 102.308 155.405C102.248 153.79 102.343 152.193 102.654 150.595C103.034 148.61 103.942 146.857 105.082 145.216C105.298 144.905 105.514 144.603 105.739 144.31C106.577 143.204 107.035 141.97 107.226 140.597C107.493 138.689 107.718 136.78 108.245 134.915C108.574 133.741 109.023 132.627 109.879 131.729C110.121 131.479 110.371 131.246 110.682 131.082C111.659 130.555 112.687 130.926 113.076 131.971C113.301 132.567 113.413 133.188 113.456 133.827C113.569 135.468 113.508 137.1 113.37 138.74C113.258 140.087 113.145 141.434 113.223 142.79C113.275 143.645 113.526 144.422 113.94 145.156C114.251 145.708 114.545 146.261 114.848 146.822C115.513 148.048 115.677 149.378 115.6 150.751C115.461 153.289 114.735 155.664 113.698 157.961C113.595 158.194 113.491 158.436 113.387 158.669C113.361 158.72 113.361 158.781 113.344 158.833C113.534 159.04 113.707 158.755 113.923 158.79C113.863 160.335 112.903 161.44 112.091 162.675C112.532 162.753 112.808 162.537 113.085 162.364C113.75 161.958 114.39 161.501 114.83 160.845C115.202 160.292 115.435 160.396 115.816 160.853C116.326 161.449 116.533 162.157 116.533 162.925C116.542 164.73 116.014 166.405 115.124 167.933C112.921 171.689 109.792 174.271 105.454 175.204C103.414 175.644 101.392 175.402 99.3873 174.901C98.2984 174.634 97.2527 174.263 96.2589 173.736C94.9453 173.028 94.2626 171.974 94.3749 170.437C94.4268 169.773 94.5391 169.125 94.6255 168.469C94.6601 168.201 94.7984 168.132 95.049 168.201C95.2996 168.27 95.5502 168.331 95.8009 168.382C97.6502 168.754 99.3873 168.374 101.064 167.579C102.507 166.897 103.751 165.948 104.927 164.885C105.056 164.773 105.169 164.644 105.281 164.514C105.333 164.454 105.359 164.376 105.463 164.169C104.702 164.609 104.063 164.972 103.423 165.343C102.248 166.025 100.995 166.535 99.6638 166.811C98.0132 167.165 96.4576 166.802 94.9712 166.112C91.8515 164.67 89.449 162.416 87.6774 159.489C87.5132 159.221 87.3317 158.954 87.2021 158.669C86.1996 156.424 84.6354 154.602 82.8725 152.918C81.7663 151.865 80.7293 150.751 79.8651 149.482C79.2429 148.566 78.7848 147.591 78.612 146.485C78.5342 145.985 78.6034 145.501 78.7676 145.043C79.1392 144.025 80.0811 143.653 81.0663 144.12C81.8268 144.482 82.5095 144.966 83.1663 145.475C85.4391 147.237 87.7033 149.015 89.9675 150.785C90.3478 151.088 90.754 151.364 91.1428 151.649C91.2725 151.787 91.4021 151.986 91.6181 151.83C91.7218 151.761 91.6268 151.632 91.5317 151.563Z" fill="#F7CE49"/>
<path d="M196.384 173.658C196.263 169.747 196.859 165.922 197.939 162.174C198.898 158.824 200.074 155.56 201.889 152.564C203.219 150.362 204.835 148.385 206.797 146.701C207.817 145.829 207.903 145.838 208.793 146.831C209.995 148.161 210.902 149.706 211.853 151.209C216.07 157.857 220.227 164.54 224.565 171.111C225.075 171.879 225.498 172.7 225.974 173.485C226.354 174.116 226.319 174.729 226.017 175.376C225.533 176.404 224.876 177.302 224.116 178.131C221.903 180.514 219.311 182.405 216.502 184.019C212.613 186.247 208.465 187.819 204.049 188.665C202.917 188.881 201.768 188.967 200.618 188.907C200.359 188.898 200.108 188.838 199.849 188.803C199.14 188.708 198.717 188.319 198.561 187.611C198.259 186.239 197.913 184.874 197.645 183.493C197.006 180.238 196.461 176.974 196.384 173.658Z" fill="#F7CE49"/>
<path d="M205.977 211.546C206.296 212.159 206.608 212.764 206.927 213.377C208.293 215.976 208.673 218.687 207.973 221.562C207.472 223.634 206.979 225.698 205.977 227.598C205 229.445 203.54 230.784 201.561 231.509C200.42 231.923 199.262 232.001 198.104 231.569C197.888 231.492 197.577 231.423 197.508 231.259C197.222 230.602 196.713 230.801 196.255 230.896C194.025 231.345 192.271 230.456 190.732 228.953C190.24 228.47 190.266 228.452 190.732 227.908C191.121 227.451 191.527 227.002 191.89 226.518C192.098 226.251 192.348 225.992 192.348 225.586C192.08 225.474 191.925 225.689 191.761 225.793C190.81 226.389 189.894 227.036 188.883 227.52C187.327 228.262 185.78 228.306 184.259 227.416C182.471 226.371 181.909 224.567 182.816 222.676C183.274 221.718 183.81 220.802 184.311 219.861C185.357 217.91 186.411 215.967 187.647 214.128C187.69 214.059 187.734 213.981 187.656 213.843C187.224 213.877 186.913 214.171 186.619 214.473C186.031 215.069 185.547 215.751 185.089 216.45C184.32 217.633 183.637 218.868 182.92 220.068C182.427 220.889 182.298 220.897 181.684 220.206C180.276 218.635 179.852 216.874 180.725 214.87C181.295 213.558 182.142 212.435 183.05 211.365C184.553 209.569 186.29 208.032 188.269 206.763C190.879 205.088 193.705 204.682 196.704 205.226C197.153 205.312 197.603 205.398 198.061 205.485C198.104 205.493 198.156 205.45 198.337 205.381C197.222 204.423 195.935 204.112 194.613 203.861C194.621 203.766 194.595 203.671 194.63 203.602C195.364 202.074 196.134 200.554 197.214 199.233C197.776 198.543 198.501 198.137 199.4 197.835C201.483 197.127 203.376 197.636 205.208 198.482C208.837 200.149 211.611 202.808 213.815 206.098C214.913 207.738 215.759 209.482 216.088 211.451C216.554 214.249 215.88 216.632 213.582 218.445C212.45 219.334 211.266 220.12 209.762 220.543C209.892 219.291 209.762 218.134 209.434 217.003C208.803 214.845 207.809 212.902 206.115 211.365C206.046 211.253 205.968 211.089 205.838 211.235C205.752 211.339 205.873 211.468 205.977 211.546Z" fill="#F7CE49"/>
<path d="M196.911 118.484C197.577 118.484 198.233 118.493 198.899 118.493C199.314 118.458 199.763 118.631 200.143 118.337C205.423 117.223 209.606 114.288 213.201 110.419C215.223 108.243 216.701 105.731 217.479 102.838C217.894 101.301 218.023 99.7298 217.963 98.1411C217.954 97.9166 217.902 97.6921 217.98 97.4849C218.196 97.3985 218.335 97.528 218.481 97.5971C220.625 98.616 222.863 99.3154 225.205 99.6694C225.594 99.7298 225.758 99.8939 225.818 100.248C226.432 103.918 226.579 107.57 225.343 111.153C224.609 113.269 223.494 115.194 222.206 117.025C222.941 113.649 222.854 110.35 221.489 107.147C221.178 107.19 221.212 107.44 221.126 107.613C218.689 112.759 215.206 117.016 210.479 120.245C209.053 121.221 207.584 122.11 206.149 123.077C203.911 124.58 203.107 127.861 204.447 130.08C204.499 130.175 204.594 130.253 204.499 130.443C201.068 129.743 198.337 128.085 196.781 124.675C195.373 128.344 192.893 131.004 189.972 133.352C190.559 131.893 190.879 130.399 190.94 128.612C189.669 130.374 188.623 132.083 186.904 133.37C186.809 132.774 186.731 132.282 186.644 131.79C186.394 130.339 185.633 129.32 184.182 128.854C183.447 128.612 182.721 128.344 181.943 128.31C181.822 127.982 182.107 127.956 182.254 127.87C184.717 126.419 186.947 124.666 189.064 122.749C190.559 121.394 191.907 119.926 193.212 118.398C193.506 118.052 193.783 117.828 194.31 118.044C194.768 118.233 195.304 118.251 195.796 118.337C196.142 118.622 196.54 118.458 196.911 118.484Z" fill="#8964A0"/>
<path d="M159.189 284.93C159.465 285.647 159.517 286.338 159.526 287.02C159.578 289.956 159.655 292.883 159.396 295.81C159.31 296.734 158.912 297.373 158.109 297.796C156.726 298.53 155.231 298.961 153.718 299.298C149.251 300.291 144.886 301.604 140.565 303.106C140.107 303.261 139.641 303.391 139.088 303.564C138.543 299.531 136.521 296.414 133.375 294.014C133.444 293.729 133.678 293.72 133.842 293.643C134.844 293.142 135.83 292.606 136.737 291.942C137.722 291.216 137.722 291.234 138.751 291.959C139.381 292.408 140.03 292.84 140.669 293.28C140.755 293.34 140.851 293.427 141.058 293.297C140.202 292.382 139.191 291.708 138.12 291.035C139.027 290.163 140.021 289.498 141.049 288.859C141.343 288.678 141.646 288.514 141.939 288.324C142.735 287.814 142.735 287.806 143.452 288.358C145.742 290.102 148.144 291.683 150.495 293.332C150.581 293.392 150.676 293.479 150.841 293.401C150.849 293.168 150.676 293.012 150.53 292.857C149.89 292.157 149.155 291.544 148.386 290.992C147.876 290.621 147.358 290.249 146.839 289.887C144.999 288.6 143.253 287.21 141.594 285.69C139.079 283.385 136.011 282.236 132.658 281.787C132.321 281.744 131.975 281.744 131.612 281.554C132.278 280.725 132.995 280.009 133.989 279.62C136.106 278.8 138.172 278.878 140.254 279.802C142.372 280.743 144.316 281.977 146.312 283.126C147.997 284.093 149.7 285.051 151.584 285.535C154.004 286.157 156.423 286.01 158.774 285.077C158.886 285.034 158.999 285 159.189 284.93Z" fill="#95509E"/>
<path d="M120.024 192.896C119.315 193.509 118.554 194.035 117.725 194.476C115.15 195.849 112.764 195.529 110.492 193.776C108.4 192.153 106.741 190.141 105.289 187.948C103.371 185.038 101.262 180.298 100.527 177.285C101.59 177.354 102.636 177.483 103.699 177.431C106.957 177.267 109.748 176.015 112.194 173.9C113.784 172.518 115.167 170.947 116.394 169.246C116.429 169.522 116.282 169.816 116.498 170.075C118.416 173.062 120.335 176.041 122.487 178.856C122.608 179.011 122.711 179.184 122.824 179.348C122.711 179.642 122.599 179.935 122.608 180.263C122.633 182.198 122.279 184.08 121.882 185.954C121.432 188.06 120.836 190.115 119.756 192.006C119.6 192.274 119.41 192.542 119.479 192.887C119.462 192.896 119.436 192.896 119.419 192.904C119.41 192.913 119.41 192.939 119.401 192.948C119.427 192.922 119.453 192.896 119.471 192.878C119.669 192.887 119.842 192.896 120.024 192.896Z" fill="#FBD5BA"/>
<path d="M205.112 196.712C206.305 194.89 207.333 193.025 208.837 191.497C209.096 191.229 209.139 191.057 208.941 190.772C208.785 190.538 208.543 190.348 208.526 190.003C209.848 189.554 211.179 189.105 212.475 188.578C215.12 187.508 217.652 186.221 220.002 184.598C221.083 183.847 222.102 183.018 223.062 182.111C223.494 181.705 223.52 181.705 223.762 182.223C224.505 183.812 225.309 185.384 225.818 187.067C226.294 188.622 226.683 190.202 226.804 191.825C227.002 194.415 226.372 196.816 225.015 199.035C224.358 200.114 223.623 201.15 222.82 202.126C221.057 204.293 219.06 206.245 216.917 208.135C214.307 202.998 210.444 199.173 205.112 196.712Z" fill="#FBD5BA"/>
<path d="M201.604 309.046C197.102 308.995 192.755 308.209 188.632 306.327C188.105 306.085 187.604 305.809 187.129 305.489C185.927 304.703 185.599 303.909 185.858 302.484C186.083 301.275 186.576 300.188 187.284 299.195C187.941 298.279 188.641 297.407 189.523 296.699C189.825 296.457 190.058 296.388 190.447 296.578C192.902 297.822 195.581 298.202 198.268 298.512C201.319 298.866 204.352 298.746 207.368 298.184C209.088 297.865 210.799 297.468 212.398 296.691C212.925 296.432 212.977 296.466 213.297 296.967C214.247 298.469 214.852 300.101 215.155 301.845C215.293 302.605 215.362 303.382 215.492 304.142C215.664 305.161 215.293 305.826 214.377 306.309C213.176 306.94 211.931 307.458 210.635 307.838C207.679 308.71 204.663 309.055 201.604 309.046Z" fill="#95509E"/>
<path d="M182.065 130.097C183.344 130.184 184.243 130.684 184.692 131.885C184.986 132.67 185.159 133.482 185.288 134.302C185.513 135.675 184.856 136.737 183.992 137.678C182.566 139.224 180.985 140.571 179.17 141.667C173.846 144.862 168.151 147.168 162.24 148.964C160.745 149.421 159.198 149.577 157.634 149.231C157.357 149.171 157.064 149.11 156.813 148.981C153.823 147.453 151.636 145.19 150.478 142.013C149.796 140.139 150.055 138.274 150.712 136.444C150.893 135.951 151.204 135.537 151.585 135.183C151.783 135.002 151.999 134.907 152.276 134.898C153.08 134.863 153.106 134.846 153.261 135.666C153.564 137.272 154.48 138.421 155.862 139.241C157.323 140.105 159.276 140.536 161.073 140.579C165.101 140.683 168.955 139.82 172.706 138.438C174.814 137.661 176.793 136.642 178.608 135.304C179.472 134.665 180.189 133.888 180.907 133.102C181.659 132.282 182.056 131.272 182.065 130.097Z" fill="#F7CE49"/>
<path d="M111.745 301.845C111.866 301.889 111.961 301.897 112.022 301.94C114.666 303.857 117.725 304.755 120.871 305.394C124.725 306.18 128.631 306.335 132.555 305.938C135.951 305.601 139.218 304.695 142.441 303.624C144.973 302.778 147.497 301.906 150.124 301.379C151.412 301.12 152.691 300.87 153.978 300.628C156.009 300.239 158.04 299.877 160.019 298.858C159.958 300.101 159.95 301.258 159.837 302.415C159.76 303.175 159.25 303.693 158.584 304.073C157.781 304.522 156.908 304.798 156.035 305.04C153.624 305.696 151.187 306.266 148.767 306.914C145.881 307.682 143.038 308.589 140.142 309.323C135.104 310.592 130.014 311.093 124.829 310.592C121.554 310.273 118.356 309.59 115.297 308.347C114.605 308.071 113.931 307.743 113.309 307.32C112.315 306.655 111.762 305.74 111.676 304.531C111.607 303.633 111.633 302.752 111.745 301.845Z" fill="#F7CE49"/>
<path d="M153.279 163.219C153.011 163.081 152.959 162.865 152.864 162.701C150.461 158.496 148.767 154.023 147.886 149.266C147.402 146.658 147.151 144.025 147.471 141.365C147.653 139.88 147.99 138.481 149.346 137.471C149.286 137.903 149.243 138.283 149.165 138.663C148.733 140.873 149.251 142.911 150.444 144.759C152.198 147.47 154.635 149.257 157.902 149.663C160.037 149.931 162.145 149.68 164.228 149.145C168.903 147.936 173.328 146.123 177.562 143.826C177.735 143.731 177.882 143.584 178.176 143.619C170.416 150.889 161.67 156.821 153.279 163.219Z" fill="#F7CE49"/>
<path d="M128.683 305.144C125.183 305.204 121.752 304.721 118.399 303.71C116.8 303.227 115.271 302.588 113.853 301.673C112.911 301.068 112.583 300.308 112.851 299.186C113.136 297.977 113.464 296.803 114.087 295.715C114.294 295.344 114.562 295.205 114.985 295.214C117.059 295.24 119.125 295.162 121.19 295.093C124.353 294.981 127.499 294.679 130.61 294.092C131.621 293.902 132.39 294.126 133.142 294.757C135.216 296.483 136.858 298.512 137.748 301.086C137.982 301.768 138.103 302.476 138.172 303.192C138.232 303.892 138.224 303.892 137.567 304.082C136.15 304.479 134.706 304.703 133.254 304.919C131.725 305.127 130.204 305.144 128.683 305.144Z" fill="#95509E"/>
<path d="M132.114 144.698C131.907 145.337 131.734 145.847 131.578 146.356C130.705 149.309 130.101 152.322 129.539 155.344C128.908 158.729 128.268 162.122 127.715 165.524C127.11 169.272 126.601 173.028 126.047 176.775C125.892 177.846 125.719 178.908 125.538 180.056C123.429 177.768 121.778 175.29 120.102 172.812C118.961 171.128 118.373 169.263 117.889 167.338C117.855 167.2 117.803 167.044 117.838 166.915C118.166 165.464 118.296 163.962 119.073 162.641C121.199 159.023 123.273 155.37 125.693 151.934C127.422 149.482 129.28 147.15 131.544 145.164C131.691 145.044 131.846 144.914 132.114 144.698Z" fill="#F7CE49"/>
<path d="M184.821 302.976C183.628 302.061 182.358 301.224 181.018 300.507C180.681 300.326 180.569 300.041 180.551 299.652C180.422 296.492 180.439 293.332 180.776 290.18C180.828 289.697 180.897 289.213 180.992 288.73C181.165 287.901 181.476 287.149 182.072 286.519C183.55 284.948 185.114 283.454 186.704 282.012C188.113 280.734 189.885 280.086 191.717 279.62C194.966 278.8 198.198 278.8 201.43 279.698C203.53 280.285 205.302 281.416 206.814 282.979C207.29 283.471 207.549 284.007 207.143 284.723C206.503 284.412 205.898 284.05 205.224 283.825C203.133 283.143 200.99 283.039 198.829 283.178C196.167 283.35 193.592 283.894 191.172 285.051C190.498 285.379 189.867 285.768 189.262 286.217C188.329 286.908 187.888 287.84 187.94 288.971C187.975 289.74 187.966 290.534 188.243 291.268C188.416 291.726 188.364 292.071 188.001 292.425C187.551 292.874 187.24 293.427 186.938 293.988C186.869 294.117 186.817 294.238 186.877 294.446C187.5 294.005 187.828 293.323 188.502 292.9C188.83 293.694 189.055 294.489 189.47 295.205C189.6 295.439 189.349 295.551 189.211 295.68C188.58 296.276 188.001 296.906 187.439 297.563C186.169 299.031 185.348 300.714 184.959 302.614C184.942 302.7 184.924 302.778 184.898 302.864C184.907 302.907 184.881 302.925 184.821 302.976Z" fill="#95509E"/>
<path d="M216.347 306.56C216.347 307.622 216.329 308.684 216.355 309.746C216.381 310.963 215.811 311.827 214.843 312.474C213.763 313.208 212.553 313.675 211.308 314.029C208.128 314.935 204.879 315.246 201.586 315.186C197.991 315.117 194.5 314.504 191.147 313.182C189.548 312.552 188.001 311.827 186.739 310.601C186.186 310.057 185.797 309.435 185.711 308.667C185.59 307.674 185.486 306.681 185.625 305.619C189.021 308.01 192.823 309.038 196.79 309.582C201.871 310.273 206.884 309.962 211.81 308.52C213.279 308.088 214.67 307.475 215.941 306.62C216.027 306.56 216.113 306.473 216.347 306.56Z" fill="#F7CE49"/>
<path d="M150.712 228.021C150.85 225.404 150.971 222.961 151.101 220.526C151.127 219.965 151.144 219.939 151.714 220.008C153.002 220.172 154.29 220.267 155.577 220.362C158.161 220.552 160.745 220.699 163.329 220.69C164.072 220.69 164.09 220.699 164.046 221.45C163.891 224.55 163.718 227.649 163.571 230.749C163.554 231.138 163.407 231.224 163.053 231.233C161.35 231.233 159.665 231.095 157.971 230.974C155.88 230.827 153.788 230.637 151.714 230.352C151.542 230.326 151.369 230.317 151.196 230.3C150.867 230.257 150.686 230.11 150.703 229.739C150.729 229.109 150.712 228.478 150.712 228.021Z" fill="#95509E"/>
<path d="M195.451 180.721C194.051 178.183 193.101 175.713 192.695 173.036C192.228 169.988 192.444 166.966 192.945 163.944C193.723 159.273 195.08 154.775 197.042 150.457C198.277 147.729 199.755 145.13 201.544 142.721C201.812 142.367 202.028 142.237 202.46 142.462C203.281 142.876 204.119 143.256 204.906 143.731C205.467 144.068 206.021 144.43 206.643 144.828C205.537 145.682 204.621 146.632 203.774 147.634C201.579 150.224 199.911 153.134 198.64 156.268C197.085 160.093 196.074 164.065 195.538 168.158C195.071 171.758 195.002 175.376 195.339 179.003C195.382 179.512 195.572 180.004 195.451 180.721Z" fill="#95509E"/>
<path d="M215.595 100.257C215.621 100.334 215.681 100.429 215.655 100.498C214.964 102.95 213.987 105.239 212.164 107.112C210.133 109.21 207.808 110.825 205.017 111.732C202.9 112.414 200.757 112.621 198.631 111.758C198.095 111.542 197.447 111.395 197.36 110.635C198.579 109.418 199.806 108.217 200.826 106.819C202.597 104.384 203.712 101.75 203.548 98.6764C203.548 98.6332 203.591 98.5901 203.626 98.521C207.307 101.31 211.239 102.277 215.595 100.257Z" fill="#F2946A"/>
<path d="M206.167 279.637C205.502 279.327 205.485 278.886 205.657 278.273C206.202 276.296 206.47 274.284 206.193 272.221C206.003 270.779 205.502 269.509 204.473 268.456C203.687 267.644 202.857 266.902 201.967 266.22C201.155 265.598 200.628 264.89 200.55 263.793C200.412 261.764 200.153 259.735 199.945 257.706C199.738 255.677 199.522 253.656 199.314 251.627C199.176 250.229 199.046 248.83 198.934 247.422C198.709 244.763 198.485 242.103 198.286 239.435C198.156 237.691 198.07 235.938 197.94 234.194C197.914 233.806 198.078 233.728 198.39 233.806C198.899 233.927 199.409 233.97 199.928 233.935C200.23 233.918 200.317 234.056 200.343 234.341C200.429 235.429 200.533 236.517 200.636 237.596C200.999 241.542 201.336 245.488 201.743 249.434C202.157 253.432 202.641 257.421 203.082 261.419C203.151 262.04 203.367 262.576 203.756 263.059C204.612 264.104 205.415 265.192 206.306 266.211C208.138 268.3 208.509 270.77 208.224 273.395C208.008 275.381 207.403 277.263 206.573 279.076C206.504 279.232 206.418 279.387 206.323 279.525C206.306 279.577 206.236 279.594 206.167 279.637Z" fill="#5374AB"/>
<path d="M154.695 134.907C163.821 134.751 172.498 132.834 180.759 128.897C180.976 130.365 180.613 131.574 179.679 132.618C178.789 133.611 177.787 134.466 176.655 135.166C173.561 137.083 170.164 138.196 166.604 138.861C164.392 139.276 162.162 139.492 159.906 139.232C158.489 139.068 157.158 138.723 156.035 137.782C155.145 137.031 154.756 136.064 154.695 134.907Z" fill="#F2946A"/>
<path d="M175.401 220.181C175.401 220.863 175.436 221.553 175.392 222.236C175.228 224.826 175.306 227.408 175.254 229.998C175.237 230.905 175.246 230.93 174.399 230.991C171.322 231.198 168.246 231.31 165.169 231.267C164.495 231.259 164.495 231.241 164.512 230.594C164.607 227.572 164.901 224.567 164.944 221.545C164.944 221.398 164.988 221.26 164.996 221.113C165.013 220.794 165.152 220.664 165.489 220.673C166.154 220.69 166.811 220.681 167.476 220.664C169.81 220.612 172.134 220.483 174.442 220.181C174.744 220.146 175.055 220.068 175.401 220.181Z" fill="#95509E"/>
<path d="M149.605 230.007C149 230.127 148.413 229.92 147.825 229.834C145.068 229.428 142.32 228.97 139.615 228.323C138.82 228.133 138.829 228.124 138.82 227.304C138.794 224.86 139.045 222.426 139.278 219.999C139.313 219.602 139.33 219.196 139.365 218.799C139.417 218.246 139.451 218.221 139.996 218.316C141.24 218.531 142.484 218.773 143.729 218.963C145.717 219.265 147.704 219.533 149.7 219.801C150.029 219.844 150.202 219.87 150.167 220.301C149.891 223.28 149.752 226.259 149.709 229.247C149.7 229.489 149.761 229.756 149.605 230.007Z" fill="#95509E"/>
<path d="M137.809 227.908C134.871 227.166 132.01 226.423 129.253 225.344C128.804 225.171 128.761 224.886 128.761 224.481C128.795 222.028 129.098 219.611 129.418 217.184C129.469 216.787 129.262 216.226 129.703 216.01C130.048 215.846 130.472 216.157 130.852 216.261C133.246 216.882 135.631 217.521 138.068 217.918C138.474 217.988 138.587 218.091 138.526 218.514C138.362 219.792 138.198 221.079 138.094 222.365C137.956 224.058 137.869 225.75 137.835 227.442C137.843 227.554 137.826 227.667 137.809 227.908Z" fill="#95509E"/>
<path d="M212.579 295.862C206.115 298.935 194.647 298.253 190.741 295.844C191.208 295.283 191.804 294.912 192.426 294.575C195.702 292.814 199.21 292.14 202.9 292.287C205.631 292.399 208.241 293.004 210.652 294.342C211.344 294.731 212.026 295.145 212.579 295.862Z" fill="#E55C9D"/>
<path d="M109.653 100.369C109.861 100.032 110.146 99.7557 110.431 99.4794C110.837 99.0822 111.287 98.7973 111.883 98.8664C113.05 99.5312 114.156 100.317 115.4 100.844C115.668 100.956 115.694 101.154 115.703 101.396C115.746 102.545 115.798 103.693 115.841 104.841C115.953 108.002 116.091 111.153 116.394 114.296C116.437 114.762 116.627 115.211 116.472 115.704C115.089 113.39 114.19 110.886 113.49 108.278C112.6 110.877 112.047 113.519 112.108 116.273C112.004 116.248 111.926 116.248 111.917 116.222C110.984 113.908 110.103 111.568 109.705 109.09C109.299 106.56 109.109 104.021 109.429 101.457C109.472 101.077 109.662 100.749 109.653 100.369Z" fill="#8964A0"/>
<path d="M191.934 101.016C191.286 101.457 190.525 101.457 189.791 101.578C187.258 101.983 184.709 101.966 182.16 101.949C180.639 101.94 179.135 101.733 177.623 101.629C175.618 101.5 173.699 101.068 171.772 100.559C170.052 100.101 168.419 99.4363 166.794 98.7369C166.578 98.6419 166.388 98.3743 166.094 98.5729C164.988 96.8201 164.089 94.9723 163.372 93.0295C162.698 91.199 162.093 89.3513 161.592 87.4603C161.635 87.3653 161.678 87.2704 161.799 87.2617C164.21 91.3199 167.244 94.8082 171.236 97.3899C174.131 99.255 177.294 100.412 180.699 100.896C181.84 101.06 182.972 101.137 184.113 101.06C184.242 100.74 183.992 100.671 183.845 100.567C183.119 100.049 182.376 99.5658 181.658 99.0305C180.155 97.9166 178.841 96.5869 177.588 95.1968C177.683 95.1968 177.77 95.1882 177.865 95.1882C181.123 97.6835 184.7 99.4968 188.702 100.455C189.782 100.714 190.871 100.801 191.934 101.016Z" fill="#F2946A"/>
<path d="M139.313 100.87C139.356 101.111 139.391 101.345 139.054 101.388C138.855 101.414 138.656 101.414 138.449 101.414C136.522 101.422 134.594 101.465 132.667 101.414C129.513 101.336 126.454 100.662 123.464 99.6781C123.04 99.5399 122.798 99.1427 122.383 99.0132H122.409C122.409 98.8664 122.401 98.7196 122.236 98.6592C121.467 97.2345 121.052 95.6803 120.612 94.1434C119.946 91.8293 119.592 89.4462 119.255 87.0458C121.407 90.8968 123.939 94.411 127.724 96.846C129.444 97.9512 131.276 98.8146 133.272 99.4018C132.581 98.0807 131.518 96.9927 130.861 95.568C131.103 95.5853 131.189 95.7321 131.284 95.8357C133.41 98.1152 136.012 99.6435 138.915 100.688C139.054 100.749 139.183 100.818 139.313 100.87Z" fill="#F2946A"/>
<path d="M208.828 289.23C207.774 288.764 206.875 288.427 205.959 288.125C203.894 287.452 201.785 287.348 199.659 287.521C197.127 287.719 194.673 288.289 192.305 289.222C191.311 289.61 190.369 290.094 189.444 290.621C189.038 290.854 188.961 290.81 188.917 290.336C188.874 289.852 188.883 289.36 188.84 288.876C188.762 287.978 189.168 287.348 189.859 286.83C190.931 286.027 192.141 285.492 193.403 285.094C196.341 284.188 199.331 283.756 202.407 284.188C203.116 284.291 203.816 284.447 204.49 284.689C205.717 285.129 206.728 285.837 207.42 286.968C207.852 287.676 208.293 288.376 208.828 289.23Z" fill="#F7CE49"/>
<path d="M159.051 160.499C159.301 160.447 159.344 160.594 159.405 160.724C160.088 162.278 160.857 163.789 161.678 165.265C161.868 165.611 161.756 165.766 161.479 165.965C158.912 167.752 156.337 169.531 153.615 171.094C153.563 171.12 153.511 171.146 153.459 171.171C153.027 171.335 152.621 171.802 152.12 171.396C151.584 170.956 151.117 170.481 151.195 169.66C151.342 168.106 151.86 166.699 152.69 165.404C152.897 165.084 153.165 164.825 153.468 164.601C155.196 163.323 156.925 162.036 158.662 160.758C158.8 160.646 158.947 160.56 159.051 160.499Z" fill="#95509E"/>
<path d="M210.955 293.168C207.723 291.674 204.361 291.07 200.852 291.277C197.318 291.493 194.016 292.468 191.009 294.368C190.188 294.886 190.153 294.903 189.834 294.014C189.091 291.916 188.961 291.933 191 290.897C195.209 288.764 199.66 287.866 204.369 288.678C205.536 288.876 206.651 289.248 207.757 289.662C209.434 290.292 210.298 291.622 210.955 293.168Z" fill="#F7CE49"/>
<path d="M185.729 229.402C182.704 230.102 179.749 230.482 176.785 230.827C176.188 230.896 176.136 230.87 176.162 230.248C176.292 227.01 176.275 223.764 176.327 220.517C176.335 220.103 176.456 219.861 176.897 219.835C177.588 219.792 178.254 219.593 178.919 219.421C179.274 219.326 179.429 219.421 179.593 219.714C180.008 220.44 180.527 221.087 181.14 221.666C181.348 221.856 181.46 222.037 181.33 222.331C180.155 225.05 182.376 228.824 185.409 229.29C185.487 229.29 185.556 229.333 185.729 229.402Z" fill="#95509E"/>
<path d="M179.653 151.882C178.72 150.216 177.752 148.687 176.559 147.323C176.36 147.09 176.412 146.917 176.611 146.736C176.784 146.58 176.939 146.408 177.104 146.261C178.996 144.595 180.898 142.919 182.799 141.253C183.265 140.839 183.309 140.813 183.715 141.236C184.856 142.41 186.005 143.567 187.068 144.819C187.293 145.078 187.18 145.208 186.999 145.38C186.065 146.235 185.158 147.107 184.216 147.953C182.885 149.136 181.537 150.302 180.198 151.476C180.042 151.597 179.878 151.709 179.653 151.882Z" fill="#95509E"/>
<path d="M172.23 157.917C171.202 156.199 170.208 154.524 169.067 152.918C171.297 151.027 173.639 149.326 175.886 147.358C176.491 148.29 177.07 149.162 177.632 150.051C178.064 150.734 178.461 151.424 178.893 152.106C179.04 152.34 179.04 152.504 178.807 152.685C176.69 154.36 174.676 156.147 172.524 157.779C172.455 157.823 172.377 157.848 172.23 157.917Z" fill="#95509E"/>
<path d="M129.461 134.345C130.878 133.62 131.984 132.808 132.883 131.746C133.116 131.47 133.315 131.479 133.626 131.574C136.945 132.61 140.333 133.352 143.763 133.94C145.405 134.216 147.047 134.466 148.715 134.57C149.052 134.587 149.398 134.613 149.778 134.751C149.45 135.278 148.983 135.615 148.542 135.951C146.512 137.514 144.187 137.972 141.707 137.626C140.454 137.445 139.555 136.59 138.803 135.615C138.215 134.855 137.844 133.991 137.584 133.016C135.035 134.207 132.408 134.613 129.461 134.345Z" fill="#8964A0"/>
<path d="M114.761 294.523C115.124 293.945 115.521 293.53 115.919 293.133C117.077 292.002 118.382 291.07 119.834 290.353C120.283 290.128 120.732 290.025 121.242 290.042C123.342 290.12 125.295 290.802 127.231 291.501C128.285 291.881 129.305 292.347 130.247 292.96C130.368 293.038 130.506 293.081 130.515 293.263C128.692 293.919 118.243 294.765 114.761 294.523Z" fill="#E55C9D"/>
<path d="M124.068 213.61C125.425 214.404 126.842 214.965 128.277 215.458C128.649 215.587 128.709 215.768 128.64 216.088C128.251 217.884 128.078 219.714 127.879 221.545C127.767 222.546 127.81 223.557 127.741 224.55C127.517 224.731 127.352 224.541 127.188 224.463C126.117 223.962 125.079 223.41 124.146 222.676C123.55 222.201 123.247 221.657 123.256 220.845C123.265 218.626 123.472 216.433 123.818 214.24C123.844 214.05 123.878 213.852 124.068 213.61Z" fill="#95509E"/>
<path d="M187.933 144.534C186.628 143.075 185.357 141.676 183.914 140.433C183.923 140.156 184.165 140.061 184.32 139.906C185.297 138.93 186.273 137.955 187.034 136.798C187.267 136.444 187.475 136.461 187.812 136.608C189.704 137.428 191.605 138.222 193.61 139.077C191.839 141.02 189.868 142.712 187.933 144.534Z" fill="#95509E"/>
<path d="M162.507 165.283C161.66 163.616 160.882 162.088 160.105 160.551C159.802 159.964 159.802 159.955 160.286 159.584C161.824 158.427 163.363 157.279 164.884 156.147C165.186 156.251 165.238 156.501 165.342 156.683C166.154 158.073 166.949 159.472 167.761 160.862C167.908 161.112 167.995 161.285 167.692 161.501C165.972 162.744 164.261 163.996 162.507 165.283Z" fill="#95509E"/>
<path d="M150.08 159.618C148.464 160.361 146.917 161.052 145.491 162.079C145.059 161.432 144.791 160.741 144.48 160.076C143.849 158.746 143.365 157.365 142.873 155.992C142.769 155.69 142.717 155.448 143.089 155.301C144.627 154.671 146.165 154.032 147.764 153.376C148.412 155.5 149.164 157.538 150.08 159.618Z" fill="#95509E"/>
<path d="M121.795 289.196C123.8 287.745 125.969 286.994 128.458 287.65C130.929 288.307 133.22 289.325 135.207 290.957C135.423 291.13 135.683 291.277 135.829 291.622C134.957 292.313 133.963 292.805 132.9 293.168C132.52 293.297 132.243 293.03 131.958 292.857C129.832 291.588 127.62 290.508 125.217 289.861C124.612 289.697 123.999 289.576 123.394 289.438C122.901 289.092 122.322 289.308 121.795 289.196Z" fill="#F7CE49"/>
<path d="M152.751 102.001C152.837 102.303 152.898 102.596 152.423 102.562C150.34 102.432 148.274 102.139 146.261 101.543C145.137 101.206 144.074 100.688 143.003 100.213C142.623 100.041 142.458 99.6089 142.052 99.4967C141.024 97.9943 140.281 96.3278 139.511 94.6873C138.881 93.349 138.353 91.9588 137.774 90.5859C137.818 90.4996 137.844 90.4046 137.965 90.4046C140.186 93.4957 142.726 96.2674 145.794 98.5555C147.911 100.127 150.184 101.344 152.751 102.001Z" fill="#F2946A"/>
<path d="M141.084 148.178C141.179 145.829 141.507 143.636 142.398 141.555C142.579 141.132 142.899 140.864 143.279 140.649C144.256 140.105 145.327 139.777 146.382 139.328C146.563 139.923 146.304 140.415 146.252 140.908C146.079 142.626 146.096 144.344 146.261 146.062C146.338 146.917 146.304 146.796 145.586 146.926C144.091 147.202 142.648 147.677 141.084 148.178Z" fill="#95509E"/>
<path d="M142.433 154.809C142.208 154.084 141.992 153.445 141.819 152.789C141.534 151.709 141.344 150.604 141.171 149.507C141.102 149.058 141.249 148.869 141.637 148.765C143.072 148.368 144.507 147.971 145.933 147.547C146.382 147.418 146.503 147.617 146.555 147.979C146.779 149.594 147.212 151.174 147.6 152.832C145.837 153.315 144.135 153.946 142.433 154.809Z" fill="#95509E"/>
<path d="M150.314 160.266C150.962 161.458 151.533 162.658 152.319 163.72C152.544 164.022 152.354 164.186 152.207 164.393C151.36 165.576 150.72 166.854 150.366 168.262C150.279 168.616 150.21 168.97 150.107 169.462C148.309 167.32 146.857 165.11 145.699 162.606C147.246 161.82 148.767 161.052 150.314 160.266Z" fill="#95509E"/>
<path d="M120.024 192.896C119.843 192.896 119.661 192.887 119.488 192.887L119.497 192.896C119.436 192.55 119.627 192.283 119.773 192.015C120.845 190.124 121.45 188.069 121.899 185.962C122.297 184.089 122.651 182.198 122.625 180.272C122.617 179.944 122.729 179.651 122.841 179.357C123.533 180.091 124.198 180.842 124.915 181.541C125.175 181.8 125.244 182.06 125.183 182.388C124.794 184.65 124.44 186.921 123.775 189.122C123.714 189.312 123.645 189.52 123.524 189.666C122.53 190.858 121.51 192.024 120.171 192.853C120.076 192.766 120.041 192.835 120.015 192.913L120.024 192.896Z" fill="#F2946A"/>
<path d="M126.444 286.407C127.939 284.706 129.746 284.663 131.612 285.077C134.136 285.638 136.434 286.718 138.431 288.393C139.183 289.023 139.174 289.049 138.439 289.645C137.973 290.025 137.471 290.362 137.013 290.75C136.702 291.018 136.512 290.931 136.227 290.672C134.11 288.738 131.63 287.478 128.873 286.726C128.104 286.519 127.317 286.424 126.444 286.407Z" fill="#F7CE49"/>
<path d="M207.921 89.4721C209.122 90.56 210.22 91.6135 211.378 92.6064C212.821 93.8411 214.316 95.0154 215.915 96.0343C216.494 96.4056 216.753 96.8632 216.71 97.5281C216.701 97.7612 216.718 97.9857 216.718 98.2188C216.718 99.1254 216.684 99.1513 215.811 99.065C215.102 98.9959 214.497 98.6764 213.901 98.3138C212.216 97.2949 210.954 95.8443 209.917 94.1952C209.027 92.7618 208.344 91.2163 207.921 89.4721Z" fill="#F2946A"/>
<path d="M142.086 287.374C141.922 287.486 141.792 287.598 141.645 287.685C141.153 287.978 140.678 288.445 140.159 288.514C139.589 288.591 139.295 287.875 138.837 287.547C136.002 285.474 132.908 284.084 129.253 283.713C129.858 283.169 130.359 282.651 131.154 282.608C131.932 282.565 132.701 282.651 133.47 282.806C136.374 283.385 139.001 284.533 141.257 286.476C141.473 286.666 141.671 286.873 141.87 287.08C141.957 287.158 142.008 287.262 142.086 287.374Z" fill="#F7CE49"/>
<path d="M165.429 155.759C166.371 154.895 167.365 154.222 168.315 153.488C168.548 153.307 168.73 153.212 168.92 153.574C169.672 155.059 170.527 156.484 171.418 157.892C171.677 158.297 171.616 158.522 171.236 158.79C170.372 159.403 169.542 160.067 168.618 160.767C167.555 159.066 166.569 157.373 165.429 155.759Z" fill="#95509E"/>
<path d="M161.073 101.431C160.909 101.802 160.572 101.768 160.269 101.75C159.362 101.698 158.463 101.569 157.564 101.414C156.45 101.215 155.326 101.042 154.289 100.533C152.768 98.1928 151.576 95.6716 150.392 93.1503C150.435 93.064 150.478 92.9863 150.582 92.969C153.434 96.5955 156.994 99.3326 161.073 101.431Z" fill="#F2946A"/>
<path d="M104.235 99.16C105.367 99.9025 106.474 100.559 107.718 100.947C106.698 103.279 103.328 105.809 98.9551 105.463C101.634 104.073 103.095 101.793 104.235 99.16Z" fill="#8964A0"/>
<path d="M179.774 301.353C181.347 302.173 182.894 302.864 184.199 303.961C184.406 304.133 184.545 304.297 184.519 304.608C184.441 305.351 184.406 306.093 184.354 306.914C183.801 306.646 183.266 306.378 182.738 306.128C181.961 305.765 181.174 305.42 180.396 305.049C179.852 304.79 179.601 304.349 179.653 303.728C179.714 302.976 179.731 302.208 179.774 301.353Z" fill="#F7CE49"/>
<path d="M204.482 190.832C205.251 190.659 206.02 190.487 206.807 190.305C206.789 191.117 205.208 194.174 203.946 195.883C203.704 195.641 203.523 195.443 203.488 195.02C203.419 193.992 203.454 192.956 203.419 191.929C203.384 191.108 203.41 191.108 204.266 190.953C204.335 190.936 204.404 190.867 204.482 190.832Z" fill="#F2946A"/>
<path d="M92.5771 89.6879C92.8796 89.9211 93.1734 90.111 93.4759 89.6966C93.8475 90.6982 93.9858 91.7775 94.392 92.7877C93.6228 91.8465 93.0179 90.819 92.5771 89.6879Z" fill="#DCC3E9"/>
<path d="M204.482 190.832C204.404 190.875 204.335 190.936 204.257 190.953C203.401 191.108 203.384 191.108 203.41 191.929C203.445 192.956 203.41 193.984 203.479 195.02C203.505 195.451 203.695 195.641 203.937 195.883C203.799 196.082 203.643 196.246 203.384 196.151C203.108 196.056 203.125 195.814 203.142 195.581C203.272 194.182 203.255 192.783 203.185 191.393C203.159 190.936 203.332 190.849 203.704 190.849C203.963 190.858 204.222 190.841 204.482 190.832Z" fill="#DCC3E9"/>
<path d="M116.507 170.075C116.29 169.824 116.437 169.522 116.403 169.246C116.481 169.082 116.524 168.892 116.705 168.806C116.844 168.771 116.982 168.736 117.129 168.702C117.224 169.021 117.345 169.341 117.423 169.669C117.535 170.17 117.414 170.273 116.913 170.152C116.783 170.127 116.645 170.101 116.507 170.075Z" fill="#F7CE49"/>
<path d="M123.818 79.9741C123.585 79.4302 123.524 78.8603 123.507 78.0832C123.982 78.7567 124.008 79.3697 124.138 79.9569C124.025 79.9223 123.922 79.9051 123.818 79.9741Z" fill="#5374AB"/>
<path d="M131.396 42.5093C131.414 42.1466 131.492 41.8099 131.846 41.5422C132.036 41.9308 131.863 42.2244 131.742 42.5179C131.63 42.4489 131.517 42.4661 131.396 42.5093Z" fill="#95509E"/>
<path d="M121.795 289.196C122.322 289.308 122.901 289.092 123.394 289.438C122.858 289.351 122.305 289.438 121.795 289.196Z" fill="#95509E"/>
<path d="M161.817 87.2703C161.696 87.2789 161.652 87.3739 161.609 87.4689C161.436 87.2098 161.393 86.9076 161.307 86.545C161.644 86.7263 161.721 87.0026 161.817 87.2703Z" fill="#95509E"/>
<path d="M234.34 85.034C234.469 85.0081 234.634 85.0254 234.711 84.8699C234.936 84.9476 235.092 85.0944 235.256 85.3707C234.902 85.2671 234.59 85.2498 234.34 85.034Z" fill="#95509E"/>
<path d="M150.59 92.9691C150.486 92.9864 150.435 93.0641 150.4 93.1504C150.218 92.9518 150.175 92.7101 150.089 92.3992C150.357 92.5806 150.495 92.7619 150.59 92.9691Z" fill="#95509E"/>
<path d="M200.143 118.328C199.754 118.631 199.313 118.449 198.898 118.484C199.296 118.337 199.719 118.32 200.143 118.328Z" fill="#5374AB"/>
<path d="M94.755 85.5175L94.6772 85.5348L94.6081 85.5003C94.4093 85.3276 94.4266 85.129 94.539 84.9045C94.7291 85.0858 94.7809 85.2844 94.755 85.5175Z" fill="#5374AB"/>
<path d="M137.973 90.4046C137.852 90.4132 137.826 90.5082 137.783 90.5859C137.688 90.3528 137.593 90.1196 137.438 89.7656C137.809 89.9469 137.887 90.1801 137.973 90.4046Z" fill="#95509E"/>
<path d="M196.911 118.484C196.539 118.458 196.151 118.622 195.813 118.337C196.185 118.32 196.557 118.329 196.911 118.484Z" fill="#5374AB"/>
<path d="M91.5316 151.562C91.6267 151.632 91.7217 151.77 91.6267 151.839C91.4106 151.994 91.281 151.796 91.1514 151.657C91.281 151.623 91.4106 151.588 91.5316 151.562Z" fill="#5374AB"/>
<path d="M117.129 168.711C116.99 168.745 116.852 168.78 116.705 168.814C116.714 168.762 116.705 168.693 116.731 168.65C116.8 168.529 116.904 168.305 116.947 168.322C117.146 168.348 117.094 168.564 117.129 168.711Z" fill="#DCC3E9"/>
<path d="M177.882 95.1881C177.787 95.1881 177.701 95.1967 177.606 95.1967C177.468 95.1104 177.347 95.024 177.338 94.8514L177.355 94.8427C177.606 94.8341 177.753 95.0068 177.882 95.1881Z" fill="#95509E"/>
<path d="M130.403 97.3726C130.403 97.2776 130.403 97.1827 130.403 97.0963C130.472 97.1481 130.55 97.1913 130.593 97.2517C130.637 97.3122 130.68 97.459 130.663 97.4676C130.55 97.5453 130.455 97.4849 130.403 97.3726Z" fill="#5374AB"/>
<path d="M122.236 98.6592C122.409 98.7283 122.409 98.8664 122.409 99.0132C122.245 98.9527 122.254 98.7973 122.236 98.6592Z" fill="#DCC3E9"/>
<path d="M205.311 83.7733C205.293 83.7474 205.276 83.7128 205.259 83.6869C205.259 83.6783 205.285 83.661 205.302 83.6524C205.345 83.6869 205.345 83.7301 205.311 83.7733Z" fill="#95509E"/>
<path d="M159.38 75.7174C159.397 75.7433 159.423 75.7692 159.431 75.8038C159.431 75.8124 159.405 75.8296 159.397 75.8383C159.345 75.8037 159.345 75.7692 159.38 75.7174Z" fill="#95509E"/>
<path d="M168.359 71.4088C168.376 71.4347 168.393 71.4606 168.411 71.4952C168.411 71.4952 168.385 71.5124 168.368 71.5297C168.324 71.4865 168.324 71.452 168.359 71.4088Z" fill="#95509E"/>
<path d="M114.623 67.2125C114.606 67.1779 114.58 67.152 114.571 67.1175C114.571 67.1089 114.597 67.0916 114.614 67.0829C114.658 67.1175 114.666 67.1607 114.623 67.2125Z" fill="#95509E"/>
<path d="M131.621 43.0532C131.63 43.0878 131.639 43.1309 131.639 43.1655C131.639 43.1827 131.613 43.1914 131.595 43.2086C131.587 43.1741 131.578 43.1309 131.578 43.0964C131.578 43.0878 131.604 43.0705 131.621 43.0532Z" fill="#95509E"/>
<path d="M131.345 42.751C131.293 42.6733 131.319 42.6128 131.388 42.5696C131.44 42.6387 131.423 42.6992 131.345 42.751Z" fill="#95509E"/>
<path d="M189.609 120.245C189.67 120.185 189.73 120.116 189.791 120.055C189.774 120.159 189.704 120.211 189.609 120.245Z" fill="#FBFCFD"/>
<path d="M120.007 192.904C120.033 192.827 120.067 192.758 120.162 192.844C120.119 192.87 120.067 192.896 120.007 192.904Z" fill="#DCC3E9"/>
<path d="M189.773 120.064C189.843 120.004 189.903 119.943 189.972 119.883C189.938 119.986 189.877 120.047 189.773 120.064Z" fill="#FBFCFD"/>
<path d="M193.602 104.185C193.61 104.22 193.627 104.246 193.636 104.28C193.636 104.289 193.61 104.297 193.593 104.306C193.55 104.263 193.55 104.228 193.602 104.185Z" fill="#95509E"/>
<path d="M205.493 85.1462L205.441 85.0944L205.485 85.034C205.528 85.0685 205.528 85.1031 205.493 85.1462Z" fill="#95509E"/>
<path d="M177.337 94.8514C177.293 94.8255 177.25 94.7909 177.207 94.765C177.319 94.6614 177.328 94.7564 177.345 94.8341L177.337 94.8514Z" fill="#95509E"/>
<path d="M176.464 191.808C173.802 188.224 170.959 184.874 168.22 181.429C168.73 180.877 169.196 180.333 169.689 179.814C172.005 177.414 174.321 175.022 176.646 172.639C177.13 172.138 177.13 172.156 177.596 172.665C179.376 174.651 181.165 176.637 182.954 178.623C183.801 179.564 184.622 180.523 185.495 181.438C185.78 181.74 185.789 181.913 185.495 182.206C184.484 183.234 183.499 184.27 182.514 185.315C180.5 187.439 178.486 189.571 176.464 191.808Z" fill="#CF92DE"/>
<path d="M119.488 192.887C119.462 192.913 119.436 192.939 119.419 192.956C119.419 192.939 119.419 192.913 119.436 192.913C119.445 192.896 119.471 192.896 119.488 192.887Z" fill="#F7CE49"/>
</g>
<defs>
<filter id="filter0_d_169_8041" x="-2" y="0" width="324" height="324" filterUnits="userSpaceOnUse" color-interpolation-filters="sRGB">
<feFlood flood-opacity="0" result="BackgroundImageFix"/>
<feColorMatrix in="SourceAlpha" type="matrix" values="0 0 0 0 0 0 0 0 0 0 0 0 0 0 0 0 0 0 127 0" result="hardAlpha"/>
<feOffset dy="2"/>
<feGaussianBlur stdDeviation="1"/>
<feComposite in2="hardAlpha" operator="out"/>
<feColorMatrix type="matrix" values="0 0 0 0 0 0 0 0 0 0 0 0 0 0 0 0 0 0 0.04 0"/>
<feBlend mode="normal" in2="BackgroundImageFix" result="effect1_dropShadow_169_8041"/>
<feBlend mode="normal" in="SourceGraphic" in2="effect1_dropShadow_169_8041" result="shape"/>
</filter>
</defs>
</svg>
